#Cube_454_93.obj

v -0.4999963 -0.4999993 0.4999917
v -0.4999963 0.4999993 0.4999917
v 0.500008 0.4999993 0.4999867
v 0.500008 -0.4999993 0.4999867
v -0.4999963 0.4999993 0.4999917
v -0.4999997 0.4999993 -0.499998
v 0.5000046 0.4999993 -0.500003
v 0.500008 0.4999993 0.4999867
v -0.4999997 0.4999993 -0.499998
v -0.4999997 -0.4999993 -0.499998
v 0.5000046 -0.4999993 -0.500003
v 0.5000046 0.4999993 -0.500003
v -0.4999997 -0.4999993 -0.499998
v -0.4999963 -0.4999993 0.4999917
v 0.500008 -0.4999993 0.4999867
v 0.5000046 -0.4999993 -0.500003
v 0.500008 -0.4999993 0.4999867
v 0.500008 0.4999993 0.4999867
v 0.5000046 0.4999993 -0.500003
v 0.5000046 -0.4999993 -0.500003
v -0.4999997 -0.4999993 -0.499998
v -0.4999997 0.4999993 -0.499998
v -0.4999963 0.4999993 0.4999917
v -0.4999963 -0.4999993 0.4999917

vn -0.9765625 0 0.2144775
vn -0.9765625 0 0.2144775
vn -0.9765625 0 0.2144775
vn -0.9765625 0 0.2144775
vn 0 1 0
vn 0 1 0
vn 0 1 0
vn 0 1 0
vn 0.9765625 0 -0.2144775
vn 0.9765625 0 -0.2144775
vn 0.9765625 0 -0.2144775
vn 0.9765625 0 -0.2144775
vn 0 -1 0
vn 0 -1 0
vn 0 -1 0
vn 0 -1 0
vn 0.2144775 0 0.9765625
vn 0.2144775 0 0.9765625
vn 0.2144775 0 0.9765625
vn 0.2144775 0 0.9765625
vn -0.2144775 0 -0.9765625
vn -0.2144775 0 -0.9765625
vn -0.2144775 0 -0.9765625
vn -0.2144775 0 -0.9765625

vt 0 0
vt 0 1
vt 1 1
vt 1 0
vt 0 0
vt 0 1
vt 1 1
vt 1 0
vt 0 0
vt 0 1
vt 1 1
vt 1 0
vt 0 0
vt 0 1
vt 1 1
vt 1 0
vt 0 0
vt 0 1
vt 1 1
vt 1 0
vt 0 0
vt 0 1
vt 1 1
vt 1 0

g Cube_454_93
usemtl Cube_454_93
usemap Cube_454_93
f 1/1/1 3/3/3 2/2/2
f 1/1/1 4/4/4 3/3/3
f 5/5/5 7/7/7 6/6/6
f 5/5/5 8/8/8 7/7/7
f 9/9/9 11/11/11 10/10/10
f 9/9/9 12/12/12 11/11/11
f 13/13/13 15/15/15 14/14/14
f 13/13/13 16/16/16 15/15/15
f 17/17/17 19/19/19 18/18/18
f 17/17/17 20/20/20 19/19/19
f 21/21/21 23/23/23 22/22/22
f 21/21/21 24/24/24 23/23/23
