#Cube_485_99.obj

v -0.5000114 -0.4999993 0.5000046
v -0.5000114 0.4999993 0.5000046
v 0.4999923 0.4999993 0.5000032
v 0.4999923 -0.4999993 0.5000032
v -0.5000114 0.4999993 0.5000046
v -0.5000031 0.4999993 -0.499999
v 0.5000007 0.4999993 -0.5000004
v 0.4999923 0.4999993 0.5000032
v -0.5000031 0.4999993 -0.499999
v -0.5000031 -0.4999993 -0.499999
v 0.5000007 -0.4999993 -0.5000004
v 0.5000007 0.4999993 -0.5000004
v -0.5000031 -0.4999993 -0.499999
v -0.5000114 -0.4999993 0.5000046
v 0.4999923 -0.4999993 0.5000032
v 0.5000007 -0.4999993 -0.5000004
v 0.4999923 -0.4999993 0.5000032
v 0.4999923 0.4999993 0.5000032
v 0.5000007 0.4999993 -0.5000004
v 0.5000007 -0.4999993 -0.5000004
v -0.5000031 -0.4999993 -0.499999
v -0.5000031 0.4999993 -0.499999
v -0.5000114 0.4999993 0.5000046
v -0.5000114 -0.4999993 0.5000046

vn -0.5585938 0 0.8291016
vn -0.5585938 0 0.8291016
vn -0.5585938 0 0.8291016
vn -0.5585938 0 0.8291016
vn 0 1 0
vn 0 1 0
vn 0 1 0
vn 0 1 0
vn 0.5585938 0 -0.8291016
vn 0.5585938 0 -0.8291016
vn 0.5585938 0 -0.8291016
vn 0.5585938 0 -0.8291016
vn 0 -1 0
vn 0 -1 0
vn 0 -1 0
vn 0 -1 0
vn 0.8291016 0 0.5585938
vn 0.8291016 0 0.5585938
vn 0.8291016 0 0.5585938
vn 0.8291016 0 0.5585938
vn -0.8291016 0 -0.5585938
vn -0.8291016 0 -0.5585938
vn -0.8291016 0 -0.5585938
vn -0.8291016 0 -0.5585938

vt 0 0
vt 0 1
vt 1 1
vt 1 0
vt 0 0
vt 0 1
vt 1 1
vt 1 0
vt 0 0
vt 0 1
vt 1 1
vt 1 0
vt 0 0
vt 0 1
vt 1 1
vt 1 0
vt 0 0
vt 0 1
vt 1 1
vt 1 0
vt 0 0
vt 0 1
vt 1 1
vt 1 0

g Cube_485_99
usemtl Cube_485_99
usemap Cube_485_99
f 1/1/1 3/3/3 2/2/2
f 1/1/1 4/4/4 3/3/3
f 5/5/5 7/7/7 6/6/6
f 5/5/5 8/8/8 7/7/7
f 9/9/9 11/11/11 10/10/10
f 9/9/9 12/12/12 11/11/11
f 13/13/13 15/15/15 14/14/14
f 13/13/13 16/16/16 15/15/15
f 17/17/17 19/19/19 18/18/18
f 17/17/17 20/20/20 19/19/19
f 21/21/21 23/23/23 22/22/22
f 21/21/21 24/24/24 23/23/23
