#Cube_541_35.obj

v -0.5000001 -0.5000001 0.4999981
v -0.5000027 0.5000001 0.4999985
v 0.4999954 0.5 0.5000002
v 0.499998 -0.5 0.4999998
v -0.5000027 0.5000001 0.4999985
v -0.5000011 0.5000001 -0.5000021
v 0.4999971 0.5000002 -0.5000004
v 0.4999954 0.5 0.5000002
v -0.5000011 0.5000001 -0.5000021
v -0.4999985 -0.4999998 -0.5000025
v 0.4999997 -0.4999999 -0.5000008
v 0.4999971 0.5000002 -0.5000004
v -0.4999985 -0.4999998 -0.5000025
v -0.5000001 -0.5000001 0.4999981
v 0.499998 -0.5 0.4999998
v 0.4999997 -0.4999999 -0.5000008
v 0.499998 -0.5 0.4999998
v 0.4999954 0.5 0.5000002
v 0.4999971 0.5000002 -0.5000004
v 0.4999997 -0.4999999 -0.5000008
v -0.4999985 -0.4999998 -0.5000025
v -0.5000011 0.5000001 -0.5000021
v -0.5000027 0.5000001 0.4999985
v -0.5000001 -0.5000001 0.4999981

vn 0.9985352 0.009109497 0.0473938
vn 0.9985352 0.009109497 0.0473938
vn 0.9985352 0.009109497 0.0473938
vn 0.9985352 0.009109497 0.0473938
vn -0.008979797 0.9995117 -0.003000259
vn -0.008979797 0.9995117 -0.003000259
vn -0.008979797 0.9995117 -0.003000259
vn -0.008979797 0.9995117 -0.003000259
vn -0.9985352 -0.009109497 -0.0473938
vn -0.9985352 -0.009109497 -0.0473938
vn -0.9985352 -0.009109497 -0.0473938
vn -0.9985352 -0.009109497 -0.0473938
vn 0.008979797 -0.9995117 0.003000259
vn 0.008979797 -0.9995117 0.003000259
vn 0.008979797 -0.9995117 0.003000259
vn 0.008979797 -0.9995117 0.003000259
vn 0.0473938 -0.002571106 -0.9985352
vn 0.0473938 -0.002571106 -0.9985352
vn 0.0473938 -0.002571106 -0.9985352
vn 0.0473938 -0.002571106 -0.9985352
vn -0.0473938 0.002571106 0.9985352
vn -0.0473938 0.002571106 0.9985352
vn -0.0473938 0.002571106 0.9985352
vn -0.0473938 0.002571106 0.9985352

vt 0 0
vt 0 1
vt 1 1
vt 1 0
vt 0 0
vt 0 1
vt 1 1
vt 1 0
vt 0 0
vt 0 1
vt 1 1
vt 1 0
vt 0 0
vt 0 1
vt 1 1
vt 1 0
vt 0 0
vt 0 1
vt 1 1
vt 1 0
vt 0 0
vt 0 1
vt 1 1
vt 1 0

g Cube_541_35
usemtl Cube_541_35
usemap Cube_541_35
f 1/1/1 3/3/3 2/2/2
f 1/1/1 4/4/4 3/3/3
f 5/5/5 7/7/7 6/6/6
f 5/5/5 8/8/8 7/7/7
f 9/9/9 11/11/11 10/10/10
f 9/9/9 12/12/12 11/11/11
f 13/13/13 15/15/15 14/14/14
f 13/13/13 16/16/16 15/15/15
f 17/17/17 19/19/19 18/18/18
f 17/17/17 20/20/20 19/19/19
f 21/21/21 23/23/23 22/22/22
f 21/21/21 24/24/24 23/23/23
