#Cube_419_45.obj

v -0.4999934 -0.5000001 0.5000051
v -0.4999947 0.5 0.5000029
v 0.500003 0.5000001 0.5000015
v 0.500006 -0.5000001 0.5000032
v -0.4999947 0.5 0.5000029
v -0.4999987 0.4999999 -0.5000015
v 0.5000007 0.4999999 -0.5000035
v 0.500003 0.5000001 0.5000015
v -0.4999987 0.4999999 -0.5000015
v -0.4999957 -0.5000002 -0.4999999
v 0.500002 -0.5000002 -0.5000013
v 0.5000007 0.4999999 -0.5000035
v -0.4999957 -0.5000002 -0.4999999
v -0.4999934 -0.5000001 0.5000051
v 0.500006 -0.5000001 0.5000032
v 0.500002 -0.5000002 -0.5000013
v 0.500006 -0.5000001 0.5000032
v 0.500003 0.5000001 0.5000015
v 0.5000007 0.4999999 -0.5000035
v 0.500002 -0.5000002 -0.5000013
v -0.4999957 -0.5000002 -0.4999999
v -0.4999987 0.4999999 -0.5000015
v -0.4999947 0.5 0.5000029
v -0.4999934 -0.5000001 0.5000051

vn 0.8808594 0.009109497 0.4726563
vn 0.8808594 0.009109497 0.4726563
vn 0.8808594 0.009109497 0.4726563
vn 0.8808594 0.009109497 0.4726563
vn -0.006813049 0.9995117 -0.006572723
vn -0.006813049 0.9995117 -0.006572723
vn -0.006813049 0.9995117 -0.006572723
vn -0.006813049 0.9995117 -0.006572723
vn -0.8808594 -0.009109497 -0.4726563
vn -0.8808594 -0.009109497 -0.4726563
vn -0.8808594 -0.009109497 -0.4726563
vn -0.8808594 -0.009109497 -0.4726563
vn 0.006813049 -0.9995117 0.006572723
vn 0.006813049 -0.9995117 0.006572723
vn 0.006813049 -0.9995117 0.006572723
vn 0.006813049 -0.9995117 0.006572723
vn 0.4726563 -0.002571106 -0.8808594
vn 0.4726563 -0.002571106 -0.8808594
vn 0.4726563 -0.002571106 -0.8808594
vn 0.4726563 -0.002571106 -0.8808594
vn -0.4726563 0.002571106 0.8808594
vn -0.4726563 0.002571106 0.8808594
vn -0.4726563 0.002571106 0.8808594
vn -0.4726563 0.002571106 0.8808594

vt 0 0
vt 0 1
vt 1 1
vt 1 0
vt 0 0
vt 0 1
vt 1 1
vt 1 0
vt 0 0
vt 0 1
vt 1 1
vt 1 0
vt 0 0
vt 0 1
vt 1 1
vt 1 0
vt 0 0
vt 0 1
vt 1 1
vt 1 0
vt 0 0
vt 0 1
vt 1 1
vt 1 0

g Cube_419_45
usemtl Cube_419_45
usemap Cube_419_45
f 1/1/1 3/3/3 2/2/2
f 1/1/1 4/4/4 3/3/3
f 5/5/5 7/7/7 6/6/6
f 5/5/5 8/8/8 7/7/7
f 9/9/9 11/11/11 10/10/10
f 9/9/9 12/12/12 11/11/11
f 13/13/13 15/15/15 14/14/14
f 13/13/13 16/16/16 15/15/15
f 17/17/17 19/19/19 18/18/18
f 17/17/17 20/20/20 19/19/19
f 21/21/21 23/23/23 22/22/22
f 21/21/21 24/24/24 23/23/23
