#Cube_493_27.obj

v -0.5000045 -0.5000001 0.5000008
v -0.5000021 0.4999999 0.4999984
v 0.499996 0.5 0.5000005
v 0.4999981 -0.5 0.4999992
v -0.5000021 0.4999999 0.4999984
v -0.5000048 0.4999998 -0.4999996
v 0.4999978 0.4999999 -0.5000012
v 0.499996 0.5 0.5000005
v -0.5000048 0.4999998 -0.4999996
v -0.5000027 -0.5000001 -0.5000008
v 0.4999954 -0.5000002 -0.4999988
v 0.4999978 0.4999999 -0.5000012
v -0.5000027 -0.5000001 -0.5000008
v -0.5000045 -0.5000001 0.5000008
v 0.4999981 -0.5 0.4999992
v 0.4999954 -0.5000002 -0.4999988
v 0.4999981 -0.5 0.4999992
v 0.499996 0.5 0.5000005
v 0.4999978 0.4999999 -0.5000012
v 0.4999954 -0.5000002 -0.4999988
v -0.5000027 -0.5000001 -0.5000008
v -0.5000048 0.4999998 -0.4999996
v -0.5000021 0.4999999 0.4999984
v -0.5000045 -0.5000001 0.5000008

vn -0.8222656 0.009109497 0.5683594
vn -0.8222656 0.009109497 0.5683594
vn -0.8222656 0.009109497 0.5683594
vn -0.8222656 0.009109497 0.5683594
vn 0.008956909 0.9995117 -0.003061295
vn 0.008956909 0.9995117 -0.003061295
vn 0.008956909 0.9995117 -0.003061295
vn 0.008956909 0.9995117 -0.003061295
vn 0.8222656 -0.009109497 -0.5683594
vn 0.8222656 -0.009109497 -0.5683594
vn 0.8222656 -0.009109497 -0.5683594
vn 0.8222656 -0.009109497 -0.5683594
vn -0.008956909 -0.9995117 0.003061295
vn -0.008956909 -0.9995117 0.003061295
vn -0.008956909 -0.9995117 0.003061295
vn -0.008956909 -0.9995117 0.003061295
vn 0.5683594 -0.002571106 0.8227539
vn 0.5683594 -0.002571106 0.8227539
vn 0.5683594 -0.002571106 0.8227539
vn 0.5683594 -0.002571106 0.8227539
vn -0.5683594 0.002571106 -0.8227539
vn -0.5683594 0.002571106 -0.8227539
vn -0.5683594 0.002571106 -0.8227539
vn -0.5683594 0.002571106 -0.8227539

vt 0 0
vt 0 1
vt 1 1
vt 1 0
vt 0 0
vt 0 1
vt 1 1
vt 1 0
vt 0 0
vt 0 1
vt 1 1
vt 1 0
vt 0 0
vt 0 1
vt 1 1
vt 1 0
vt 0 0
vt 0 1
vt 1 1
vt 1 0
vt 0 0
vt 0 1
vt 1 1
vt 1 0

g Cube_493_27
usemtl Cube_493_27
usemap Cube_493_27
f 1/1/1 3/3/3 2/2/2
f 1/1/1 4/4/4 3/3/3
f 5/5/5 7/7/7 6/6/6
f 5/5/5 8/8/8 7/7/7
f 9/9/9 11/11/11 10/10/10
f 9/9/9 12/12/12 11/11/11
f 13/13/13 15/15/15 14/14/14
f 13/13/13 16/16/16 15/15/15
f 17/17/17 19/19/19 18/18/18
f 17/17/17 20/20/20 19/19/19
f 21/21/21 23/23/23 22/22/22
f 21/21/21 24/24/24 23/23/23
