#Cube_491_30.obj

v -0.5000032 -0.5000001 0.5000003
v -0.5000008 0.5000002 0.4999987
v 0.5000032 0.5 0.5000046
v 0.4999937 -0.4999999 0.4999978
v -0.5000008 0.5000002 0.4999987
v -0.4999944 0.4999996 -0.4999971
v 0.5000025 0.4999998 -0.4999996
v 0.5000032 0.5 0.5000046
v -0.4999944 0.4999996 -0.4999971
v -0.5000039 -0.5000002 -0.5000039
v 0.5000001 -0.5000002 -0.499998
v 0.5000025 0.4999998 -0.4999996
v -0.5000039 -0.5000002 -0.5000039
v -0.5000032 -0.5000001 0.5000003
v 0.4999937 -0.4999999 0.4999978
v 0.5000001 -0.5000002 -0.499998
v 0.4999937 -0.4999999 0.4999978
v 0.5000032 0.5 0.5000046
v 0.5000025 0.4999998 -0.4999996
v 0.5000001 -0.5000002 -0.499998
v -0.5000039 -0.5000002 -0.5000039
v -0.4999944 0.4999996 -0.4999971
v -0.5000008 0.5000002 0.4999987
v -0.5000032 -0.5000001 0.5000003

vn 0.7675781 0.009109497 0.6401367
vn 0.7675781 0.009109497 0.6401367
vn 0.7675781 0.009109497 0.6401367
vn 0.7675781 0.009109497 0.6401367
vn -0.005348206 0.9995117 -0.007808685
vn -0.005348206 0.9995117 -0.007808685
vn -0.005348206 0.9995117 -0.007808685
vn -0.005348206 0.9995117 -0.007808685
vn -0.7675781 -0.009109497 -0.6401367
vn -0.7675781 -0.009109497 -0.6401367
vn -0.7675781 -0.009109497 -0.6401367
vn -0.7675781 -0.009109497 -0.6401367
vn 0.005348206 -0.9995117 0.007808685
vn 0.005348206 -0.9995117 0.007808685
vn 0.005348206 -0.9995117 0.007808685
vn 0.005348206 -0.9995117 0.007808685
vn 0.6401367 -0.002571106 -0.7675781
vn 0.6401367 -0.002571106 -0.7675781
vn 0.6401367 -0.002571106 -0.7675781
vn 0.6401367 -0.002571106 -0.7675781
vn -0.6401367 0.002571106 0.7675781
vn -0.6401367 0.002571106 0.7675781
vn -0.6401367 0.002571106 0.7675781
vn -0.6401367 0.002571106 0.7675781

vt 0 0
vt 0 1
vt 1 1
vt 1 0
vt 0 0
vt 0 1
vt 1 1
vt 1 0
vt 0 0
vt 0 1
vt 1 1
vt 1 0
vt 0 0
vt 0 1
vt 1 1
vt 1 0
vt 0 0
vt 0 1
vt 1 1
vt 1 0
vt 0 0
vt 0 1
vt 1 1
vt 1 0

g Cube_491_30
usemtl Cube_491_30
usemap Cube_491_30
f 1/1/1 3/3/3 2/2/2
f 1/1/1 4/4/4 3/3/3
f 5/5/5 7/7/7 6/6/6
f 5/5/5 8/8/8 7/7/7
f 9/9/9 11/11/11 10/10/10
f 9/9/9 12/12/12 11/11/11
f 13/13/13 15/15/15 14/14/14
f 13/13/13 16/16/16 15/15/15
f 17/17/17 19/19/19 18/18/18
f 17/17/17 20/20/20 19/19/19
f 21/21/21 23/23/23 22/22/22
f 21/21/21 24/24/24 23/23/23
