#flag_pole_yellow_(4)_414_140.obj

v -0.1064345 -0.617656 -0.002890229
v 0.07473901 -0.4401236 -0.002843371
v 0.07473905 0.6176562 -0.00284338
v -0.1064344 0.6176562 -0.002890239
v -0.1064401 -0.617656 0.003944889
v -0.10644 0.6176562 0.003944879
v 0.07472207 0.6176562 0.003931776
v 0.07472202 -0.4401236 0.003931785
v 0.07473901 -0.4401236 -0.002843371
v 0.07472202 -0.4401236 0.003931785
v 0.07472207 0.6176562 0.003931776
v 0.07473905 0.6176562 -0.00284338

vn -0.9819336 1.192093E-07 -0.1866455
vn -0.9819336 1.192093E-07 -0.1866455
vn -0.9819336 1.192093E-07 -0.1866455
vn -0.9819336 1.192093E-07 -0.1866455
vn 0.9819336 -1.192093E-07 0.1866455
vn 0.9819336 -1.192093E-07 0.1866455
vn 0.9819336 -1.192093E-07 0.1866455
vn 0.9819336 -1.192093E-07 0.1866455
vn 0.1866455 0 -0.9819336
vn 0.1866455 0 -0.9819336
vn 0.1866455 0 -0.9819336
vn 0.1866455 0 -0.9819336

vt 0.0004992485 0.0004992485
vt 0.9990234 0.144043
vt 0.9990234 0.9990234
vt 0.0005011559 0.9990234
vt 0.0004992485 0.0004992485
vt 0.0005011559 0.9990234
vt 0.9990234 0.9990234
vt 0.9990234 0.144043
vt 0.9990234 0.144043
vt 0.9990234 0.144043
vt 0.9990234 0.9990234
vt 0.9990234 0.9990234

g flag_pole_yellow_(4)_414_140
usemtl flag_pole_yellow_(4)_414_140
usemap flag_pole_yellow_(4)_414_140
f 1/1/1 3/3/3 2/2/2
f 1/1/1 4/4/4 3/3/3
f 5/5/5 7/7/7 6/6/6
f 5/5/5 8/8/8 7/7/7
f 9/9/9 11/11/11 10/10/10
f 9/9/9 12/12/12 11/11/11
