#flag_pole_yellow_529_106.obj

v -0.1064453 -0.617656 -0.002868625
v 0.07476807 -0.4401236 -0.002868633
v 0.07476807 0.617656 -0.002868679
v -0.1064453 0.617656 -0.002868679
v -0.1064453 -0.617656 0.003967312
v -0.1064453 0.617656 0.003967258
v 0.07476807 0.617656 0.003967258
v 0.07476807 -0.4401236 0.003967304
v 0.07476807 -0.4401236 -0.002868633
v 0.07476807 -0.4401236 0.003967304
v 0.07476807 0.617656 0.003967258
v 0.07476807 0.617656 -0.002868679

vn 0 1.192093E-07 -1
vn 0 1.192093E-07 -1
vn 0 1.192093E-07 -1
vn 0 1.192093E-07 -1
vn 0 -1.192093E-07 1
vn 0 -1.192093E-07 1
vn 0 -1.192093E-07 1
vn 0 -1.192093E-07 1
vn 1 0 0
vn 1 0 0
vn 1 0 0
vn 1 0 0

vt 0.0004992485 0.0004992485
vt 0.9990234 0.144043
vt 0.9990234 0.9990234
vt 0.0005011559 0.9990234
vt 0.0004992485 0.0004992485
vt 0.0005011559 0.9990234
vt 0.9990234 0.9990234
vt 0.9990234 0.144043
vt 0.9990234 0.144043
vt 0.9990234 0.144043
vt 0.9990234 0.9990234
vt 0.9990234 0.9990234

g flag_pole_yellow_529_106
usemtl flag_pole_yellow_529_106
usemap flag_pole_yellow_529_106
f 1/1/1 3/3/3 2/2/2
f 1/1/1 4/4/4 3/3/3
f 5/5/5 7/7/7 6/6/6
f 5/5/5 8/8/8 7/7/7
f 9/9/9 11/11/11 10/10/10
f 9/9/9 12/12/12 11/11/11
