#flag_pole_yellow_(4)_492_132.obj

v -0.1064348 -0.6176562 -0.002835073
v 0.07474267 -0.4401238 -0.002846589
v 0.07474263 0.6176555 -0.002846619
v -0.1064349 0.6176555 -0.002835108
v -0.1064527 -0.6176562 0.003971623
v -0.1064528 0.6176555 0.003971589
v 0.07472473 0.6176555 0.003960078
v 0.07472476 -0.4401238 0.003960107
v 0.07474267 -0.4401238 -0.002846589
v 0.07472476 -0.4401238 0.003960107
v 0.07472473 0.6176555 0.003960078
v 0.07474263 0.6176555 -0.002846619

vn 0.769043 1.192093E-07 -0.6386719
vn 0.769043 1.192093E-07 -0.6386719
vn 0.769043 1.192093E-07 -0.6386719
vn 0.769043 1.192093E-07 -0.6386719
vn -0.769043 -1.192093E-07 0.6386719
vn -0.769043 -1.192093E-07 0.6386719
vn -0.769043 -1.192093E-07 0.6386719
vn -0.769043 -1.192093E-07 0.6386719
vn 0.6386719 0 0.769043
vn 0.6386719 0 0.769043
vn 0.6386719 0 0.769043
vn 0.6386719 0 0.769043

vt 0.0004992485 0.0004992485
vt 0.9990234 0.144043
vt 0.9990234 0.9990234
vt 0.0005011559 0.9990234
vt 0.0004992485 0.0004992485
vt 0.0005011559 0.9990234
vt 0.9990234 0.9990234
vt 0.9990234 0.144043
vt 0.9990234 0.144043
vt 0.9990234 0.144043
vt 0.9990234 0.9990234
vt 0.9990234 0.9990234

g flag_pole_yellow_(4)_492_132
usemtl flag_pole_yellow_(4)_492_132
usemap flag_pole_yellow_(4)_492_132
f 1/1/1 3/3/3 2/2/2
f 1/1/1 4/4/4 3/3/3
f 5/5/5 7/7/7 6/6/6
f 5/5/5 8/8/8 7/7/7
f 9/9/9 11/11/11 10/10/10
f 9/9/9 12/12/12 11/11/11
