#flag_pole_yellow_(8)_498_122.obj

v -0.1064438 -0.6176561 -0.002845121
v 0.0747574 -0.4401237 -0.002868215
v 0.07475739 0.6176559 -0.00286826
v -0.1064438 0.6176559 -0.002845174
v -0.1064139 -0.6176561 0.003948385
v -0.1064139 0.6176559 0.003948332
v 0.07472709 0.6176559 0.003934834
v 0.0747271 -0.4401237 0.003934879
v 0.0747574 -0.4401237 -0.002868215
v 0.0747271 -0.4401237 0.003934879
v 0.07472709 0.6176559 0.003934834
v 0.07475739 0.6176559 -0.00286826

vn 0.1569824 1.192093E-07 -0.9873047
vn 0.1569824 1.192093E-07 -0.9873047
vn 0.1569824 1.192093E-07 -0.9873047
vn 0.1569824 1.192093E-07 -0.9873047
vn -0.1569824 -1.192093E-07 0.9873047
vn -0.1569824 -1.192093E-07 0.9873047
vn -0.1569824 -1.192093E-07 0.9873047
vn -0.1569824 -1.192093E-07 0.9873047
vn 0.9873047 0 0.1569824
vn 0.9873047 0 0.1569824
vn 0.9873047 0 0.1569824
vn 0.9873047 0 0.1569824

vt 0.0004992485 0.0004992485
vt 0.9990234 0.144043
vt 0.9990234 0.9990234
vt 0.0005011559 0.9990234
vt 0.0004992485 0.0004992485
vt 0.0005011559 0.9990234
vt 0.9990234 0.9990234
vt 0.9990234 0.144043
vt 0.9990234 0.144043
vt 0.9990234 0.144043
vt 0.9990234 0.9990234
vt 0.9990234 0.9990234

g flag_pole_yellow_(8)_498_122
usemtl flag_pole_yellow_(8)_498_122
usemap flag_pole_yellow_(8)_498_122
f 1/1/1 3/3/3 2/2/2
f 1/1/1 4/4/4 3/3/3
f 5/5/5 7/7/7 6/6/6
f 5/5/5 8/8/8 7/7/7
f 9/9/9 11/11/11 10/10/10
f 9/9/9 12/12/12 11/11/11
