#flag_pole_red_(2)_373_14.obj

v -0.09039407 -2.587444 -1.52894E-05
v -0.09039407 -0.8154045 -1.536686E-05
v -0.1298019 -0.8154045 -0.05422511
v -0.1298019 -2.587444 -0.05422503
v -0.1391589 -0.763235 -0.02552303
v -0.120607 -0.763235 1.978781E-05
v -0.1391589 0.6586784 -0.02552309
v -0.120607 0.6586784 1.972565E-05
v -0.1298019 -2.587444 -0.05422503
v -0.1298019 -0.8154045 -0.05422511
v -0.1935637 -0.8154045 -0.033541
v -0.1935637 -2.587444 -0.03354092
v -0.1691752 -0.763235 -0.0157822
v -0.1391589 -0.763235 -0.02552303
v -0.1691752 0.6586784 -0.01578226
v -0.1391589 0.6586784 -0.02552309
v -0.1935637 -2.587444 -0.03354092
v -0.1935637 -0.8154045 -0.033541
v -0.193587 -0.8154045 0.03353733
v -0.193587 -2.587444 0.03353741
v -0.1691467 -0.763235 0.0157735
v -0.1691752 -0.763235 -0.0157822
v -0.1691467 0.6586784 0.01577343
v -0.1691752 0.6586784 -0.01578226
v -0.193587 -2.587444 0.03353741
v -0.193587 -0.8154045 0.03353733
v -0.1298448 -0.8154045 0.05423546
v -0.1298448 -2.587444 0.05423554
v -0.1391646 -0.763235 0.02550295
v -0.1691467 -0.763235 0.0157735
v -0.1391646 0.6586784 0.02550289
v -0.1691467 0.6586784 0.01577343
v -0.1298448 -2.587444 0.05423554
v -0.1298448 -0.8154045 0.05423546
v -0.09039407 -0.8154045 -1.536686E-05
v -0.09039407 -2.587444 -1.52894E-05
v -0.120607 -0.763235 1.978781E-05
v -0.1391646 -0.763235 0.02550295
v -0.120607 0.6586784 1.972565E-05
v -0.1391646 0.6586784 0.02550289
v -0.1691752 0.6586784 -0.01578226
v -0.1391589 0.6586784 -0.02552309
v -0.120607 0.6586784 1.972565E-05
v -0.1691467 0.6586784 0.01577343
v -0.1391646 0.6586784 0.02550289

vn 0.9995117 0 -0.004894257
vn 0.9711914 0.237793 -0.004753113
vn 0.2954102 0.237793 -0.9248047
vn 0.3041992 1.192093E-07 -0.9521484
vn 0.2912598 0.2875977 -0.9121094
vn 0.9575195 0.2875977 -0.004688263
vn 0.3041992 1.192093E-07 -0.9521484
vn 0.9995117 0 -0.004894257
vn 0.3041992 1.192093E-07 -0.9521484
vn 0.2954102 0.237793 -0.9248047
vn -0.7885742 0.237793 -0.5668945
vn -0.8115234 0 -0.5834961
vn -0.7773438 0.2875977 -0.559082
vn 0.2912598 0.2875977 -0.9121094
vn -0.8115234 0 -0.5834961
vn 0.3041992 1.192093E-07 -0.9521484
vn -0.8115234 0 -0.5834961
vn -0.7885742 0.237793 -0.5668945
vn -0.7827148 0.237793 0.574707
vn -0.8056641 0 0.5913086
vn -0.7719727 0.2875977 0.5664063
vn -0.7773438 0.2875977 -0.559082
vn -0.8056641 0 0.5913086
vn -0.8115234 0 -0.5834961
vn -0.8056641 0 0.5913086
vn -0.7827148 0.237793 0.574707
vn 0.3044434 0.237793 0.921875
vn 0.3134766 -1.192093E-07 0.9492188
vn 0.300293 0.2875977 0.9091797
vn -0.7719727 0.2875977 0.5664063
vn 0.3134766 -1.192093E-07 0.9492188
vn -0.8056641 0 0.5913086
vn 0.3134766 -1.192093E-07 0.9492188
vn 0.3044434 0.237793 0.921875
vn 0.9711914 0.237793 -0.004753113
vn 0.9995117 0 -0.004894257
vn 0.9575195 0.2875977 -0.004688263
vn 0.300293 0.2875977 0.9091797
vn 0.9995117 0 -0.004894257
vn 0.3134766 -1.192093E-07 0.9492188
vn 0 1 8.940697E-07
vn 0 1 8.940697E-07
vn 0 1 8.940697E-07
vn 0 1 8.940697E-07
vn 0 1 8.940697E-07

vt 0.75 0
vt 0.75 0.333252
vt 0.949707 0.333252
vt 0.949707 0
vt 0.949707 0.6665039
vt 0.75 0.6665039
vt 0.949707 0.9995117
vt 0.75 0.9995117
vt 0.949707 0
vt 0.949707 0.333252
vt 1.149414 0.333252
vt 1.149414 0
vt 1.149414 0.6665039
vt 0.949707 0.6665039
vt 1.149414 0.9995117
vt 0.949707 0.9995117
vt 0.1499023 0
vt 0.1499023 0.333252
vt 0.3498535 0.333252
vt 0.3498535 0
vt 0.3498535 0.6665039
vt 0.1499023 0.6665039
vt 0.3498535 0.9995117
vt 0.1499023 0.9995117
vt 0.3498535 0
vt 0.3498535 0.333252
vt 0.5498047 0.333252
vt 0.5498047 0
vt 0.5498047 0.6665039
vt 0.3498535 0.6665039
vt 0.5498047 0.9995117
vt 0.3498535 0.9995117
vt 0.5498047 0
vt 0.5498047 0.333252
vt 0.75 0.333252
vt 0.75 0
vt 0.75 0.6665039
vt 0.5498047 0.6665039
vt 0.75 0.9995117
vt 0.5498047 0.9995117
vt 0.2060547 0.09545898
vt 0.02445984 0.6542969
vt 0.4997559 1
vt 0.793457 0.09545898
vt 0.9750977 0.6542969

g flag_pole_red_(2)_373_14
usemtl flag_pole_red_(2)_373_14
usemap flag_pole_red_(2)_373_14
f 1/1/1 3/3/3 2/2/2
f 1/1/1 4/4/4 3/3/3
f 2/2/2 3/3/3 5/5/5
f 2/2/2 5/5/5 6/6/6
f 6/6/6 5/5/5 7/7/7
f 6/6/6 7/7/7 8/8/8
f 9/9/9 11/11/11 10/10/10
f 9/9/9 12/12/12 11/11/11
f 10/10/10 11/11/11 13/13/13
f 10/10/10 13/13/13 14/14/14
f 14/14/14 13/13/13 15/15/15
f 14/14/14 15/15/15 16/16/16
f 17/17/17 19/19/19 18/18/18
f 17/17/17 20/20/20 19/19/19
f 18/18/18 19/19/19 21/21/21
f 18/18/18 21/21/21 22/22/22
f 22/22/22 21/21/21 23/23/23
f 22/22/22 23/23/23 24/24/24
f 25/25/25 27/27/27 26/26/26
f 25/25/25 28/28/28 27/27/27
f 26/26/26 27/27/27 29/29/29
f 26/26/26 29/29/29 30/30/30
f 30/30/30 29/29/29 31/31/31
f 30/30/30 31/31/31 32/32/32
f 33/33/33 35/35/35 34/34/34
f 33/33/33 36/36/36 35/35/35
f 34/34/34 35/35/35 37/37/37
f 34/34/34 37/37/37 38/38/38
f 38/38/38 37/37/37 39/39/39
f 38/38/38 39/39/39 40/40/40
f 41/41/41 43/43/43 42/42/42
f 43/43/43 41/41/41 44/44/44
f 43/43/43 44/44/44 45/45/45
