#flag_pole_green_441_44.obj

v -0.09042358 -2.587444 1.131008E-07
v -0.09042358 -0.8154047 3.564247E-08
v -0.1298218 -0.8154047 -0.05426022
v -0.1298218 -2.587444 -0.05426014
v -0.1391602 -0.7632351 -0.02551266
v -0.1206055 -0.7632351 3.336207E-08
v -0.1391602 0.6586783 -0.02551272
v -0.1206055 0.6586783 -2.879174E-08
v -0.1298218 -2.587444 -0.05426014
v -0.1298218 -0.8154047 -0.05426022
v -0.193573 -0.8154047 -0.03350826
v -0.193573 -2.587444 -0.03350819
v -0.1691589 -0.7632351 -0.01574704
v -0.1391602 -0.7632351 -0.02551266
v -0.1691589 0.6586783 -0.0157471
v -0.1391602 0.6586783 -0.02551272
v -0.193573 -2.587444 -0.03350819
v -0.193573 -0.8154047 -0.03350826
v -0.193573 -0.8154047 0.03350834
v -0.193573 -2.587444 0.03350841
v -0.1691589 -0.7632351 0.0157471
v -0.1691589 -0.7632351 -0.01574704
v -0.1691589 0.6586783 0.01574704
v -0.1691589 0.6586783 -0.0157471
v -0.193573 -2.587444 0.03350841
v -0.193573 -0.8154047 0.03350834
v -0.1298218 -0.8154047 0.05426029
v -0.1298218 -2.587444 0.05426037
v -0.1391602 -0.7632351 0.02551273
v -0.1691589 -0.7632351 0.0157471
v -0.1391602 0.6586783 0.02551267
v -0.1691589 0.6586783 0.01574704
v -0.1298218 -2.587444 0.05426037
v -0.1298218 -0.8154047 0.05426029
v -0.09042358 -0.8154047 3.564247E-08
v -0.09042358 -2.587444 1.131008E-07
v -0.1206055 -0.7632351 3.336207E-08
v -0.1391602 -0.7632351 0.02551273
v -0.1206055 0.6586783 -2.879174E-08
v -0.1391602 0.6586783 0.02551267
v -0.1691589 0.6586783 -0.0157471
v -0.1391602 0.6586783 -0.02551272
v -0.1206055 0.6586783 -2.879174E-08
v -0.1691589 0.6586783 0.01574704
v -0.1391602 0.6586783 0.02551267

vn 1 0 0
vn 0.9711914 0.237793 -1.788139E-07
vn 0.3000488 0.237793 -0.9233398
vn 0.3088379 1.192093E-07 -0.9506836
vn 0.2958984 0.2875977 -0.9106445
vn 0.9575195 0.2875977 -3.576279E-07
vn 0.3088379 1.192093E-07 -0.9506836
vn 1 0 -1.788139E-07
vn 0.3088379 1.192093E-07 -0.9506836
vn 0.3000488 0.237793 -0.9233398
vn -0.7856445 0.237793 -0.5708008
vn -0.8085938 0 -0.5874023
vn -0.7744141 0.2875977 -0.5625
vn 0.2958984 0.2875977 -0.9106445
vn -0.8085938 0 -0.5874023
vn 0.3088379 1.192093E-07 -0.9506836
vn -0.8085938 0 -0.5874023
vn -0.7856445 0.237793 -0.5708008
vn -0.7856445 0.237793 0.5708008
vn -0.8085938 0 0.5874023
vn -0.7744141 0.2875977 0.5625
vn -0.7744141 0.2875977 -0.5625
vn -0.8085938 0 0.5874023
vn -0.8085938 0 -0.5874023
vn -0.8085938 0 0.5874023
vn -0.7856445 0.237793 0.5708008
vn 0.3000488 0.237793 0.9233398
vn 0.3088379 -1.192093E-07 0.9506836
vn 0.2958984 0.2875977 0.9106445
vn -0.7744141 0.2875977 0.5625
vn 0.3088379 -1.192093E-07 0.9506836
vn -0.8085938 0 0.5874023
vn 0.3088379 -1.192093E-07 0.9506836
vn 0.3000488 0.237793 0.9233398
vn 0.9711914 0.237793 -1.788139E-07
vn 1 0 0
vn 0.9575195 0.2875977 -3.576279E-07
vn 0.2958984 0.2875977 0.9106445
vn 1 0 -1.788139E-07
vn 0.3088379 -1.192093E-07 0.9506836
vn 0 1 8.940697E-07
vn 0 1 8.940697E-07
vn 0 1 8.940697E-07
vn 0 1 8.940697E-07
vn 0 1 8.940697E-07

vt 0.75 0
vt 0.75 0.333252
vt 0.949707 0.333252
vt 0.949707 0
vt 0.949707 0.6665039
vt 0.75 0.6665039
vt 0.949707 0.9995117
vt 0.75 0.9995117
vt 0.949707 0
vt 0.949707 0.333252
vt 1.149414 0.333252
vt 1.149414 0
vt 1.149414 0.6665039
vt 0.949707 0.6665039
vt 1.149414 0.9995117
vt 0.949707 0.9995117
vt 0.1499023 0
vt 0.1499023 0.333252
vt 0.3498535 0.333252
vt 0.3498535 0
vt 0.3498535 0.6665039
vt 0.1499023 0.6665039
vt 0.3498535 0.9995117
vt 0.1499023 0.9995117
vt 0.3498535 0
vt 0.3498535 0.333252
vt 0.5498047 0.333252
vt 0.5498047 0
vt 0.5498047 0.6665039
vt 0.3498535 0.6665039
vt 0.5498047 0.9995117
vt 0.3498535 0.9995117
vt 0.5498047 0
vt 0.5498047 0.333252
vt 0.75 0.333252
vt 0.75 0
vt 0.75 0.6665039
vt 0.5498047 0.6665039
vt 0.75 0.9995117
vt 0.5498047 0.9995117
vt 0.2060547 0.09545898
vt 0.02445984 0.6542969
vt 0.4997559 1
vt 0.793457 0.09545898
vt 0.9750977 0.6542969

g flag_pole_green_441_44
usemtl flag_pole_green_441_44
usemap flag_pole_green_441_44
f 1/1/1 3/3/3 2/2/2
f 1/1/1 4/4/4 3/3/3
f 2/2/2 3/3/3 5/5/5
f 2/2/2 5/5/5 6/6/6
f 6/6/6 5/5/5 7/7/7
f 6/6/6 7/7/7 8/8/8
f 9/9/9 11/11/11 10/10/10
f 9/9/9 12/12/12 11/11/11
f 10/10/10 11/11/11 13/13/13
f 10/10/10 13/13/13 14/14/14
f 14/14/14 13/13/13 15/15/15
f 14/14/14 15/15/15 16/16/16
f 17/17/17 19/19/19 18/18/18
f 17/17/17 20/20/20 19/19/19
f 18/18/18 19/19/19 21/21/21
f 18/18/18 21/21/21 22/22/22
f 22/22/22 21/21/21 23/23/23
f 22/22/22 23/23/23 24/24/24
f 25/25/25 27/27/27 26/26/26
f 25/25/25 28/28/28 27/27/27
f 26/26/26 27/27/27 29/29/29
f 26/26/26 29/29/29 30/30/30
f 30/30/30 29/29/29 31/31/31
f 30/30/30 31/31/31 32/32/32
f 33/33/33 35/35/35 34/34/34
f 33/33/33 36/36/36 35/35/35
f 34/34/34 35/35/35 37/37/37
f 34/34/34 37/37/37 38/38/38
f 38/38/38 37/37/37 39/39/39
f 38/38/38 39/39/39 40/40/40
f 41/41/41 43/43/43 42/42/42
f 43/43/43 41/41/41 44/44/44
f 43/43/43 44/44/44 45/45/45
