#flag_pole_green_(5)_425_69.obj

v -0.1064366 -0.6176561 -0.002882176
v 0.07472147 -0.4401237 -0.002869118
v 0.07472148 0.6176559 -0.002869163
v -0.1064365 0.6176559 -0.00288223
v -0.1064345 -0.6176561 0.003981226
v -0.1064344 0.6176559 0.003981173
v 0.07473332 0.6176559 0.003933988
v 0.07473332 -0.4401237 0.003934034
v 0.07472147 -0.4401237 -0.002869118
v 0.07473332 -0.4401237 0.003934034
v 0.07473332 0.6176559 0.003933988
v 0.07472148 0.6176559 -0.002869163

vn -0.159668 1.192093E-07 -0.9868164
vn -0.159668 1.192093E-07 -0.9868164
vn -0.159668 1.192093E-07 -0.9868164
vn -0.159668 1.192093E-07 -0.9868164
vn 0.159668 -1.192093E-07 0.9868164
vn 0.159668 -1.192093E-07 0.9868164
vn 0.159668 -1.192093E-07 0.9868164
vn 0.159668 -1.192093E-07 0.9868164
vn 0.9868164 0 -0.159668
vn 0.9868164 0 -0.159668
vn 0.9868164 0 -0.159668
vn 0.9868164 0 -0.159668

vt 0.0004992485 0.0004992485
vt 0.9990234 0.144043
vt 0.9990234 0.9990234
vt 0.0005011559 0.9990234
vt 0.0004992485 0.0004992485
vt 0.0005011559 0.9990234
vt 0.9990234 0.9990234
vt 0.9990234 0.144043
vt 0.9990234 0.144043
vt 0.9990234 0.144043
vt 0.9990234 0.9990234
vt 0.9990234 0.9990234

g flag_pole_green_(5)_425_69
usemtl flag_pole_green_(5)_425_69
usemap flag_pole_green_(5)_425_69
f 1/1/1 3/3/3 2/2/2
f 1/1/1 4/4/4 3/3/3
f 5/5/5 7/7/7 6/6/6
f 5/5/5 8/8/8 7/7/7
f 9/9/9 11/11/11 10/10/10
f 9/9/9 12/12/12 11/11/11
