#flag_pole_yellow_(3)_395_136.obj

v -0.1064413 -0.617656 -0.002834087
v 0.07475536 -0.4401233 -0.002882571
v 0.07475533 0.617656 -0.002882606
v -0.1064413 0.617656 -0.002834128
v -0.1064314 -0.617656 0.003964959
v -0.1064314 0.617656 0.003964918
v 0.07473844 0.617656 0.003979215
v 0.07473847 -0.4401233 0.00397925
v 0.07475536 -0.4401233 -0.002882571
v 0.07473847 -0.4401233 0.00397925
v 0.07473844 0.617656 0.003979215
v 0.07475533 0.617656 -0.002882606

vn 0.6469727 1.192093E-07 -0.7617188
vn 0.6469727 1.192093E-07 -0.7617188
vn 0.6469727 1.192093E-07 -0.7617188
vn 0.6469727 1.192093E-07 -0.7617188
vn -0.6469727 -1.192093E-07 0.7617188
vn -0.6469727 -1.192093E-07 0.7617188
vn -0.6469727 -1.192093E-07 0.7617188
vn -0.6469727 -1.192093E-07 0.7617188
vn 0.7617188 0 0.6469727
vn 0.7617188 0 0.6469727
vn 0.7617188 0 0.6469727
vn 0.7617188 0 0.6469727

vt 0.0004992485 0.0004992485
vt 0.9990234 0.144043
vt 0.9990234 0.9990234
vt 0.0005011559 0.9990234
vt 0.0004992485 0.0004992485
vt 0.0005011559 0.9990234
vt 0.9990234 0.9990234
vt 0.9990234 0.144043
vt 0.9990234 0.144043
vt 0.9990234 0.144043
vt 0.9990234 0.9990234
vt 0.9990234 0.9990234

g flag_pole_yellow_(3)_395_136
usemtl flag_pole_yellow_(3)_395_136
usemap flag_pole_yellow_(3)_395_136
f 1/1/1 3/3/3 2/2/2
f 1/1/1 4/4/4 3/3/3
f 5/5/5 7/7/7 6/6/6
f 5/5/5 8/8/8 7/7/7
f 9/9/9 11/11/11 10/10/10
f 9/9/9 12/12/12 11/11/11
