#flag_pole_green_(6)_502_35.obj

v -0.1064243 -0.617656 -0.002884188
v 0.07474227 -0.4401236 -0.002862577
v 0.07474224 0.617656 -0.002862616
v -0.1064243 0.617656 -0.002884232
v -0.1064439 -0.617656 0.003971856
v -0.1064439 0.617656 0.003971811
v 0.0747733 0.617656 0.003959341
v 0.07477333 -0.4401236 0.003959379
v 0.07474227 -0.4401236 -0.002862577
v 0.07477333 -0.4401236 0.003959379
v 0.0747733 0.617656 0.003959341
v 0.07474224 0.617656 -0.002862616

vn 0.5581055 1.192093E-07 -0.8291016
vn 0.5581055 1.192093E-07 -0.8291016
vn 0.5581055 1.192093E-07 -0.8291016
vn 0.5581055 1.192093E-07 -0.8291016
vn -0.5581055 -1.192093E-07 0.8291016
vn -0.5581055 -1.192093E-07 0.8291016
vn -0.5581055 -1.192093E-07 0.8291016
vn -0.5581055 -1.192093E-07 0.8291016
vn 0.8291016 0 0.5581055
vn 0.8291016 0 0.5581055
vn 0.8291016 0 0.5581055
vn 0.8291016 0 0.5581055

vt 0.0004992485 0.0004992485
vt 0.9990234 0.144043
vt 0.9990234 0.9990234
vt 0.0005011559 0.9990234
vt 0.0004992485 0.0004992485
vt 0.0005011559 0.9990234
vt 0.9990234 0.9990234
vt 0.9990234 0.144043
vt 0.9990234 0.144043
vt 0.9990234 0.144043
vt 0.9990234 0.9990234
vt 0.9990234 0.9990234

g flag_pole_green_(6)_502_35
usemtl flag_pole_green_(6)_502_35
usemap flag_pole_green_(6)_502_35
f 1/1/1 3/3/3 2/2/2
f 1/1/1 4/4/4 3/3/3
f 5/5/5 7/7/7 6/6/6
f 5/5/5 8/8/8 7/7/7
f 9/9/9 11/11/11 10/10/10
f 9/9/9 12/12/12 11/11/11
