#flag_pole_yellow_(1)_380_146.obj

v -0.10644 -0.617656 -0.002869997
v 0.07474144 -0.4401233 -0.002886119
v 0.07474148 0.617656 -0.002886143
v -0.1064399 0.617656 -0.002870025
v -0.1064188 -0.617656 0.003959978
v -0.1064187 0.617656 0.003959951
v 0.07473658 0.617656 0.003959595
v 0.07473654 -0.4401233 0.003959619
v 0.07474144 -0.4401233 -0.002886119
v 0.07473654 -0.4401233 0.003959619
v 0.07473658 0.617656 0.003959595
v 0.07474148 0.617656 -0.002886143

vn -0.855957 1.192093E-07 -0.5161133
vn -0.855957 1.192093E-07 -0.5161133
vn -0.855957 1.192093E-07 -0.5161133
vn -0.855957 1.192093E-07 -0.5161133
vn 0.855957 -1.192093E-07 0.5161133
vn 0.855957 -1.192093E-07 0.5161133
vn 0.855957 -1.192093E-07 0.5161133
vn 0.855957 -1.192093E-07 0.5161133
vn 0.5161133 0 -0.855957
vn 0.5161133 0 -0.855957
vn 0.5161133 0 -0.855957
vn 0.5161133 0 -0.855957

vt 0.0004992485 0.0004992485
vt 0.9990234 0.144043
vt 0.9990234 0.9990234
vt 0.0005011559 0.9990234
vt 0.0004992485 0.0004992485
vt 0.0005011559 0.9990234
vt 0.9990234 0.9990234
vt 0.9990234 0.144043
vt 0.9990234 0.144043
vt 0.9990234 0.144043
vt 0.9990234 0.9990234
vt 0.9990234 0.9990234

g flag_pole_yellow_(1)_380_146
usemtl flag_pole_yellow_(1)_380_146
usemap flag_pole_yellow_(1)_380_146
f 1/1/1 3/3/3 2/2/2
f 1/1/1 4/4/4 3/3/3
f 5/5/5 7/7/7 6/6/6
f 5/5/5 8/8/8 7/7/7
f 9/9/9 11/11/11 10/10/10
f 9/9/9 12/12/12 11/11/11
