#flag_pole_green_(5)_425_70.obj

v -0.09039827 -2.587444 2.283316E-05
v -0.09039826 -0.8154048 2.275669E-05
v -0.1298464 -0.8154048 -0.05421783
v -0.1298464 -2.587444 -0.05421776
v -0.1391338 -0.7632352 -0.02548641
v -0.1206314 -0.7632352 1.407566E-05
v -0.1391338 0.6586782 -0.02548647
v -0.1206314 0.6586782 1.401431E-05
v -0.1298464 -2.587444 -0.05421776
v -0.1298464 -0.8154048 -0.05421783
v -0.193607 -0.8154048 -0.03349905
v -0.1936071 -2.587444 -0.03349898
v -0.1691507 -0.7632352 -0.01575286
v -0.1391338 -0.7632352 -0.02548641
v -0.1691507 0.6586782 -0.01575292
v -0.1391338 0.6586782 -0.02548647
v -0.1936071 -2.587444 -0.03349898
v -0.193607 -0.8154048 -0.03349905
v -0.1935735 -0.8154048 0.03352943
v -0.1935736 -2.587444 0.03352951
v -0.1691231 -0.7632352 0.01578459
v -0.1691507 -0.7632352 -0.01575286
v -0.1691231 0.6586782 0.01578453
v -0.1691507 0.6586782 -0.01575292
v -0.1935736 -2.587444 0.03352951
v -0.1935735 -0.8154048 0.03352943
v -0.1298394 -0.8154048 0.05423208
v -0.1298394 -2.587444 0.05423215
v -0.1391654 -0.7632352 0.02551773
v -0.1691231 -0.7632352 0.01578459
v -0.1391654 0.6586782 0.02551766
v -0.1691231 0.6586782 0.01578453
v -0.1298394 -2.587444 0.05423215
v -0.1298394 -0.8154048 0.05423208
v -0.09039826 -0.8154048 2.275669E-05
v -0.09039827 -2.587444 2.283316E-05
v -0.1206314 -0.7632352 1.407566E-05
v -0.1391654 -0.7632352 0.02551773
v -0.1206314 0.6586782 1.401431E-05
v -0.1391654 0.6586782 0.02551766
v -0.1691507 0.6586782 -0.01575292
v -0.1391338 0.6586782 -0.02548647
v -0.1206314 0.6586782 1.401431E-05
v -0.1691231 0.6586782 0.01578453
v -0.1391654 0.6586782 0.02551766

vn 0.9868164 0 -0.159668
vn 0.9584961 0.237793 -0.1551514
vn 0.1486816 0.237793 -0.9594727
vn 0.1530762 1.192093E-07 -0.987793
vn 0.1466064 0.2875977 -0.9462891
vn 0.9453125 0.2875977 -0.1529541
vn 0.1530762 1.192093E-07 -0.987793
vn 0.9868164 0 -0.159668
vn 0.1530762 1.192093E-07 -0.987793
vn 0.1486816 0.237793 -0.9594727
vn -0.8666992 0.237793 -0.4379883
vn -0.8920898 0 -0.4509277
vn -0.8544922 0.2875977 -0.4318848
vn 0.1466064 0.2875977 -0.9462891
vn -0.8920898 0 -0.4509277
vn 0.1530762 1.192093E-07 -0.987793
vn -0.8920898 0 -0.4509277
vn -0.8666992 0.237793 -0.4379883
vn -0.684082 0.237793 0.6889648
vn -0.7045898 0 0.7094727
vn -0.6748047 0.2875977 0.6791992
vn -0.8544922 0.2875977 -0.4318848
vn -0.7045898 0 0.7094727
vn -0.8920898 0 -0.4509277
vn -0.7045898 0 0.7094727
vn -0.684082 0.237793 0.6889648
vn 0.4438477 0.237793 0.8637695
vn 0.4567871 -1.192093E-07 0.8891602
vn 0.4375 0.2875977 0.8515625
vn -0.6748047 0.2875977 0.6791992
vn 0.4567871 -1.192093E-07 0.8891602
vn -0.7045898 0 0.7094727
vn 0.4567871 -1.192093E-07 0.8891602
vn 0.4438477 0.237793 0.8637695
vn 0.9584961 0.237793 -0.1551514
vn 0.9868164 0 -0.159668
vn 0.9453125 0.2875977 -0.1529541
vn 0.4375 0.2875977 0.8515625
vn 0.9868164 0 -0.159668
vn 0.4567871 -1.192093E-07 0.8891602
vn 1.192093E-07 1 8.940697E-07
vn 1.192093E-07 1 8.940697E-07
vn 1.192093E-07 1 8.940697E-07
vn 1.192093E-07 1 8.940697E-07
vn 1.192093E-07 1 8.940697E-07

vt 0.75 0
vt 0.75 0.333252
vt 0.949707 0.333252
vt 0.949707 0
vt 0.949707 0.6665039
vt 0.75 0.6665039
vt 0.949707 0.9995117
vt 0.75 0.9995117
vt 0.949707 0
vt 0.949707 0.333252
vt 1.149414 0.333252
vt 1.149414 0
vt 1.149414 0.6665039
vt 0.949707 0.6665039
vt 1.149414 0.9995117
vt 0.949707 0.9995117
vt 0.1499023 0
vt 0.1499023 0.333252
vt 0.3498535 0.333252
vt 0.3498535 0
vt 0.3498535 0.6665039
vt 0.1499023 0.6665039
vt 0.3498535 0.9995117
vt 0.1499023 0.9995117
vt 0.3498535 0
vt 0.3498535 0.333252
vt 0.5498047 0.333252
vt 0.5498047 0
vt 0.5498047 0.6665039
vt 0.3498535 0.6665039
vt 0.5498047 0.9995117
vt 0.3498535 0.9995117
vt 0.5498047 0
vt 0.5498047 0.333252
vt 0.75 0.333252
vt 0.75 0
vt 0.75 0.6665039
vt 0.5498047 0.6665039
vt 0.75 0.9995117
vt 0.5498047 0.9995117
vt 0.2060547 0.09545898
vt 0.02445984 0.6542969
vt 0.4997559 1
vt 0.793457 0.09545898
vt 0.9750977 0.6542969

g flag_pole_green_(5)_425_70
usemtl flag_pole_green_(5)_425_70
usemap flag_pole_green_(5)_425_70
f 1/1/1 3/3/3 2/2/2
f 1/1/1 4/4/4 3/3/3
f 2/2/2 3/3/3 5/5/5
f 2/2/2 5/5/5 6/6/6
f 6/6/6 5/5/5 7/7/7
f 6/6/6 7/7/7 8/8/8
f 9/9/9 11/11/11 10/10/10
f 9/9/9 12/12/12 11/11/11
f 10/10/10 11/11/11 13/13/13
f 10/10/10 13/13/13 14/14/14
f 14/14/14 13/13/13 15/15/15
f 14/14/14 15/15/15 16/16/16
f 17/17/17 19/19/19 18/18/18
f 17/17/17 20/20/20 19/19/19
f 18/18/18 19/19/19 21/21/21
f 18/18/18 21/21/21 22/22/22
f 22/22/22 21/21/21 23/23/23
f 22/22/22 23/23/23 24/24/24
f 25/25/25 27/27/27 26/26/26
f 25/25/25 28/28/28 27/27/27
f 26/26/26 27/27/27 29/29/29
f 26/26/26 29/29/29 30/30/30
f 30/30/30 29/29/29 31/31/31
f 30/30/30 31/31/31 32/32/32
f 33/33/33 35/35/35 34/34/34
f 33/33/33 36/36/36 35/35/35
f 34/34/34 35/35/35 37/37/37
f 34/34/34 37/37/37 38/38/38
f 38/38/38 37/37/37 39/39/39
f 38/38/38 39/39/39 40/40/40
f 41/41/41 43/43/43 42/42/42
f 43/43/43 41/41/41 44/44/44
f 43/43/43 44/44/44 45/45/45
