#flag_pole_red_(2)_373_13.obj

v -0.1064327 -0.6176559 -0.00284053
v 0.07472198 -0.4401234 -0.002868974
v 0.07472198 0.6176561 -0.002869021
v -0.1064327 0.6176561 -0.002840584
v -0.1064048 -0.6176559 0.00393459
v -0.1064048 0.6176561 0.003934536
v 0.07474954 0.6176561 0.003967134
v 0.07474954 -0.4401234 0.00396718
v 0.07472198 -0.4401234 -0.002868974
v 0.07474954 -0.4401234 0.00396718
v 0.07474954 0.6176561 0.003967134
v 0.07472198 0.6176561 -0.002869021

vn -0.004894257 1.192093E-07 -0.9995117
vn -0.004894257 1.192093E-07 -0.9995117
vn -0.004894257 1.192093E-07 -0.9995117
vn -0.004894257 1.192093E-07 -0.9995117
vn 0.004894257 -1.192093E-07 0.9995117
vn 0.004894257 -1.192093E-07 0.9995117
vn 0.004894257 -1.192093E-07 0.9995117
vn 0.004894257 -1.192093E-07 0.9995117
vn 0.9995117 0 -0.004894257
vn 0.9995117 0 -0.004894257
vn 0.9995117 0 -0.004894257
vn 0.9995117 0 -0.004894257

vt 0.0004992485 0.0004992485
vt 0.9990234 0.144043
vt 0.9990234 0.9990234
vt 0.0005011559 0.9990234
vt 0.0004992485 0.0004992485
vt 0.0005011559 0.9990234
vt 0.9990234 0.9990234
vt 0.9990234 0.144043
vt 0.9990234 0.144043
vt 0.9990234 0.144043
vt 0.9990234 0.9990234
vt 0.9990234 0.9990234

g flag_pole_red_(2)_373_13
usemtl flag_pole_red_(2)_373_13
usemap flag_pole_red_(2)_373_13
f 1/1/1 3/3/3 2/2/2
f 1/1/1 4/4/4 3/3/3
f 5/5/5 7/7/7 6/6/6
f 5/5/5 8/8/8 7/7/7
f 9/9/9 11/11/11 10/10/10
f 9/9/9 12/12/12 11/11/11
