#flag_pole_green_(2)_400_83.obj

v -0.106444 -0.617656 -0.002860036
v 0.0747353 -0.4401236 -0.002859096
v 0.07473534 0.617656 -0.002859123
v -0.106444 0.617656 -0.002860067
v -0.1064231 -0.617656 0.003947815
v -0.1064231 0.617656 0.003947784
v 0.07475627 0.617656 0.003948727
v 0.07475623 -0.4401236 0.003948754
v 0.0747353 -0.4401236 -0.002859096
v 0.07475623 -0.4401236 0.003948754
v 0.07475627 0.617656 0.003948727
v 0.07473534 0.617656 -0.002859123

vn -0.8139648 1.192093E-07 -0.5805664
vn -0.8139648 1.192093E-07 -0.5805664
vn -0.8139648 1.192093E-07 -0.5805664
vn -0.8139648 1.192093E-07 -0.5805664
vn 0.8139648 -1.192093E-07 0.5805664
vn 0.8139648 -1.192093E-07 0.5805664
vn 0.8139648 -1.192093E-07 0.5805664
vn 0.8139648 -1.192093E-07 0.5805664
vn 0.5805664 0 -0.8139648
vn 0.5805664 0 -0.8139648
vn 0.5805664 0 -0.8139648
vn 0.5805664 0 -0.8139648

vt 0.0004992485 0.0004992485
vt 0.9990234 0.144043
vt 0.9990234 0.9990234
vt 0.0005011559 0.9990234
vt 0.0004992485 0.0004992485
vt 0.0005011559 0.9990234
vt 0.9990234 0.9990234
vt 0.9990234 0.144043
vt 0.9990234 0.144043
vt 0.9990234 0.144043
vt 0.9990234 0.9990234
vt 0.9990234 0.9990234

g flag_pole_green_(2)_400_83
usemtl flag_pole_green_(2)_400_83
usemap flag_pole_green_(2)_400_83
f 1/1/1 3/3/3 2/2/2
f 1/1/1 4/4/4 3/3/3
f 5/5/5 7/7/7 6/6/6
f 5/5/5 8/8/8 7/7/7
f 9/9/9 11/11/11 10/10/10
f 9/9/9 12/12/12 11/11/11
