#flag_pole_red_(1)_481_17.obj

v -0.1064117 -0.6176561 -0.002879058
v 0.0747381 -0.4401237 -0.002854847
v 0.07473809 0.6176559 -0.002854891
v -0.1064117 0.6176559 -0.002879109
v -0.1064611 -0.6176561 0.003953431
v -0.1064611 0.6176559 0.00395338
v 0.07474668 0.6176559 0.003958388
v 0.07474669 -0.4401237 0.003958432
v 0.0747381 -0.4401237 -0.002854847
v 0.07474669 -0.4401237 0.003958432
v 0.07474668 0.6176559 0.003958388
v 0.07473809 0.6176559 -0.002854891

vn 0.3146973 1.192093E-07 -0.9487305
vn 0.3146973 1.192093E-07 -0.9487305
vn 0.3146973 1.192093E-07 -0.9487305
vn 0.3146973 1.192093E-07 -0.9487305
vn -0.3146973 -1.192093E-07 0.9487305
vn -0.3146973 -1.192093E-07 0.9487305
vn -0.3146973 -1.192093E-07 0.9487305
vn -0.3146973 -1.192093E-07 0.9487305
vn 0.9487305 0 0.3146973
vn 0.9487305 0 0.3146973
vn 0.9487305 0 0.3146973
vn 0.9487305 0 0.3146973

vt 0.0004992485 0.0004992485
vt 0.9990234 0.144043
vt 0.9990234 0.9990234
vt 0.0005011559 0.9990234
vt 0.0004992485 0.0004992485
vt 0.0005011559 0.9990234
vt 0.9990234 0.9990234
vt 0.9990234 0.144043
vt 0.9990234 0.144043
vt 0.9990234 0.144043
vt 0.9990234 0.9990234
vt 0.9990234 0.9990234

g flag_pole_red_(1)_481_17
usemtl flag_pole_red_(1)_481_17
usemap flag_pole_red_(1)_481_17
f 1/1/1 3/3/3 2/2/2
f 1/1/1 4/4/4 3/3/3
f 5/5/5 7/7/7 6/6/6
f 5/5/5 8/8/8 7/7/7
f 9/9/9 11/11/11 10/10/10
f 9/9/9 12/12/12 11/11/11
