#flag_pole_red_(1)_481_18.obj

v -0.09040603 -2.587444 1.239004E-05
v -0.09040605 -0.8154048 1.231652E-05
v -0.1298107 -0.8154048 -0.05424694
v -0.1298106 -2.587444 -0.05424686
v -0.13913 -0.7632352 -0.025532
v -0.1206315 -0.7632352 3.399663E-06
v -0.13913 0.6586782 -0.02553206
v -0.1206315 0.6586782 3.340668E-06
v -0.1298106 -2.587444 -0.05424686
v -0.1298107 -0.8154048 -0.05424694
v -0.1936042 -0.8154048 -0.03351176
v -0.1936042 -2.587444 -0.03351168
v -0.1691391 -0.7632352 -0.01577425
v -0.13913 -0.7632352 -0.025532
v -0.1691391 0.6586782 -0.01577431
v -0.13913 0.6586782 -0.02553206
v -0.1936042 -2.587444 -0.03351168
v -0.1936042 -0.8154048 -0.03351176
v -0.1935648 -0.8154048 0.03351115
v -0.1935648 -2.587444 0.03351122
v -0.1691598 -0.7632352 0.01577326
v -0.1691391 -0.7632352 -0.01577425
v -0.1691598 0.6586782 0.0157732
v -0.1691391 0.6586782 -0.01577431
v -0.1935648 -2.587444 0.03351122
v -0.1935648 -0.8154048 0.03351115
v -0.1298461 -0.8154048 0.05424412
v -0.1298461 -2.587444 0.0542442
v -0.1391813 -0.7632352 0.02550951
v -0.1691598 -0.7632352 0.01577326
v -0.1391813 0.6586782 0.02550945
v -0.1691598 0.6586782 0.0157732
v -0.1298461 -2.587444 0.0542442
v -0.1298461 -0.8154048 0.05424412
v -0.09040605 -0.8154048 1.231652E-05
v -0.09040603 -2.587444 1.239004E-05
v -0.1206315 -0.7632352 3.399663E-06
v -0.1391813 -0.7632352 0.02550951
v -0.1206315 0.6586782 3.340668E-06
v -0.1391813 0.6586782 0.02550945
v -0.1691391 0.6586782 -0.01577431
v -0.13913 0.6586782 -0.02553206
v -0.1206315 0.6586782 3.340668E-06
v -0.1691598 0.6586782 0.0157732
v -0.1391813 0.6586782 0.02550945

vn 0.9487305 0 0.3146973
vn 0.921875 0.237793 0.3056641
vn 0.5751953 0.237793 -0.7822266
vn 0.5922852 1.192093E-07 -0.8051758
vn 0.5673828 0.2875977 -0.7709961
vn 0.9086914 0.2875977 0.3012695
vn 0.5922852 1.192093E-07 -0.8051758
vn 0.9487305 0 0.3146973
vn 0.5922852 1.192093E-07 -0.8051758
vn 0.5751953 0.237793 -0.7822266
vn -0.565918 0.237793 -0.7890625
vn -0.5825195 0 -0.8125
vn -0.5581055 0.2875977 -0.777832
vn 0.5673828 0.2875977 -0.7709961
vn -0.5825195 0 -0.8125
vn 0.5922852 1.192093E-07 -0.8051758
vn -0.5825195 0 -0.8125
vn -0.565918 0.237793 -0.7890625
vn -0.925293 0.237793 0.2944336
vn -0.9526367 0 0.3032227
vn -0.9125977 0.2875977 0.2902832
vn -0.5581055 0.2875977 -0.777832
vn -0.9526367 0 0.3032227
vn -0.5825195 0 -0.8125
vn -0.9526367 0 0.3032227
vn -0.925293 0.237793 0.2944336
vn -0.005844116 0.237793 0.9711914
vn -0.006015778 -1.192093E-07 0.9995117
vn -0.005764008 0.2875977 0.9575195
vn -0.9125977 0.2875977 0.2902832
vn -0.006015778 -1.192093E-07 0.9995117
vn -0.9526367 0 0.3032227
vn -0.006015778 -1.192093E-07 0.9995117
vn -0.005844116 0.237793 0.9711914
vn 0.921875 0.237793 0.3056641
vn 0.9487305 0 0.3146973
vn 0.9086914 0.2875977 0.3012695
vn -0.005764008 0.2875977 0.9575195
vn 0.9487305 0 0.3146973
vn -0.006015778 -1.192093E-07 0.9995117
vn -2.384186E-07 1 8.34465E-07
vn -2.384186E-07 1 8.34465E-07
vn -2.384186E-07 1 8.34465E-07
vn -2.384186E-07 1 8.34465E-07
vn -2.384186E-07 1 8.34465E-07

vt 0.75 0
vt 0.75 0.333252
vt 0.949707 0.333252
vt 0.949707 0
vt 0.949707 0.6665039
vt 0.75 0.6665039
vt 0.949707 0.9995117
vt 0.75 0.9995117
vt 0.949707 0
vt 0.949707 0.333252
vt 1.149414 0.333252
vt 1.149414 0
vt 1.149414 0.6665039
vt 0.949707 0.6665039
vt 1.149414 0.9995117
vt 0.949707 0.9995117
vt 0.1499023 0
vt 0.1499023 0.333252
vt 0.3498535 0.333252
vt 0.3498535 0
vt 0.3498535 0.6665039
vt 0.1499023 0.6665039
vt 0.3498535 0.9995117
vt 0.1499023 0.9995117
vt 0.3498535 0
vt 0.3498535 0.333252
vt 0.5498047 0.333252
vt 0.5498047 0
vt 0.5498047 0.6665039
vt 0.3498535 0.6665039
vt 0.5498047 0.9995117
vt 0.3498535 0.9995117
vt 0.5498047 0
vt 0.5498047 0.333252
vt 0.75 0.333252
vt 0.75 0
vt 0.75 0.6665039
vt 0.5498047 0.6665039
vt 0.75 0.9995117
vt 0.5498047 0.9995117
vt 0.2060547 0.09545898
vt 0.02445984 0.6542969
vt 0.4997559 1
vt 0.793457 0.09545898
vt 0.9750977 0.6542969

g flag_pole_red_(1)_481_18
usemtl flag_pole_red_(1)_481_18
usemap flag_pole_red_(1)_481_18
f 1/1/1 3/3/3 2/2/2
f 1/1/1 4/4/4 3/3/3
f 2/2/2 3/3/3 5/5/5
f 2/2/2 5/5/5 6/6/6
f 6/6/6 5/5/5 7/7/7
f 6/6/6 7/7/7 8/8/8
f 9/9/9 11/11/11 10/10/10
f 9/9/9 12/12/12 11/11/11
f 10/10/10 11/11/11 13/13/13
f 10/10/10 13/13/13 14/14/14
f 14/14/14 13/13/13 15/15/15
f 14/14/14 15/15/15 16/16/16
f 17/17/17 19/19/19 18/18/18
f 17/17/17 20/20/20 19/19/19
f 18/18/18 19/19/19 21/21/21
f 18/18/18 21/21/21 22/22/22
f 22/22/22 21/21/21 23/23/23
f 22/22/22 23/23/23 24/24/24
f 25/25/25 27/27/27 26/26/26
f 25/25/25 28/28/28 27/27/27
f 26/26/26 27/27/27 29/29/29
f 26/26/26 29/29/29 30/30/30
f 30/30/30 29/29/29 31/31/31
f 30/30/30 31/31/31 32/32/32
f 33/33/33 35/35/35 34/34/34
f 33/33/33 36/36/36 35/35/35
f 34/34/34 35/35/35 37/37/37
f 34/34/34 37/37/37 38/38/38
f 38/38/38 37/37/37 39/39/39
f 38/38/38 39/39/39 40/40/40
f 41/41/41 43/43/43 42/42/42
f 43/43/43 41/41/41 44/44/44
f 43/43/43 44/44/44 45/45/45
