#flag_pole_green_(4)_426_80.obj

v -0.09042303 -2.587444 -2.335466E-06
v -0.09042299 -0.8154047 -2.40435E-06
v -0.1298257 -0.8154047 -0.05423928
v -0.1298257 -2.587444 -0.05423921
v -0.1391463 -0.7632351 -0.02550523
v -0.1206278 -0.7632351 9.705915E-06
v -0.1391462 0.6586783 -0.02550528
v -0.1206278 0.6586783 9.650642E-06
v -0.1298257 -2.587444 -0.05423921
v -0.1298257 -0.8154047 -0.05423928
v -0.1935684 -0.8154047 -0.03352042
v -0.1935685 -2.587444 -0.03352035
v -0.1691338 -0.7632351 -0.01577274
v -0.1391463 -0.7632351 -0.02550523
v -0.1691338 0.6586783 -0.01577279
v -0.1391462 0.6586783 -0.02550528
v -0.1935685 -2.587444 -0.03352035
v -0.1935684 -0.8154047 -0.03352042
v -0.1935922 -0.8154047 0.03352199
v -0.1935922 -2.587444 0.03352207
v -0.1691504 -0.7632351 0.0157557
v -0.1691338 -0.7632351 -0.01577274
v -0.1691504 0.6586783 0.01575564
v -0.1691338 0.6586783 -0.01577279
v -0.1935922 -2.587444 0.03352207
v -0.1935922 -0.8154047 0.03352199
v -0.1298146 -0.8154047 0.05424115
v -0.1298147 -2.587444 0.05424122
v -0.1391656 -0.7632351 0.0255136
v -0.1691504 -0.7632351 0.0157557
v -0.1391656 0.6586783 0.02551354
v -0.1691504 0.6586783 0.01575564
v -0.1298147 -2.587444 0.05424122
v -0.1298146 -0.8154047 0.05424115
v -0.09042299 -0.8154047 -2.40435E-06
v -0.09042303 -2.587444 -2.335466E-06
v -0.1206278 -0.7632351 9.705915E-06
v -0.1391656 -0.7632351 0.0255136
v -0.1206278 0.6586783 9.650642E-06
v -0.1391656 0.6586783 0.02551354
v -0.1691338 0.6586783 -0.01577279
v -0.1391462 0.6586783 -0.02550528
v -0.1206278 0.6586783 9.650642E-06
v -0.1691504 0.6586783 0.01575564
v -0.1391656 0.6586783 0.02551354

vn 0.8891602 0 -0.4572754
vn 0.8632813 0.237793 -0.4440918
vn -0.1555176 0.237793 -0.9584961
vn -0.1600342 1.192093E-07 -0.9868164
vn -0.1533203 0.2875977 -0.9453125
vn 0.8515625 0.2875977 -0.4379883
vn -0.1600342 1.192093E-07 -0.9868164
vn 0.8891602 0 -0.4572754
vn -0.1600342 1.192093E-07 -0.9868164
vn -0.1555176 0.237793 -0.9584961
vn -0.9594727 0.237793 -0.1483154
vn -0.987793 0 -0.15271
vn -0.9462891 0.2875977 -0.1462402
vn -0.1533203 0.2875977 -0.9453125
vn -0.987793 0 -0.15271
vn -0.1600342 1.192093E-07 -0.9868164
vn -0.987793 0 -0.15271
vn -0.9594727 0.237793 -0.1483154
vn -0.4375 0.237793 0.8666992
vn -0.4504395 0 0.8925781
vn -0.4313965 0.2875977 0.8544922
vn -0.9462891 0.2875977 -0.1462402
vn -0.4504395 0 0.8925781
vn -0.987793 0 -0.15271
vn -0.4504395 0 0.8925781
vn -0.4375 0.237793 0.8666992
vn 0.6889648 0.237793 0.684082
vn 0.7094727 -1.192093E-07 0.7041016
vn 0.6796875 0.2875977 0.6743164
vn -0.4313965 0.2875977 0.8544922
vn 0.7094727 -1.192093E-07 0.7041016
vn -0.4504395 0 0.8925781
vn 0.7094727 -1.192093E-07 0.7041016
vn 0.6889648 0.237793 0.684082
vn 0.8632813 0.237793 -0.4440918
vn 0.8891602 0 -0.4572754
vn 0.8515625 0.2875977 -0.4379883
vn 0.6796875 0.2875977 0.6743164
vn 0.8891602 0 -0.4572754
vn 0.7094727 -1.192093E-07 0.7041016
vn 3.576279E-07 1 8.34465E-07
vn 3.576279E-07 1 8.34465E-07
vn 3.576279E-07 1 8.34465E-07
vn 3.576279E-07 1 8.34465E-07
vn 3.576279E-07 1 8.34465E-07

vt 0.75 0
vt 0.75 0.333252
vt 0.949707 0.333252
vt 0.949707 0
vt 0.949707 0.6665039
vt 0.75 0.6665039
vt 0.949707 0.9995117
vt 0.75 0.9995117
vt 0.949707 0
vt 0.949707 0.333252
vt 1.149414 0.333252
vt 1.149414 0
vt 1.149414 0.6665039
vt 0.949707 0.6665039
vt 1.149414 0.9995117
vt 0.949707 0.9995117
vt 0.1499023 0
vt 0.1499023 0.333252
vt 0.3498535 0.333252
vt 0.3498535 0
vt 0.3498535 0.6665039
vt 0.1499023 0.6665039
vt 0.3498535 0.9995117
vt 0.1499023 0.9995117
vt 0.3498535 0
vt 0.3498535 0.333252
vt 0.5498047 0.333252
vt 0.5498047 0
vt 0.5498047 0.6665039
vt 0.3498535 0.6665039
vt 0.5498047 0.9995117
vt 0.3498535 0.9995117
vt 0.5498047 0
vt 0.5498047 0.333252
vt 0.75 0.333252
vt 0.75 0
vt 0.75 0.6665039
vt 0.5498047 0.6665039
vt 0.75 0.9995117
vt 0.5498047 0.9995117
vt 0.2060547 0.09545898
vt 0.02445984 0.6542969
vt 0.4997559 1
vt 0.793457 0.09545898
vt 0.9750977 0.6542969

g flag_pole_green_(4)_426_80
usemtl flag_pole_green_(4)_426_80
usemap flag_pole_green_(4)_426_80
f 1/1/1 3/3/3 2/2/2
f 1/1/1 4/4/4 3/3/3
f 2/2/2 3/3/3 5/5/5
f 2/2/2 5/5/5 6/6/6
f 6/6/6 5/5/5 7/7/7
f 6/6/6 7/7/7 8/8/8
f 9/9/9 11/11/11 10/10/10
f 9/9/9 12/12/12 11/11/11
f 10/10/10 11/11/11 13/13/13
f 10/10/10 13/13/13 14/14/14
f 14/14/14 13/13/13 15/15/15
f 14/14/14 15/15/15 16/16/16
f 17/17/17 19/19/19 18/18/18
f 17/17/17 20/20/20 19/19/19
f 18/18/18 19/19/19 21/21/21
f 18/18/18 21/21/21 22/22/22
f 22/22/22 21/21/21 23/23/23
f 22/22/22 23/23/23 24/24/24
f 25/25/25 27/27/27 26/26/26
f 25/25/25 28/28/28 27/27/27
f 26/26/26 27/27/27 29/29/29
f 26/26/26 29/29/29 30/30/30
f 30/30/30 29/29/29 31/31/31
f 30/30/30 31/31/31 32/32/32
f 33/33/33 35/35/35 34/34/34
f 33/33/33 36/36/36 35/35/35
f 34/34/34 35/35/35 37/37/37
f 34/34/34 37/37/37 38/38/38
f 38/38/38 37/37/37 39/39/39
f 38/38/38 39/39/39 40/40/40
f 41/41/41 43/43/43 42/42/42
f 43/43/43 41/41/41 44/44/44
f 43/43/43 44/44/44 45/45/45
