#flag_pole_yellow_(2)_517_108.obj

v -0.1064279 -0.617656 -0.00287189
v 0.07475008 -0.4401233 -0.002864312
v 0.07475013 0.617656 -0.002864314
v -0.1064278 0.617656 -0.002871892
v -0.1064443 -0.617656 0.003943357
v -0.1064442 0.617656 0.003943354
v 0.07473373 0.617656 0.003950932
v 0.07473369 -0.4401233 0.003950934
v 0.07475008 -0.4401233 -0.002864312
v 0.07473369 -0.4401233 0.003950934
v 0.07473373 0.617656 0.003950932
v 0.07475013 0.617656 -0.002864314

vn -0.9985352 1.192093E-07 -0.05133057
vn -0.9985352 1.192093E-07 -0.05133057
vn -0.9985352 1.192093E-07 -0.05133057
vn -0.9985352 1.192093E-07 -0.05133057
vn 0.9985352 -1.192093E-07 0.05133057
vn 0.9985352 -1.192093E-07 0.05133057
vn 0.9985352 -1.192093E-07 0.05133057
vn 0.9985352 -1.192093E-07 0.05133057
vn 0.05133057 0 -0.9985352
vn 0.05133057 0 -0.9985352
vn 0.05133057 0 -0.9985352
vn 0.05133057 0 -0.9985352

vt 0.0004992485 0.0004992485
vt 0.9990234 0.144043
vt 0.9990234 0.9990234
vt 0.0005011559 0.9990234
vt 0.0004992485 0.0004992485
vt 0.0005011559 0.9990234
vt 0.9990234 0.9990234
vt 0.9990234 0.144043
vt 0.9990234 0.144043
vt 0.9990234 0.144043
vt 0.9990234 0.9990234
vt 0.9990234 0.9990234

g flag_pole_yellow_(2)_517_108
usemtl flag_pole_yellow_(2)_517_108
usemap flag_pole_yellow_(2)_517_108
f 1/1/1 3/3/3 2/2/2
f 1/1/1 4/4/4 3/3/3
f 5/5/5 7/7/7 6/6/6
f 5/5/5 8/8/8 7/7/7
f 9/9/9 11/11/11 10/10/10
f 9/9/9 12/12/12 11/11/11
