#flag_pole_green_(6)_502_36.obj

v -0.09041379 -2.587444 2.237059E-05
v -0.09041383 -0.8154047 2.230634E-05
v -0.129816 -0.8154047 -0.05423966
v -0.129816 -2.587444 -0.0542396
v -0.139165 -0.7632351 -0.02550366
v -0.1206141 -0.7632351 -2.641382E-05
v -0.139165 0.6586783 -0.02550371
v -0.1206141 0.6586783 -2.646537E-05
v -0.129816 -2.587444 -0.0542396
v -0.129816 -0.8154047 -0.05423966
v -0.1935752 -0.8154047 -0.03353388
v -0.1935752 -2.587444 -0.03353381
v -0.1691683 -0.7632351 -0.0157518
v -0.139165 -0.7632351 -0.02550366
v -0.1691683 0.6586783 -0.01575185
v -0.139165 0.6586783 -0.02550371
v -0.1935752 -2.587444 -0.03353381
v -0.1935752 -0.8154047 -0.03353388
v -0.1936085 -0.8154047 0.0335192
v -0.1936084 -2.587444 0.03351926
v -0.1691263 -0.7632351 0.0157854
v -0.1691683 -0.7632351 -0.0157518
v -0.1691263 0.6586783 0.01578534
v -0.1691683 0.6586783 -0.01575185
v -0.1936084 -2.587444 0.03351926
v -0.1936085 -0.8154047 0.0335192
v -0.1298469 -0.8154047 0.05423691
v -0.1298469 -2.587444 0.05423697
v -0.1391867 -0.7632351 0.02550135
v -0.1691263 -0.7632351 0.0157854
v -0.1391868 0.6586783 0.0255013
v -0.1691263 0.6586783 0.01578534
v -0.1298469 -2.587444 0.05423697
v -0.1298469 -0.8154047 0.05423691
v -0.09041383 -0.8154047 2.230634E-05
v -0.09041379 -2.587444 2.237059E-05
v -0.1206141 -0.7632351 -2.641382E-05
v -0.1391867 -0.7632351 0.02550135
v -0.1206141 0.6586783 -2.646537E-05
v -0.1391868 0.6586783 0.0255013
v -0.1691683 0.6586783 -0.01575185
v -0.139165 0.6586783 -0.02550371
v -0.1206141 0.6586783 -2.646537E-05
v -0.1691263 0.6586783 0.01578534
v -0.1391868 0.6586783 0.0255013

vn 0.8291016 0 0.5581055
vn 0.8056641 0.237793 0.5419922
vn 0.7646484 0.237793 -0.5986328
vn 0.7871094 1.192093E-07 -0.6162109
vn 0.7539063 0.2875977 -0.5898438
vn 0.7944336 0.2875977 0.534668
vn 0.7871094 1.192093E-07 -0.6162109
vn 0.8291016 0 0.5581055
vn 0.7871094 1.192093E-07 -0.6162109
vn 0.7646484 0.237793 -0.5986328
vn -0.3327637 0.237793 -0.9121094
vn -0.3427734 0 -0.9389648
vn -0.328125 0.2875977 -0.8994141
vn 0.7539063 0.2875977 -0.5898438
vn -0.3427734 0 -0.9389648
vn 0.7871094 1.192093E-07 -0.6162109
vn -0.3427734 0 -0.9389648
vn -0.3327637 0.237793 -0.9121094
vn -0.9702148 0.237793 0.034729
vn -0.9990234 0 0.03573608
vn -0.9570313 0.2875977 0.03424072
vn -0.328125 0.2875977 -0.8994141
vn -0.9990234 0 0.03573608
vn -0.3427734 0 -0.9389648
vn -0.9990234 0 0.03573608
vn -0.9702148 0.237793 0.034729
vn -0.2668457 0.237793 0.9335938
vn -0.2746582 -1.192093E-07 0.9614258
vn -0.2631836 0.2875977 0.9204102
vn -0.9570313 0.2875977 0.03424072
vn -0.2746582 -1.192093E-07 0.9614258
vn -0.9990234 0 0.03573608
vn -0.2746582 -1.192093E-07 0.9614258
vn -0.2668457 0.237793 0.9335938
vn 0.8056641 0.237793 0.5419922
vn 0.8291016 0 0.5581055
vn 0.7944336 0.2875977 0.534668
vn -0.2631836 0.2875977 0.9204102
vn 0.8291016 0 0.5581055
vn -0.2746582 -1.192093E-07 0.9614258
vn -4.768372E-07 1 7.748604E-07
vn -4.768372E-07 1 7.748604E-07
vn -4.768372E-07 1 7.748604E-07
vn -4.768372E-07 1 7.748604E-07
vn -4.768372E-07 1 7.748604E-07

vt 0.75 0
vt 0.75 0.333252
vt 0.949707 0.333252
vt 0.949707 0
vt 0.949707 0.6665039
vt 0.75 0.6665039
vt 0.949707 0.9995117
vt 0.75 0.9995117
vt 0.949707 0
vt 0.949707 0.333252
vt 1.149414 0.333252
vt 1.149414 0
vt 1.149414 0.6665039
vt 0.949707 0.6665039
vt 1.149414 0.9995117
vt 0.949707 0.9995117
vt 0.1499023 0
vt 0.1499023 0.333252
vt 0.3498535 0.333252
vt 0.3498535 0
vt 0.3498535 0.6665039
vt 0.1499023 0.6665039
vt 0.3498535 0.9995117
vt 0.1499023 0.9995117
vt 0.3498535 0
vt 0.3498535 0.333252
vt 0.5498047 0.333252
vt 0.5498047 0
vt 0.5498047 0.6665039
vt 0.3498535 0.6665039
vt 0.5498047 0.9995117
vt 0.3498535 0.9995117
vt 0.5498047 0
vt 0.5498047 0.333252
vt 0.75 0.333252
vt 0.75 0
vt 0.75 0.6665039
vt 0.5498047 0.6665039
vt 0.75 0.9995117
vt 0.5498047 0.9995117
vt 0.2060547 0.09545898
vt 0.02445984 0.6542969
vt 0.4997559 1
vt 0.793457 0.09545898
vt 0.9750977 0.6542969

g flag_pole_green_(6)_502_36
usemtl flag_pole_green_(6)_502_36
usemap flag_pole_green_(6)_502_36
f 1/1/1 3/3/3 2/2/2
f 1/1/1 4/4/4 3/3/3
f 2/2/2 3/3/3 5/5/5
f 2/2/2 5/5/5 6/6/6
f 6/6/6 5/5/5 7/7/7
f 6/6/6 7/7/7 8/8/8
f 9/9/9 11/11/11 10/10/10
f 9/9/9 12/12/12 11/11/11
f 10/10/10 11/11/11 13/13/13
f 10/10/10 13/13/13 14/14/14
f 14/14/14 13/13/13 15/15/15
f 14/14/14 15/15/15 16/16/16
f 17/17/17 19/19/19 18/18/18
f 17/17/17 20/20/20 19/19/19
f 18/18/18 19/19/19 21/21/21
f 18/18/18 21/21/21 22/22/22
f 22/22/22 21/21/21 23/23/23
f 22/22/22 23/23/23 24/24/24
f 25/25/25 27/27/27 26/26/26
f 25/25/25 28/28/28 27/27/27
f 26/26/26 27/27/27 29/29/29
f 26/26/26 29/29/29 30/30/30
f 30/30/30 29/29/29 31/31/31
f 30/30/30 31/31/31 32/32/32
f 33/33/33 35/35/35 34/34/34
f 33/33/33 36/36/36 35/35/35
f 34/34/34 35/35/35 37/37/37
f 34/34/34 37/37/37 38/38/38
f 38/38/38 37/37/37 39/39/39
f 38/38/38 39/39/39 40/40/40
f 41/41/41 43/43/43 42/42/42
f 43/43/43 41/41/41 44/44/44
f 43/43/43 44/44/44 45/45/45
