#PREF_props_bottle_02_1495_66.obj

v -0.06140103 0 0.02553209
v -0.06140103 0.2384943 0.02553209
v -0.02533715 0.2384943 0.06140045
v -0.02533715 0 0.06140045
v 0.02553531 0.2384943 0.06140015
v 0.02553531 0 0.06140015
v 0.06140127 0.2384943 0.02533328
v 0.06140127 0 0.02533328
v 0.06140127 0 0.02533328
v 0.06140127 0.2384943 0.02533328
v 0.061403 0.2384943 -0.025534
v 0.061403 0 -0.025534
v 0.061403 0 -0.025534
v 0.061403 0.2384943 -0.025534
v 0.02533332 0.2384943 -0.06140338
v 0.02533332 0 -0.06140338
v -0.02552962 0.2384943 -0.06140301
v -0.02552962 0 -0.06140301
v -0.06140134 0.2384943 -0.0253372
v -0.06140134 0 -0.0253372
v -0.06140134 0 -0.0253372
v -0.06140134 0.2384943 -0.0253372
v -0.06140103 0.2384943 0.02553209
v -0.06140103 0 0.02553209
v -0.02533715 0 0.06140045
v -2.034494E-06 0.01150855 -2.012421E-06
v -0.06140103 0 0.02553209
v 0.02553531 0 0.06140015
v 0.06140127 0 0.02533328
v 0.061403 0 -0.025534
v 0.02533332 0 -0.06140338
v -0.02552962 0 -0.06140301
v -0.06140134 0 -0.0253372
v -0.02351379 0.4115423 0.00977897
v -2.034494E-06 0.4049802 -2.012421E-06
v -0.009704287 0.4115423 0.02351696
v 0.009779052 0.4115423 0.0235167
v 0.02351931 0.4115423 0.009702426
v 0.02351768 0.4115423 -0.009782746
v 0.009702917 0.4115423 -0.02351829
v -0.009773123 0.4115423 -0.02351846
v -0.02351569 0.4115423 -0.009704605
v -0.06140103 0.2384943 0.02553209
v -0.02941915 0.2944041 0.01223354
v -0.01214244 0.2944041 0.02942153
v -0.02533715 0.2384943 0.06140045
v -0.02533715 0.2384943 0.06140045
v -0.01214244 0.2944041 0.02942153
v 0.01223371 0.2944041 0.02942181
v 0.02553531 0.2384943 0.06140015
v 0.02553531 0.2384943 0.06140015
v 0.01223371 0.2944041 0.02942181
v 0.02942273 0.2944041 0.01213836
v 0.06140127 0.2384943 0.02533328
v 0.06140127 0.2384943 0.02533328
v 0.02942273 0.2944041 0.01213836
v 0.029423 0.2944041 -0.01223728
v 0.061403 0.2384943 -0.025534
v 0.061403 0.2384943 -0.025534
v 0.029423 0.2944041 -0.01223728
v 0.0121386 0.2944041 -0.02942445
v 0.02533332 0.2384943 -0.06140338
v 0.02533332 0.2384943 -0.06140338
v 0.0121386 0.2944041 -0.02942445
v -0.01222967 0.2944041 -0.0294244
v -0.02552962 0.2384943 -0.06140301
v -0.02552962 0.2384943 -0.06140301
v -0.01222967 0.2944041 -0.0294244
v -0.0294208 0.2944041 -0.01214023
v -0.06140134 0.2384943 -0.0253372
v -0.06140134 0.2384943 -0.0253372
v -0.0294208 0.2944041 -0.01214023
v -0.02941915 0.2944041 0.01223354
v -0.06140103 0.2384943 0.02553209
v -0.02941915 0.2944041 0.01223354
v -0.02351379 0.4115423 0.00977897
v -0.009704287 0.4115423 0.02351696
v -0.01214244 0.2944041 0.02942153
v 0.009779052 0.4115423 0.0235167
v 0.01223371 0.2944041 0.02942181
v 0.01223371 0.2944041 0.02942181
v 0.009779052 0.4115423 0.0235167
v 0.02351931 0.4115423 0.009702426
v 0.02942273 0.2944041 0.01213836
v 0.02942273 0.2944041 0.01213836
v 0.02351931 0.4115423 0.009702426
v 0.02351768 0.4115423 -0.009782746
v 0.029423 0.2944041 -0.01223728
v 0.029423 0.2944041 -0.01223728
v 0.02351768 0.4115423 -0.009782746
v 0.009702917 0.4115423 -0.02351829
v 0.0121386 0.2944041 -0.02942445
v -0.009773123 0.4115423 -0.02351846
v -0.01222967 0.2944041 -0.0294244
v -0.01222967 0.2944041 -0.0294244
v -0.009773123 0.4115423 -0.02351846
v -0.02351569 0.4115423 -0.009704605
v -0.0294208 0.2944041 -0.01214023
v -0.02351379 0.4115423 0.00977897
v -0.02941915 0.2944041 0.01223354

vn -0.9296875 0 -0.3669434
vn -0.9267578 0.08093262 -0.3659668
vn -0.9140625 0.08093262 0.3967285
vn -0.9169922 0 0.3979492
vn -0.3657227 0.08093262 0.9267578
vn -0.3669434 0 0.9296875
vn 0.3967285 0.08093262 0.9140625
vn 0.3979492 0 0.9169922
vn 0.3979492 0 0.9169922
vn 0.3967285 0.08093262 0.9140625
vn 0.9267578 0.08093262 0.3657227
vn 0.9296875 0 0.3669434
vn 0.9296875 0 0.3669434
vn 0.9267578 0.08093262 0.3657227
vn 0.9140625 0.08093262 -0.3967285
vn 0.9169922 0 -0.3979492
vn 0.3657227 0.08093262 -0.9267578
vn 0.3669434 0 -0.9296875
vn -0.3967285 0.08093262 -0.9140625
vn -0.3979492 0 -0.9169922
vn -0.3979492 0 -0.9169922
vn -0.3967285 0.08093262 -0.9140625
vn -0.9267578 0.08093262 -0.3659668
vn -0.9296875 0 -0.3669434
vn 0.1564941 -0.9848633 -0.06793213
vn 0 -1 0
vn 0.1585693 -0.9853516 0.06256104
vn 0.06256104 -0.9853516 -0.1585693
vn -0.06793213 -0.9848633 -0.1564941
vn -0.1585693 -0.9853516 -0.06256104
vn -0.1564941 -0.9848633 0.06793213
vn -0.06256104 -0.9848633 0.1585693
vn 0.06793213 -0.9848633 0.1564941
vn 0.2320557 0.9682617 0.09161377
vn 0 1 0
vn 0.2290039 0.9682617 -0.09942627
vn 0.09155273 0.9682617 -0.2320557
vn -0.09942627 0.9682617 -0.2290039
vn -0.2320557 0.9682617 -0.09155273
vn -0.229126 0.9682617 0.09942627
vn -0.09161377 0.9682617 0.2320557
vn 0.09942627 0.9682617 0.229126
vn -0.9267578 0.08093262 -0.3659668
vn -0.8837891 0.3115234 -0.348877
vn -0.871582 0.3110352 0.3781738
vn -0.9140625 0.08093262 0.3967285
vn -0.9140625 0.08093262 0.3967285
vn -0.871582 0.3110352 0.3781738
vn -0.348877 0.3115234 0.8837891
vn -0.3657227 0.08093262 0.9267578
vn -0.3657227 0.08093262 0.9267578
vn -0.348877 0.3115234 0.8837891
vn 0.3781738 0.3110352 0.871582
vn 0.3967285 0.08093262 0.9140625
vn 0.3967285 0.08093262 0.9140625
vn 0.3781738 0.3110352 0.871582
vn 0.8837891 0.3115234 0.3486328
vn 0.9267578 0.08093262 0.3657227
vn 0.9267578 0.08093262 0.3657227
vn 0.8837891 0.3115234 0.3486328
vn 0.871582 0.3110352 -0.3781738
vn 0.9140625 0.08093262 -0.3967285
vn 0.9140625 0.08093262 -0.3967285
vn 0.871582 0.3110352 -0.3781738
vn 0.3486328 0.3115234 -0.8837891
vn 0.3657227 0.08093262 -0.9267578
vn 0.3657227 0.08093262 -0.9267578
vn 0.3486328 0.3115234 -0.8837891
vn -0.3781738 0.3110352 -0.871582
vn -0.3967285 0.08093262 -0.9140625
vn -0.3967285 0.08093262 -0.9140625
vn -0.3781738 0.3110352 -0.871582
vn -0.8837891 0.3115234 -0.348877
vn -0.9267578 0.08093262 -0.3659668
vn -0.8837891 0.3115234 -0.348877
vn -0.9985352 0.05032349 0.01792908
vn -0.9155273 0.05444336 0.3974609
vn -0.871582 0.3110352 0.3781738
vn -0.6948242 0.05032349 0.7167969
vn -0.348877 0.3115234 0.8837891
vn -0.348877 0.3115234 0.8837891
vn 0.01805115 0.05032349 0.9985352
vn 0.3974609 0.05444336 0.9155273
vn 0.3781738 0.3110352 0.871582
vn 0.3781738 0.3110352 0.871582
vn 0.3974609 0.05444336 0.9155273
vn 0.7167969 0.050354 0.6948242
vn 0.8837891 0.3115234 0.3486328
vn 0.8837891 0.3115234 0.3486328
vn 0.9985352 0.05032349 -0.01818848
vn 0.9155273 0.05444336 -0.3974609
vn 0.871582 0.3110352 -0.3781738
vn 0.6948242 0.050354 -0.7167969
vn 0.3486328 0.3115234 -0.8837891
vn 0.3486328 0.3115234 -0.8837891
vn -0.01800537 0.05032349 -0.9985352
vn -0.3974609 0.05444336 -0.9155273
vn -0.3781738 0.3110352 -0.871582
vn -0.7167969 0.05032349 -0.6948242
vn -0.8837891 0.3115234 -0.348877

vt 0.4873047 0.6186523
vt 0.4873047 0.6938477
vt 0.4997559 0.6938477
vt 0.4997559 0.6186523
vt 0.512207 0.6938477
vt 0.512207 0.6186523
vt 0.5244141 0.6938477
vt 0.5244141 0.6186523
vt 0.4707031 0.6855469
vt 0.4707031 0.6904297
vt 0.4758301 0.6904297
vt 0.4758301 0.6855469
vt 0.4558105 0.6264648
vt 0.4558105 0.6816406
vt 0.4675293 0.6816406
vt 0.4675293 0.6264648
vt 0.4790039 0.6816406
vt 0.4790039 0.6264648
vt 0.4904785 0.6816406
vt 0.4904785 0.6264648
vt 0.4707031 0.6855469
vt 0.4707031 0.6904297
vt 0.4758301 0.6904297
vt 0.4758301 0.6855469
vt 0.4750977 0.6923828
vt 0.4731445 0.6879883
vt 0.4714355 0.6923828
vt 0.4777832 0.6899414
vt 0.4777832 0.6860352
vt 0.4750977 0.6835938
vt 0.4714355 0.6835938
vt 0.46875 0.6860352
vt 0.46875 0.6899414
vt 0.4743652 0.690918
vt 0.4731445 0.6879883
vt 0.472168 0.690918
vt 0.4707031 0.6889648
vt 0.4707031 0.6870117
vt 0.472168 0.6855469
vt 0.4743652 0.6855469
vt 0.4758301 0.6870117
vt 0.4758301 0.6889648
vt 0.4707031 0.6855469
vt 0.4707031 0.6904297
vt 0.4758301 0.6904297
vt 0.4758301 0.6855469
vt 0.4707031 0.6855469
vt 0.4707031 0.6904297
vt 0.4758301 0.6904297
vt 0.4758301 0.6855469
vt 0.4707031 0.6855469
vt 0.4707031 0.6904297
vt 0.4758301 0.6904297
vt 0.4758301 0.6855469
vt 0.4707031 0.6855469
vt 0.4707031 0.6904297
vt 0.4758301 0.6904297
vt 0.4758301 0.6855469
vt 0.4707031 0.6855469
vt 0.4707031 0.6904297
vt 0.4758301 0.6904297
vt 0.4758301 0.6855469
vt 0.4707031 0.6855469
vt 0.4707031 0.6904297
vt 0.4758301 0.6904297
vt 0.4758301 0.6855469
vt 0.4707031 0.6855469
vt 0.4707031 0.6904297
vt 0.4758301 0.6904297
vt 0.4758301 0.6855469
vt 0.4707031 0.6855469
vt 0.4707031 0.6904297
vt 0.4758301 0.6904297
vt 0.4758301 0.6855469
vt 0.4968262 0.6948242
vt 0.4968262 0.7260742
vt 0.5029297 0.7260742
vt 0.5029297 0.6948242
vt 0.5092773 0.7260742
vt 0.5092773 0.6948242
vt 0.5092773 0.6948242
vt 0.5092773 0.7260742
vt 0.5151367 0.7260742
vt 0.5151367 0.6948242
vt 0.4655762 0.6948242
vt 0.4655762 0.7260742
vt 0.4716797 0.7260742
vt 0.4716797 0.6948242
vt 0.4716797 0.6948242
vt 0.4716797 0.7260742
vt 0.4780273 0.7260742
vt 0.4780273 0.6948242
vt 0.4841309 0.7260742
vt 0.4841309 0.6948242
vt 0.4841309 0.6948242
vt 0.4841309 0.7260742
vt 0.4904785 0.7260742
vt 0.4904785 0.6948242
vt 0.4968262 0.7260742
vt 0.4968262 0.6948242

g PREF_props_bottle_02_1495_66
usemtl PREF_props_bottle_02_1495_66
usemap PREF_props_bottle_02_1495_66
f 1/1/1 3/3/3 2/2/2
f 1/1/1 4/4/4 3/3/3
f 4/4/4 5/5/5 3/3/3
f 4/4/4 6/6/6 5/5/5
f 6/6/6 7/7/7 5/5/5
f 6/6/6 8/8/8 7/7/7
f 9/9/9 11/11/11 10/10/10
f 9/9/9 12/12/12 11/11/11
f 13/13/13 15/15/15 14/14/14
f 13/13/13 16/16/16 15/15/15
f 16/16/16 17/17/17 15/15/15
f 16/16/16 18/18/18 17/17/17
f 18/18/18 19/19/19 17/17/17
f 18/18/18 20/20/20 19/19/19
f 21/21/21 23/23/23 22/22/22
f 21/21/21 24/24/24 23/23/23
f 25/25/25 27/27/27 26/26/26
f 28/28/28 25/25/25 26/26/26
f 29/29/29 28/28/28 26/26/26
f 30/30/30 29/29/29 26/26/26
f 31/31/31 30/30/30 26/26/26
f 32/32/32 31/31/31 26/26/26
f 33/33/33 32/32/32 26/26/26
f 27/27/27 33/33/33 26/26/26
f 34/34/34 36/36/36 35/35/35
f 36/36/36 37/37/37 35/35/35
f 37/37/37 38/38/38 35/35/35
f 38/38/38 39/39/39 35/35/35
f 39/39/39 40/40/40 35/35/35
f 40/40/40 41/41/41 35/35/35
f 41/41/41 42/42/42 35/35/35
f 42/42/42 34/34/34 35/35/35
f 43/43/43 45/45/45 44/44/44
f 43/43/43 46/46/46 45/45/45
f 47/47/47 49/49/49 48/48/48
f 47/47/47 50/50/50 49/49/49
f 51/51/51 53/53/53 52/52/52
f 51/51/51 54/54/54 53/53/53
f 55/55/55 57/57/57 56/56/56
f 55/55/55 58/58/58 57/57/57
f 59/59/59 61/61/61 60/60/60
f 59/59/59 62/62/62 61/61/61
f 63/63/63 65/65/65 64/64/64
f 63/63/63 66/66/66 65/65/65
f 67/67/67 69/69/69 68/68/68
f 67/67/67 70/70/70 69/69/69
f 71/71/71 73/73/73 72/72/72
f 71/71/71 74/74/74 73/73/73
f 75/75/75 77/77/77 76/76/76
f 75/75/75 78/78/78 77/77/77
f 78/78/78 79/79/79 77/77/77
f 78/78/78 80/80/80 79/79/79
f 81/81/81 83/83/83 82/82/82
f 81/81/81 84/84/84 83/83/83
f 85/85/85 87/87/87 86/86/86
f 85/85/85 88/88/88 87/87/87
f 89/89/89 91/91/91 90/90/90
f 89/89/89 92/92/92 91/91/91
f 92/92/92 93/93/93 91/91/91
f 92/92/92 94/94/94 93/93/93
f 95/95/95 97/97/97 96/96/96
f 95/95/95 98/98/98 97/97/97
f 98/98/98 99/99/99 97/97/97
f 98/98/98 100/100/100 99/99/99
