#PREF_stairs_02_1443_9.obj

v 2.790106 1.490116E-08 1.096698
v 2.790106 0.06336305 1.096697
v 5.219271 0.08636803 1.096698
v 5.219271 1.490116E-08 1.096698
v 2.790106 1.490116E-08 1.096698
v 0.3609414 0 1.096698
v 0.3609414 0.08636802 1.096698
v 2.790106 0.06336305 1.096697
v 0.3609414 0.1154897 1.150718
v 0.3609414 0.1546984 1.150718
v 2.790106 0.1316935 1.150718
v 2.790106 0.0924847 1.150718
v 2.790106 0.1316935 1.150718
v 2.790106 0.1546984 0.7410512
v 5.219271 0.1546984 0.7410512
v 5.219271 0.1546984 1.150718
v 2.790106 0.1316935 1.150718
v 0.3609414 0.1546984 1.150718
v 0.3609414 0.1546984 0.7410512
v 2.790106 0.1546984 0.7410512
v 2.790106 0.1546984 0.7410512
v 2.790106 0.2180615 0.7410512
v 5.219271 0.2410665 0.7410512
v 5.219271 0.1546984 0.7410512
v 0.3609414 0.2701881 0.7950716
v 0.3609414 0.3093969 0.7950716
v 2.790106 0.2863919 0.7950716
v 2.790106 0.2471831 0.7950716
v 2.790106 0.2863919 0.7950716
v 2.790106 0.3093969 0.3941655
v 5.219271 0.3093969 0.3941655
v 5.219271 0.3093969 0.7950716
v 2.790106 0.2863919 0.7950716
v 0.3609414 0.3093969 0.7950716
v 0.3609414 0.3093969 0.3941655
v 2.790106 0.3093969 0.3941655
v 2.790106 0.3093969 0.3941655
v 2.790106 0.3727599 0.3941655
v 5.219271 0.3957649 0.3941655
v 5.219271 0.3093969 0.3941655
v 0.3609414 0.4248865 0.4481859
v 0.3609414 0.4640953 0.4481859
v 2.790106 0.4410903 0.4481859
v 2.790106 0.4018815 0.4481859
v 2.790106 0.4410903 0.4481859
v 2.790106 0.4640953 0
v 5.219271 0.4640953 0
v 5.219271 0.4640953 0.4481859
v 2.790106 0.4410903 0.4481859
v 0.3609414 0.4640953 0.4481859
v 0.3609414 0.4640953 0
v 2.790106 0.4640953 0
v 2.790106 0.3093969 0.3941655
v 0.3609414 0.3093969 0.3941655
v 0.3609414 0.3957649 0.3941655
v 2.790106 0.3727599 0.3941655
v 0.3609414 0.3957649 0.3941655
v 0.3609414 0.4248865 0.4481859
v 2.790106 0.4018815 0.4481859
v 2.790106 0.3727599 0.3941655
v 2.790106 0.4018815 0.4481859
v 2.790106 0.4410903 0.4481859
v 5.219271 0.4640953 0.4481859
v 5.219271 0.4248865 0.4481859
v 2.790106 0.3727599 0.3941655
v 2.790106 0.4018815 0.4481859
v 5.219271 0.4248865 0.4481859
v 5.219271 0.3957649 0.3941655
v 2.790106 0.1546984 0.7410512
v 0.3609414 0.1546984 0.7410512
v 0.3609414 0.2410665 0.7410512
v 2.790106 0.2180615 0.7410512
v 0.3609414 0.2410665 0.7410512
v 0.3609414 0.2701881 0.7950716
v 2.790106 0.2471831 0.7950716
v 2.790106 0.2180615 0.7410512
v 2.790106 0.2471831 0.7950716
v 2.790106 0.2863919 0.7950716
v 5.219271 0.3093969 0.7950716
v 5.219271 0.2701881 0.7950716
v 2.790106 0.2180615 0.7410512
v 2.790106 0.2471831 0.7950716
v 5.219271 0.2701881 0.7950716
v 5.219271 0.2410665 0.7410512
v 0.3609414 0.08636802 1.096698
v 0.3609414 0.1154897 1.150718
v 2.790106 0.0924847 1.150718
v 2.790106 0.06336305 1.096697
v 2.790106 0.0924847 1.150718
v 2.790106 0.1316935 1.150718
v 5.219271 0.1546984 1.150718
v 5.219271 0.1154897 1.150718
v 2.790106 0.06336305 1.096697
v 2.790106 0.0924847 1.150718
v 5.219271 0.1154897 1.150718
v 5.219271 0.08636803 1.096698
v 0 0 1.284021
v 0 0.3373007 1.284021
v 0.3609414 0.3373007 1.284021
v 0.3609414 0 1.284021
v 0 0.674534 0.9467874
v 0 0.674534 0
v 0.3609414 0.674534 0
v 0.3609414 0.674534 0.9467874
v 0.3609414 0.674534 0
v 0.3609414 0 0
v 0.3609414 0 1.284021
v 0.3609414 0.3373007 1.284021
v 0.3609414 0.674534 0.9467874
v 0 0.3373007 1.284021
v 0 0 1.284021
v 0 0 0
v 0 0.674534 0
v 0 0.674534 0.9467874
v 0 0.674534 0.9467874
v 0.3609414 0.674534 0.9467874
v 0.3609414 0.3373007 1.284021
v 0 0.3373007 1.284021

vn 0 0 1
vn 0 0 1
vn 0 0 1
vn 0 0 1
vn 0 0 1
vn 0 0 1
vn 0 0 1
vn 0 0 1
vn -0.005851746 -0.6181641 0.7856445
vn 0 0 1
vn 0 0 1
vn -0.005889893 -0.6220703 0.7827148
vn -0.004730225 0.9995117 0.02806091
vn -0.004730225 0.9995117 0.02806091
vn -0.004730225 0.9995117 0.02806091
vn -0.004730225 0.9995117 0.02806091
vn 0.004730225 0.9995117 0.02806091
vn 0.004730225 0.9995117 0.02806091
vn 0.004730225 0.9995117 0.02806091
vn 0.004730225 0.9995117 0.02806091
vn 0 0 1
vn 0.004341125 -0.4584961 0.8881836
vn 0.004386902 -0.4631348 0.8857422
vn 0 0 1
vn -0.005851746 -0.6181641 0.7856445
vn 0 0 1
vn 0 0 1
vn -0.005889893 -0.6220703 0.7827148
vn -0.004730225 0.9995117 0.02867126
vn -0.004730225 0.9995117 0.02867126
vn -0.004730225 0.9995117 0.02867126
vn -0.004730225 0.9995117 0.02867126
vn 0.004730225 0.9995117 0.02867126
vn 0.004730225 0.9995117 0.02867126
vn 0.004730225 0.9995117 0.02867126
vn 0.004730225 0.9995117 0.02867126
vn 0 0 1
vn 0.004341125 -0.4584961 0.8881836
vn 0.004386902 -0.4631348 0.8857422
vn 0 0 1
vn -0.005851746 -0.6181641 0.7856445
vn 0 0 1
vn 0 0 1
vn -0.005889893 -0.6220703 0.7827148
vn -0.004730225 0.9995117 0.02565002
vn -0.004730225 0.9995117 0.02565002
vn -0.004730225 0.9995117 0.02565002
vn -0.004730225 0.9995117 0.02565002
vn 0.004730225 0.9995117 0.02565002
vn 0.004730225 0.9995117 0.02565002
vn 0.004730225 0.9995117 0.02565002
vn 0.004730225 0.9995117 0.02565002
vn 0 0 1
vn 0 0 1
vn -0.004386902 -0.4631348 0.8857422
vn -0.004341125 -0.4584961 0.8881836
vn -0.004386902 -0.4631348 0.8857422
vn -0.005851746 -0.6181641 0.7856445
vn -0.005889893 -0.6220703 0.7827148
vn -0.004341125 -0.4584961 0.8881836
vn 0.005889893 -0.6220703 0.7827148
vn 0 0 1
vn 0 0 1
vn 0.005851746 -0.6181641 0.7856445
vn 0.004341125 -0.4584961 0.8881836
vn 0.005889893 -0.6220703 0.7827148
vn 0.005851746 -0.6181641 0.7856445
vn 0.004386902 -0.4631348 0.8857422
vn 0 0 1
vn 0 0 1
vn -0.004386902 -0.4631348 0.8857422
vn -0.004341125 -0.4584961 0.8881836
vn -0.004386902 -0.4631348 0.8857422
vn -0.005851746 -0.6181641 0.7856445
vn -0.005889893 -0.6220703 0.7827148
vn -0.004341125 -0.4584961 0.8881836
vn 0.005889893 -0.6220703 0.7827148
vn 0 0 1
vn 0 0 1
vn 0.005851746 -0.6181641 0.7856445
vn 0.004341125 -0.4584961 0.8881836
vn 0.005889893 -0.6220703 0.7827148
vn 0.005851746 -0.6181641 0.7856445
vn 0.004386902 -0.4631348 0.8857422
vn -0.008331299 -0.8798828 0.4743652
vn -0.005851746 -0.6181641 0.7856445
vn -0.005889893 -0.6220703 0.7827148
vn -0.008331299 -0.8798828 0.4743652
vn 0.005889893 -0.6220703 0.7827148
vn 0 0 1
vn 0 0 1
vn 0.005851746 -0.6181641 0.7856445
vn 0.008331299 -0.8798828 0.4743652
vn 0.005889893 -0.6220703 0.7827148
vn 0.005851746 -0.6181641 0.7856445
vn 0.008331299 -0.8798828 0.4743652
vn 0 0 1
vn 0 0 1
vn 0 0 1
vn 0 0 1
vn 0 1 0
vn 0 1 0
vn 0 1 0
vn 0 1 0
vn 1 0 0
vn 1 0 0
vn 1 0 0
vn 1 0 0
vn 1 0 0
vn -1 0 0
vn -1 0 0
vn -1 0 0
vn -1 0 0
vn -1 0 0
vn 0 0.7070313 0.7070313
vn 0 0.7070313 0.7070313
vn 0 0.7070313 0.7070313
vn 0 0.7070313 0.7070313

vt 0.7392578 0.3962402
vt 0.7392578 0.3881836
vt 0.5117188 0.3881836
vt 0.5117188 0.3962402
vt 0.5117188 0.3962402
vt 0.7392578 0.3962402
vt 0.7392578 0.3881836
vt 0.5117188 0.3881836
vt 0.7392578 0.3886719
vt 0.7392578 0.3850098
vt 0.5117188 0.3850098
vt 0.5117188 0.3886719
vt 0.1297607 0.5576172
vt 0.1297607 0.6152344
vt 0.4870605 0.6152344
vt 0.4870605 0.5576172
vt 0.4870605 0.5576172
vt 0.1297607 0.5576172
vt 0.1297607 0.6152344
vt 0.4870605 0.6152344
vt 0.7392578 0.4138184
vt 0.7392578 0.4057617
vt 0.5117188 0.4057617
vt 0.5117188 0.4138184
vt 0.7392578 0.40625
vt 0.7392578 0.4025879
vt 0.5117188 0.4025879
vt 0.5117188 0.40625
vt 0.1297607 0.5576172
vt 0.1297607 0.6152344
vt 0.4870605 0.6152344
vt 0.4870605 0.5576172
vt 0.4870605 0.5576172
vt 0.1297607 0.5576172
vt 0.1297607 0.6152344
vt 0.4870605 0.6152344
vt 0.7392578 0.3759766
vt 0.7392578 0.3679199
vt 0.5117188 0.3679199
vt 0.5117188 0.3759766
vt 0.7392578 0.3684082
vt 0.7392578 0.3647461
vt 0.5117188 0.3647461
vt 0.5117188 0.3684082
vt 0.1297607 0.5576172
vt 0.1297607 0.6152344
vt 0.4870605 0.6152344
vt 0.4870605 0.5576172
vt 0.4870605 0.5576172
vt 0.1297607 0.5576172
vt 0.1297607 0.6152344
vt 0.4870605 0.6152344
vt 0.5117188 0.3759766
vt 0.7392578 0.3759766
vt 0.7392578 0.3679199
vt 0.5117188 0.3679199
vt 0.7392578 0.4987793
vt 0.7392578 0.5043945
vt 0.5117188 0.5043945
vt 0.5117188 0.4987793
vt 0.7392578 0.3684082
vt 0.7392578 0.3647461
vt 0.5117188 0.3647461
vt 0.5117188 0.3684082
vt 0.7392578 0.4987793
vt 0.7392578 0.5043945
vt 0.5117188 0.5043945
vt 0.5117188 0.4987793
vt 0.5117188 0.4138184
vt 0.7392578 0.4138184
vt 0.7392578 0.4057617
vt 0.5117188 0.4057617
vt 0.7392578 0.5366211
vt 0.7392578 0.5419922
vt 0.5117188 0.5419922
vt 0.5117188 0.5366211
vt 0.7392578 0.40625
vt 0.7392578 0.4025879
vt 0.5117188 0.4025879
vt 0.5117188 0.40625
vt 0.7392578 0.5366211
vt 0.7392578 0.5419922
vt 0.5117188 0.5419922
vt 0.5117188 0.5366211
vt 0.7392578 0.519043
vt 0.7392578 0.5244141
vt 0.5117188 0.5244141
vt 0.5117188 0.519043
vt 0.7392578 0.3886719
vt 0.7392578 0.3850098
vt 0.5117188 0.3850098
vt 0.5117188 0.3886719
vt 0.7392578 0.519043
vt 0.7392578 0.5244141
vt 0.5117188 0.5244141
vt 0.5117188 0.519043
vt 0.512207 0.4248047
vt 0.5541992 0.4248047
vt 0.5541992 0.3945313
vt 0.512207 0.3945313
vt 0.512207 0.4248047
vt 0.5742188 0.4248047
vt 0.5742188 0.3945313
vt 0.512207 0.3945313
vt 0.512207 0.3410645
vt 0.512207 0.4248047
vt 0.5961914 0.4248047
vt 0.5961914 0.3830566
vt 0.5742188 0.3410645
vt 0.512207 0.3830566
vt 0.512207 0.4248047
vt 0.5961914 0.4248047
vt 0.5961914 0.3410645
vt 0.5341797 0.3410645
vt 0.5961914 0.4248047
vt 0.5961914 0.3945313
vt 0.5541992 0.3945313
vt 0.5541992 0.4248047

g PREF_stairs_02_1443_9
usemtl PREF_stairs_02_1443_9
usemap PREF_stairs_02_1443_9
f 1/1/1 3/3/3 2/2/2
f 1/1/1 4/4/4 3/3/3
f 5/5/5 7/7/7 6/6/6
f 5/5/5 8/8/8 7/7/7
f 9/9/9 11/11/11 10/10/10
f 9/9/9 12/12/12 11/11/11
f 13/13/13 15/15/15 14/14/14
f 13/13/13 16/16/16 15/15/15
f 17/17/17 19/19/19 18/18/18
f 17/17/17 20/20/20 19/19/19
f 21/21/21 23/23/23 22/22/22
f 21/21/21 24/24/24 23/23/23
f 25/25/25 27/27/27 26/26/26
f 25/25/25 28/28/28 27/27/27
f 29/29/29 31/31/31 30/30/30
f 29/29/29 32/32/32 31/31/31
f 33/33/33 35/35/35 34/34/34
f 33/33/33 36/36/36 35/35/35
f 37/37/37 39/39/39 38/38/38
f 37/37/37 40/40/40 39/39/39
f 41/41/41 43/43/43 42/42/42
f 41/41/41 44/44/44 43/43/43
f 45/45/45 47/47/47 46/46/46
f 45/45/45 48/48/48 47/47/47
f 49/49/49 51/51/51 50/50/50
f 49/49/49 52/52/52 51/51/51
f 53/53/53 55/55/55 54/54/54
f 53/53/53 56/56/56 55/55/55
f 57/57/57 59/59/59 58/58/58
f 57/57/57 60/60/60 59/59/59
f 61/61/61 63/63/63 62/62/62
f 61/61/61 64/64/64 63/63/63
f 65/65/65 67/67/67 66/66/66
f 65/65/65 68/68/68 67/67/67
f 69/69/69 71/71/71 70/70/70
f 69/69/69 72/72/72 71/71/71
f 73/73/73 75/75/75 74/74/74
f 73/73/73 76/76/76 75/75/75
f 77/77/77 79/79/79 78/78/78
f 77/77/77 80/80/80 79/79/79
f 81/81/81 83/83/83 82/82/82
f 81/81/81 84/84/84 83/83/83
f 85/85/85 87/87/87 86/86/86
f 85/85/85 88/88/88 87/87/87
f 89/89/89 91/91/91 90/90/90
f 89/89/89 92/92/92 91/91/91
f 93/93/93 95/95/95 94/94/94
f 93/93/93 96/96/96 95/95/95
f 97/97/97 99/99/99 98/98/98
f 97/97/97 100/100/100 99/99/99
f 101/101/101 103/103/103 102/102/102
f 101/101/101 104/104/104 103/103/103
f 105/105/105 107/107/107 106/106/106
f 107/107/107 105/105/105 108/108/108
f 108/108/108 105/105/105 109/109/109
f 110/110/110 112/112/112 111/111/111
f 112/112/112 110/110/110 113/113/113
f 113/113/113 110/110/110 114/114/114
f 115/115/115 117/117/117 116/116/116
f 115/115/115 118/118/118 117/117/117
