#PREF_props_tv_table_01_(1)_1749_74.obj

v 0.8185539 0.8009768 0.311718
v 0.8185539 0 0.3117199
v 0.8185539 0 -0.311718
v 0.8185539 0.8009768 -0.3117199
v 0.9082012 0.8009768 0.311718
v 0.9082012 0.8009768 -0.311718
v 0.9082012 0 -0.311718
v 0.9082012 0 0.3117199
v 0.8185539 0.8009768 0.311718
v 0.9082012 0.8009768 0.311718
v 0.9082012 0 0.3117199
v 0.8185539 0 0.3117199
v 0.8185539 0 0.3117199
v 0.9082012 0 0.3117199
v 0.9082012 0 -0.311718
v 0.8185539 0 -0.311718
v 0.8185539 0 -0.311718
v 0.9082012 0 -0.311718
v 0.9082012 0.8009768 -0.311718
v 0.8185539 0.8009768 -0.3117199
v -0.814455 0.09316397 0.311718
v 0.8185539 0.09316397 0.311718
v 0.8185539 0.09316397 -0.3117199
v -0.814455 0.09316397 -0.3117199
v -0.814455 0.1833987 0.311718
v -0.814455 0.1833987 -0.3117199
v 0.8185539 0.1833987 -0.3117199
v 0.8185539 0.1833987 0.311718
v -0.814455 0.09316397 0.311718
v -0.814455 0.1833987 0.311718
v 0.8185539 0.1833987 0.311718
v 0.8185539 0.09316397 0.311718
v 0.8185539 0.09316397 0.311718
v 0.8185539 0.1833987 0.311718
v 0.8185539 0.1833987 -0.3117199
v 0.8185539 0.09316397 -0.3117199
v 0.8185539 0.09316397 -0.3117199
v 0.8185539 0.1833987 -0.3117199
v -0.814455 0.1833987 -0.3117199
v -0.814455 0.09316397 -0.3117199
v -0.814455 0.09316397 -0.3117199
v -0.814455 0.1833987 -0.3117199
v -0.814455 0.1833987 0.311718
v -0.814455 0.09316397 0.311718
v -0.4125004 0.8009768 0.2906246
v -0.4125004 0.1833987 0.2906246
v -0.814455 0.1833987 0.2906246
v -0.814455 0.8009768 0.2906246
v 0.8185539 0.8009768 -0.3117199
v -0.814455 0.8009768 -0.311718
v -0.814455 0.1833987 -0.3117199
v 0.8185539 0.1833987 -0.3117199
v -0.4125004 0.6228518 0.2759762
v 0.4166012 0.6228518 0.2759762
v 0.4166012 0.6228518 -0.2876949
v -0.4125023 0.6228518 -0.2876949
v -0.4125004 0.6433597 0.2759762
v -0.4125023 0.6433597 -0.2876949
v 0.4166012 0.6433597 -0.2876949
v 0.4166012 0.6433597 0.2759762
v -0.4125004 0.6228518 0.2759762
v -0.4125004 0.6433597 0.2759762
v 0.4166012 0.6433597 0.2759762
v 0.4166012 0.6228518 0.2759762
v -0.4125004 0.4787111 0.2759762
v 0.4166012 0.4787111 0.2759762
v 0.4166012 0.4787111 -0.2876949
v -0.4125023 0.4787111 -0.2876949
v -0.4125004 0.4992189 0.2759762
v -0.4125023 0.4992189 -0.2876949
v 0.4166012 0.4992189 -0.2876949
v 0.4166012 0.4992189 0.2759762
v -0.4125004 0.4787111 0.2759762
v -0.4125004 0.4992189 0.2759762
v 0.4166012 0.4992189 0.2759762
v 0.4166012 0.4787111 0.2759762
v -0.9041023 0.8009768 0.311718
v -0.9041023 0 0.3117199
v -0.9041023 0 -0.311718
v -0.9041023 0.8009768 -0.311718
v -0.814455 0.8009768 0.311718
v -0.814455 0.8009768 -0.311718
v -0.814455 0 -0.311718
v -0.814455 0 0.3117199
v -0.9041023 0.8009768 0.311718
v -0.814455 0.8009768 0.311718
v -0.814455 0 0.3117199
v -0.9041023 0 0.3117199
v -0.9041023 0 0.3117199
v -0.814455 0 0.3117199
v -0.814455 0 -0.311718
v -0.9041023 0 -0.311718
v -0.9041023 0 -0.311718
v -0.814455 0 -0.311718
v -0.814455 0.8009768 -0.311718
v -0.9041023 0.8009768 -0.311718
v 0.4166012 0.8009768 0.2906246
v 0.8185539 0.8009768 0.2906246
v 0.8185539 0.1833987 0.2906246
v 0.4166012 0.1833987 0.2906246
v -0.4125004 0.8009768 -0.157032
v 0.4166012 0.8009768 -0.157032
v 0.4166012 0.1833987 -0.157032
v -0.4125004 0.1833987 -0.157032
v 0.4166012 0.1833987 -0.157032
v 0.4166012 0.8009768 -0.157032
v 0.4166012 0.8009768 0.2906246
v 0.4166012 0.1833987 0.2906246
v -0.4125004 0.1833987 0.2906246
v -0.4125004 0.8009768 0.2906246
v -0.4125004 0.8009768 -0.157032
v -0.4125004 0.1833987 -0.157032
v -0.9878902 0.8490238 0.311718
v -0.9878902 0.8490238 -0.3117199
v 0.9878902 0.8490238 -0.3117199
v 0.9878902 0.8490238 0.311718
v 0.9878902 0.8009768 0.311718
v 0.9878902 0.8009768 -0.311718
v -0.9878902 0.8009768 -0.311718
v -0.9878902 0.8009768 0.311718
v 0.9878902 0.8009768 0.311718
v 0.9878902 0.8490238 0.311718
v 0.9878902 0.8490238 -0.3117199
v 0.9878902 0.8009768 -0.311718
v 0.9878902 0.8009768 -0.311718
v 0.9878902 0.8490238 -0.3117199
v -0.9878902 0.8490238 -0.3117199
v -0.9878902 0.8009768 -0.311718
v -0.9878902 0.8009768 -0.311718
v -0.9878902 0.8490238 -0.3117199
v -0.9878902 0.8490238 0.311718
v -0.9878902 0.8009768 0.311718
v 0.9878902 0.8009768 0.311718
v -0.9878902 0.8009768 0.311718
v -0.9878902 0.8490238 0.311718
v 0.9878902 0.8490238 0.311718

vn -1 0 0
vn -1 0 0
vn -1 0 0
vn -1 0 0
vn 1 0 0
vn 1 0 0
vn 1 0 0
vn 1 0 0
vn 0 0 1
vn 0 0 1
vn 0 0 1
vn 0 0 1
vn 0 -1 0
vn 0 -1 0
vn 0 -1 0
vn 0 -1 0
vn 0 0 -1
vn 0 0 -1
vn 0 0 -1
vn 0 0 -1
vn 0 -1 0
vn 0 -1 0
vn 0 -1 0
vn 0 -1 0
vn 0 1 0
vn 0 1 0
vn 0 1 0
vn 0 1 0
vn 0 0 1
vn 0 0 1
vn 0 0 1
vn 0 0 1
vn 1 0 0
vn 1 0 0
vn 1 0 0
vn 1 0 0
vn 0 0 -1
vn 0 0 -1
vn 0 0 -1
vn 0 0 -1
vn -1 0 0
vn -1 0 0
vn -1 0 0
vn -1 0 0
vn 0 0 1
vn 0 0 1
vn 0 0 1
vn 0 0 1
vn 0 0 -1
vn 0 0 -1
vn 0 0 -1
vn 0 0 -1
vn 0 -1 0
vn 0 -1 0
vn 0 -1 0
vn 0 -1 0
vn 0 1 0
vn 0 1 0
vn 0 1 0
vn 0 1 0
vn 0 0 1
vn 0 0 1
vn 0 0 1
vn 0 0 1
vn 0 -1 0
vn 0 -1 0
vn 0 -1 0
vn 0 -1 0
vn 0 1 0
vn 0 1 0
vn 0 1 0
vn 0 1 0
vn 0 0 1
vn 0 0 1
vn 0 0 1
vn 0 0 1
vn -1 0 0
vn -1 0 0
vn -1 0 0
vn -1 0 0
vn 1 0 0
vn 1 0 0
vn 1 0 0
vn 1 0 0
vn 0 0 1
vn 0 0 1
vn 0 0 1
vn 0 0 1
vn 0 -1 0
vn 0 -1 0
vn 0 -1 0
vn 0 -1 0
vn 0 0 -1
vn 0 0 -1
vn 0 0 -1
vn 0 0 -1
vn 0 0 1
vn 0 0 1
vn 0 0 1
vn 0 0 1
vn 0 0 1
vn 0 0 1
vn 0 0 1
vn 0 0 1
vn -1 0 0
vn -1 0 0
vn -1 0 0
vn -1 0 0
vn 1 0 0
vn 1 0 0
vn 1 0 0
vn 1 0 0
vn 0 1 0
vn 0 1 0
vn 0 1 0
vn 0 1 0
vn 0 -1 0
vn 0 -1 0
vn 0 -1 0
vn 0 -1 0
vn 1 0 0
vn 1 0 0
vn 1 0 0
vn 1 0 0
vn 0 0 -1
vn 0 0 -1
vn 0 0 -1
vn 0 0 -1
vn -1 0 0
vn -1 0 0
vn -1 0 0
vn -1 0 0
vn 0 0 1
vn 0 0 1
vn 0 0 1
vn 0 0 1

vt 0.4675293 0.4216309
vt 0.4675293 0.3059082
vt 0.3774414 0.3059082
vt 0.3774414 0.4216309
vt 0.3774414 0.4216309
vt 0.4675293 0.4216309
vt 0.4675293 0.3059082
vt 0.3774414 0.3059082
vt 0.4084473 0.4216309
vt 0.4213867 0.4216309
vt 0.4213867 0.3059082
vt 0.4084473 0.3059082
vt 0.3947754 0.3195801
vt 0.3818359 0.3195801
vt 0.3818359 0.409668
vt 0.3947754 0.409668
vt 0.3903809 0.3059082
vt 0.3774414 0.3059082
vt 0.3774414 0.4216309
vt 0.3903809 0.4216309
vt 0.4162598 0.317627
vt 0.4162598 0.4162598
vt 0.4541016 0.4162598
vt 0.4541016 0.317627
vt 0.4621582 0.3095703
vt 0.4174805 0.3095703
vt 0.4174805 0.4267578
vt 0.4621582 0.4267578
vt 0.4372559 0.3081055
vt 0.4245605 0.3081055
vt 0.4245605 0.4257813
vt 0.4372559 0.4257813
vt 0.3774414 0.3059082
vt 0.3774414 0.3188477
vt 0.4675293 0.3188477
vt 0.4675293 0.3059082
vt 0.4267578 0.317627
vt 0.4213867 0.317627
vt 0.4213867 0.4162598
vt 0.4267578 0.4162598
vt 0.3774414 0.3059082
vt 0.3774414 0.3188477
vt 0.4675293 0.3188477
vt 0.4675293 0.3059082
vt 0.4353027 0.3952637
vt 0.4353027 0.3059082
vt 0.3774414 0.3059082
vt 0.3774414 0.3952637
vt 0.4963379 0.3466797
vt 0.3786621 0.3466797
vt 0.3786621 0.3913574
vt 0.4963379 0.3913574
vt 0.4899902 0.3935547
vt 0.4899902 0.3400879
vt 0.4536133 0.3400879
vt 0.4536133 0.3935547
vt 0.4123535 0.4125977
vt 0.4760742 0.4125977
vt 0.4760742 0.3186035
vt 0.4123535 0.3186035
vt 0.4802246 0.3935547
vt 0.4836426 0.3935547
vt 0.4836426 0.3400879
vt 0.4802246 0.3400879
vt 0.4533691 0.3935547
vt 0.4533691 0.3400879
vt 0.4169922 0.3400879
vt 0.4169922 0.3935547
vt 0.3786621 0.4077148
vt 0.4462891 0.4077148
vt 0.4462891 0.3078613
vt 0.3786621 0.3078613
vt 0.3884277 0.3935547
vt 0.3916016 0.3935547
vt 0.3916016 0.3400879
vt 0.3884277 0.3400879
vt 0.4675293 0.4216309
vt 0.4675293 0.3059082
vt 0.3774414 0.3059082
vt 0.3774414 0.4216309
vt 0.3774414 0.4216309
vt 0.4675293 0.4216309
vt 0.4675293 0.3059082
vt 0.3774414 0.3059082
vt 0.3774414 0.4216309
vt 0.3903809 0.4216309
vt 0.3903809 0.3059082
vt 0.3774414 0.3059082
vt 0.3947754 0.3195801
vt 0.3818359 0.3195801
vt 0.3818359 0.409668
vt 0.3947754 0.409668
vt 0.3903809 0.3059082
vt 0.3774414 0.3059082
vt 0.3774414 0.4216309
vt 0.3903809 0.4216309
vt 0.418457 0.3952637
vt 0.4765625 0.3952637
vt 0.4765625 0.3059082
vt 0.418457 0.3059082
vt 0.3774414 0.3952637
vt 0.4970703 0.3952637
vt 0.4970703 0.3059082
vt 0.3774414 0.3059082
vt 0.3774414 0.3059082
vt 0.3774414 0.3952637
vt 0.418457 0.3952637
vt 0.418457 0.3059082
vt 0.3774414 0.3059082
vt 0.3774414 0.3952637
vt 0.418457 0.3952637
vt 0.418457 0.3059082
vt 0.4541016 0.3071289
vt 0.4162598 0.3071289
vt 0.4162598 0.4265137
vt 0.4541016 0.4265137
vt 0.4541016 0.4265137
vt 0.4162598 0.4265137
vt 0.4162598 0.3071289
vt 0.4541016 0.3071289
vt 0.4645996 0.324707
vt 0.4577637 0.324707
vt 0.4577637 0.4145508
vt 0.4645996 0.4145508
vt 0.4211426 0.4284668
vt 0.3999023 0.4284668
vt 0.3999023 0.3081055
vt 0.4211426 0.3081055
vt 0.4902344 0.3232422
vt 0.4831543 0.3232422
vt 0.4831543 0.4133301
vt 0.4902344 0.4133301
vt 0.4150391 0.4072266
vt 0.4150391 0.3291016
vt 0.404541 0.3291016
vt 0.404541 0.4072266

g PREF_props_tv_table_01_(1)_1749_74
usemtl PREF_props_tv_table_01_(1)_1749_74
usemap PREF_props_tv_table_01_(1)_1749_74
f 1/1/1 3/3/3 2/2/2
f 1/1/1 4/4/4 3/3/3
f 5/5/5 7/7/7 6/6/6
f 5/5/5 8/8/8 7/7/7
f 9/9/9 11/11/11 10/10/10
f 9/9/9 12/12/12 11/11/11
f 13/13/13 15/15/15 14/14/14
f 13/13/13 16/16/16 15/15/15
f 17/17/17 19/19/19 18/18/18
f 17/17/17 20/20/20 19/19/19
f 21/21/21 23/23/23 22/22/22
f 21/21/21 24/24/24 23/23/23
f 25/25/25 27/27/27 26/26/26
f 25/25/25 28/28/28 27/27/27
f 29/29/29 31/31/31 30/30/30
f 29/29/29 32/32/32 31/31/31
f 33/33/33 35/35/35 34/34/34
f 33/33/33 36/36/36 35/35/35
f 37/37/37 39/39/39 38/38/38
f 37/37/37 40/40/40 39/39/39
f 41/41/41 43/43/43 42/42/42
f 41/41/41 44/44/44 43/43/43
f 45/45/45 47/47/47 46/46/46
f 45/45/45 48/48/48 47/47/47
f 49/49/49 51/51/51 50/50/50
f 49/49/49 52/52/52 51/51/51
f 53/53/53 55/55/55 54/54/54
f 53/53/53 56/56/56 55/55/55
f 57/57/57 59/59/59 58/58/58
f 57/57/57 60/60/60 59/59/59
f 61/61/61 63/63/63 62/62/62
f 61/61/61 64/64/64 63/63/63
f 65/65/65 67/67/67 66/66/66
f 65/65/65 68/68/68 67/67/67
f 69/69/69 71/71/71 70/70/70
f 69/69/69 72/72/72 71/71/71
f 73/73/73 75/75/75 74/74/74
f 73/73/73 76/76/76 75/75/75
f 77/77/77 79/79/79 78/78/78
f 77/77/77 80/80/80 79/79/79
f 81/81/81 83/83/83 82/82/82
f 81/81/81 84/84/84 83/83/83
f 85/85/85 87/87/87 86/86/86
f 85/85/85 88/88/88 87/87/87
f 89/89/89 91/91/91 90/90/90
f 89/89/89 92/92/92 91/91/91
f 93/93/93 95/95/95 94/94/94
f 93/93/93 96/96/96 95/95/95
f 97/97/97 99/99/99 98/98/98
f 97/97/97 100/100/100 99/99/99
f 101/101/101 103/103/103 102/102/102
f 101/101/101 104/104/104 103/103/103
f 105/105/105 107/107/107 106/106/106
f 105/105/105 108/108/108 107/107/107
f 109/109/109 111/111/111 110/110/110
f 109/109/109 112/112/112 111/111/111
f 113/113/113 115/115/115 114/114/114
f 113/113/113 116/116/116 115/115/115
f 117/117/117 119/119/119 118/118/118
f 117/117/117 120/120/120 119/119/119
f 121/121/121 123/123/123 122/122/122
f 121/121/121 124/124/124 123/123/123
f 125/125/125 127/127/127 126/126/126
f 125/125/125 128/128/128 127/127/127
f 129/129/129 131/131/131 130/130/130
f 129/129/129 132/132/132 131/131/131
f 133/133/133 135/135/135 134/134/134
f 133/133/133 136/136/136 135/135/135
