#PREF_props_paperbox_06_(2)_1459_104.obj

v -0.2993624 0 0.2814632
v -0.2993624 0.7195855 0.2814632
v 0.299362 0.7195855 0.2814635
v 0.299362 0 0.2814635
v -0.2993624 0.7195855 0.2814632
v -0.299362 0.7195855 -0.2814635
v 0.2993624 0.7195855 -0.2814632
v 0.299362 0.7195855 0.2814635
v -0.299362 0.7195855 -0.2814635
v -0.299362 0 -0.2814635
v 0.2993624 0 -0.2814632
v 0.2993624 0.7195855 -0.2814632
v -0.299362 0 -0.2814635
v -0.2993624 0 0.2814632
v 0.299362 0 0.2814635
v 0.2993624 0 -0.2814632
v 0.299362 0 0.2814635
v 0.299362 0.7195855 0.2814635
v 0.2993624 0.7195855 -0.2814632
v 0.2993624 0 -0.2814632
v -0.299362 0 -0.2814635
v -0.299362 0.7195855 -0.2814635
v -0.2993624 0.7195855 0.2814632
v -0.2993624 0 0.2814632

vn -0.7646484 0 0.644043
vn -0.7646484 0 0.644043
vn -0.7646484 0 0.644043
vn -0.7646484 0 0.644043
vn 0 0.9995117 0
vn 0 0.9995117 0
vn 0 0.9995117 0
vn 0 0.9995117 0
vn 0.7646484 0 -0.644043
vn 0.7646484 0 -0.644043
vn 0.7646484 0 -0.644043
vn 0.7646484 0 -0.644043
vn 0 -0.9995117 0
vn 0 -0.9995117 0
vn 0 -0.9995117 0
vn 0 -0.9995117 0
vn 0.644043 0 0.7646484
vn 0.644043 0 0.7646484
vn 0.644043 0 0.7646484
vn 0.644043 0 0.7646484
vn -0.644043 0 -0.7646484
vn -0.644043 0 -0.7646484
vn -0.644043 0 -0.7646484
vn -0.644043 0 -0.7646484

vt 0.5317383 0.7753906
vt 0.5317383 0.862793
vt 0.605957 0.862793
vt 0.605957 0.7753906
vt 0.5317383 0.862793
vt 0.5317383 0.8994141
vt 0.605957 0.8994141
vt 0.605957 0.862793
vt 0.605957 0.862793
vt 0.605957 0.7753906
vt 0.5317383 0.7753906
vt 0.5317383 0.862793
vt 0.5317383 0.7983398
vt 0.5317383 0.8354492
vt 0.605957 0.8354492
vt 0.605957 0.7983398
vt 0.6064453 0.7753906
vt 0.6064453 0.862793
vt 0.6552734 0.862793
vt 0.6552734 0.7753906
vt 0.6064453 0.7753906
vt 0.6064453 0.862793
vt 0.6552734 0.862793
vt 0.6552734 0.7753906

g PREF_props_paperbox_06_(2)_1459_104
usemtl PREF_props_paperbox_06_(2)_1459_104
usemap PREF_props_paperbox_06_(2)_1459_104
f 1/1/1 3/3/3 2/2/2
f 1/1/1 4/4/4 3/3/3
f 5/5/5 7/7/7 6/6/6
f 5/5/5 8/8/8 7/7/7
f 9/9/9 11/11/11 10/10/10
f 9/9/9 12/12/12 11/11/11
f 13/13/13 15/15/15 14/14/14
f 13/13/13 16/16/16 15/15/15
f 17/17/17 19/19/19 18/18/18
f 17/17/17 20/20/20 19/19/19
f 21/21/21 23/23/23 22/22/22
f 21/21/21 24/24/24 23/23/23
