#PREF_props_ventilation_05_(8)_1563_53.obj

v 0.1802902 -0.6835556 0.003509521
v 0.1802902 1.491389 0.003509521
v 0.1873093 1.491389 0.003509521
v 0.1873093 -0.6835556 0.003509521
v 0.1802902 1.491389 -0.003509521
v 0.1802902 -0.6835556 -0.003509521
v 0.1873093 -0.6835556 -0.003509521
v 0.1873093 1.491389 -0.003509521
v 0.1802902 -0.6835556 -0.003509521
v 0.1802902 -0.6835556 0.003509521
v 0.1873093 -0.6835556 0.003509521
v 0.1873093 -0.6835556 -0.003509521
v 0.1873093 -0.6835556 0.003509521
v 0.1873093 1.491389 0.003509521
v 0.1873093 1.491389 -0.003509521
v 0.1873093 -0.6835556 -0.003509521
v 0.1802902 -0.6835556 -0.003509521
v 0.1802902 1.491389 -0.003509521
v 0.1802902 1.491389 0.003509521
v 0.1802902 -0.6835556 0.003509521
v -0.1724472 -0.6266294 -0.02168655
v -0.1724472 -0.5982327 -0.02168655
v -0.1974869 -0.5982327 -0.02168655
v -0.1974869 -0.6266294 -0.02168655
v -0.1974869 -0.6266294 -0.02168655
v -0.1974869 -0.5982327 -0.02168655
v -0.2100105 -0.5982327 0
v -0.2100105 -0.6266294 0
v -0.2100105 -0.6266294 0
v -0.2100105 -0.5982327 0
v -0.1974869 -0.5982327 0.02168655
v -0.1974869 -0.6266294 0.02168655
v -0.1974869 -0.6266294 0.02168655
v -0.1974869 -0.5982327 0.02168655
v -0.1724472 -0.5982327 0.02168655
v -0.1724472 -0.6266294 0.02168655
v -0.1724472 -0.6266294 0.02168655
v -0.1724472 -0.5982327 0.02168655
v -0.1599274 -0.5982327 0
v -0.1599274 -0.6266294 0
v -0.1599274 -0.6266294 0
v -0.1599274 -0.5982327 0
v -0.1724472 -0.5982327 -0.02168655
v -0.1724472 -0.6266294 -0.02168655
v -0.1974869 -0.6266294 -0.02168655
v -0.184967 -0.6266294 0
v -0.1724472 -0.6266294 -0.02168655
v -0.2100105 -0.6266294 0
v -0.184967 -0.6266294 0
v -0.1974869 -0.6266294 -0.02168655
v -0.1974869 -0.6266294 0.02168655
v -0.184967 -0.6266294 0
v -0.2100105 -0.6266294 0
v -0.1724472 -0.6266294 0.02168655
v -0.184967 -0.6266294 0
v -0.1974869 -0.6266294 0.02168655
v -0.1599274 -0.6266294 0
v -0.184967 -0.6266294 0
v -0.1724472 -0.6266294 0.02168655
v -0.1724472 -0.6266294 -0.02168655
v -0.184967 -0.6266294 0
v -0.1599274 -0.6266294 0
v -0.1724472 -0.5982327 -0.02168655
v -0.184967 -0.5982327 0
v -0.1974869 -0.5982327 -0.02168655
v -0.1974869 -0.5982327 -0.02168655
v -0.184967 -0.5982327 0
v -0.2100105 -0.5982327 0
v -0.2100105 -0.5982327 0
v -0.184967 -0.5982327 0
v -0.1974869 -0.5982327 0.02168655
v -0.1974869 -0.5982327 0.02168655
v -0.184967 -0.5982327 0
v -0.1724472 -0.5982327 0.02168655
v -0.1724472 -0.5982327 0.02168655
v -0.184967 -0.5982327 0
v -0.1599274 -0.5982327 0
v -0.1599274 -0.5982327 0
v -0.184967 -0.5982327 0
v -0.1724472 -0.5982327 -0.02168655
v -0.2316971 -0.6160641 0.03832245
v -0.2316971 -0.608798 0.03832245
v 0.2316971 -0.608798 0.03832245
v 0.2316971 -0.6160641 0.03832245
v -0.2316971 -0.608798 0.03832245
v -0.2316971 -0.608798 -0.03832245
v 0.2316971 -0.608798 -0.03832245
v 0.2316971 -0.608798 0.03832245
v -0.2316971 -0.608798 -0.03832245
v -0.2316971 -0.6160641 -0.03832245
v 0.2316971 -0.6160641 -0.03832245
v 0.2316971 -0.608798 -0.03832245
v -0.2316971 -0.6160641 -0.03832245
v -0.2316971 -0.6160641 0.03832245
v 0.2316971 -0.6160641 0.03832245
v 0.2316971 -0.6160641 -0.03832245
v 0.2316971 -0.6160641 0.03832245
v 0.2316971 -0.608798 0.03832245
v 0.2316971 -0.608798 -0.03832245
v 0.2316971 -0.6160641 -0.03832245
v -0.2316971 -0.6160641 -0.03832245
v -0.2316971 -0.608798 -0.03832245
v -0.2316971 -0.608798 0.03832245
v -0.2316971 -0.6160641 0.03832245
v 0.1963196 -0.6266294 -0.02168655
v 0.1963196 -0.5982327 -0.02168655
v 0.1712799 -0.5982327 -0.02168655
v 0.1712799 -0.6266294 -0.02168655
v 0.1712799 -0.6266294 -0.02168655
v 0.1712799 -0.5982327 -0.02168655
v 0.1587563 -0.5982327 0
v 0.1587563 -0.6266294 0
v 0.1587563 -0.6266294 0
v 0.1587563 -0.5982327 0
v 0.1712799 -0.5982327 0.02168655
v 0.1712799 -0.6266294 0.02168655
v 0.1712799 -0.6266294 0.02168655
v 0.1712799 -0.5982327 0.02168655
v 0.1963196 -0.5982327 0.02168655
v 0.1963196 -0.6266294 0.02168655
v 0.1963196 -0.6266294 0.02168655
v 0.1963196 -0.5982327 0.02168655
v 0.2088394 -0.5982327 0
v 0.2088394 -0.6266294 0
v 0.2088394 -0.6266294 0
v 0.2088394 -0.5982327 0
v 0.1963196 -0.5982327 -0.02168655
v 0.1963196 -0.6266294 -0.02168655
v 0.1712799 -0.6266294 -0.02168655
v 0.1837997 -0.6266294 0
v 0.1963196 -0.6266294 -0.02168655
v 0.1587563 -0.6266294 0
v 0.1837997 -0.6266294 0
v 0.1712799 -0.6266294 -0.02168655
v 0.1712799 -0.6266294 0.02168655
v 0.1837997 -0.6266294 0
v 0.1587563 -0.6266294 0
v 0.1963196 -0.6266294 0.02168655
v 0.1837997 -0.6266294 0
v 0.1712799 -0.6266294 0.02168655
v 0.2088394 -0.6266294 0
v 0.1837997 -0.6266294 0
v 0.1963196 -0.6266294 0.02168655
v 0.1963196 -0.6266294 -0.02168655
v 0.1837997 -0.6266294 0
v 0.2088394 -0.6266294 0
v 0.1963196 -0.5982327 -0.02168655
v 0.1837997 -0.5982327 0
v 0.1712799 -0.5982327 -0.02168655
v 0.1712799 -0.5982327 -0.02168655
v 0.1837997 -0.5982327 0
v 0.1587563 -0.5982327 0
v 0.1587563 -0.5982327 0
v 0.1837997 -0.5982327 0
v 0.1712799 -0.5982327 0.02168655
v 0.1712799 -0.5982327 0.02168655
v 0.1837997 -0.5982327 0
v 0.1963196 -0.5982327 0.02168655
v 0.1963196 -0.5982327 0.02168655
v 0.1837997 -0.5982327 0
v 0.2088394 -0.5982327 0
v 0.2088394 -0.5982327 0
v 0.1837997 -0.5982327 0
v 0.1963196 -0.5982327 -0.02168655
v -0.1884766 -0.6835556 0.003509521
v -0.1884766 1.491389 0.003509521
v -0.1814613 1.491389 0.003509521
v -0.1814613 -0.6835556 0.003509521
v -0.1884766 1.491389 -0.003509521
v -0.1884766 -0.6835556 -0.003509521
v -0.1814613 -0.6835556 -0.003509521
v -0.1814613 1.491389 -0.003509521
v -0.1884766 -0.6835556 -0.003509521
v -0.1884766 -0.6835556 0.003509521
v -0.1814613 -0.6835556 0.003509521
v -0.1814613 -0.6835556 -0.003509521
v -0.1814613 -0.6835556 0.003509521
v -0.1814613 1.491389 0.003509521
v -0.1814613 1.491389 -0.003509521
v -0.1814613 -0.6835556 -0.003509521
v -0.1884766 -0.6835556 -0.003509521
v -0.1884766 1.491389 -0.003509521
v -0.1884766 1.491389 0.003509521
v -0.1884766 -0.6835556 0.003509521

vn 0 0 1
vn 0 0 1
vn 0 0 1
vn 0 0 1
vn 0 0 -1
vn 0 0 -1
vn 0 0 -1
vn 0 0 -1
vn 0 -1 0
vn 0 -1 0
vn 0 -1 0
vn 0 -1 0
vn 1 0 0
vn 1 0 0
vn 1 0 0
vn 1 0 0
vn -1 0 0
vn -1 0 0
vn -1 0 0
vn -1 0 0
vn 0 0 -1
vn 0 0 -1
vn 0 0 -1
vn 0 0 -1
vn -0.8657227 0 -0.5
vn -0.8657227 0 -0.5
vn -0.8657227 0 -0.5
vn -0.8657227 0 -0.5
vn -0.8657227 0 0.5
vn -0.8657227 0 0.5
vn -0.8657227 0 0.5
vn -0.8657227 0 0.5
vn 0 0 1
vn 0 0 1
vn 0 0 1
vn 0 0 1
vn 0.8657227 0 0.4997559
vn 0.8657227 0 0.4997559
vn 0.8657227 0 0.4997559
vn 0.8657227 0 0.4997559
vn 0.8657227 0 -0.4997559
vn 0.8657227 0 -0.4997559
vn 0.8657227 0 -0.4997559
vn 0.8657227 0 -0.4997559
vn 0 -1 0
vn 0 -1 0
vn 0 -1 0
vn 0 -1 0
vn 0 -1 0
vn 0 -1 0
vn 0 -1 0
vn 0 -1 0
vn 0 -1 0
vn 0 -1 0
vn 0 -1 0
vn 0 -1 0
vn 0 -1 0
vn 0 -1 0
vn 0 -1 0
vn 0 -1 0
vn 0 -1 0
vn 0 -1 0
vn 0 1 0
vn 0 1 0
vn 0 1 0
vn 0 1 0
vn 0 1 0
vn 0 1 0
vn 0 1 0
vn 0 1 0
vn 0 1 0
vn 0 1 0
vn 0 1 0
vn 0 1 0
vn 0 1 0
vn 0 1 0
vn 0 1 0
vn 0 1 0
vn 0 1 0
vn 0 1 0
vn 0 0 1
vn 0 0 1
vn 0 0 1
vn 0 0 1
vn 0 1 0
vn 0 1 0
vn 0 1 0
vn 0 1 0
vn 0 0 -1
vn 0 0 -1
vn 0 0 -1
vn 0 0 -1
vn 0 -1 0
vn 0 -1 0
vn 0 -1 0
vn 0 -1 0
vn 1 0 0
vn 1 0 0
vn 1 0 0
vn 1 0 0
vn -1 0 0
vn -1 0 0
vn -1 0 0
vn -1 0 0
vn 0 0 -1
vn 0 0 -1
vn 0 0 -1
vn 0 0 -1
vn -0.8657227 0 -0.5
vn -0.8657227 0 -0.5
vn -0.8657227 0 -0.5
vn -0.8657227 0 -0.5
vn -0.8657227 0 0.5
vn -0.8657227 0 0.5
vn -0.8657227 0 0.5
vn -0.8657227 0 0.5
vn 0 0 1
vn 0 0 1
vn 0 0 1
vn 0 0 1
vn 0.8657227 0 0.4997559
vn 0.8657227 0 0.4997559
vn 0.8657227 0 0.4997559
vn 0.8657227 0 0.4997559
vn 0.8657227 0 -0.4997559
vn 0.8657227 0 -0.4997559
vn 0.8657227 0 -0.4997559
vn 0.8657227 0 -0.4997559
vn 0 -1 0
vn 0 -1 0
vn 0 -1 0
vn 0 -1 0
vn 0 -1 0
vn 0 -1 0
vn 0 -1 0
vn 0 -1 0
vn 0 -1 0
vn 0 -1 0
vn 0 -1 0
vn 0 -1 0
vn 0 -1 0
vn 0 -1 0
vn 0 -1 0
vn 0 -1 0
vn 0 -1 0
vn 0 -1 0
vn 0 1 0
vn 0 1 0
vn 0 1 0
vn 0 1 0
vn 0 1 0
vn 0 1 0
vn 0 1 0
vn 0 1 0
vn 0 1 0
vn 0 1 0
vn 0 1 0
vn 0 1 0
vn 0 1 0
vn 0 1 0
vn 0 1 0
vn 0 1 0
vn 0 1 0
vn 0 1 0
vn 0 0 1
vn 0 0 1
vn 0 0 1
vn 0 0 1
vn 0 0 -1
vn 0 0 -1
vn 0 0 -1
vn 0 0 -1
vn 0 -1 0
vn 0 -1 0
vn 0 -1 0
vn 0 -1 0
vn 1 0 0
vn 1 0 0
vn 1 0 0
vn 1 0 0
vn -1 0 0
vn -1 0 0
vn -1 0 0
vn -1 0 0

vt 0.1923828 0.9423828
vt 0.1923828 0.9472656
vt 0.1973877 0.9472656
vt 0.1973877 0.9423828
vt 0.1923828 0.9423828
vt 0.1923828 0.9472656
vt 0.1973877 0.9472656
vt 0.1973877 0.9423828
vt 0.1923828 0.9423828
vt 0.1923828 0.9472656
vt 0.1973877 0.9472656
vt 0.1973877 0.9423828
vt 0.1923828 0.9423828
vt 0.1923828 0.9472656
vt 0.1973877 0.9472656
vt 0.1973877 0.9423828
vt 0.1923828 0.9423828
vt 0.1923828 0.9472656
vt 0.1973877 0.9472656
vt 0.1973877 0.9423828
vt 0.1566162 0.9423828
vt 0.1566162 0.9472656
vt 0.1616211 0.9472656
vt 0.1616211 0.9423828
vt 0.1566162 0.9423828
vt 0.1566162 0.9472656
vt 0.1616211 0.9472656
vt 0.1616211 0.9423828
vt 0.1566162 0.9423828
vt 0.1566162 0.9472656
vt 0.1616211 0.9472656
vt 0.1616211 0.9423828
vt 0.1566162 0.9423828
vt 0.1566162 0.9472656
vt 0.1616211 0.9472656
vt 0.1616211 0.9423828
vt 0.1566162 0.9423828
vt 0.1566162 0.9472656
vt 0.1616211 0.9472656
vt 0.1616211 0.9423828
vt 0.1566162 0.9423828
vt 0.1566162 0.9472656
vt 0.1616211 0.9472656
vt 0.1616211 0.9423828
vt 0.1217651 0.9423828
vt 0.126709 0.9472656
vt 0.126709 0.9423828
vt 0.1217651 0.9423828
vt 0.126709 0.9472656
vt 0.126709 0.9423828
vt 0.1217651 0.9423828
vt 0.126709 0.9472656
vt 0.126709 0.9423828
vt 0.1217651 0.9423828
vt 0.126709 0.9472656
vt 0.126709 0.9423828
vt 0.1217651 0.9423828
vt 0.126709 0.9472656
vt 0.126709 0.9423828
vt 0.1217651 0.9423828
vt 0.126709 0.9472656
vt 0.126709 0.9423828
vt 0.1217651 0.9423828
vt 0.126709 0.9472656
vt 0.126709 0.9423828
vt 0.1217651 0.9423828
vt 0.126709 0.9472656
vt 0.126709 0.9423828
vt 0.1217651 0.9423828
vt 0.126709 0.9472656
vt 0.126709 0.9423828
vt 0.1217651 0.9423828
vt 0.126709 0.9472656
vt 0.126709 0.9423828
vt 0.1217651 0.9423828
vt 0.126709 0.9472656
vt 0.126709 0.9423828
vt 0.1217651 0.9423828
vt 0.126709 0.9472656
vt 0.126709 0.9423828
vt 0.6923828 0.7207031
vt 0.6933594 0.7207031
vt 0.6933594 0.640625
vt 0.6923828 0.640625
vt 0.6567383 0.9736328
vt 0.6640625 0.9736328
vt 0.6640625 0.9291992
vt 0.6567383 0.9291992
vt 0.7070313 0.7207031
vt 0.7080078 0.7207031
vt 0.7080078 0.640625
vt 0.7070313 0.640625
vt 0.6567383 0.9736328
vt 0.6640625 0.9736328
vt 0.6640625 0.9291992
vt 0.6567383 0.9291992
vt 0.7216797 0.6533203
vt 0.7231445 0.6533203
vt 0.7231445 0.640625
vt 0.7216797 0.640625
vt 0.7236328 0.6533203
vt 0.7246094 0.6533203
vt 0.7246094 0.640625
vt 0.7236328 0.640625
vt 0.1566162 0.9423828
vt 0.1566162 0.9472656
vt 0.1616211 0.9472656
vt 0.1616211 0.9423828
vt 0.1566162 0.9423828
vt 0.1566162 0.9472656
vt 0.1616211 0.9472656
vt 0.1616211 0.9423828
vt 0.1566162 0.9423828
vt 0.1566162 0.9472656
vt 0.1616211 0.9472656
vt 0.1616211 0.9423828
vt 0.1566162 0.9423828
vt 0.1566162 0.9472656
vt 0.1616211 0.9472656
vt 0.1616211 0.9423828
vt 0.1566162 0.9423828
vt 0.1566162 0.9472656
vt 0.1616211 0.9472656
vt 0.1616211 0.9423828
vt 0.1566162 0.9423828
vt 0.1566162 0.9472656
vt 0.1616211 0.9472656
vt 0.1616211 0.9423828
vt 0.1217651 0.9423828
vt 0.126709 0.9472656
vt 0.126709 0.9423828
vt 0.1217651 0.9423828
vt 0.126709 0.9472656
vt 0.126709 0.9423828
vt 0.1217651 0.9423828
vt 0.126709 0.9472656
vt 0.126709 0.9423828
vt 0.1217651 0.9423828
vt 0.126709 0.9472656
vt 0.126709 0.9423828
vt 0.1217651 0.9423828
vt 0.126709 0.9472656
vt 0.126709 0.9423828
vt 0.1217651 0.9423828
vt 0.126709 0.9472656
vt 0.126709 0.9423828
vt 0.1217651 0.9423828
vt 0.126709 0.9472656
vt 0.126709 0.9423828
vt 0.1217651 0.9423828
vt 0.126709 0.9472656
vt 0.126709 0.9423828
vt 0.1217651 0.9423828
vt 0.126709 0.9472656
vt 0.126709 0.9423828
vt 0.1217651 0.9423828
vt 0.126709 0.9472656
vt 0.126709 0.9423828
vt 0.1217651 0.9423828
vt 0.126709 0.9472656
vt 0.126709 0.9423828
vt 0.1217651 0.9423828
vt 0.126709 0.9472656
vt 0.126709 0.9423828
vt 0.1923828 0.9423828
vt 0.1923828 0.9472656
vt 0.1973877 0.9472656
vt 0.1973877 0.9423828
vt 0.1923828 0.9423828
vt 0.1923828 0.9472656
vt 0.1973877 0.9472656
vt 0.1973877 0.9423828
vt 0.1923828 0.9423828
vt 0.1923828 0.9472656
vt 0.1973877 0.9472656
vt 0.1973877 0.9423828
vt 0.1923828 0.9423828
vt 0.1923828 0.9472656
vt 0.1973877 0.9472656
vt 0.1973877 0.9423828
vt 0.1923828 0.9423828
vt 0.1923828 0.9472656
vt 0.1973877 0.9472656
vt 0.1973877 0.9423828

g PREF_props_ventilation_05_(8)_1563_53
usemtl PREF_props_ventilation_05_(8)_1563_53
usemap PREF_props_ventilation_05_(8)_1563_53
f 1/1/1 3/3/3 2/2/2
f 1/1/1 4/4/4 3/3/3
f 5/5/5 7/7/7 6/6/6
f 5/5/5 8/8/8 7/7/7
f 9/9/9 11/11/11 10/10/10
f 9/9/9 12/12/12 11/11/11
f 13/13/13 15/15/15 14/14/14
f 13/13/13 16/16/16 15/15/15
f 17/17/17 19/19/19 18/18/18
f 17/17/17 20/20/20 19/19/19
f 21/21/21 23/23/23 22/22/22
f 21/21/21 24/24/24 23/23/23
f 25/25/25 27/27/27 26/26/26
f 25/25/25 28/28/28 27/27/27
f 29/29/29 31/31/31 30/30/30
f 29/29/29 32/32/32 31/31/31
f 33/33/33 35/35/35 34/34/34
f 33/33/33 36/36/36 35/35/35
f 37/37/37 39/39/39 38/38/38
f 37/37/37 40/40/40 39/39/39
f 41/41/41 43/43/43 42/42/42
f 41/41/41 44/44/44 43/43/43
f 45/45/45 47/47/47 46/46/46
f 48/48/48 50/50/50 49/49/49
f 51/51/51 53/53/53 52/52/52
f 54/54/54 56/56/56 55/55/55
f 57/57/57 59/59/59 58/58/58
f 60/60/60 62/62/62 61/61/61
f 63/63/63 65/65/65 64/64/64
f 66/66/66 68/68/68 67/67/67
f 69/69/69 71/71/71 70/70/70
f 72/72/72 74/74/74 73/73/73
f 75/75/75 77/77/77 76/76/76
f 78/78/78 80/80/80 79/79/79
f 81/81/81 83/83/83 82/82/82
f 81/81/81 84/84/84 83/83/83
f 85/85/85 87/87/87 86/86/86
f 85/85/85 88/88/88 87/87/87
f 89/89/89 91/91/91 90/90/90
f 89/89/89 92/92/92 91/91/91
f 93/93/93 95/95/95 94/94/94
f 93/93/93 96/96/96 95/95/95
f 97/97/97 99/99/99 98/98/98
f 97/97/97 100/100/100 99/99/99
f 101/101/101 103/103/103 102/102/102
f 101/101/101 104/104/104 103/103/103
f 105/105/105 107/107/107 106/106/106
f 105/105/105 108/108/108 107/107/107
f 109/109/109 111/111/111 110/110/110
f 109/109/109 112/112/112 111/111/111
f 113/113/113 115/115/115 114/114/114
f 113/113/113 116/116/116 115/115/115
f 117/117/117 119/119/119 118/118/118
f 117/117/117 120/120/120 119/119/119
f 121/121/121 123/123/123 122/122/122
f 121/121/121 124/124/124 123/123/123
f 125/125/125 127/127/127 126/126/126
f 125/125/125 128/128/128 127/127/127
f 129/129/129 131/131/131 130/130/130
f 132/132/132 134/134/134 133/133/133
f 135/135/135 137/137/137 136/136/136
f 138/138/138 140/140/140 139/139/139
f 141/141/141 143/143/143 142/142/142
f 144/144/144 146/146/146 145/145/145
f 147/147/147 149/149/149 148/148/148
f 150/150/150 152/152/152 151/151/151
f 153/153/153 155/155/155 154/154/154
f 156/156/156 158/158/158 157/157/157
f 159/159/159 161/161/161 160/160/160
f 162/162/162 164/164/164 163/163/163
f 165/165/165 167/167/167 166/166/166
f 165/165/165 168/168/168 167/167/167
f 169/169/169 171/171/171 170/170/170
f 169/169/169 172/172/172 171/171/171
f 173/173/173 175/175/175 174/174/174
f 173/173/173 176/176/176 175/175/175
f 177/177/177 179/179/179 178/178/178
f 177/177/177 180/180/180 179/179/179
f 181/181/181 183/183/183 182/182/182
f 181/181/181 184/184/184 183/183/183
