#PREF_props_top_lamp_02_1627_6.obj

v 0.2359085 -0.1183381 -0.1713982
v 0 -0.1479173 0
v 0.2773285 -0.1183381 -0.09010983
v 0.1713982 -0.1183381 -0.2359104
v 0 -0.1479173 0
v 0.2359085 -0.1183381 -0.1713982
v 0.09010887 -0.1183381 -0.2773285
v 0 -0.1479173 0
v 0.1713982 -0.1183381 -0.2359104
v 0 -0.1183381 -0.2916012
v 0 -0.1479173 0
v 0.09010887 -0.1183381 -0.2773285
v -0.09011269 -0.1183381 -0.2773285
v 0 -0.1479173 0
v 0 -0.1183381 -0.2916012
v -0.1713982 -0.1183381 -0.2359104
v 0 -0.1479173 0
v -0.09011269 -0.1183381 -0.2773285
v -0.2359104 -0.1183381 -0.1713982
v 0 -0.1479173 0
v -0.1713982 -0.1183381 -0.2359104
v -0.2773285 -0.1183381 -0.09010887
v 0 -0.1479173 0
v -0.2359104 -0.1183381 -0.1713982
v -0.2916012 -0.1183381 0
v 0 -0.1479173 0
v -0.2773285 -0.1183381 -0.09010887
v -0.2773285 -0.1183381 0.09010887
v 0 -0.1479173 0
v -0.2916012 -0.1183381 0
v -0.2359104 -0.1183381 0.1713982
v 0 -0.1479173 0
v -0.2773285 -0.1183381 0.09010887
v -0.1713982 -0.1183381 0.2359095
v 0 -0.1479173 0
v -0.2359104 -0.1183381 0.1713982
v -0.09011269 -0.1183381 0.2773285
v 0 -0.1479173 0
v -0.1713982 -0.1183381 0.2359095
v 0 -0.1183381 0.2916002
v 0 -0.1479173 0
v -0.09011269 -0.1183381 0.2773285
v 0.09010887 -0.1183381 0.2773285
v 0 -0.1479173 0
v 0 -0.1183381 0.2916002
v 0.1713982 -0.1183381 0.2359095
v 0 -0.1479173 0
v 0.09010887 -0.1183381 0.2773285
v 0.2359085 -0.1183381 0.1713982
v 0 -0.1479173 0
v 0.1713982 -0.1183381 0.2359095
v 0.2773266 -0.1183381 0.09010983
v 0 -0.1479173 0
v 0.2359085 -0.1183381 0.1713982
v 0.2915993 -0.1183381 0
v 0 -0.1479173 0
v 0.2773266 -0.1183381 0.09010983
v 0.2773285 -0.1183381 -0.09010983
v 0 -0.1479173 0
v 0.2915993 -0.1183381 0
v 0.3301468 -0.08718109 -0.2398682
v 0.2359085 -0.1183381 -0.1713982
v 0.2773285 -0.1183381 -0.09010983
v 0.3881149 -0.08718109 -0.1261063
v 0.2398682 -0.08718109 -0.3301497
v 0.1713982 -0.1183381 -0.2359104
v 0.2359085 -0.1183381 -0.1713982
v 0.3301468 -0.08718109 -0.2398682
v 0.1261063 -0.08718109 -0.388114
v 0.09010887 -0.1183381 -0.2773285
v 0.1713982 -0.1183381 -0.2359104
v 0.2398682 -0.08718109 -0.3301497
v 0 -0.08718109 -0.4080877
v 0 -0.1183381 -0.2916012
v 0.09010887 -0.1183381 -0.2773285
v 0.1261063 -0.08718109 -0.388114
v -0.1261082 -0.08718109 -0.388114
v -0.09011269 -0.1183381 -0.2773285
v 0 -0.1183381 -0.2916012
v 0 -0.08718109 -0.4080877
v -0.2398682 -0.08718109 -0.3301497
v -0.1713982 -0.1183381 -0.2359104
v -0.09011269 -0.1183381 -0.2773285
v -0.1261082 -0.08718109 -0.388114
v -0.3301487 -0.08718109 -0.2398682
v -0.2359104 -0.1183381 -0.1713982
v -0.1713982 -0.1183381 -0.2359104
v -0.2398682 -0.08718109 -0.3301497
v -0.3881149 -0.08718109 -0.1261063
v -0.2773285 -0.1183381 -0.09010887
v -0.2359104 -0.1183381 -0.1713982
v -0.3301487 -0.08718109 -0.2398682
v -0.4080887 -0.08718109 0
v -0.2916012 -0.1183381 0
v -0.2773285 -0.1183381 -0.09010887
v -0.3881149 -0.08718109 -0.1261063
v -0.3881149 -0.08718109 0.1261063
v -0.2773285 -0.1183381 0.09010887
v -0.2916012 -0.1183381 0
v -0.4080887 -0.08718109 0
v -0.3301487 -0.08718109 0.2398682
v -0.2359104 -0.1183381 0.1713982
v -0.2773285 -0.1183381 0.09010887
v -0.3881149 -0.08718109 0.1261063
v -0.2398682 -0.08718109 0.3301497
v -0.1713982 -0.1183381 0.2359095
v -0.2359104 -0.1183381 0.1713982
v -0.3301487 -0.08718109 0.2398682
v -0.1261082 -0.08718109 0.388114
v -0.09011269 -0.1183381 0.2773285
v -0.1713982 -0.1183381 0.2359095
v -0.2398682 -0.08718109 0.3301497
v 0 -0.08718109 0.4080868
v 0 -0.1183381 0.2916002
v -0.09011269 -0.1183381 0.2773285
v -0.1261082 -0.08718109 0.388114
v 0.1261063 -0.08718109 0.388114
v 0.09010887 -0.1183381 0.2773285
v 0 -0.1183381 0.2916002
v 0 -0.08718109 0.4080868
v 0.2398682 -0.08718109 0.3301497
v 0.1713982 -0.1183381 0.2359095
v 0.09010887 -0.1183381 0.2773285
v 0.1261063 -0.08718109 0.388114
v 0.3301468 -0.08718109 0.2398682
v 0.2359085 -0.1183381 0.1713982
v 0.1713982 -0.1183381 0.2359095
v 0.2398682 -0.08718109 0.3301497
v 0.388113 -0.08718109 0.1261063
v 0.2773266 -0.1183381 0.09010983
v 0.2359085 -0.1183381 0.1713982
v 0.3301468 -0.08718109 0.2398682
v 0.4080868 -0.08718109 0
v 0.2915993 -0.1183381 0
v 0.2773266 -0.1183381 0.09010983
v 0.388113 -0.08718109 0.1261063
v 0.3881149 -0.08718109 -0.1261063
v 0.2773285 -0.1183381 -0.09010983
v 0.2915993 -0.1183381 0
v 0.4080868 -0.08718109 0

vn 0.081604 -0.9946289 -0.05929565
vn 0 -1 0
vn 0.09594727 -0.9946289 -0.03117371
vn 0.05929565 -0.9946289 -0.081604
vn 0 -1 0
vn 0.081604 -0.9946289 -0.05929565
vn 0.03117371 -0.9946289 -0.09594727
vn 0 -1 0
vn 0.05929565 -0.9946289 -0.081604
vn 0 -0.9946289 -0.1008911
vn 0 -1 0
vn 0.03117371 -0.9946289 -0.09594727
vn -0.03117371 -0.9946289 -0.09594727
vn 0 -1 0
vn 0 -0.9946289 -0.1008911
vn -0.05929565 -0.9946289 -0.081604
vn 0 -1 0
vn -0.03117371 -0.9946289 -0.09594727
vn -0.081604 -0.9946289 -0.05929565
vn 0 -1 0
vn -0.05929565 -0.9946289 -0.081604
vn -0.09594727 -0.9946289 -0.03117371
vn 0 -1 0
vn -0.081604 -0.9946289 -0.05929565
vn -0.1008911 -0.9946289 0
vn 0 -1 0
vn -0.09594727 -0.9946289 -0.03117371
vn -0.09594727 -0.9946289 0.03117371
vn 0 -1 0
vn -0.1008911 -0.9946289 0
vn -0.081604 -0.9946289 0.05929565
vn 0 -1 0
vn -0.09594727 -0.9946289 0.03117371
vn -0.05929565 -0.9946289 0.081604
vn 0 -1 0
vn -0.081604 -0.9946289 0.05929565
vn -0.03117371 -0.9946289 0.09594727
vn 0 -1 0
vn -0.05929565 -0.9946289 0.081604
vn 0 -0.9946289 0.1008911
vn 0 -1 0
vn -0.03117371 -0.9946289 0.09594727
vn 0.03117371 -0.9946289 0.09594727
vn 0 -1 0
vn 0 -0.9946289 0.1008911
vn 0.05929565 -0.9946289 0.081604
vn 0 -1 0
vn 0.03117371 -0.9946289 0.09594727
vn 0.081604 -0.9946289 0.05929565
vn 0 -1 0
vn 0.05929565 -0.9946289 0.081604
vn 0.09594727 -0.9946289 0.03117371
vn 0 -1 0
vn 0.081604 -0.9946289 0.05929565
vn 0.1008911 -0.9946289 0
vn 0 -1 0
vn 0.09594727 -0.9946289 0.03117371
vn 0.09594727 -0.9946289 -0.03117371
vn 0 -1 0
vn 0.1008911 -0.9946289 0
vn 0.2327881 -0.9648438 -0.1186523
vn 0.2327881 -0.9648438 -0.1186523
vn 0.2327881 -0.9648438 -0.1186523
vn 0.2327881 -0.9648438 -0.1186523
vn 0.1848145 -0.9648438 -0.1848145
vn 0.1848145 -0.9648438 -0.1848145
vn 0.1848145 -0.9648438 -0.1848145
vn 0.1848145 -0.9648438 -0.1848145
vn 0.1186523 -0.9648438 -0.2327881
vn 0.1186523 -0.9648438 -0.2327881
vn 0.1186523 -0.9648438 -0.2327881
vn 0.1186523 -0.9648438 -0.2327881
vn 0.04086304 -0.9648438 -0.2580566
vn 0.04086304 -0.9648438 -0.2580566
vn 0.04086304 -0.9648438 -0.2580566
vn 0.04086304 -0.9648438 -0.2580566
vn -0.04086304 -0.9648438 -0.2580566
vn -0.04086304 -0.9648438 -0.2580566
vn -0.04086304 -0.9648438 -0.2580566
vn -0.04086304 -0.9648438 -0.2580566
vn -0.1186523 -0.9648438 -0.2327881
vn -0.1186523 -0.9648438 -0.2327881
vn -0.1186523 -0.9648438 -0.2327881
vn -0.1186523 -0.9648438 -0.2327881
vn -0.1848145 -0.9648438 -0.1848145
vn -0.1848145 -0.9648438 -0.1848145
vn -0.1848145 -0.9648438 -0.1848145
vn -0.1848145 -0.9648438 -0.1848145
vn -0.2327881 -0.9648438 -0.1186523
vn -0.2327881 -0.9648438 -0.1186523
vn -0.2327881 -0.9648438 -0.1186523
vn -0.2327881 -0.9648438 -0.1186523
vn -0.2580566 -0.9648438 -0.04086304
vn -0.2580566 -0.9648438 -0.04086304
vn -0.2580566 -0.9648438 -0.04086304
vn -0.2580566 -0.9648438 -0.04086304
vn -0.2580566 -0.9648438 0.04086304
vn -0.2580566 -0.9648438 0.04086304
vn -0.2580566 -0.9648438 0.04086304
vn -0.2580566 -0.9648438 0.04086304
vn -0.2327881 -0.9648438 0.1186523
vn -0.2327881 -0.9648438 0.1186523
vn -0.2327881 -0.9648438 0.1186523
vn -0.2327881 -0.9648438 0.1186523
vn -0.1848145 -0.9648438 0.1848145
vn -0.1848145 -0.9648438 0.1848145
vn -0.1848145 -0.9648438 0.1848145
vn -0.1848145 -0.9648438 0.1848145
vn -0.1186523 -0.9648438 0.2327881
vn -0.1186523 -0.9648438 0.2327881
vn -0.1186523 -0.9648438 0.2327881
vn -0.1186523 -0.9648438 0.2327881
vn -0.04086304 -0.9648438 0.2580566
vn -0.04086304 -0.9648438 0.2580566
vn -0.04086304 -0.9648438 0.2580566
vn -0.04086304 -0.9648438 0.2580566
vn 0.04086304 -0.9648438 0.2580566
vn 0.04086304 -0.9648438 0.2580566
vn 0.04086304 -0.9648438 0.2580566
vn 0.04086304 -0.9648438 0.2580566
vn 0.1186523 -0.9648438 0.2327881
vn 0.1186523 -0.9648438 0.2327881
vn 0.1186523 -0.9648438 0.2327881
vn 0.1186523 -0.9648438 0.2327881
vn 0.1848145 -0.9648438 0.1848145
vn 0.1848145 -0.9648438 0.1848145
vn 0.1848145 -0.9648438 0.1848145
vn 0.1848145 -0.9648438 0.1848145
vn 0.2327881 -0.9648438 0.1186523
vn 0.2327881 -0.9648438 0.1186523
vn 0.2327881 -0.9648438 0.1186523
vn 0.2327881 -0.9648438 0.1186523
vn 0.2580566 -0.9648438 0.04086304
vn 0.2580566 -0.9648438 0.04086304
vn 0.2580566 -0.9648438 0.04086304
vn 0.2580566 -0.9648438 0.04086304
vn 0.2580566 -0.9648438 -0.04086304
vn 0.2580566 -0.9648438 -0.04086304
vn 0.2580566 -0.9648438 -0.04086304
vn 0.2580566 -0.9648438 -0.04086304

vt 0.1566162 0.9423828
vt 0.1616211 0.9472656
vt 0.1616211 0.9423828
vt 0.1566162 0.9423828
vt 0.1616211 0.9472656
vt 0.1616211 0.9423828
vt 0.1566162 0.9423828
vt 0.1616211 0.9472656
vt 0.1616211 0.9423828
vt 0.1566162 0.9423828
vt 0.1616211 0.9472656
vt 0.1616211 0.9423828
vt 0.1566162 0.9423828
vt 0.1616211 0.9472656
vt 0.1616211 0.9423828
vt 0.1566162 0.9423828
vt 0.1616211 0.9472656
vt 0.1616211 0.9423828
vt 0.1566162 0.9423828
vt 0.1616211 0.9472656
vt 0.1616211 0.9423828
vt 0.1566162 0.9423828
vt 0.1616211 0.9472656
vt 0.1616211 0.9423828
vt 0.1566162 0.9423828
vt 0.1616211 0.9472656
vt 0.1616211 0.9423828
vt 0.1566162 0.9423828
vt 0.1616211 0.9472656
vt 0.1616211 0.9423828
vt 0.1566162 0.9423828
vt 0.1616211 0.9472656
vt 0.1616211 0.9423828
vt 0.1566162 0.9423828
vt 0.1616211 0.9472656
vt 0.1616211 0.9423828
vt 0.1566162 0.9423828
vt 0.1616211 0.9472656
vt 0.1616211 0.9423828
vt 0.1566162 0.9423828
vt 0.1616211 0.9472656
vt 0.1616211 0.9423828
vt 0.1566162 0.9423828
vt 0.1616211 0.9472656
vt 0.1616211 0.9423828
vt 0.1566162 0.9423828
vt 0.1616211 0.9472656
vt 0.1616211 0.9423828
vt 0.1566162 0.9423828
vt 0.1616211 0.9472656
vt 0.1616211 0.9423828
vt 0.1566162 0.9423828
vt 0.1616211 0.9472656
vt 0.1616211 0.9423828
vt 0.1566162 0.9423828
vt 0.1616211 0.9472656
vt 0.1616211 0.9423828
vt 0.1566162 0.9423828
vt 0.1616211 0.9472656
vt 0.1616211 0.9423828
vt 0.1566162 0.9423828
vt 0.1566162 0.9472656
vt 0.1616211 0.9472656
vt 0.1616211 0.9423828
vt 0.1566162 0.9423828
vt 0.1566162 0.9472656
vt 0.1616211 0.9472656
vt 0.1616211 0.9423828
vt 0.1566162 0.9423828
vt 0.1566162 0.9472656
vt 0.1616211 0.9472656
vt 0.1616211 0.9423828
vt 0.1566162 0.9423828
vt 0.1566162 0.9472656
vt 0.1616211 0.9472656
vt 0.1616211 0.9423828
vt 0.1566162 0.9423828
vt 0.1566162 0.9472656
vt 0.1616211 0.9472656
vt 0.1616211 0.9423828
vt 0.1566162 0.9423828
vt 0.1566162 0.9472656
vt 0.1616211 0.9472656
vt 0.1616211 0.9423828
vt 0.1566162 0.9423828
vt 0.1566162 0.9472656
vt 0.1616211 0.9472656
vt 0.1616211 0.9423828
vt 0.1566162 0.9423828
vt 0.1566162 0.9472656
vt 0.1616211 0.9472656
vt 0.1616211 0.9423828
vt 0.1566162 0.9423828
vt 0.1566162 0.9472656
vt 0.1616211 0.9472656
vt 0.1616211 0.9423828
vt 0.1566162 0.9423828
vt 0.1566162 0.9472656
vt 0.1616211 0.9472656
vt 0.1616211 0.9423828
vt 0.1566162 0.9423828
vt 0.1566162 0.9472656
vt 0.1616211 0.9472656
vt 0.1616211 0.9423828
vt 0.1566162 0.9423828
vt 0.1566162 0.9472656
vt 0.1616211 0.9472656
vt 0.1616211 0.9423828
vt 0.1566162 0.9423828
vt 0.1566162 0.9472656
vt 0.1616211 0.9472656
vt 0.1616211 0.9423828
vt 0.1566162 0.9423828
vt 0.1566162 0.9472656
vt 0.1616211 0.9472656
vt 0.1616211 0.9423828
vt 0.1566162 0.9423828
vt 0.1566162 0.9472656
vt 0.1616211 0.9472656
vt 0.1616211 0.9423828
vt 0.1566162 0.9423828
vt 0.1566162 0.9472656
vt 0.1616211 0.9472656
vt 0.1616211 0.9423828
vt 0.1566162 0.9423828
vt 0.1566162 0.9472656
vt 0.1616211 0.9472656
vt 0.1616211 0.9423828
vt 0.1566162 0.9423828
vt 0.1566162 0.9472656
vt 0.1616211 0.9472656
vt 0.1616211 0.9423828
vt 0.1566162 0.9423828
vt 0.1566162 0.9472656
vt 0.1616211 0.9472656
vt 0.1616211 0.9423828
vt 0.1566162 0.9423828
vt 0.1566162 0.9472656
vt 0.1616211 0.9472656
vt 0.1616211 0.9423828

g PREF_props_top_lamp_02_1627_6
usemtl PREF_props_top_lamp_02_1627_6
usemap PREF_props_top_lamp_02_1627_6
f 1/1/1 3/3/3 2/2/2
f 4/4/4 6/6/6 5/5/5
f 7/7/7 9/9/9 8/8/8
f 10/10/10 12/12/12 11/11/11
f 13/13/13 15/15/15 14/14/14
f 16/16/16 18/18/18 17/17/17
f 19/19/19 21/21/21 20/20/20
f 22/22/22 24/24/24 23/23/23
f 25/25/25 27/27/27 26/26/26
f 28/28/28 30/30/30 29/29/29
f 31/31/31 33/33/33 32/32/32
f 34/34/34 36/36/36 35/35/35
f 37/37/37 39/39/39 38/38/38
f 40/40/40 42/42/42 41/41/41
f 43/43/43 45/45/45 44/44/44
f 46/46/46 48/48/48 47/47/47
f 49/49/49 51/51/51 50/50/50
f 52/52/52 54/54/54 53/53/53
f 55/55/55 57/57/57 56/56/56
f 58/58/58 60/60/60 59/59/59
f 61/61/61 63/63/63 62/62/62
f 61/61/61 64/64/64 63/63/63
f 65/65/65 67/67/67 66/66/66
f 65/65/65 68/68/68 67/67/67
f 69/69/69 71/71/71 70/70/70
f 69/69/69 72/72/72 71/71/71
f 73/73/73 75/75/75 74/74/74
f 73/73/73 76/76/76 75/75/75
f 77/77/77 79/79/79 78/78/78
f 77/77/77 80/80/80 79/79/79
f 81/81/81 83/83/83 82/82/82
f 81/81/81 84/84/84 83/83/83
f 85/85/85 87/87/87 86/86/86
f 85/85/85 88/88/88 87/87/87
f 89/89/89 91/91/91 90/90/90
f 89/89/89 92/92/92 91/91/91
f 93/93/93 95/95/95 94/94/94
f 93/93/93 96/96/96 95/95/95
f 97/97/97 99/99/99 98/98/98
f 97/97/97 100/100/100 99/99/99
f 101/101/101 103/103/103 102/102/102
f 101/101/101 104/104/104 103/103/103
f 105/105/105 107/107/107 106/106/106
f 105/105/105 108/108/108 107/107/107
f 109/109/109 111/111/111 110/110/110
f 109/109/109 112/112/112 111/111/111
f 113/113/113 115/115/115 114/114/114
f 113/113/113 116/116/116 115/115/115
f 117/117/117 119/119/119 118/118/118
f 117/117/117 120/120/120 119/119/119
f 121/121/121 123/123/123 122/122/122
f 121/121/121 124/124/124 123/123/123
f 125/125/125 127/127/127 126/126/126
f 125/125/125 128/128/128 127/127/127
f 129/129/129 131/131/131 130/130/130
f 129/129/129 132/132/132 131/131/131
f 133/133/133 135/135/135 134/134/134
f 133/133/133 136/136/136 135/135/135
f 137/137/137 139/139/139 138/138/138
f 137/137/137 140/140/140 139/139/139
