#PREF_props_bottle_03_1557_39.obj

v 0.07345197 0 -0.07345571
v 0.07345197 0.3022194 -0.07345571
v -3.433861E-07 0.3022194 -0.07345551
v -3.433861E-07 0 -0.07345551
v -0.07345396 0.3022194 -0.07345568
v -0.07345396 0 -0.07345568
v -0.07345396 0 -0.07345568
v -0.07345396 0.3022194 -0.07345568
v -0.07345403 0.3022194 6.33235E-08
v -0.07345403 0 6.33235E-08
v -0.07345373 0.3022194 0.07345451
v -0.07345373 0 0.07345451
v -0.07345373 0 0.07345451
v -0.07345373 0.3022194 0.07345451
v -1.209825E-07 0.3022194 0.07345468
v -1.209825E-07 0 0.07345468
v 0.07345177 0.3022194 0.07345471
v 0.07345177 0 0.07345471
v 0.07345177 0 0.07345471
v 0.07345177 0.3022194 0.07345471
v 0.0734519 0.3022194 3.243316E-08
v 0.0734519 0 3.243316E-08
v 0.07345197 0.3022194 -0.07345571
v 0.07345197 0 -0.07345571
v -3.433861E-07 0 -0.07345551
v 0 0.01519322 0
v 0.07345197 0 -0.07345571
v -0.07345396 0 -0.07345568
v -3.433861E-07 0 -0.07345551
v -0.07345403 0 6.33235E-08
v 0 0.01519322 0
v -0.07345396 0 -0.07345568
v -0.07345373 0 0.07345451
v -0.07345403 0 6.33235E-08
v -1.209825E-07 0 0.07345468
v 0 0.01519322 0
v -0.07345373 0 0.07345451
v 0.07345177 0 0.07345471
v -1.209825E-07 0 0.07345468
v 0.0734519 0 3.243316E-08
v 0 0.01519322 0
v 0.07345177 0 0.07345471
v 0.07345197 0 -0.07345571
v 0.0734519 0 3.243316E-08
v 0.01989199 0.5132151 -0.01989408
v 0 0.5224228 0
v -8.467173E-08 0.5132151 -0.0281349
v -8.467173E-08 0.5132151 -0.0281349
v 0 0.5224228 0
v -0.01989589 0.5132151 -0.01989425
v -0.01989589 0.5132151 -0.01989425
v 0 0.5224228 0
v -0.02813531 0.5132151 3.16856E-07
v -0.02813531 0.5132151 3.16856E-07
v 0 0.5224228 0
v -0.01989583 0.5132151 0.01989404
v -0.01989583 0.5132151 0.01989404
v 0 0.5224228 0
v 8.467173E-08 0.5132151 0.0281349
v 8.467173E-08 0.5132151 0.0281349
v 0 0.5224228 0
v 0.01989204 0.5132151 0.01989421
v 0.01989204 0.5132151 0.01989421
v 0 0.5224228 0
v 0.02813318 0.5132151 -2.210994E-07
v 0.02813318 0.5132151 -2.210994E-07
v 0 0.5224228 0
v 0.01989199 0.5132151 -0.01989408
v 0.07345197 0.3022194 -0.07345571
v 0.02934078 0.3512456 -0.02934339
v -6.576363E-08 0.3512456 -0.04149813
v -3.433861E-07 0.3022194 -0.07345551
v -3.433861E-07 0.3022194 -0.07345551
v -6.576363E-08 0.3512456 -0.04149813
v -0.02934241 0.3512456 -0.02934296
v -0.07345396 0.3022194 -0.07345568
v -0.07345396 0.3022194 -0.07345568
v -0.02934241 0.3512456 -0.02934296
v -0.04150026 0.3512456 1.615203E-07
v -0.07345403 0.3022194 6.33235E-08
v -0.07345403 0.3022194 6.33235E-08
v -0.04150026 0.3512456 1.615203E-07
v -0.0293425 0.3512456 0.02934325
v -0.07345373 0.3022194 0.07345451
v -0.07345373 0.3022194 0.07345451
v -0.0293425 0.3512456 0.02934325
v 6.576363E-08 0.3512456 0.04149813
v -1.209825E-07 0.3022194 0.07345468
v -1.209825E-07 0.3022194 0.07345468
v 6.576363E-08 0.3512456 0.04149813
v 0.0293407 0.3512456 0.02934282
v 0.07345177 0.3022194 0.07345471
v 0.07345177 0.3022194 0.07345471
v 0.0293407 0.3512456 0.02934282
v 0.04149642 0.3512456 -2.021913E-07
v 0.0734519 0.3022194 3.243316E-08
v 0.0734519 0.3022194 3.243316E-08
v 0.04149642 0.3512456 -2.021913E-07
v 0.02934078 0.3512456 -0.02934339
v 0.07345197 0.3022194 -0.07345571
v 0.02934078 0.3512456 -0.02934339
v 0.03040885 0.410455 -0.0304094
v 8.409154E-08 0.410455 -0.04300497
v -6.576363E-08 0.3512456 -0.04149813
v -6.576363E-08 0.3512456 -0.04149813
v 8.409154E-08 0.410455 -0.04300497
v -0.0304107 0.410455 -0.03040922
v -0.02934241 0.3512456 -0.02934296
v -0.02934241 0.3512456 -0.02934296
v -0.0304107 0.410455 -0.03040922
v -0.04300687 0.410455 4.281554E-07
v -0.04150026 0.3512456 1.615203E-07
v -0.04150026 0.3512456 1.615203E-07
v -0.04300687 0.410455 4.281554E-07
v -0.03041057 0.410455 0.03040926
v -0.0293425 0.3512456 0.02934325
v -0.0293425 0.3512456 0.02934325
v -0.03041057 0.410455 0.03040926
v -8.409154E-08 0.410455 0.04300497
v 6.576363E-08 0.3512456 0.04149813
v 6.576363E-08 0.3512456 0.04149813
v -8.409154E-08 0.410455 0.04300497
v 0.03040898 0.410455 0.03040908
v 0.0293407 0.3512456 0.02934282
v 0.0293407 0.3512456 0.02934282
v 0.03040898 0.410455 0.03040908
v 0.0430009 0.410455 -3.730697E-07
v 0.04149642 0.3512456 -2.021913E-07
v 0.04149642 0.3512456 -2.021913E-07
v 0.0430009 0.410455 -3.730697E-07
v 0.03040885 0.410455 -0.0304094
v 0.02934078 0.3512456 -0.02934339
v -0.03041057 0.410455 0.03040926
v -0.01946842 0.469065 0.01946796
v -1.052804E-07 0.469065 0.0275323
v -8.409154E-08 0.410455 0.04300497
v -0.04300687 0.410455 4.281554E-07
v -0.02753295 0.469065 -2.895863E-07
v -0.01946842 0.469065 0.01946796
v -0.03041057 0.410455 0.03040926
v -0.0304107 0.410455 -0.03040922
v -0.01946815 0.469065 -0.01946777
v -0.02753295 0.469065 -2.895863E-07
v -0.04300687 0.410455 4.281554E-07
v 8.409154E-08 0.410455 -0.04300497
v 1.052804E-07 0.469065 -0.0275323
v -0.01946815 0.469065 -0.01946777
v -0.0304107 0.410455 -0.03040922
v 0.03040885 0.410455 -0.0304094
v 0.01946457 0.469065 -0.019468
v 1.052804E-07 0.469065 -0.0275323
v 8.409154E-08 0.410455 -0.04300497
v 0.0430009 0.410455 -3.730697E-07
v 0.02753082 0.469065 3.85343E-07
v 0.01946457 0.469065 -0.019468
v 0.03040885 0.410455 -0.0304094
v 0.03040898 0.410455 0.03040908
v 0.0194643 0.469065 0.01946773
v 0.02753082 0.469065 3.85343E-07
v 0.0430009 0.410455 -3.730697E-07
v -8.409154E-08 0.410455 0.04300497
v -1.052804E-07 0.469065 0.0275323
v 0.0194643 0.469065 0.01946773
v 0.03040898 0.410455 0.03040908
v -0.01946842 0.469065 0.01946796
v -0.01989583 0.5132151 0.01989404
v 8.467173E-08 0.5132151 0.0281349
v -1.052804E-07 0.469065 0.0275323
v -0.02753295 0.469065 -2.895863E-07
v -0.02813531 0.5132151 3.16856E-07
v -0.01989583 0.5132151 0.01989404
v -0.01946842 0.469065 0.01946796
v -0.01946815 0.469065 -0.01946777
v -0.01989589 0.5132151 -0.01989425
v -0.02813531 0.5132151 3.16856E-07
v -0.02753295 0.469065 -2.895863E-07
v 1.052804E-07 0.469065 -0.0275323
v -8.467173E-08 0.5132151 -0.0281349
v -0.01989589 0.5132151 -0.01989425
v -0.01946815 0.469065 -0.01946777
v 0.01946457 0.469065 -0.019468
v 0.01989199 0.5132151 -0.01989408
v -8.467173E-08 0.5132151 -0.0281349
v 1.052804E-07 0.469065 -0.0275323
v 0.02753082 0.469065 3.85343E-07
v 0.02813318 0.5132151 -2.210994E-07
v 0.01989199 0.5132151 -0.01989408
v 0.01946457 0.469065 -0.019468
v 0.0194643 0.469065 0.01946773
v 0.01989204 0.5132151 0.01989421
v 0.02813318 0.5132151 -2.210994E-07
v 0.02753082 0.469065 3.85343E-07
v -1.052804E-07 0.469065 0.0275323
v 8.467173E-08 0.5132151 0.0281349
v 0.01989204 0.5132151 0.01989421
v 0.0194643 0.469065 0.01946773

vn 0.4868164 0 -0.8730469
vn 0.4868164 0 -0.8730469
vn 0.4868164 0 -0.8730469
vn 0.4868164 0 -0.8730469
vn 0.4868164 0 -0.8730469
vn 0.4868164 0 -0.8730469
vn -0.8730469 0 -0.4868164
vn -0.8730469 0 -0.4868164
vn -0.8730469 0 -0.4868164
vn -0.8730469 0 -0.4868164
vn -0.8730469 0 -0.4868164
vn -0.8730469 0 -0.4868164
vn -0.4868164 0 0.8730469
vn -0.4868164 0 0.8730469
vn -0.4868164 0 0.8730469
vn -0.4868164 0 0.8730469
vn -0.4868164 0 0.8730469
vn -0.4868164 0 0.8730469
vn 0.8730469 0 0.4868164
vn 0.8730469 0 0.4868164
vn 0.8730469 0 0.4868164
vn 0.8730469 0 0.4868164
vn 0.8730469 0 0.4868164
vn 0.8730469 0 0.4868164
vn -0.09857178 -0.9790039 0.1768799
vn 0 -1 0
vn -0.1391602 -0.9892578 0.03955078
vn 0.03955078 -0.9892578 0.1391602
vn -0.09857178 -0.9790039 0.1768799
vn 0.1768799 -0.9790039 0.09857178
vn 0 -1 0
vn 0.03955078 -0.9892578 0.1391602
vn 0.1391602 -0.9892578 -0.03955078
vn 0.1768799 -0.9790039 0.09857178
vn 0.09857178 -0.9790039 -0.1768799
vn 0 -1 0
vn 0.1391602 -0.9892578 -0.03955078
vn -0.03955078 -0.9892578 -0.1391602
vn 0.09857178 -0.9790039 -0.1768799
vn -0.1768799 -0.9790039 -0.09857178
vn 0 -1 0
vn -0.03955078 -0.9892578 -0.1391602
vn -0.1391602 -0.9892578 0.03955078
vn -0.1768799 -0.9790039 -0.09857178
vn 0.2990723 0.9501953 -0.08496094
vn 0 1 0
vn 0.1513672 0.9501953 -0.2714844
vn 0.1513672 0.9501953 -0.2714844
vn 0 1 0
vn -0.08496094 0.9501953 -0.2990723
vn -0.08496094 0.9501953 -0.2990723
vn 0 1 0
vn -0.2714844 0.9501953 -0.1513672
vn -0.2714844 0.9501953 -0.1513672
vn 0 1 0
vn -0.2990723 0.9501953 0.08496094
vn -0.2990723 0.9501953 0.08496094
vn 0 1 0
vn -0.1513672 0.9501953 0.2714844
vn -0.1513672 0.9501953 0.2714844
vn 0 1 0
vn 0.08496094 0.9501953 0.2990723
vn 0.08496094 0.9501953 0.2990723
vn 0 1 0
vn 0.2714844 0.9501953 0.1513672
vn 0.2714844 0.9501953 0.1513672
vn 0 1 0
vn 0.2990723 0.9501953 -0.08496094
vn 0.6635742 0.7231445 -0.1885986
vn 0.8286133 0.5073242 -0.2354736
vn 0.4353027 0.4477539 -0.7807617
vn 0.3747559 0.6381836 -0.6723633
vn 0.3747559 0.6381836 -0.6723633
vn 0.4353027 0.4477539 -0.7807617
vn -0.2354736 0.5073242 -0.8286133
vn -0.1885986 0.7231445 -0.6635742
vn -0.1885986 0.7231445 -0.6635742
vn -0.2354736 0.5073242 -0.8286133
vn -0.7807617 0.4477539 -0.4353027
vn -0.6723633 0.6381836 -0.3747559
vn -0.6723633 0.6381836 -0.3747559
vn -0.7807617 0.4477539 -0.4353027
vn -0.8286133 0.5073242 0.2354736
vn -0.6635742 0.7231445 0.1885986
vn -0.6635742 0.7231445 0.1885986
vn -0.8286133 0.5073242 0.2354736
vn -0.4353027 0.4477539 0.7807617
vn -0.3747559 0.6381836 0.6723633
vn -0.3747559 0.6381836 0.6723633
vn -0.4353027 0.4477539 0.7807617
vn 0.2354736 0.5073242 0.8286133
vn 0.1885986 0.7231445 0.6635742
vn 0.1885986 0.7231445 0.6635742
vn 0.2354736 0.5073242 0.8286133
vn 0.7807617 0.4477539 0.4353027
vn 0.6723633 0.6381836 0.3747559
vn 0.6723633 0.6381836 0.3747559
vn 0.7807617 0.4477539 0.4353027
vn 0.8286133 0.5073242 -0.2354736
vn 0.6635742 0.7231445 -0.1885986
vn 0.8286133 0.5073242 -0.2354736
vn 0.9570313 0.1008301 -0.2717285
vn 0.484375 0.1008301 -0.8686523
vn 0.4353027 0.4477539 -0.7807617
vn 0.4353027 0.4477539 -0.7807617
vn 0.484375 0.1008301 -0.8686523
vn -0.2717285 0.1008301 -0.956543
vn -0.2354736 0.5073242 -0.8286133
vn -0.2354736 0.5073242 -0.8286133
vn -0.2717285 0.1008301 -0.956543
vn -0.8686523 0.1008301 -0.484375
vn -0.7807617 0.4477539 -0.4353027
vn -0.7807617 0.4477539 -0.4353027
vn -0.8686523 0.1008301 -0.484375
vn -0.956543 0.1008301 0.2717285
vn -0.8286133 0.5073242 0.2354736
vn -0.8286133 0.5073242 0.2354736
vn -0.956543 0.1008301 0.2717285
vn -0.484375 0.1008301 0.8686523
vn -0.4353027 0.4477539 0.7807617
vn -0.4353027 0.4477539 0.7807617
vn -0.484375 0.1008301 0.8686523
vn 0.2717285 0.1008301 0.956543
vn 0.2354736 0.5073242 0.8286133
vn 0.2354736 0.5073242 0.8286133
vn 0.2717285 0.1008301 0.956543
vn 0.8686523 0.1008301 0.484375
vn 0.7807617 0.4477539 0.4353027
vn 0.7807617 0.4477539 0.4353027
vn 0.8686523 0.1008301 0.484375
vn 0.9570313 0.1008301 -0.2717285
vn 0.8286133 0.5073242 -0.2354736
vn -0.956543 0.1008301 0.2717285
vn -0.9487305 0.1619873 0.2695313
vn -0.4804688 0.1619873 0.8618164
vn -0.484375 0.1008301 0.8686523
vn -0.8686523 0.1008301 -0.484375
vn -0.8618164 0.1619873 -0.4804688
vn -0.9487305 0.1619873 0.2695313
vn -0.956543 0.1008301 0.2717285
vn -0.2717285 0.1008301 -0.956543
vn -0.2695313 0.1619873 -0.9492188
vn -0.8618164 0.1619873 -0.4804688
vn -0.8686523 0.1008301 -0.484375
vn 0.484375 0.1008301 -0.8686523
vn 0.4804688 0.1619873 -0.8618164
vn -0.2695313 0.1619873 -0.9492188
vn -0.2717285 0.1008301 -0.956543
vn 0.9570313 0.1008301 -0.2717285
vn 0.9492188 0.1619873 -0.2695313
vn 0.4804688 0.1619873 -0.8618164
vn 0.484375 0.1008301 -0.8686523
vn 0.8686523 0.1008301 0.484375
vn 0.8618164 0.1618652 0.4804688
vn 0.9492188 0.1619873 -0.2695313
vn 0.9570313 0.1008301 -0.2717285
vn 0.2717285 0.1008301 0.956543
vn 0.2695313 0.1618652 0.9487305
vn 0.8618164 0.1618652 0.4804688
vn 0.8686523 0.1008301 0.484375
vn -0.484375 0.1008301 0.8686523
vn -0.4804688 0.1619873 0.8618164
vn 0.2695313 0.1618652 0.9487305
vn 0.2717285 0.1008301 0.956543
vn -0.9487305 0.1619873 0.2695313
vn -0.9614258 -0.01367188 0.2731934
vn -0.7836914 -0.01261902 0.6201172
vn -0.4804688 0.1619873 0.8618164
vn -0.8618164 0.1619873 -0.4804688
vn -0.8730469 -0.01367188 -0.4868164
vn -0.9614258 -0.01367188 0.2731934
vn -0.9487305 0.1619873 0.2695313
vn -0.2695313 0.1619873 -0.9492188
vn -0.2731934 -0.01366425 -0.9614258
vn -0.8730469 -0.01367188 -0.4868164
vn -0.8618164 0.1619873 -0.4804688
vn 0.4804688 0.1619873 -0.8618164
vn 0.1155396 -0.01261902 -0.9931641
vn -0.2731934 -0.01366425 -0.9614258
vn -0.2695313 0.1619873 -0.9492188
vn 0.9492188 0.1619873 -0.2695313
vn 0.9614258 -0.01367188 -0.2731934
vn 0.7836914 -0.01261902 -0.6201172
vn 0.4804688 0.1619873 -0.8618164
vn 0.8618164 0.1618652 0.4804688
vn 0.9931641 -0.01263428 0.1154785
vn 0.9614258 -0.01367188 -0.2731934
vn 0.9492188 0.1619873 -0.2695313
vn 0.2695313 0.1618652 0.9487305
vn 0.2731934 -0.01366425 0.9614258
vn 0.6201172 -0.01262665 0.7836914
vn 0.8618164 0.1618652 0.4804688
vn -0.4804688 0.1619873 0.8618164
vn -0.1154785 -0.01262665 0.9931641
vn 0.2731934 -0.01366425 0.9614258
vn 0.2695313 0.1618652 0.9487305

vt 0.3935547 0.6220703
vt 0.3935547 0.7216797
vt 0.4208984 0.7216797
vt 0.4208984 0.6220703
vt 0.4484863 0.7216797
vt 0.4484863 0.6220703
vt 0.4951172 0.7299805
vt 0.3959961 0.7299805
vt 0.3959961 0.7514648
vt 0.4951172 0.7514648
vt 0.3959961 0.7724609
vt 0.4951172 0.7724609
vt 0.3935547 0.6220703
vt 0.3935547 0.7216797
vt 0.4208984 0.7216797
vt 0.4208984 0.6220703
vt 0.4484863 0.7216797
vt 0.4484863 0.6220703
vt 0.4951172 0.7299805
vt 0.3959961 0.7299805
vt 0.3959961 0.7514648
vt 0.4951172 0.7514648
vt 0.3959961 0.7724609
vt 0.4951172 0.7724609
vt 0.4255371 0.7119141
vt 0.4306641 0.7167969
vt 0.4306641 0.7119141
vt 0.4255371 0.7119141
vt 0.4306641 0.7119141
vt 0.4255371 0.7119141
vt 0.4306641 0.7167969
vt 0.4306641 0.7119141
vt 0.4255371 0.7119141
vt 0.4306641 0.7119141
vt 0.4255371 0.7119141
vt 0.4306641 0.7167969
vt 0.4306641 0.7119141
vt 0.4255371 0.7119141
vt 0.4306641 0.7119141
vt 0.4255371 0.7119141
vt 0.4306641 0.7167969
vt 0.4306641 0.7119141
vt 0.4255371 0.7119141
vt 0.4306641 0.7119141
vt 0.4433594 0.6962891
vt 0.4482422 0.7011719
vt 0.4482422 0.6962891
vt 0.4433594 0.6962891
vt 0.4482422 0.7011719
vt 0.4482422 0.6962891
vt 0.4433594 0.6962891
vt 0.4482422 0.7011719
vt 0.4482422 0.6962891
vt 0.4433594 0.6962891
vt 0.4482422 0.7011719
vt 0.4482422 0.6962891
vt 0.4433594 0.6962891
vt 0.4482422 0.7011719
vt 0.4482422 0.6962891
vt 0.4433594 0.6962891
vt 0.4482422 0.7011719
vt 0.4482422 0.6962891
vt 0.4433594 0.6962891
vt 0.4482422 0.7011719
vt 0.4482422 0.6962891
vt 0.4433594 0.6962891
vt 0.4482422 0.7011719
vt 0.4482422 0.6962891
vt 0.418457 0.7119141
vt 0.418457 0.7167969
vt 0.423584 0.7167969
vt 0.423584 0.7119141
vt 0.418457 0.7119141
vt 0.418457 0.7167969
vt 0.423584 0.7167969
vt 0.423584 0.7119141
vt 0.418457 0.7119141
vt 0.418457 0.7167969
vt 0.423584 0.7167969
vt 0.423584 0.7119141
vt 0.418457 0.7119141
vt 0.418457 0.7167969
vt 0.423584 0.7167969
vt 0.423584 0.7119141
vt 0.418457 0.7119141
vt 0.418457 0.7167969
vt 0.423584 0.7167969
vt 0.423584 0.7119141
vt 0.418457 0.7119141
vt 0.418457 0.7167969
vt 0.423584 0.7167969
vt 0.423584 0.7119141
vt 0.418457 0.7119141
vt 0.418457 0.7167969
vt 0.423584 0.7167969
vt 0.423584 0.7119141
vt 0.418457 0.7119141
vt 0.418457 0.7167969
vt 0.423584 0.7167969
vt 0.423584 0.7119141
vt 0.418457 0.7119141
vt 0.418457 0.7167969
vt 0.423584 0.7167969
vt 0.423584 0.7119141
vt 0.418457 0.7119141
vt 0.418457 0.7167969
vt 0.423584 0.7167969
vt 0.423584 0.7119141
vt 0.418457 0.7119141
vt 0.418457 0.7167969
vt 0.423584 0.7167969
vt 0.423584 0.7119141
vt 0.418457 0.7119141
vt 0.418457 0.7167969
vt 0.423584 0.7167969
vt 0.423584 0.7119141
vt 0.418457 0.7119141
vt 0.418457 0.7167969
vt 0.423584 0.7167969
vt 0.423584 0.7119141
vt 0.418457 0.7119141
vt 0.418457 0.7167969
vt 0.423584 0.7167969
vt 0.423584 0.7119141
vt 0.418457 0.7119141
vt 0.418457 0.7167969
vt 0.423584 0.7167969
vt 0.423584 0.7119141
vt 0.418457 0.7119141
vt 0.418457 0.7167969
vt 0.423584 0.7167969
vt 0.423584 0.7119141
vt 0.418457 0.7119141
vt 0.418457 0.7167969
vt 0.423584 0.7167969
vt 0.423584 0.7119141
vt 0.418457 0.7119141
vt 0.418457 0.7167969
vt 0.423584 0.7167969
vt 0.423584 0.7119141
vt 0.418457 0.7119141
vt 0.418457 0.7167969
vt 0.423584 0.7167969
vt 0.423584 0.7119141
vt 0.418457 0.7119141
vt 0.418457 0.7167969
vt 0.423584 0.7167969
vt 0.423584 0.7119141
vt 0.418457 0.7119141
vt 0.418457 0.7167969
vt 0.423584 0.7167969
vt 0.423584 0.7119141
vt 0.418457 0.7119141
vt 0.418457 0.7167969
vt 0.423584 0.7167969
vt 0.423584 0.7119141
vt 0.418457 0.7119141
vt 0.418457 0.7167969
vt 0.423584 0.7167969
vt 0.423584 0.7119141
vt 0.418457 0.7119141
vt 0.418457 0.7167969
vt 0.423584 0.7167969
vt 0.423584 0.7119141
vt 0.4433594 0.6962891
vt 0.4433594 0.7011719
vt 0.4482422 0.7011719
vt 0.4482422 0.6962891
vt 0.4433594 0.6962891
vt 0.4433594 0.7011719
vt 0.4482422 0.7011719
vt 0.4482422 0.6962891
vt 0.4433594 0.6962891
vt 0.4433594 0.7011719
vt 0.4482422 0.7011719
vt 0.4482422 0.6962891
vt 0.4433594 0.6962891
vt 0.4433594 0.7011719
vt 0.4482422 0.7011719
vt 0.4482422 0.6962891
vt 0.4433594 0.6962891
vt 0.4433594 0.7011719
vt 0.4482422 0.7011719
vt 0.4482422 0.6962891
vt 0.4433594 0.6962891
vt 0.4433594 0.7011719
vt 0.4482422 0.7011719
vt 0.4482422 0.6962891
vt 0.4433594 0.6962891
vt 0.4433594 0.7011719
vt 0.4482422 0.7011719
vt 0.4482422 0.6962891
vt 0.4433594 0.6962891
vt 0.4433594 0.7011719
vt 0.4482422 0.7011719
vt 0.4482422 0.6962891

g PREF_props_bottle_03_1557_39
usemtl PREF_props_bottle_03_1557_39
usemap PREF_props_bottle_03_1557_39
f 1/1/1 3/3/3 2/2/2
f 1/1/1 4/4/4 3/3/3
f 4/4/4 5/5/5 3/3/3
f 4/4/4 6/6/6 5/5/5
f 7/7/7 9/9/9 8/8/8
f 7/7/7 10/10/10 9/9/9
f 10/10/10 11/11/11 9/9/9
f 10/10/10 12/12/12 11/11/11
f 13/13/13 15/15/15 14/14/14
f 13/13/13 16/16/16 15/15/15
f 16/16/16 17/17/17 15/15/15
f 16/16/16 18/18/18 17/17/17
f 19/19/19 21/21/21 20/20/20
f 19/19/19 22/22/22 21/21/21
f 22/22/22 23/23/23 21/21/21
f 22/22/22 24/24/24 23/23/23
f 25/25/25 27/27/27 26/26/26
f 28/28/28 29/29/29 26/26/26
f 30/30/30 32/32/32 31/31/31
f 33/33/33 34/34/34 31/31/31
f 35/35/35 37/37/37 36/36/36
f 38/38/38 39/39/39 36/36/36
f 40/40/40 42/42/42 41/41/41
f 43/43/43 44/44/44 41/41/41
f 45/45/45 47/47/47 46/46/46
f 48/48/48 50/50/50 49/49/49
f 51/51/51 53/53/53 52/52/52
f 54/54/54 56/56/56 55/55/55
f 57/57/57 59/59/59 58/58/58
f 60/60/60 62/62/62 61/61/61
f 63/63/63 65/65/65 64/64/64
f 66/66/66 68/68/68 67/67/67
f 69/69/69 71/71/71 70/70/70
f 69/69/69 72/72/72 71/71/71
f 73/73/73 75/75/75 74/74/74
f 73/73/73 76/76/76 75/75/75
f 77/77/77 79/79/79 78/78/78
f 77/77/77 80/80/80 79/79/79
f 81/81/81 83/83/83 82/82/82
f 81/81/81 84/84/84 83/83/83
f 85/85/85 87/87/87 86/86/86
f 85/85/85 88/88/88 87/87/87
f 89/89/89 91/91/91 90/90/90
f 89/89/89 92/92/92 91/91/91
f 93/93/93 95/95/95 94/94/94
f 93/93/93 96/96/96 95/95/95
f 97/97/97 99/99/99 98/98/98
f 97/97/97 100/100/100 99/99/99
f 101/101/101 103/103/103 102/102/102
f 101/101/101 104/104/104 103/103/103
f 105/105/105 107/107/107 106/106/106
f 105/105/105 108/108/108 107/107/107
f 109/109/109 111/111/111 110/110/110
f 109/109/109 112/112/112 111/111/111
f 113/113/113 115/115/115 114/114/114
f 113/113/113 116/116/116 115/115/115
f 117/117/117 119/119/119 118/118/118
f 117/117/117 120/120/120 119/119/119
f 121/121/121 123/123/123 122/122/122
f 121/121/121 124/124/124 123/123/123
f 125/125/125 127/127/127 126/126/126
f 125/125/125 128/128/128 127/127/127
f 129/129/129 131/131/131 130/130/130
f 129/129/129 132/132/132 131/131/131
f 133/133/133 135/135/135 134/134/134
f 133/133/133 136/136/136 135/135/135
f 137/137/137 139/139/139 138/138/138
f 137/137/137 140/140/140 139/139/139
f 141/141/141 143/143/143 142/142/142
f 141/141/141 144/144/144 143/143/143
f 145/145/145 147/147/147 146/146/146
f 145/145/145 148/148/148 147/147/147
f 149/149/149 151/151/151 150/150/150
f 149/149/149 152/152/152 151/151/151
f 153/153/153 155/155/155 154/154/154
f 153/153/153 156/156/156 155/155/155
f 157/157/157 159/159/159 158/158/158
f 157/157/157 160/160/160 159/159/159
f 161/161/161 163/163/163 162/162/162
f 161/161/161 164/164/164 163/163/163
f 165/165/165 167/167/167 166/166/166
f 165/165/165 168/168/168 167/167/167
f 169/169/169 171/171/171 170/170/170
f 169/169/169 172/172/172 171/171/171
f 173/173/173 175/175/175 174/174/174
f 173/173/173 176/176/176 175/175/175
f 177/177/177 179/179/179 178/178/178
f 177/177/177 180/180/180 179/179/179
f 181/181/181 183/183/183 182/182/182
f 181/181/181 184/184/184 183/183/183
f 185/185/185 187/187/187 186/186/186
f 185/185/185 188/188/188 187/187/187
f 189/189/189 191/191/191 190/190/190
f 189/189/189 192/192/192 191/191/191
f 193/193/193 195/195/195 194/194/194
f 193/193/193 196/196/196 195/195/195
