#PREF_props_tv_01_1713_91.obj

v -0.391991 0.02519536 0.04804992
v -0.3832012 0.03222656 0.03808608
v 0.3855475 0.03222656 0.03808561
v 0.3943366 0.02519536 0.04804961
v 0.00117269 0.06547856 0.04489118
v 0.3855475 0.06547856 0.03808561
v 0.3855475 0.03222656 0.03808561
v -0.3832012 0.03222656 0.03808608
v -0.3832012 0.06547856 0.03808608
v -0.3832012 0.03222656 0.03808608
v -0.3832012 0.03222656 -0.02050762
v -0.3832012 0.06547856 -0.02050762
v -0.3832012 0.06547856 0.03808608
v -0.3919906 0.02519536 -0.02752686
v -0.3832012 0.03222656 -0.02050762
v -0.3832012 0.03222656 0.03808608
v -0.391991 0.02519536 0.04804992
v -0.3832012 0.06547856 -0.02050762
v -0.3832012 0.03222656 -0.02050762
v 0.3855475 0.03222656 -0.02050808
v 0.3855475 0.06547856 -0.02050808
v 0.3855475 0.06547856 -0.02050808
v 0.3855475 0.03222656 -0.02050808
v 0.3855475 0.03222656 0.03808561
v 0.3855475 0.06547856 0.03808561
v 0.3943367 0.02519536 -0.02752678
v 0.3943366 0.02519536 0.04804961
v 0.3855475 0.03222656 0.03808561
v 0.3855475 0.03222656 -0.02050808
v -0.3919906 0.02519536 -0.02752686
v 0.3943367 0.02519536 -0.02752678
v 0.3855475 0.03222656 -0.02050808
v -0.3832012 0.03222656 -0.02050762
v 0.1921882 0.2936822 -0.01640349
v 0.1921882 0.1857423 -0.01640349
v 0.1921883 0.1798829 -0.0550688
v 0.1921883 0.3591797 -0.0550688
v -0.7075523 0.1431121 0.05123876
v -0.7090818 0.06547856 0.001372912
v -0.709473 0.9831054 0.00137302
v -0.7085192 0.982022 0.0517579
v -0.7090818 0.06547856 0.001372912
v -0.7075523 0.1431121 0.05123876
v -0.7086904 0.06547856 0.04698211
v 0.709083 0.06547856 0.001373233
v 0.7086925 0.06547856 0.04698187
v 0.7071117 0.1432031 0.05097972
v 0.7071117 0.1432031 0.05097972
v 0.707989 0.9818556 0.05145299
v 0.709473 0.9831054 0.001373337
v 0.709083 0.06547856 0.001373233
v 0.709083 0.06547856 0.001373233
v 0.0011733 0.06547856 0.0008853771
v -0.7090818 0.06547856 0.001372912
v 0.7086925 0.06547856 0.04698187
v 0.00117269 0.06547856 0.04489118
v -0.7086904 0.06547856 0.04698211
v -0.1898421 0.1798829 -0.05506915
v -0.1904294 0.1857423 -0.0164033
v -0.1904294 0.2936822 -0.0164033
v -0.1898421 0.3591797 -0.05506915
v 0.4148449 0.01757813 0.08262657
v 0.4148446 0.01757813 -0.08319061
v 0.4148446 0 -0.08319061
v 0.4148449 0 0.08262657
v 0.4148446 0.01757813 -0.08319061
v 0.4031259 0.01757813 -0.09490942
v 0.4031259 0 -0.09490942
v 0.4148446 0 -0.08319061
v -0.4130863 0.01757813 -0.08319109
v -0.4130863 0 -0.08319109
v -0.4007799 0 -0.09491004
v -0.4007799 0.01757813 -0.09491004
v -0.413086 0.01757813 0.08262608
v -0.413086 0 0.08262608
v -0.4130863 0 -0.08319109
v -0.4130863 0.01757813 -0.08319109
v -0.1898421 0.3591797 -0.05506915
v -0.1904294 0.2936822 -0.0164033
v 0.1921882 0.2936822 -0.01640349
v 0.1921883 0.3591797 -0.0550688
v 0.4031259 0.01757813 -0.09490942
v -0.4007799 0.01757813 -0.09491004
v -0.4007799 0 -0.09491004
v 0.4031259 0 -0.09490942
v -0.3832012 0.06547856 0.03808608
v -0.3832012 0.06547856 -0.02050762
v 0.3855475 0.06547856 -0.02050808
v 0.3855475 0.06547856 0.03808561
v 0.00117269 0.06547856 0.04489118
v 0.7071117 0.1432031 0.05097972
v 0.7086925 0.06547856 0.04698187
v 0.00117269 0.06547856 0.04489118
v -0.7075523 0.1431121 0.05123876
v -0.7086904 0.06547856 0.04698211
v -0.1904294 0.2936822 -0.0164033
v -0.1904294 0.1857423 -0.0164033
v 0.1921882 0.1857423 -0.01640349
v 0.1921882 0.2936822 -0.01640349
v 0.4148449 0 0.08262657
v 0.4031257 0 0.09492468
v 0.4031257 0.01757813 0.09492468
v 0.4148449 0.01757813 0.08262657
v 0.4031257 0 0.09492468
v -0.4007796 0 0.09492501
v -0.4007796 0.01757813 0.09492501
v 0.4031257 0.01757813 0.09492468
v -0.413086 0 0.08262608
v -0.413086 0.01757813 0.08262608
v -0.4007796 0.01757813 0.09492501
v -0.4007796 0 0.09492501
v -0.1904294 0.1857423 -0.0164033
v -0.1898421 0.1798829 -0.05506915
v 0.1921883 0.1798829 -0.0550688
v 0.1921882 0.1857423 -0.01640349
v -0.7085192 0.982022 0.0517579
v 0.707989 0.9818556 0.05145299
v 0.6597672 0.9373829 0.05145293
v -0.6613025 0.9377198 0.0527342
v -0.6610106 0.1922607 0.04995745
v -0.7075523 0.1431121 0.05123876
v -0.7085192 0.982022 0.0517579
v -0.6613025 0.9377198 0.0527342
v 0.707989 0.9818556 0.05145299
v 0.7071117 0.1432031 0.05097972
v 0.6597672 0.1920704 0.05145293
v 0.6597672 0.9373829 0.05145293
v 0.7071117 0.1432031 0.05097972
v -0.7075523 0.1431121 0.05123876
v -0.6610106 0.1922607 0.04995745
v 0.6597672 0.1920704 0.05145293
v -0.709473 0.9831054 0.00137302
v -0.6580065 0.9515626 -0.03515632
v 0.001172933 0.9515626 -0.03515641
v 0.6580086 0.9515626 -0.03515611
v 0.709473 0.9831054 0.001373337
v -0.7090818 0.06547856 0.001372912
v -0.6580065 0.1107422 -0.03515632
v -0.6580065 0.9515626 -0.03515632
v -0.709473 0.9831054 0.00137302
v 0.5572282 0.9152343 -0.05506897
v 0.6580086 0.9515626 -0.03515611
v 0.001172933 0.9515626 -0.03515641
v -0.5572265 0.9152343 -0.05506914
v -0.6580065 0.9515626 -0.03515632
v 0.6580086 0.9515626 -0.03515611
v 0.6580086 0.1107422 -0.03515611
v 0.709083 0.06547856 0.001373233
v 0.709473 0.9831054 0.001373337
v -0.5572265 0.9152343 -0.05506914
v -0.5572265 0.1740235 -0.05506914
v -0.1898421 0.3591797 -0.05506915
v -0.6580065 0.9515626 -0.03515632
v -0.6580065 0.1107422 -0.03515632
v -0.5572265 0.1740235 -0.05506914
v -0.5572265 0.9152343 -0.05506914
v -0.5572265 0.1740235 -0.05506914
v -0.1898421 0.1798829 -0.05506915
v -0.1898421 0.3591797 -0.05506915
v -0.6580065 0.1107422 -0.03515632
v 0.6580086 0.1107422 -0.03515611
v 0.5572282 0.1740235 -0.05506897
v 0.1921883 0.1798829 -0.0550688
v -0.1898421 0.1798829 -0.05506915
v -0.5572265 0.1740235 -0.05506914
v 0.1921883 0.3591797 -0.0550688
v 0.1921883 0.1798829 -0.0550688
v 0.5572282 0.1740235 -0.05506897
v 0.6580086 0.9515626 -0.03515611
v 0.5572282 0.9152343 -0.05506897
v 0.5572282 0.1740235 -0.05506897
v 0.6580086 0.1107422 -0.03515611
v 0.707989 0.9818556 0.05145299
v -0.7085192 0.982022 0.0517579
v -0.709473 0.9831054 0.00137302
v 0.709473 0.9831054 0.001373337
v 0.4148446 0 -0.08319061
v 0.4031259 0 -0.09490942
v -0.4007799 0 -0.09491004
v -0.4130863 0 -0.08319109
v 0.4148449 0 0.08262657
v -0.413086 0 0.08262608
v 0.4031257 0 0.09492468
v -0.4007796 0 0.09492501
v 0.3943366 0.02519536 0.04804961
v 0.3943367 0.02519536 -0.02752678
v 0.4148446 0.01757813 -0.08319061
v 0.4148449 0.01757813 0.08262657
v -0.391991 0.02519536 0.04804992
v -0.413086 0.01757813 0.08262608
v -0.4130863 0.01757813 -0.08319109
v -0.3919906 0.02519536 -0.02752686
v -0.413086 0.01757813 0.08262608
v -0.391991 0.02519536 0.04804992
v 0.3943366 0.02519536 0.04804961
v 0.4148449 0.01757813 0.08262657
v -0.4007796 0.01757813 0.09492501
v 0.4031257 0.01757813 0.09492468
v -0.4130863 0.01757813 -0.08319109
v -0.4007799 0.01757813 -0.09491004
v 0.4031259 0.01757813 -0.09490942
v 0.4148446 0.01757813 -0.08319061
v -0.3919906 0.02519536 -0.02752686
v 0.3943367 0.02519536 -0.02752678
v 0.709083 0.06547856 0.001373233
v 0.6580086 0.1107422 -0.03515611
v -0.6580065 0.1107422 -0.03515632
v -0.7090818 0.06547856 0.001372912
v 0.1921883 0.3591797 -0.0550688
v 0.5572282 0.1740235 -0.05506897
v 0.5572282 0.9152343 -0.05506897
v 0.1921883 0.3591797 -0.0550688
v 0.5572282 0.9152343 -0.05506897
v -0.5572265 0.9152343 -0.05506914
v -0.1898421 0.3591797 -0.05506915

vn -0.4665527 0.8168945 0.3383789
vn -0.4665527 0.8168945 0.3383789
vn -0.4665527 0.8168945 0.3383789
vn -0.4665527 0.8168945 0.3383789
vn -0.8051758 -0.1017456 0.5839844
vn -0.8051758 -0.1017456 0.5839844
vn -0.8051758 -0.1017456 0.5839844
vn -0.8051758 -0.1017456 0.5839844
vn -0.8051758 -0.1017456 0.5839844
vn -0.5869141 0 -0.809082
vn -0.5869141 0 -0.809082
vn -0.5869141 0 -0.809082
vn -0.5869141 0 -0.809082
vn -0.3666992 0.7807617 -0.5053711
vn -0.3666992 0.7807617 -0.5053711
vn -0.3666992 0.7807617 -0.5053711
vn -0.3666992 0.7807617 -0.5053711
vn 0.809082 0 -0.5869141
vn 0.809082 0 -0.5869141
vn 0.809082 0 -0.5869141
vn 0.809082 0 -0.5869141
vn 0.5869141 0 0.809082
vn 0.5869141 0 0.809082
vn 0.5869141 0 0.809082
vn 0.5869141 0 0.809082
vn 0.3666992 0.7807617 0.5053711
vn 0.3666992 0.7807617 0.5053711
vn 0.3666992 0.7807617 0.5053711
vn 0.3666992 0.7807617 0.5053711
vn 0.5727539 0.7060547 -0.4155273
vn 0.5727539 0.7060547 -0.4155273
vn 0.5727539 0.7060547 -0.4155273
vn 0.5727539 0.7060547 -0.4155273
vn -0.5869141 0 -0.809082
vn -0.5869141 0 -0.809082
vn -0.5869141 0 -0.809082
vn -0.5869141 0 -0.809082
vn -0.6074219 -0.0007796288 -0.7939453
vn -0.6074219 -0.0007796288 -0.7939453
vn -0.6074219 -0.0007796288 -0.7939453
vn -0.6074219 -0.0007796288 -0.7939453
vn -0.59375 0.01413727 -0.8041992
vn -0.59375 0.01413727 -0.8041992
vn -0.59375 0.01413727 -0.8041992
vn 0.5800781 0.01989746 0.8139648
vn 0.5800781 0.01989746 0.8139648
vn 0.5800781 0.01989746 0.8139648
vn 0.5581055 -0.0007305145 0.8295898
vn 0.5581055 -0.0007305145 0.8295898
vn 0.5581055 -0.0007305145 0.8295898
vn 0.5581055 -0.0007305145 0.8295898
vn 0 -1 0
vn 0 -1 0
vn 0 -1 0
vn 0 -1 0
vn 0 -1 0
vn 0 -1 0
vn 0.574707 0 0.8178711
vn 0.574707 0 0.8178711
vn 0.574707 0 0.8178711
vn 0.574707 0 0.8178711
vn 0.5869141 0 0.809082
vn 0.5869141 0 0.809082
vn 0.5869141 0 0.809082
vn 0.5869141 0 0.809082
vn 0.9873047 0 0.1571045
vn 0.9873047 0 0.1571045
vn 0.9873047 0 0.1571045
vn 0.9873047 0 0.1571045
vn 0.1811523 0 -0.9833984
vn 0.1811523 0 -0.9833984
vn 0.1811523 0 -0.9833984
vn 0.1811523 0 -0.9833984
vn -0.5869141 0 -0.809082
vn -0.5869141 0 -0.809082
vn -0.5869141 0 -0.809082
vn -0.5869141 0 -0.809082
vn 0.6967773 -0.5083008 -0.5053711
vn 0.6967773 -0.5083008 -0.5053711
vn 0.6967773 -0.5083008 -0.5053711
vn 0.6967773 -0.5083008 -0.5053711
vn 0.809082 0 -0.5869141
vn 0.809082 0 -0.5869141
vn 0.809082 0 -0.5869141
vn 0.809082 0 -0.5869141
vn 0 1 0
vn 0 1 0
vn 0 1 0
vn 0 1 0
vn 0 1 0
vn -0.8071289 -0.06640625 0.5859375
vn -0.8071289 -0.06640625 0.5859375
vn -0.8071289 -0.06640625 0.5859375
vn -0.8071289 -0.06640625 0.5859375
vn -0.8071289 -0.06640625 0.5859375
vn 0.809082 0 -0.5869141
vn 0.809082 0 -0.5869141
vn 0.809082 0 -0.5869141
vn 0.809082 0 -0.5869141
vn -0.1331787 0 0.9907227
vn -0.1331787 0 0.9907227
vn -0.1331787 0 0.9907227
vn -0.1331787 0 0.9907227
vn -0.809082 0 0.5869141
vn -0.809082 0 0.5869141
vn -0.809082 0 0.5869141
vn -0.809082 0 0.5869141
vn -0.9873047 0 -0.1567383
vn -0.9873047 0 -0.1567383
vn -0.9873047 0 -0.1567383
vn -0.9873047 0 -0.1567383
vn 0.1212158 0.9882813 -0.08795166
vn 0.1212158 0.9882813 -0.08795166
vn 0.1212158 0.9882813 -0.08795166
vn 0.1212158 0.9882813 -0.08795166
vn -0.8085938 0.01098633 0.5874023
vn -0.8085938 0.01098633 0.5874023
vn -0.8085938 0.01098633 0.5874023
vn -0.8085938 0.01098633 0.5874023
vn -0.8071289 -0.002077103 0.5898438
vn -0.8071289 -0.002077103 0.5898438
vn -0.8071289 -0.002077103 0.5898438
vn -0.8071289 -0.002077103 0.5898438
vn -0.8061523 -0.0003013611 0.5908203
vn -0.8061523 -0.0003013611 0.5908203
vn -0.8061523 -0.0003013611 0.5908203
vn -0.8061523 -0.0003013611 0.5908203
vn -0.8095703 0.008239746 0.5864258
vn -0.8095703 0.008239746 0.5864258
vn -0.8095703 0.008239746 0.5864258
vn -0.8095703 0.008239746 0.5864258
vn 0.5288086 0.7568359 -0.3835449
vn 0.5288086 0.7568359 -0.3835449
vn 0.5288086 0.7568359 -0.3835449
vn 0.5288086 0.7568359 -0.3835449
vn 0.5288086 0.7568359 -0.3835449
vn 0.3183594 -0.0001280308 -0.9477539
vn 0.3183594 -0.0001280308 -0.9477539
vn 0.3183594 -0.0001280308 -0.9477539
vn 0.3183594 -0.0001280308 -0.9477539
vn 0.7094727 0.4804688 -0.5146484
vn 0.7094727 0.4804688 -0.5146484
vn 0.7094727 0.4804688 -0.5146484
vn 0.7094727 0.4804688 -0.5146484
vn 0.7094727 0.4804688 -0.5146484
vn 0.9995117 -0.0001280308 -0.00856781
vn 0.9995117 -0.0001280308 -0.00856781
vn 0.9995117 -0.0001280308 -0.00856781
vn 0.9995117 -0.0001280308 -0.00856781
vn 0.809082 0 -0.5869141
vn 0.809082 0 -0.5869141
vn 0.809082 0 -0.5869141
vn 0.6801758 0 -0.7329102
vn 0.6801758 0 -0.7329102
vn 0.6801758 0 -0.7329102
vn 0.6801758 0 -0.7329102
vn 0.809082 0 -0.5869141
vn 0.809082 0 -0.5869141
vn 0.809082 0 -0.5869141
vn 0.7753906 -0.2851563 -0.5625
vn 0.7753906 -0.2851563 -0.5625
vn 0.7753906 -0.2851563 -0.5625
vn 0.7753906 -0.2851563 -0.5625
vn 0.7753906 -0.2851563 -0.5625
vn 0.7753906 -0.2851563 -0.5625
vn 0.809082 0 -0.5869141
vn 0.809082 0 -0.5869141
vn 0.809082 0 -0.5869141
vn 0.9077148 0 -0.4189453
vn 0.9077148 0 -0.4189453
vn 0.9077148 0 -0.4189453
vn 0.9077148 0 -0.4189453
vn -0.01875305 0.9995117 0.0136795
vn -0.01875305 0.9995117 0.0136795
vn -0.01875305 0.9995117 0.0136795
vn -0.01875305 0.9995117 0.0136795
vn 0 -1 0
vn 0 -1 0
vn 0 -1 0
vn 0 -1 0
vn 0 -1 0
vn 0 -1 0
vn 0 -1 0
vn 0 -1 0
vn 0.2043457 0.9370117 0.2817383
vn 0.2043457 0.9370117 0.2817383
vn 0.2043457 0.9370117 0.2817383
vn 0.2043457 0.9370117 0.2817383
vn -0.1993408 0.9404297 -0.2749023
vn -0.1993408 0.9404297 -0.2749023
vn -0.1993408 0.9404297 -0.2749023
vn -0.1993408 0.9404297 -0.2749023
vn -0.1293945 0.9868164 0.09387207
vn -0.1293945 0.9868164 0.09387207
vn -0.1293945 0.9868164 0.09387207
vn -0.1293945 0.9868164 0.09387207
vn -0.1293945 0.9868164 0.09387207
vn -0.1293945 0.9868164 0.09387207
vn 0.09069824 0.9936523 -0.0657959
vn 0.09069824 0.9936523 -0.0657959
vn 0.09069824 0.9936523 -0.0657959
vn 0.09069824 0.9936523 -0.0657959
vn 0.09069824 0.9936523 -0.0657959
vn 0.09069824 0.9936523 -0.0657959
vn 0.6298828 -0.6279297 -0.4567871
vn 0.6298828 -0.6279297 -0.4567871
vn 0.6298828 -0.6279297 -0.4567871
vn 0.6298828 -0.6279297 -0.4567871
vn 0.809082 0 -0.5869141
vn 0.809082 0 -0.5869141
vn 0.809082 0 -0.5869141
vn 0.809082 0 -0.5869141
vn 0.809082 0 -0.5869141
vn 0.809082 0 -0.5869141
vn 0.809082 0 -0.5869141

vt 0.1566162 0.9423828
vt 0.1566162 0.9472656
vt 0.1616211 0.9472656
vt 0.1616211 0.9423828
vt 0.1973877 0.9472656
vt 0.1973877 0.9448242
vt 0.1973877 0.9423828
vt 0.1923828 0.9423828
vt 0.1923828 0.9472656
vt 0.1923828 0.9423828
vt 0.1923828 0.9472656
vt 0.1973877 0.9472656
vt 0.1973877 0.9423828
vt 0.1566162 0.9423828
vt 0.1566162 0.9472656
vt 0.1616211 0.9472656
vt 0.1616211 0.9423828
vt 0.1923828 0.9423828
vt 0.1923828 0.9472656
vt 0.1973877 0.9472656
vt 0.1973877 0.9423828
vt 0.1923828 0.9423828
vt 0.1923828 0.9472656
vt 0.1973877 0.9472656
vt 0.1973877 0.9423828
vt 0.1566162 0.9423828
vt 0.1566162 0.9472656
vt 0.1616211 0.9472656
vt 0.1616211 0.9423828
vt 0.1566162 0.9423828
vt 0.1566162 0.9472656
vt 0.1616211 0.9472656
vt 0.1616211 0.9423828
vt 0.1923828 0.9423828
vt 0.1923828 0.9472656
vt 0.1973877 0.9472656
vt 0.1973877 0.9423828
vt 0.1923828 0.9423828
vt 0.1923828 0.9472656
vt 0.1973877 0.9472656
vt 0.1973877 0.9423828
vt 0.1923828 0.9423828
vt 0.1973877 0.9472656
vt 0.1973877 0.9423828
vt 0.1923828 0.9423828
vt 0.1973877 0.9472656
vt 0.1973877 0.9423828
vt 0.1923828 0.9423828
vt 0.1923828 0.9472656
vt 0.1973877 0.9472656
vt 0.1973877 0.9423828
vt 0.1973877 0.9448242
vt 0.1973877 0.9423828
vt 0.1923828 0.9423828
vt 0.1973877 0.9472656
vt 0.1948242 0.9472656
vt 0.1923828 0.9472656
vt 0.1923828 0.9423828
vt 0.1923828 0.9472656
vt 0.1973877 0.9472656
vt 0.1973877 0.9423828
vt 0.1566162 0.9423828
vt 0.1566162 0.9472656
vt 0.1616211 0.9472656
vt 0.1616211 0.9423828
vt 0.1566162 0.9423828
vt 0.1566162 0.9472656
vt 0.1616211 0.9472656
vt 0.1616211 0.9423828
vt 0.1566162 0.9423828
vt 0.1566162 0.9472656
vt 0.1616211 0.9472656
vt 0.1616211 0.9423828
vt 0.1566162 0.9423828
vt 0.1566162 0.9472656
vt 0.1616211 0.9472656
vt 0.1616211 0.9423828
vt 0.1923828 0.9423828
vt 0.1923828 0.9472656
vt 0.1973877 0.9472656
vt 0.1973877 0.9423828
vt 0.1566162 0.9423828
vt 0.1566162 0.9472656
vt 0.1616211 0.9472656
vt 0.1616211 0.9423828
vt 0.1566162 0.9472656
vt 0.1616211 0.9472656
vt 0.1616211 0.9448242
vt 0.1616211 0.9423828
vt 0.1566162 0.9423828
vt 0.126709 0.9448242
vt 0.126709 0.9423828
vt 0.1217651 0.9423828
vt 0.126709 0.9472656
vt 0.1217651 0.9472656
vt 0.1566162 0.9423828
vt 0.1566162 0.9472656
vt 0.1616211 0.9472656
vt 0.1616211 0.9423828
vt 0.1566162 0.9423828
vt 0.1566162 0.9472656
vt 0.1616211 0.9472656
vt 0.1616211 0.9423828
vt 0.1566162 0.9423828
vt 0.1566162 0.9472656
vt 0.1616211 0.9472656
vt 0.1616211 0.9423828
vt 0.1566162 0.9423828
vt 0.1566162 0.9472656
vt 0.1616211 0.9472656
vt 0.1616211 0.9423828
vt 0.1217651 0.9423828
vt 0.1217651 0.9472656
vt 0.126709 0.9472656
vt 0.126709 0.9423828
vt 0.1566162 0.9423828
vt 0.1566162 0.9472656
vt 0.1616211 0.9472656
vt 0.1616211 0.9423828
vt 0.1566162 0.9423828
vt 0.1566162 0.9472656
vt 0.1616211 0.9472656
vt 0.1616211 0.9423828
vt 0.1566162 0.9423828
vt 0.1566162 0.9472656
vt 0.1616211 0.9472656
vt 0.1616211 0.9423828
vt 0.1566162 0.9423828
vt 0.1566162 0.9472656
vt 0.1616211 0.9472656
vt 0.1616211 0.9423828
vt 0.1616211 0.9472656
vt 0.1616211 0.9448242
vt 0.1616211 0.9423828
vt 0.1566162 0.9423828
vt 0.1566162 0.9472656
vt 0.1566162 0.9423828
vt 0.1566162 0.9472656
vt 0.1616211 0.9472656
vt 0.1616211 0.9423828
vt 0.1566162 0.9472656
vt 0.1616211 0.9472656
vt 0.1616211 0.9448242
vt 0.1566162 0.9423828
vt 0.1616211 0.9423828
vt 0.1566162 0.9423828
vt 0.1566162 0.9472656
vt 0.1616211 0.9472656
vt 0.1616211 0.9423828
vt 0.1566162 0.9423828
vt 0.1616211 0.9472656
vt 0.1616211 0.9423828
vt 0.1566162 0.9423828
vt 0.1566162 0.9472656
vt 0.1616211 0.9472656
vt 0.1616211 0.9423828
vt 0.1566162 0.9423828
vt 0.1616211 0.9472656
vt 0.1616211 0.9423828
vt 0.1616211 0.9423828
vt 0.1566162 0.9423828
vt 0.1566162 0.9472656
vt 0.1591797 0.9472656
vt 0.1616211 0.9472656
vt 0.1616211 0.9448242
vt 0.1566162 0.9423828
vt 0.1616211 0.9472656
vt 0.1616211 0.9423828
vt 0.1566162 0.9423828
vt 0.1566162 0.9472656
vt 0.1616211 0.9472656
vt 0.1616211 0.9423828
vt 0.1923828 0.9423828
vt 0.1923828 0.9472656
vt 0.1973877 0.9472656
vt 0.1973877 0.9423828
vt 0.1616211 0.9423828
vt 0.1591797 0.9423828
vt 0.1566162 0.9423828
vt 0.1566162 0.9448242
vt 0.1616211 0.9448242
vt 0.1566162 0.9472656
vt 0.1616211 0.9472656
vt 0.1591797 0.9472656
vt 0.1217651 0.9423828
vt 0.1217651 0.9472656
vt 0.126709 0.9472656
vt 0.126709 0.9423828
vt 0.1217651 0.9423828
vt 0.1217651 0.9472656
vt 0.126709 0.9472656
vt 0.126709 0.9423828
vt 0.126709 0.9423828
vt 0.1217651 0.9423828
vt 0.1217651 0.9472656
vt 0.1242676 0.9472656
vt 0.126709 0.9448242
vt 0.126709 0.9472656
vt 0.1217651 0.9472656
vt 0.1242676 0.9472656
vt 0.126709 0.9472656
vt 0.126709 0.9448242
vt 0.1217651 0.9423828
vt 0.126709 0.9423828
vt 0.1566162 0.9423828
vt 0.1566162 0.9472656
vt 0.1616211 0.9472656
vt 0.1616211 0.9423828
vt 0.1566162 0.9423828
vt 0.1616211 0.9472656
vt 0.1616211 0.9423828
vt 0.1566162 0.9423828
vt 0.1566162 0.9472656
vt 0.1616211 0.9472656
vt 0.1616211 0.9423828

g PREF_props_tv_01_1713_91
usemtl PREF_props_tv_01_1713_91
usemap PREF_props_tv_01_1713_91
f 1/1/1 3/3/3 2/2/2
f 1/1/1 4/4/4 3/3/3
f 5/5/5 7/7/7 6/6/6
f 7/7/7 5/5/5 8/8/8
f 8/8/8 5/5/5 9/9/9
f 10/10/10 12/12/12 11/11/11
f 10/10/10 13/13/13 12/12/12
f 14/14/14 16/16/16 15/15/15
f 14/14/14 17/17/17 16/16/16
f 18/18/18 20/20/20 19/19/19
f 18/18/18 21/21/21 20/20/20
f 22/22/22 24/24/24 23/23/23
f 22/22/22 25/25/25 24/24/24
f 26/26/26 28/28/28 27/27/27
f 26/26/26 29/29/29 28/28/28
f 30/30/30 32/32/32 31/31/31
f 30/30/30 33/33/33 32/32/32
f 34/34/34 36/36/36 35/35/35
f 34/34/34 37/37/37 36/36/36
f 38/38/38 40/40/40 39/39/39
f 38/38/38 41/41/41 40/40/40
f 42/42/42 44/44/44 43/43/43
f 45/45/45 47/47/47 46/46/46
f 48/48/48 50/50/50 49/49/49
f 48/48/48 51/51/51 50/50/50
f 52/52/52 54/54/54 53/53/53
f 54/54/54 52/52/52 55/55/55
f 54/54/54 55/55/55 56/56/56
f 57/57/57 54/54/54 56/56/56
f 58/58/58 60/60/60 59/59/59
f 58/58/58 61/61/61 60/60/60
f 62/62/62 64/64/64 63/63/63
f 62/62/62 65/65/65 64/64/64
f 66/66/66 68/68/68 67/67/67
f 66/66/66 69/69/69 68/68/68
f 70/70/70 72/72/72 71/71/71
f 70/70/70 73/73/73 72/72/72
f 74/74/74 76/76/76 75/75/75
f 74/74/74 77/77/77 76/76/76
f 78/78/78 80/80/80 79/79/79
f 78/78/78 81/81/81 80/80/80
f 82/82/82 84/84/84 83/83/83
f 82/82/82 85/85/85 84/84/84
f 86/86/86 88/88/88 87/87/87
f 88/88/88 86/86/86 89/89/89
f 89/89/89 86/86/86 90/90/90
f 91/91/91 93/93/93 92/92/92
f 93/93/93 91/91/91 94/94/94
f 93/93/93 94/94/94 95/95/95
f 96/96/96 98/98/98 97/97/97
f 96/96/96 99/99/99 98/98/98
f 100/100/100 102/102/102 101/101/101
f 100/100/100 103/103/103 102/102/102
f 104/104/104 106/106/106 105/105/105
f 104/104/104 107/107/107 106/106/106
f 108/108/108 110/110/110 109/109/109
f 108/108/108 111/111/111 110/110/110
f 112/112/112 114/114/114 113/113/113
f 112/112/112 115/115/115 114/114/114
f 116/116/116 118/118/118 117/117/117
f 116/116/116 119/119/119 118/118/118
f 120/120/120 122/122/122 121/121/121
f 120/120/120 123/123/123 122/122/122
f 124/124/124 126/126/126 125/125/125
f 124/124/124 127/127/127 126/126/126
f 128/128/128 130/130/130 129/129/129
f 128/128/128 131/131/131 130/130/130
f 132/132/132 134/134/134 133/133/133
f 134/134/134 132/132/132 135/135/135
f 135/135/135 132/132/132 136/136/136
f 137/137/137 139/139/139 138/138/138
f 137/137/137 140/140/140 139/139/139
f 141/141/141 143/143/143 142/142/142
f 143/143/143 141/141/141 144/144/144
f 143/143/143 144/144/144 145/145/145
f 146/146/146 148/148/148 147/147/147
f 146/146/146 149/149/149 148/148/148
f 150/150/150 152/152/152 151/151/151
f 153/153/153 155/155/155 154/154/154
f 153/153/153 156/156/156 155/155/155
f 157/157/157 159/159/159 158/158/158
f 160/160/160 162/162/162 161/161/161
f 162/162/162 160/160/160 163/163/163
f 163/163/163 160/160/160 164/164/164
f 164/164/164 160/160/160 165/165/165
f 166/166/166 168/168/168 167/167/167
f 169/169/169 171/171/171 170/170/170
f 169/169/169 172/172/172 171/171/171
f 173/173/173 175/175/175 174/174/174
f 173/173/173 176/176/176 175/175/175
f 177/177/177 179/179/179 178/178/178
f 179/179/179 177/177/177 180/180/180
f 180/180/180 177/177/177 181/181/181
f 180/180/180 181/181/181 182/182/182
f 182/182/182 181/181/181 183/183/183
f 182/182/182 183/183/183 184/184/184
f 185/185/185 187/187/187 186/186/186
f 185/185/185 188/188/188 187/187/187
f 189/189/189 191/191/191 190/190/190
f 189/189/189 192/192/192 191/191/191
f 193/193/193 195/195/195 194/194/194
f 195/195/195 193/193/193 196/196/196
f 196/196/196 193/193/193 197/197/197
f 196/196/196 197/197/197 198/198/198
f 199/199/199 201/201/201 200/200/200
f 201/201/201 199/199/199 202/202/202
f 202/202/202 199/199/199 203/203/203
f 202/202/202 203/203/203 204/204/204
f 205/205/205 207/207/207 206/206/206
f 205/205/205 208/208/208 207/207/207
f 209/209/209 211/211/211 210/210/210
f 212/212/212 214/214/214 213/213/213
f 212/212/212 215/215/215 214/214/214
