#PREF_props_paperbox_03_(2)_1647_1.obj

v -0.3848879 0 0.3659019
v -0.3848879 0.6195258 0.3659019
v 0.4537543 0.6195258 0.365902
v 0.4537543 0 0.365902
v -0.3798883 0.006404229 0.3609065
v -0.3798884 0.006404229 -0.3993092
v 0.4487554 0.006404229 -0.3993096
v 0.4487557 0.006404229 0.3609068
v -0.3848872 0.6195258 -0.4043026
v -0.3848872 0 -0.4043026
v 0.4537542 0 -0.4043022
v 0.4537542 0.6195258 -0.4043022
v -0.3848872 0 -0.4043026
v -0.3848879 0 0.3659019
v 0.4537543 0 0.365902
v 0.4537542 0 -0.4043022
v 0.4537543 0 0.365902
v 0.4537543 0.6195258 0.365902
v 0.4537542 0.6195258 -0.4043022
v 0.4537542 0 -0.4043022
v -0.3848872 0 -0.4043026
v -0.3848872 0.6195258 -0.4043026
v -0.3848879 0.6195258 0.3659019
v -0.3848879 0 0.3659019
v -0.3848879 0.6195258 0.3659019
v -0.3798883 0.6195258 0.3609065
v 0.4487557 0.6195258 0.3609068
v 0.4537543 0.6195258 0.365902
v 0.4537543 0.6195258 0.365902
v 0.4487557 0.6195258 0.3609068
v 0.4487554 0.6195258 -0.3993096
v 0.4537542 0.6195258 -0.4043022
v 0.4537542 0.6195258 -0.4043022
v 0.4487554 0.6195258 -0.3993096
v -0.3798884 0.6195258 -0.3993092
v -0.3848872 0.6195258 -0.4043026
v -0.3848872 0.6195258 -0.4043026
v -0.3798884 0.6195258 -0.3993092
v -0.3798883 0.6195258 0.3609065
v -0.3848879 0.6195258 0.3659019
v -0.3798883 0.6195258 0.3609065
v -0.3798883 0.006404229 0.3609065
v 0.4487557 0.006404229 0.3609068
v 0.4487557 0.6195258 0.3609068
v 0.4487557 0.6195258 0.3609068
v 0.4487557 0.006404229 0.3609068
v 0.4487554 0.006404229 -0.3993096
v 0.4487554 0.6195258 -0.3993096
v 0.4487554 0.6195258 -0.3993096
v 0.4487554 0.006404229 -0.3993096
v -0.3798884 0.006404229 -0.3993092
v -0.3798884 0.6195258 -0.3993092
v -0.3798884 0.6195258 -0.3993092
v -0.3798884 0.006404229 -0.3993092
v -0.3798883 0.006404229 0.3609065
v -0.3798883 0.6195258 0.3609065
v 0.5555611 0.2137202 -0.4043006
v 0.5555608 0.2137223 0.3659021
v 0.4537546 0.6195241 0.3659002
v 0.4537542 0.6195258 -0.4043022
v 0.5542969 0.2134017 -0.4043005
v 0.4524897 0.6192077 -0.4043029
v 0.4524896 0.6192052 0.3659005
v 0.5542966 0.2134038 0.3659022
v -0.5555595 0.237541 -0.4043009
v -0.3848899 0.6195258 -0.4043027
v -0.3848895 0.6195241 0.3658997
v -0.5555614 0.2375394 0.3659022
v -0.5543688 0.2370089 -0.4043008
v -0.5543708 0.2370073 0.3659023
v -0.3836996 0.618992 0.3659
v -0.3836993 0.6189937 -0.4043026
v -0.3848876 0.38455 0.6703601
v -0.3848876 0.6195258 0.3659001
v 0.4537546 0.6195258 0.3659002
v 0.4537546 0.38455 0.6703602
v -0.3848881 0.3835181 0.6695629
v 0.4537542 0.3835181 0.6695631
v 0.4537542 0.6184943 0.365103
v -0.384888 0.6184943 0.3651029
v -0.3848876 0.341814 -0.6703606
v 0.4537547 0.341814 -0.6703604
v 0.4537542 0.6195241 -0.4043022
v -0.3848872 0.6195241 -0.4043026
v -0.3848878 0.3409139 -0.6694221
v -0.3848878 0.6186236 -0.4033623
v 0.4537544 0.6186236 -0.4033622
v 0.4537544 0.3409139 -0.6694221

vn -0.2868652 0 0.9575195
vn -0.2868652 0 0.9575195
vn -0.2868652 0 0.9575195
vn -0.2868652 0 0.9575195
vn 0 1 0
vn 0 1 0
vn 0 1 0
vn 0 1 0
vn 0.2868652 0 -0.9575195
vn 0.2868652 0 -0.9575195
vn 0.2868652 0 -0.9575195
vn 0.2868652 0 -0.9575195
vn 0 -1 0
vn 0 -1 0
vn 0 -1 0
vn 0 -1 0
vn 0.9575195 0 0.2868652
vn 0.9575195 0 0.2868652
vn 0.9575195 0 0.2868652
vn 0.9575195 0 0.2868652
vn -0.9575195 0 -0.2868652
vn -0.9575195 0 -0.2868652
vn -0.9575195 0 -0.2868652
vn -0.9575195 0 -0.2868652
vn 0 1 0
vn 0 1 0
vn 0 1 0
vn 0 1 0
vn 0 1 0
vn 0 1 0
vn 0 1 0
vn 0 1 0
vn 0 1 0
vn 0 1 0
vn 0 1 0
vn 0 1 0
vn 0 1 0
vn 0 1 0
vn 0 1 0
vn 0 1 0
vn 0.2868652 0 -0.9575195
vn 0.2868652 0 -0.9575195
vn 0.2868652 0 -0.9575195
vn 0.2868652 0 -0.9575195
vn -0.9575195 0 -0.2868652
vn -0.9575195 0 -0.2868652
vn -0.9575195 0 -0.2868652
vn -0.9575195 0 -0.2868652
vn -0.2868652 0 0.9575195
vn -0.2868652 0 0.9575195
vn -0.2868652 0 0.9575195
vn -0.2868652 0 0.9575195
vn 0.9575195 0 0.2868652
vn 0.9575195 0 0.2868652
vn 0.9575195 0 0.2868652
vn 0.9575195 0 0.2868652
vn 0.9287109 0.2432861 0.2780762
vn 0.9287109 0.2432861 0.2780762
vn 0.9287109 0.2432861 0.2780762
vn 0.9287109 0.2432861 0.2780762
vn -0.9287109 -0.2432861 -0.2780762
vn -0.9287109 -0.2432861 -0.2780762
vn -0.9287109 -0.2432861 -0.2780762
vn -0.9287109 -0.2432861 -0.2780762
vn -0.8745117 0.4077148 -0.2617188
vn -0.8745117 0.4077148 -0.2617188
vn -0.8745117 0.4077148 -0.2617188
vn -0.8745117 0.4077148 -0.2617188
vn 0.8745117 -0.4077148 0.2617188
vn 0.8745117 -0.4077148 0.2617188
vn 0.8745117 -0.4077148 0.2617188
vn 0.8745117 -0.4077148 0.2617188
vn -0.1751709 0.7915039 0.5849609
vn -0.1751709 0.7915039 0.5849609
vn -0.1751709 0.7915039 0.5849609
vn -0.1751709 0.7915039 0.5849609
vn 0.1751709 -0.7915039 -0.5849609
vn 0.1751709 -0.7915039 -0.5849609
vn 0.1751709 -0.7915039 -0.5849609
vn 0.1751709 -0.7915039 -0.5849609
vn 0.2070313 0.6914063 -0.6914063
vn 0.2070313 0.6914063 -0.6914063
vn 0.2070313 0.6914063 -0.6914063
vn 0.2070313 0.6914063 -0.6914063
vn -0.2070313 -0.6914063 0.6914063
vn -0.2070313 -0.6914063 0.6914063
vn -0.2070313 -0.6914063 0.6914063
vn -0.2070313 -0.6914063 0.6914063

vt 0.5317383 0.7753906
vt 0.5317383 0.862793
vt 0.605957 0.862793
vt 0.605957 0.7753906
vt 0.6079102 0.8657227
vt 0.6079102 0.8969727
vt 0.6542969 0.8969727
vt 0.6542969 0.8657227
vt 0.605957 0.862793
vt 0.605957 0.7753906
vt 0.5317383 0.7753906
vt 0.5317383 0.862793
vt 0.5317383 0.7983398
vt 0.5317383 0.8354492
vt 0.605957 0.8354492
vt 0.605957 0.7983398
vt 0.6064453 0.7753906
vt 0.6064453 0.862793
vt 0.6552734 0.862793
vt 0.6552734 0.7753906
vt 0.6064453 0.7753906
vt 0.6064453 0.862793
vt 0.6552734 0.862793
vt 0.6552734 0.7753906
vt 0.5317383 0.862793
vt 0.5317383 0.862793
vt 0.605957 0.862793
vt 0.605957 0.862793
vt 0.605957 0.862793
vt 0.605957 0.862793
vt 0.605957 0.8994141
vt 0.605957 0.8994141
vt 0.605957 0.8994141
vt 0.605957 0.8994141
vt 0.5317383 0.8994141
vt 0.5317383 0.8994141
vt 0.5317383 0.8994141
vt 0.5317383 0.8994141
vt 0.5317383 0.862793
vt 0.5317383 0.862793
vt 0.6079102 0.8642578
vt 0.6079102 0.8984375
vt 0.6542969 0.8984375
vt 0.6542969 0.8642578
vt 0.6157227 0.8642578
vt 0.6157227 0.8984375
vt 0.6469727 0.8984375
vt 0.6469727 0.8642578
vt 0.6542969 0.8984375
vt 0.6542969 0.8642578
vt 0.6079102 0.8642578
vt 0.6079102 0.8984375
vt 0.6157227 0.8642578
vt 0.6157227 0.8984375
vt 0.6469727 0.8984375
vt 0.6469727 0.8642578
vt 0.5317383 0.7753906
vt 0.605957 0.7753906
vt 0.605957 0.8422852
vt 0.5317383 0.8422852
vt 0.5317383 0.7753906
vt 0.5317383 0.8422852
vt 0.605957 0.8422852
vt 0.605957 0.7753906
vt 0.5317383 0.7753906
vt 0.5317383 0.8422852
vt 0.605957 0.8422852
vt 0.605957 0.7753906
vt 0.5317383 0.7753906
vt 0.605957 0.7753906
vt 0.605957 0.8422852
vt 0.5317383 0.8422852
vt 0.5317383 0.7753906
vt 0.5317383 0.8422852
vt 0.605957 0.8422852
vt 0.605957 0.7753906
vt 0.5317383 0.7753906
vt 0.605957 0.7753906
vt 0.605957 0.8422852
vt 0.5317383 0.8422852
vt 0.5317383 0.7753906
vt 0.605957 0.7753906
vt 0.605957 0.8422852
vt 0.5317383 0.8422852
vt 0.5317383 0.7753906
vt 0.5317383 0.8422852
vt 0.605957 0.8422852
vt 0.605957 0.7753906

g PREF_props_paperbox_03_(2)_1647_1
usemtl PREF_props_paperbox_03_(2)_1647_1
usemap PREF_props_paperbox_03_(2)_1647_1
f 1/1/1 3/3/3 2/2/2
f 1/1/1 4/4/4 3/3/3
f 5/5/5 7/7/7 6/6/6
f 5/5/5 8/8/8 7/7/7
f 9/9/9 11/11/11 10/10/10
f 9/9/9 12/12/12 11/11/11
f 13/13/13 15/15/15 14/14/14
f 13/13/13 16/16/16 15/15/15
f 17/17/17 19/19/19 18/18/18
f 17/17/17 20/20/20 19/19/19
f 21/21/21 23/23/23 22/22/22
f 21/21/21 24/24/24 23/23/23
f 25/25/25 27/27/27 26/26/26
f 25/25/25 28/28/28 27/27/27
f 29/29/29 31/31/31 30/30/30
f 29/29/29 32/32/32 31/31/31
f 33/33/33 35/35/35 34/34/34
f 33/33/33 36/36/36 35/35/35
f 37/37/37 39/39/39 38/38/38
f 37/37/37 40/40/40 39/39/39
f 41/41/41 43/43/43 42/42/42
f 41/41/41 44/44/44 43/43/43
f 45/45/45 47/47/47 46/46/46
f 45/45/45 48/48/48 47/47/47
f 49/49/49 51/51/51 50/50/50
f 49/49/49 52/52/52 51/51/51
f 53/53/53 55/55/55 54/54/54
f 53/53/53 56/56/56 55/55/55
f 57/57/57 59/59/59 58/58/58
f 57/57/57 60/60/60 59/59/59
f 61/61/61 63/63/63 62/62/62
f 61/61/61 64/64/64 63/63/63
f 65/65/65 67/67/67 66/66/66
f 65/65/65 68/68/68 67/67/67
f 69/69/69 71/71/71 70/70/70
f 69/69/69 72/72/72 71/71/71
f 73/73/73 75/75/75 74/74/74
f 73/73/73 76/76/76 75/75/75
f 77/77/77 79/79/79 78/78/78
f 77/77/77 80/80/80 79/79/79
f 81/81/81 83/83/83 82/82/82
f 81/81/81 84/84/84 83/83/83
f 85/85/85 87/87/87 86/86/86
f 85/85/85 88/88/88 87/87/87
