#PREF_props_money_09_(1)_1617_38.obj

v 0.1138785 0.008669465 0.1946945
v 0.1138803 -0.008669466 0.2568969
v 0.04082682 0.008669465 0.256897
v -0.1138801 -0.008669466 0.1609003
v -0.1138804 0.004719405 -0.06051255
v 0.1138801 0.004719405 -0.0882493
v 0.1138799 -0.008669466 0.067379
v -0.1138801 -0.008669466 0.1609003
v 0.1138799 -0.008669466 0.067379
v 0.1138785 0.008669465 0.1946945
v -0.1138802 -0.008669466 0.256897
v 0.04082682 0.008669465 0.256897
v -0.1138803 -0.008669466 -0.2068938
v -0.01166541 -0.008669466 -0.2569008
v 0.1138802 -0.008669466 -0.2569009
v 0.1138802 -0.008669466 -0.1766702
v -0.1138804 0.004719405 -0.06051255
v -0.1138803 -0.008669466 -0.2068938
v 0.1138802 -0.008669466 -0.1766702
v 0.1138801 0.004719405 -0.0882493
v -0.1138803 -0.008669466 -0.2068938
v -0.1138803 0.002171546 -0.2569008
v -0.01166541 -0.008669466 -0.2569008

vn 0.2875977 0.9389648 -0.1879883
vn 0.2875977 0.9389648 -0.1879883
vn 0.2875977 0.9389648 -0.1879883
vn 0.07263184 0.9970703 -0.009750366
vn 0.07263184 0.9970703 -0.009750366
vn 0.07263184 0.9970703 -0.009750366
vn 0.07263184 0.9970703 -0.009750366
vn -0.09405518 0.9936523 0.06030273
vn -0.09405518 0.9936523 0.06030273
vn -0.09405518 0.9936523 0.06030273
vn -0.09405518 0.9936523 0.06030273
vn -0.09405518 0.9936523 0.06030273
vn 0 1 0
vn 0 1 0
vn 0 1 0
vn 0 1 0
vn -0.1123047 0.9931641 -0.0149231
vn -0.1123047 0.9931641 -0.0149231
vn -0.1123047 0.9931641 -0.0149231
vn -0.1123047 0.9931641 -0.0149231
vn 0.2220459 0.9716797 -0.07562256
vn 0.2220459 0.9716797 -0.07562256
vn 0.2220459 0.9716797 -0.07562256

vt 0.9663086 0.6801758
vt 0.9790039 0.6801758
vt 0.9790039 0.6625977
vt 0.9594727 0.6259766
vt 0.9150391 0.6259766
vt 0.9091797 0.6801758
vt 0.940918 0.6801758
vt 0.9594727 0.6259766
vt 0.940918 0.6801758
vt 0.9663086 0.6801758
vt 0.9790039 0.6259766
vt 0.9790039 0.6625977
vt 0.8852539 0.6259766
vt 0.875 0.6503906
vt 0.875 0.6801758
vt 0.8916016 0.6801758
vt 0.9150391 0.6259766
vt 0.8852539 0.6259766
vt 0.8916016 0.6801758
vt 0.9091797 0.6801758
vt 0.8852539 0.6259766
vt 0.875 0.6259766
vt 0.875 0.6503906

g PREF_props_money_09_(1)_1617_38
usemtl PREF_props_money_09_(1)_1617_38
usemap PREF_props_money_09_(1)_1617_38
f 1/1/1 3/3/3 2/2/2
f 4/4/4 6/6/6 5/5/5
f 4/4/4 7/7/7 6/6/6
f 8/8/8 10/10/10 9/9/9
f 10/10/10 8/8/8 11/11/11
f 10/10/10 11/11/11 12/12/12
f 13/13/13 15/15/15 14/14/14
f 13/13/13 16/16/16 15/15/15
f 17/17/17 19/19/19 18/18/18
f 17/17/17 20/20/20 19/19/19
f 21/21/21 23/23/23 22/22/22
