#PREF_props_poster_03_(2)_1561_37.obj

v -0.2880287 -0.4081924 3.445894E-08
v -0.2880287 0.4081924 3.445894E-08
v 0.2880287 0.4081924 -3.445894E-08
v 0.2880287 -0.4081924 -3.445894E-08

vn 1 0 -1.192093E-07
vn 1 0 -1.192093E-07
vn 1 0 -1.192093E-07
vn 1 0 -1.192093E-07

vt 0.2111816 0.6850586
vt 0.2111816 0.7758789
vt 0.2702637 0.7758789
vt 0.2702637 0.6850586

g PREF_props_poster_03_(2)_1561_37
usemtl PREF_props_poster_03_(2)_1561_37
usemap PREF_props_poster_03_(2)_1561_37
f 1/1/1 3/3/3 2/2/2
f 1/1/1 4/4/4 3/3/3
