#PREF_props_poster_05_(2)_1659_21.obj

v -0.4250565 -0.3173606 5.075708E-08
v -0.4250565 0.3173609 5.075708E-08
v 0.4250526 0.3173609 -5.075708E-08
v 0.4250526 -0.3173606 -5.075708E-08

vn 1 0 -1.192093E-07
vn 1 0 -1.192093E-07
vn 1 0 -1.192093E-07
vn 1 0 -1.192093E-07

vt 0.2719727 0.6982422
vt 0.2719727 0.7739258
vt 0.3886719 0.7739258
vt 0.3886719 0.6982422

g PREF_props_poster_05_(2)_1659_21
usemtl PREF_props_poster_05_(2)_1659_21
usemap PREF_props_poster_05_(2)_1659_21
f 1/1/1 3/3/3 2/2/2
f 1/1/1 4/4/4 3/3/3
