#PREF_props_top_lamp_02_(1)_1528_73.obj

v 0.4236103 -0.08718127 -0.1376388
v 0.4465698 -0.02276461 -0.1450989
v 0.3798748 -0.02276461 -0.2759951
v 0.3603441 -0.08718127 -0.2618055
v 0.3603441 -0.08718127 -0.2618055
v 0.3798748 -0.02276461 -0.2759951
v 0.2759957 -0.02276461 -0.3798754
v 0.2618049 -0.08718127 -0.3603447
v 0.2618049 -0.08718127 -0.3603447
v 0.2759957 -0.02276461 -0.3798754
v 0.1451002 -0.02276461 -0.4465692
v 0.1376381 -0.08718127 -0.4236097
v 0.1376381 -0.08718127 -0.4236097
v 0.1451002 -0.02276461 -0.4465692
v 0 -0.02276461 -0.4695511
v 0 -0.08718127 -0.44541
v 0 -0.08718127 -0.44541
v 0 -0.02276461 -0.4695511
v -0.1451002 -0.02276461 -0.4465692
v -0.1376394 -0.08718127 -0.4236097
v -0.1376394 -0.08718127 -0.4236097
v -0.1451002 -0.02276461 -0.4465692
v -0.275997 -0.02276461 -0.3798748
v -0.2618049 -0.08718127 -0.3603441
v -0.2618049 -0.08718127 -0.3603441
v -0.275997 -0.02276461 -0.3798748
v -0.3798748 -0.02276461 -0.2759951
v -0.3603441 -0.08718127 -0.2618055
v -0.3603441 -0.08718127 -0.2618055
v -0.3798748 -0.02276461 -0.2759951
v -0.4465698 -0.02276461 -0.1450989
v -0.4236103 -0.08718127 -0.1376388
v -0.4236103 -0.08718127 -0.1376388
v -0.4465698 -0.02276461 -0.1450989
v -0.4695505 -0.02276461 0
v -0.4454094 -0.08718127 0
v -0.4454094 -0.08718127 0
v -0.4695505 -0.02276461 0
v -0.4465698 -0.02276461 0.1450996
v -0.4236103 -0.08718127 0.1376388
v -0.4236103 -0.08718127 0.1376388
v -0.4465698 -0.02276461 0.1450996
v -0.3798748 -0.02276461 0.2759951
v -0.3603441 -0.08718127 0.2618049
v -0.3603441 -0.08718127 0.2618049
v -0.3798748 -0.02276461 0.2759951
v -0.275997 -0.02276461 0.3798748
v -0.2618049 -0.08718127 0.3603441
v -0.2618049 -0.08718127 0.3603441
v -0.275997 -0.02276461 0.3798748
v -0.1451002 -0.02276461 0.4465692
v -0.1376394 -0.08718127 0.4236097
v -0.1376394 -0.08718127 0.4236097
v -0.1451002 -0.02276461 0.4465692
v 0 -0.02276461 0.4695511
v 0 -0.08718127 0.44541
v 0 -0.08718127 0.44541
v 0 -0.02276461 0.4695511
v 0.1451002 -0.02276461 0.4465692
v 0.1376381 -0.08718127 0.4236097
v 0.1376381 -0.08718127 0.4236097
v 0.1451002 -0.02276461 0.4465692
v 0.2759957 -0.02276461 0.3798748
v 0.2618049 -0.08718127 0.3603441
v 0.2618049 -0.08718127 0.3603441
v 0.2759957 -0.02276461 0.3798748
v 0.3798748 -0.02276461 0.2759951
v 0.3603441 -0.08718127 0.2618049
v 0.3603441 -0.08718127 0.2618049
v 0.3798748 -0.02276461 0.2759951
v 0.4465698 -0.02276461 0.1450989
v 0.4236091 -0.08718127 0.1376388
v 0.4236091 -0.08718127 0.1376388
v 0.4465698 -0.02276461 0.1450989
v 0.4695505 -0.02276461 0
v 0.4454094 -0.08718127 0
v 0.4454094 -0.08718127 0
v 0.4695505 -0.02276461 0
v 0.4465698 -0.02276461 -0.1450989
v 0.4236103 -0.08718127 -0.1376388
v 0.3603441 -0.08718127 -0.2618055
v 0.3301462 -0.08718127 -0.2398678
v 0.388115 -0.08718127 -0.1261059
v 0.4236103 -0.08718127 -0.1376388
v 0.2618049 -0.08718127 -0.3603447
v 0.2398684 -0.08718127 -0.3301499
v 0.3301462 -0.08718127 -0.2398678
v 0.3603441 -0.08718127 -0.2618055
v 0.1376381 -0.08718127 -0.4236097
v 0.1261066 -0.08718127 -0.3881138
v 0.2398684 -0.08718127 -0.3301499
v 0.2618049 -0.08718127 -0.3603447
v 0 -0.08718127 -0.44541
v 0 -0.08718127 -0.4080879
v 0.1261066 -0.08718127 -0.3881138
v 0.1376381 -0.08718127 -0.4236097
v -0.1376394 -0.08718127 -0.4236097
v -0.1261078 -0.08718127 -0.3881138
v 0 -0.08718127 -0.4080879
v 0 -0.08718127 -0.44541
v -0.2618049 -0.08718127 -0.3603441
v -0.2398684 -0.08718127 -0.3301499
v -0.1261078 -0.08718127 -0.3881138
v -0.1376394 -0.08718127 -0.4236097
v -0.3603441 -0.08718127 -0.2618055
v -0.3301487 -0.08718127 -0.2398678
v -0.2398684 -0.08718127 -0.3301499
v -0.2618049 -0.08718127 -0.3603441
v -0.4236103 -0.08718127 -0.1376388
v -0.388115 -0.08718127 -0.1261059
v -0.3301487 -0.08718127 -0.2398678
v -0.3603441 -0.08718127 -0.2618055
v -0.4454094 -0.08718127 0
v -0.4080892 -0.08718127 0
v -0.388115 -0.08718127 -0.1261059
v -0.4236103 -0.08718127 -0.1376388
v -0.4236103 -0.08718127 0.1376388
v -0.388115 -0.08718127 0.1261066
v -0.4080892 -0.08718127 0
v -0.4454094 -0.08718127 0
v -0.3603441 -0.08718127 0.2618049
v -0.3301487 -0.08718127 0.2398678
v -0.388115 -0.08718127 0.1261066
v -0.4236103 -0.08718127 0.1376388
v -0.2618049 -0.08718127 0.3603441
v -0.2398684 -0.08718127 0.3301499
v -0.3301487 -0.08718127 0.2398678
v -0.3603441 -0.08718127 0.2618049
v -0.1376394 -0.08718127 0.4236097
v -0.1261078 -0.08718127 0.3881138
v -0.2398684 -0.08718127 0.3301499
v -0.2618049 -0.08718127 0.3603441
v 0 -0.08718127 0.44541
v 0 -0.08718127 0.4080873
v -0.1261078 -0.08718127 0.3881138
v -0.1376394 -0.08718127 0.4236097
v 0.1376381 -0.08718127 0.4236097
v 0.1261066 -0.08718127 0.3881138
v 0 -0.08718127 0.4080873
v 0 -0.08718127 0.44541
v 0.2618049 -0.08718127 0.3603441
v 0.2398684 -0.08718127 0.3301499
v 0.1261066 -0.08718127 0.3881138
v 0.1376381 -0.08718127 0.4236097
v 0.3603441 -0.08718127 0.2618049
v 0.3301462 -0.08718127 0.2398678
v 0.2398684 -0.08718127 0.3301499
v 0.2618049 -0.08718127 0.3603441
v 0.4236091 -0.08718127 0.1376388
v 0.3881125 -0.08718127 0.1261066
v 0.3301462 -0.08718127 0.2398678
v 0.3603441 -0.08718127 0.2618049
v 0.4454094 -0.08718127 0
v 0.4080867 -0.08718127 0
v 0.3881125 -0.08718127 0.1261066
v 0.4236091 -0.08718127 0.1376388
v 0.4236103 -0.08718127 -0.1376388
v 0.388115 -0.08718127 -0.1261059
v 0.4080867 -0.08718127 0
v 0.4454094 -0.08718127 0

vn 0.8901367 -0.3508301 -0.2893066
vn 0.8901367 -0.3508301 -0.2893066
vn 0.7573242 -0.3508301 -0.550293
vn 0.7573242 -0.3508301 -0.550293
vn 0.7573242 -0.3508301 -0.550293
vn 0.7573242 -0.3508301 -0.550293
vn 0.550293 -0.3508301 -0.7573242
vn 0.550293 -0.3508301 -0.7573242
vn 0.550293 -0.3508301 -0.7573242
vn 0.550293 -0.3508301 -0.7573242
vn 0.2893066 -0.3508301 -0.8901367
vn 0.2893066 -0.3508301 -0.8901367
vn 0.2893066 -0.3508301 -0.8901367
vn 0.2893066 -0.3508301 -0.8901367
vn 0 -0.3508301 -0.9360352
vn 0 -0.3508301 -0.9360352
vn 0 -0.3508301 -0.9360352
vn 0 -0.3508301 -0.9360352
vn -0.2893066 -0.3508301 -0.8901367
vn -0.2893066 -0.3508301 -0.8901367
vn -0.2893066 -0.3508301 -0.8901367
vn -0.2893066 -0.3508301 -0.8901367
vn -0.550293 -0.3508301 -0.7573242
vn -0.550293 -0.3508301 -0.7573242
vn -0.550293 -0.3508301 -0.7573242
vn -0.550293 -0.3508301 -0.7573242
vn -0.7573242 -0.3508301 -0.550293
vn -0.7573242 -0.3508301 -0.550293
vn -0.7573242 -0.3508301 -0.550293
vn -0.7573242 -0.3508301 -0.550293
vn -0.8901367 -0.3508301 -0.2893066
vn -0.8901367 -0.3508301 -0.2893066
vn -0.8901367 -0.3508301 -0.2893066
vn -0.8901367 -0.3508301 -0.2893066
vn -0.9360352 -0.3508301 0
vn -0.9360352 -0.3508301 0
vn -0.9360352 -0.3508301 0
vn -0.9360352 -0.3508301 0
vn -0.8901367 -0.3508301 0.2893066
vn -0.8901367 -0.3508301 0.2893066
vn -0.8901367 -0.3508301 0.2893066
vn -0.8901367 -0.3508301 0.2893066
vn -0.7573242 -0.3508301 0.550293
vn -0.7573242 -0.3508301 0.550293
vn -0.7573242 -0.3508301 0.550293
vn -0.7573242 -0.3508301 0.550293
vn -0.550293 -0.3508301 0.7573242
vn -0.550293 -0.3508301 0.7573242
vn -0.550293 -0.3508301 0.7573242
vn -0.550293 -0.3508301 0.7573242
vn -0.2893066 -0.3508301 0.8901367
vn -0.2893066 -0.3508301 0.8901367
vn -0.2893066 -0.3508301 0.8901367
vn -0.2893066 -0.3508301 0.8901367
vn 0 -0.3508301 0.9360352
vn 0 -0.3508301 0.9360352
vn 0 -0.3508301 0.9360352
vn 0 -0.3508301 0.9360352
vn 0.2893066 -0.3508301 0.8901367
vn 0.2893066 -0.3508301 0.8901367
vn 0.2893066 -0.3508301 0.8901367
vn 0.2893066 -0.3508301 0.8901367
vn 0.550293 -0.3508301 0.7573242
vn 0.550293 -0.3508301 0.7573242
vn 0.550293 -0.3508301 0.7573242
vn 0.550293 -0.3508301 0.7573242
vn 0.7573242 -0.3508301 0.550293
vn 0.7573242 -0.3508301 0.550293
vn 0.7573242 -0.3508301 0.550293
vn 0.7573242 -0.3508301 0.550293
vn 0.8901367 -0.3508301 0.2893066
vn 0.8901367 -0.3508301 0.2893066
vn 0.8901367 -0.3508301 0.2893066
vn 0.8901367 -0.3508301 0.2893066
vn 0.9360352 -0.3508301 0
vn 0.9360352 -0.3508301 0
vn 0.9360352 -0.3508301 0
vn 0.9360352 -0.3508301 0
vn 0.8901367 -0.3508301 -0.2893066
vn 0.8901367 -0.3508301 -0.2893066
vn 0 -1 0
vn 0 -1 0
vn 0 -1 0
vn 0 -1 0
vn 0 -1 0
vn 0 -1 0
vn 0 -1 0
vn 0 -1 0
vn 0 -1 0
vn 0 -1 0
vn 0 -1 0
vn 0 -1 0
vn 0 -1 0
vn 0 -1 0
vn 0 -1 0
vn 0 -1 0
vn 0 -1 0
vn 0 -1 0
vn 0 -1 0
vn 0 -1 0
vn 0 -1 0
vn 0 -1 0
vn 0 -1 0
vn 0 -1 0
vn 0 -1 0
vn 0 -1 0
vn 0 -1 0
vn 0 -1 0
vn 0 -1 0
vn 0 -1 0
vn 0 -1 0
vn 0 -1 0
vn 0 -1 0
vn 0 -1 0
vn 0 -1 0
vn 0 -1 0
vn 0 -1 0
vn 0 -1 0
vn 0 -1 0
vn 0 -1 0
vn 0 -1 0
vn 0 -1 0
vn 0 -1 0
vn 0 -1 0
vn 0 -1 0
vn 0 -1 0
vn 0 -1 0
vn 0 -1 0
vn 0 -1 0
vn 0 -1 0
vn 0 -1 0
vn 0 -1 0
vn 0 -1 0
vn 0 -1 0
vn 0 -1 0
vn 0 -1 0
vn 0 -1 0
vn 0 -1 0
vn 0 -1 0
vn 0 -1 0
vn 0 -1 0
vn 0 -1 0
vn 0 -1 0
vn 0 -1 0
vn 0 -1 0
vn 0 -1 0
vn 0 -1 0
vn 0 -1 0
vn 0 -1 0
vn 0 -1 0
vn 0 -1 0
vn 0 -1 0
vn 0 -1 0
vn 0 -1 0
vn 0 -1 0
vn 0 -1 0
vn 0 -1 0
vn 0 -1 0
vn 0 -1 0
vn 0 -1 0

vt 0.1566162 0.9423828
vt 0.1566162 0.9472656
vt 0.1616211 0.9472656
vt 0.1616211 0.9423828
vt 0.1566162 0.9423828
vt 0.1566162 0.9472656
vt 0.1616211 0.9472656
vt 0.1616211 0.9423828
vt 0.1566162 0.9423828
vt 0.1566162 0.9472656
vt 0.1616211 0.9472656
vt 0.1616211 0.9423828
vt 0.1566162 0.9423828
vt 0.1566162 0.9472656
vt 0.1616211 0.9472656
vt 0.1616211 0.9423828
vt 0.1566162 0.9423828
vt 0.1566162 0.9472656
vt 0.1616211 0.9472656
vt 0.1616211 0.9423828
vt 0.1566162 0.9423828
vt 0.1566162 0.9472656
vt 0.1616211 0.9472656
vt 0.1616211 0.9423828
vt 0.1566162 0.9423828
vt 0.1566162 0.9472656
vt 0.1616211 0.9472656
vt 0.1616211 0.9423828
vt 0.1566162 0.9423828
vt 0.1566162 0.9472656
vt 0.1616211 0.9472656
vt 0.1616211 0.9423828
vt 0.1566162 0.9423828
vt 0.1566162 0.9472656
vt 0.1616211 0.9472656
vt 0.1616211 0.9423828
vt 0.1566162 0.9423828
vt 0.1566162 0.9472656
vt 0.1616211 0.9472656
vt 0.1616211 0.9423828
vt 0.1566162 0.9423828
vt 0.1566162 0.9472656
vt 0.1616211 0.9472656
vt 0.1616211 0.9423828
vt 0.1566162 0.9423828
vt 0.1566162 0.9472656
vt 0.1616211 0.9472656
vt 0.1616211 0.9423828
vt 0.1566162 0.9423828
vt 0.1566162 0.9472656
vt 0.1616211 0.9472656
vt 0.1616211 0.9423828
vt 0.1566162 0.9423828
vt 0.1566162 0.9472656
vt 0.1616211 0.9472656
vt 0.1616211 0.9423828
vt 0.1566162 0.9423828
vt 0.1566162 0.9472656
vt 0.1616211 0.9472656
vt 0.1616211 0.9423828
vt 0.1566162 0.9423828
vt 0.1566162 0.9472656
vt 0.1616211 0.9472656
vt 0.1616211 0.9423828
vt 0.1566162 0.9423828
vt 0.1566162 0.9472656
vt 0.1616211 0.9472656
vt 0.1616211 0.9423828
vt 0.1566162 0.9423828
vt 0.1566162 0.9472656
vt 0.1616211 0.9472656
vt 0.1616211 0.9423828
vt 0.1566162 0.9423828
vt 0.1566162 0.9472656
vt 0.1616211 0.9472656
vt 0.1616211 0.9423828
vt 0.1566162 0.9423828
vt 0.1566162 0.9472656
vt 0.1616211 0.9472656
vt 0.1616211 0.9423828
vt 0.1217651 0.9423828
vt 0.1217651 0.9472656
vt 0.126709 0.9472656
vt 0.126709 0.9423828
vt 0.1217651 0.9423828
vt 0.1217651 0.9472656
vt 0.126709 0.9472656
vt 0.126709 0.9423828
vt 0.1217651 0.9423828
vt 0.1217651 0.9472656
vt 0.126709 0.9472656
vt 0.126709 0.9423828
vt 0.1217651 0.9423828
vt 0.1217651 0.9472656
vt 0.126709 0.9472656
vt 0.126709 0.9423828
vt 0.1217651 0.9423828
vt 0.1217651 0.9472656
vt 0.126709 0.9472656
vt 0.126709 0.9423828
vt 0.1217651 0.9423828
vt 0.1217651 0.9472656
vt 0.126709 0.9472656
vt 0.126709 0.9423828
vt 0.1217651 0.9423828
vt 0.1217651 0.9472656
vt 0.126709 0.9472656
vt 0.126709 0.9423828
vt 0.1217651 0.9423828
vt 0.1217651 0.9472656
vt 0.126709 0.9472656
vt 0.126709 0.9423828
vt 0.1217651 0.9423828
vt 0.1217651 0.9472656
vt 0.126709 0.9472656
vt 0.126709 0.9423828
vt 0.1217651 0.9423828
vt 0.1217651 0.9472656
vt 0.126709 0.9472656
vt 0.126709 0.9423828
vt 0.1217651 0.9423828
vt 0.1217651 0.9472656
vt 0.126709 0.9472656
vt 0.126709 0.9423828
vt 0.1217651 0.9423828
vt 0.1217651 0.9472656
vt 0.126709 0.9472656
vt 0.126709 0.9423828
vt 0.1217651 0.9423828
vt 0.1217651 0.9472656
vt 0.126709 0.9472656
vt 0.126709 0.9423828
vt 0.1217651 0.9423828
vt 0.1217651 0.9472656
vt 0.126709 0.9472656
vt 0.126709 0.9423828
vt 0.1217651 0.9423828
vt 0.1217651 0.9472656
vt 0.126709 0.9472656
vt 0.126709 0.9423828
vt 0.1217651 0.9423828
vt 0.1217651 0.9472656
vt 0.126709 0.9472656
vt 0.126709 0.9423828
vt 0.1217651 0.9423828
vt 0.1217651 0.9472656
vt 0.126709 0.9472656
vt 0.126709 0.9423828
vt 0.1217651 0.9423828
vt 0.1217651 0.9472656
vt 0.126709 0.9472656
vt 0.126709 0.9423828
vt 0.1217651 0.9423828
vt 0.1217651 0.9472656
vt 0.126709 0.9472656
vt 0.126709 0.9423828
vt 0.1217651 0.9423828
vt 0.1217651 0.9472656
vt 0.126709 0.9472656
vt 0.126709 0.9423828

g PREF_props_top_lamp_02_(1)_1528_73
usemtl PREF_props_top_lamp_02_(1)_1528_73
usemap PREF_props_top_lamp_02_(1)_1528_73
f 1/1/1 3/3/3 2/2/2
f 1/1/1 4/4/4 3/3/3
f 5/5/5 7/7/7 6/6/6
f 5/5/5 8/8/8 7/7/7
f 9/9/9 11/11/11 10/10/10
f 9/9/9 12/12/12 11/11/11
f 13/13/13 15/15/15 14/14/14
f 13/13/13 16/16/16 15/15/15
f 17/17/17 19/19/19 18/18/18
f 17/17/17 20/20/20 19/19/19
f 21/21/21 23/23/23 22/22/22
f 21/21/21 24/24/24 23/23/23
f 25/25/25 27/27/27 26/26/26
f 25/25/25 28/28/28 27/27/27
f 29/29/29 31/31/31 30/30/30
f 29/29/29 32/32/32 31/31/31
f 33/33/33 35/35/35 34/34/34
f 33/33/33 36/36/36 35/35/35
f 37/37/37 39/39/39 38/38/38
f 37/37/37 40/40/40 39/39/39
f 41/41/41 43/43/43 42/42/42
f 41/41/41 44/44/44 43/43/43
f 45/45/45 47/47/47 46/46/46
f 45/45/45 48/48/48 47/47/47
f 49/49/49 51/51/51 50/50/50
f 49/49/49 52/52/52 51/51/51
f 53/53/53 55/55/55 54/54/54
f 53/53/53 56/56/56 55/55/55
f 57/57/57 59/59/59 58/58/58
f 57/57/57 60/60/60 59/59/59
f 61/61/61 63/63/63 62/62/62
f 61/61/61 64/64/64 63/63/63
f 65/65/65 67/67/67 66/66/66
f 65/65/65 68/68/68 67/67/67
f 69/69/69 71/71/71 70/70/70
f 69/69/69 72/72/72 71/71/71
f 73/73/73 75/75/75 74/74/74
f 73/73/73 76/76/76 75/75/75
f 77/77/77 79/79/79 78/78/78
f 77/77/77 80/80/80 79/79/79
f 81/81/81 83/83/83 82/82/82
f 81/81/81 84/84/84 83/83/83
f 85/85/85 87/87/87 86/86/86
f 85/85/85 88/88/88 87/87/87
f 89/89/89 91/91/91 90/90/90
f 89/89/89 92/92/92 91/91/91
f 93/93/93 95/95/95 94/94/94
f 93/93/93 96/96/96 95/95/95
f 97/97/97 99/99/99 98/98/98
f 97/97/97 100/100/100 99/99/99
f 101/101/101 103/103/103 102/102/102
f 101/101/101 104/104/104 103/103/103
f 105/105/105 107/107/107 106/106/106
f 105/105/105 108/108/108 107/107/107
f 109/109/109 111/111/111 110/110/110
f 109/109/109 112/112/112 111/111/111
f 113/113/113 115/115/115 114/114/114
f 113/113/113 116/116/116 115/115/115
f 117/117/117 119/119/119 118/118/118
f 117/117/117 120/120/120 119/119/119
f 121/121/121 123/123/123 122/122/122
f 121/121/121 124/124/124 123/123/123
f 125/125/125 127/127/127 126/126/126
f 125/125/125 128/128/128 127/127/127
f 129/129/129 131/131/131 130/130/130
f 129/129/129 132/132/132 131/131/131
f 133/133/133 135/135/135 134/134/134
f 133/133/133 136/136/136 135/135/135
f 137/137/137 139/139/139 138/138/138
f 137/137/137 140/140/140 139/139/139
f 141/141/141 143/143/143 142/142/142
f 141/141/141 144/144/144 143/143/143
f 145/145/145 147/147/147 146/146/146
f 145/145/145 148/148/148 147/147/147
f 149/149/149 151/151/151 150/150/150
f 149/149/149 152/152/152 151/151/151
f 153/153/153 155/155/155 154/154/154
f 153/153/153 156/156/156 155/155/155
f 157/157/157 159/159/159 158/158/158
f 157/157/157 160/160/160 159/159/159
