#PREF_props_money_09_(2)_1637_3.obj

v 0.1138781 0.008669465 0.1946945
v 0.1138802 -0.008669466 0.256897
v 0.04082671 0.008669465 0.2568969
v -0.1138801 -0.008669466 0.1609001
v -0.1138802 0.004719405 -0.06051258
v 0.1138802 0.004719405 -0.08824927
v 0.1138802 -0.008669466 0.06737901
v -0.1138801 -0.008669466 0.1609001
v 0.1138802 -0.008669466 0.06737901
v 0.1138781 0.008669465 0.1946945
v -0.1138802 -0.008669466 0.256897
v 0.04082671 0.008669465 0.2568969
v -0.1138801 -0.008669466 -0.2068939
v -0.01166534 -0.008669466 -0.2569008
v 0.1138802 -0.008669466 -0.2569009
v 0.1138803 -0.008669466 -0.1766701
v -0.1138802 0.004719405 -0.06051258
v -0.1138801 -0.008669466 -0.2068939
v 0.1138803 -0.008669466 -0.1766701
v 0.1138802 0.004719405 -0.08824927
v -0.1138801 -0.008669466 -0.2068939
v -0.1138802 0.002171546 -0.2569008
v -0.01166534 -0.008669466 -0.2569008

vn 0.1166992 0.9389648 -0.3232422
vn 0.1166992 0.9389648 -0.3232422
vn 0.1166992 0.9389648 -0.3232422
vn 0.05212402 0.9970703 -0.05148315
vn 0.05212402 0.9970703 -0.05148315
vn 0.05212402 0.9970703 -0.05148315
vn 0.05212402 0.9970703 -0.05148315
vn -0.03881836 0.9936523 0.1047363
vn -0.03881836 0.9936523 0.1047363
vn -0.03881836 0.9936523 0.1047363
vn -0.03881836 0.9936523 0.1047363
vn -0.03881836 0.9936523 0.1047363
vn 0 1 0
vn 0 1 0
vn 0 1 0
vn 0 1 0
vn -0.09869385 0.9931641 0.05563354
vn -0.09869385 0.9931641 0.05563354
vn -0.09869385 0.9931641 0.05563354
vn -0.09869385 0.9931641 0.05563354
vn 0.1318359 0.9716797 -0.1939697
vn 0.1318359 0.9716797 -0.1939697
vn 0.1318359 0.9716797 -0.1939697

vt 0.9663086 0.6801758
vt 0.9790039 0.6801758
vt 0.9790039 0.6625977
vt 0.9594727 0.6259766
vt 0.9150391 0.6259766
vt 0.9091797 0.6801758
vt 0.940918 0.6801758
vt 0.9594727 0.6259766
vt 0.940918 0.6801758
vt 0.9663086 0.6801758
vt 0.9790039 0.6259766
vt 0.9790039 0.6625977
vt 0.8852539 0.6259766
vt 0.875 0.6503906
vt 0.875 0.6801758
vt 0.8916016 0.6801758
vt 0.9150391 0.6259766
vt 0.8852539 0.6259766
vt 0.8916016 0.6801758
vt 0.9091797 0.6801758
vt 0.8852539 0.6259766
vt 0.875 0.6259766
vt 0.875 0.6503906

g PREF_props_money_09_(2)_1637_3
usemtl PREF_props_money_09_(2)_1637_3
usemap PREF_props_money_09_(2)_1637_3
f 1/1/1 3/3/3 2/2/2
f 4/4/4 6/6/6 5/5/5
f 4/4/4 7/7/7 6/6/6
f 8/8/8 10/10/10 9/9/9
f 10/10/10 8/8/8 11/11/11
f 10/10/10 11/11/11 12/12/12
f 13/13/13 15/15/15 14/14/14
f 13/13/13 16/16/16 15/15/15
f 17/17/17 19/19/19 18/18/18
f 17/17/17 20/20/20 19/19/19
f 21/21/21 23/23/23 22/22/22
