#PREF_props_ventilation_03_1571_55.obj

v -0.324894 -0.1559372 0.316082
v -0.3426208 -0.1736655 0.324028
v 0.004707336 -0.1736655 0.324028
v -0.01301956 -0.1559372 0.316082
v -0.01301956 -0.1559372 0.316082
v 0.004707336 -0.1736655 0.324028
v 0.004707336 0.173665 0.324028
v -0.01301956 0.1559372 0.316082
v -0.01301956 0.1559372 0.316082
v 0.004707336 0.173665 0.324028
v -0.3426208 0.173665 0.324028
v -0.324894 0.1559372 0.316082
v -0.324894 0.1559372 0.316082
v -0.3426208 0.173665 0.324028
v -0.3426208 -0.1736655 0.324028
v -0.324894 -0.1559372 0.316082
v -0.3426208 -0.1736655 0.324028
v -0.3426208 -0.1736655 0.3303757
v 0.004707336 -0.1736655 0.3303757
v 0.004707336 -0.1736655 0.324028
v 0.004707336 -0.1736655 0.324028
v 0.004707336 -0.1736655 0.3303757
v 0.004707336 0.173665 0.3303757
v 0.004707336 0.173665 0.324028
v 0.004707336 0.173665 0.324028
v 0.004707336 0.173665 0.3303757
v -0.3426208 0.173665 0.3303757
v -0.3426208 0.173665 0.324028
v -0.3426208 0.173665 0.324028
v -0.3426208 0.173665 0.3303757
v -0.3426208 -0.1736655 0.3303757
v -0.3426208 -0.1736655 0.324028
v -0.3426208 -0.1736655 0.3303757
v -0.3314285 -0.1624746 0.3336258
v -0.006484985 -0.1624746 0.3336258
v 0.004707336 -0.1736655 0.3303757
v 0.004707336 -0.1736655 0.3303757
v -0.006484985 -0.1624746 0.3336258
v -0.006484985 0.1624742 0.3336258
v 0.004707336 0.173665 0.3303757
v 0.004707336 0.173665 0.3303757
v -0.006484985 0.1624742 0.3336258
v -0.3314285 0.1624742 0.3336258
v -0.3426208 0.173665 0.3303757
v -0.3426208 0.173665 0.3303757
v -0.3314285 0.1624742 0.3336258
v -0.3314285 -0.1624746 0.3336258
v -0.3426208 -0.1736655 0.3303757
v 0.3250771 -0.1559372 -0.3158951
v 0.3250771 -0.1559372 -0.004020691
v 0.3330231 -0.1736655 0.01371002
v 0.3330231 -0.1736655 -0.3336258
v 0.3250771 -0.1559372 -0.004020691
v 0.3250771 0.1559372 -0.004020691
v 0.3330231 0.173665 0.01371002
v 0.3330231 -0.1736655 0.01371002
v 0.3250771 0.1559372 -0.004020691
v 0.3250771 0.1559372 -0.3158951
v 0.3330231 0.173665 -0.3336258
v 0.3330231 0.173665 0.01371002
v 0.3250771 0.1559372 -0.3158951
v 0.3250771 -0.1559372 -0.3158951
v 0.3330231 -0.1736655 -0.3336258
v 0.3330231 0.173665 -0.3336258
v 0.3330231 -0.1736655 -0.3336258
v 0.3330231 -0.1736655 0.01371002
v 0.3393707 -0.1736655 0.01371002
v 0.3393707 -0.1736655 -0.3336258
v 0.3330231 -0.1736655 0.01371002
v 0.3330231 0.173665 0.01371002
v 0.3393707 0.173665 0.01371002
v 0.3393707 -0.1736655 0.01371002
v 0.3330231 0.173665 0.01371002
v 0.3330231 0.173665 -0.3336258
v 0.3393707 0.173665 -0.3336258
v 0.3393707 0.173665 0.01371002
v 0.3330231 0.173665 -0.3336258
v 0.3330231 -0.1736655 -0.3336258
v 0.3393707 -0.1736655 -0.3336258
v 0.3393707 0.173665 -0.3336258
v 0.3393707 -0.1736655 -0.3336258
v 0.3393707 -0.1736655 0.01371002
v 0.3426208 -0.1624746 0.0025177
v 0.3426208 -0.1624746 -0.3224335
v 0.3393707 -0.1736655 0.01371002
v 0.3393707 0.173665 0.01371002
v 0.3426208 0.1624742 0.0025177
v 0.3426208 -0.1624746 0.0025177
v 0.3393707 0.173665 0.01371002
v 0.3393707 0.173665 -0.3336258
v 0.3426208 0.1624742 -0.3224335
v 0.3426208 0.1624742 0.0025177
v 0.3393707 0.173665 -0.3336258
v 0.3393707 -0.1736655 -0.3336258
v 0.3426208 -0.1624746 -0.3224335
v 0.3426208 0.1624742 -0.3224335
v -0.324894 0.1559372 0.316082
v -0.324894 0.1559372 0.2025871
v -0.01301956 0.1559372 0.2025871
v -0.01301956 0.1559372 0.316082
v -0.004844666 0.1559372 0.1085167
v -0.3197937 0.1559372 0.08547974
v 0.03000259 0.1559372 0.03657532
v -0.2844048 0.1559372 -0.05428696
v -0.1959534 0.1559372 -0.1869583
v -0.0632782 0.1559372 -0.2754059
v 0.09951782 0.1559372 0.004966736
v 0.07648468 0.1559372 -0.310791
v 0.1935883 0.1559372 -0.004020691
v 0.1935883 0.1559372 -0.3158951
v 0.3250771 0.1559372 -0.3158951
v 0.3250771 0.1559372 -0.004020691
v -0.01301956 -0.1559372 0.316082
v -0.01301956 0.1559372 0.316082
v -0.01301956 0.1559372 0.2025871
v -0.01301956 -0.1559372 0.2025871
v -0.004844666 -0.1559372 0.1085167
v -0.004844666 0.1559372 0.1085167
v 0.03000259 -0.1559372 0.03657532
v 0.03000259 0.1559372 0.03657532
v -0.324894 -0.1559372 0.2025871
v -0.324894 -0.1559372 0.316082
v -0.01301956 -0.1559372 0.316082
v -0.01301956 -0.1559372 0.2025871
v -0.3197937 -0.1559372 0.08547974
v -0.004844666 -0.1559372 0.1085167
v -0.2844048 -0.1559372 -0.05428696
v 0.03000259 -0.1559372 0.03657532
v -0.1959534 -0.1559372 -0.1869583
v -0.0632782 -0.1559372 -0.2754059
v 0.07648468 -0.1559372 -0.310791
v 0.09951782 -0.1559372 0.004966736
v 0.1935883 -0.1559372 -0.3158951
v 0.1935883 -0.1559372 -0.004020691
v 0.3250771 -0.1559372 -0.004020691
v 0.3250771 -0.1559372 -0.3158951
v -0.324894 0.1559372 0.2025871
v -0.324894 0.1559372 0.316082
v -0.324894 -0.1559372 0.316082
v -0.324894 -0.1559372 0.2025871
v -0.3197937 0.1559372 0.08547974
v -0.3197937 -0.1559372 0.08547974
v -0.2844048 0.1559372 -0.05428696
v -0.2844048 -0.1559372 -0.05428696
v -0.1959534 0.1559372 -0.1869583
v -0.1959534 -0.1559372 -0.1869583
v -0.0632782 0.1559372 -0.2754059
v -0.0632782 -0.1559372 -0.2754059
v 0.3250771 -0.1559372 -0.004020691
v 0.1935883 -0.1559372 -0.004020691
v 0.1935883 0.1559372 -0.004020691
v 0.3250771 0.1559372 -0.004020691
v 0.09951782 0.1559372 0.004966736
v 0.09951782 -0.1559372 0.004966736
v 0.03000259 0.1559372 0.03657532
v 0.03000259 -0.1559372 0.03657532
v 0.1935883 0.1559372 -0.3158951
v 0.1935883 -0.1559372 -0.3158951
v 0.3250771 -0.1559372 -0.3158951
v 0.3250771 0.1559372 -0.3158951
v 0.07648468 -0.1559372 -0.310791
v 0.07648468 0.1559372 -0.310791
v -0.0632782 -0.1559372 -0.2754059
v -0.0632782 0.1559372 -0.2754059

vn 0 -0.4089355 -0.9121094
vn 0 -0.4089355 -0.9121094
vn 0 -0.4089355 -0.9121094
vn 0 -0.4089355 -0.9121094
vn 0.4089355 0 -0.9121094
vn 0.4089355 0 -0.9121094
vn 0.4089355 0 -0.9121094
vn 0.4089355 0 -0.9121094
vn 0 0.4089355 -0.9121094
vn 0 0.4089355 -0.9121094
vn 0 0.4089355 -0.9121094
vn 0 0.4089355 -0.9121094
vn -0.4089355 0 -0.9121094
vn -0.4089355 0 -0.9121094
vn -0.4089355 0 -0.9121094
vn -0.4089355 0 -0.9121094
vn 0 -1 0
vn 0 -1 0
vn 0 -1 0
vn 0 -1 0
vn 1 0 0
vn 1 0 0
vn 1 0 0
vn 1 0 0
vn 0 1 0
vn 0 1 0
vn 0 1 0
vn 0 1 0
vn -1 0 0
vn -1 0 0
vn -1 0 0
vn -1 0 0
vn 0 -0.2788086 0.9599609
vn 0 -0.2788086 0.9599609
vn 0 -0.2788086 0.9599609
vn 0 -0.2788086 0.9599609
vn 0.2788086 0 0.9599609
vn 0.2788086 0 0.9599609
vn 0.2788086 0 0.9599609
vn 0.2788086 0 0.9599609
vn 0 0.2788086 0.9599609
vn 0 0.2788086 0.9599609
vn 0 0.2788086 0.9599609
vn 0 0.2788086 0.9599609
vn -0.2788086 0 0.9599609
vn -0.2788086 0 0.9599609
vn -0.2788086 0 0.9599609
vn -0.2788086 0 0.9599609
vn -0.9121094 -0.4089355 0
vn -0.9121094 -0.4089355 0
vn -0.9121094 -0.4089355 0
vn -0.9121094 -0.4089355 0
vn -0.9121094 0 0.4089355
vn -0.9121094 0 0.4089355
vn -0.9121094 0 0.4089355
vn -0.9121094 0 0.4089355
vn -0.9121094 0.4089355 0
vn -0.9121094 0.4089355 0
vn -0.9121094 0.4089355 0
vn -0.9121094 0.4089355 0
vn -0.9121094 0 -0.4089355
vn -0.9121094 0 -0.4089355
vn -0.9121094 0 -0.4089355
vn -0.9121094 0 -0.4089355
vn 0 -1 0
vn 0 -1 0
vn 0 -1 0
vn 0 -1 0
vn 0 0 1
vn 0 0 1
vn 0 0 1
vn 0 0 1
vn 0 1 0
vn 0 1 0
vn 0 1 0
vn 0 1 0
vn 0 0 -1
vn 0 0 -1
vn 0 0 -1
vn 0 0 -1
vn 0.9599609 -0.2785645 0
vn 0.9599609 -0.2785645 0
vn 0.9599609 -0.2785645 0
vn 0.9599609 -0.2785645 0
vn 0.9599609 0 0.2788086
vn 0.9599609 0 0.2788086
vn 0.9599609 0 0.2788086
vn 0.9599609 0 0.2788086
vn 0.9599609 0.2785645 0
vn 0.9599609 0.2785645 0
vn 0.9599609 0.2785645 0
vn 0.9599609 0.2785645 0
vn 0.9599609 0 -0.2788086
vn 0.9599609 0 -0.2788086
vn 0.9599609 0 -0.2788086
vn 0.9599609 0 -0.2788086
vn 0 1 0
vn 0 1 0
vn 0 1 0
vn 0 1 0
vn 0 1 0
vn 0 1 0
vn 0 1 0
vn 0 1 0
vn 0 1 0
vn 0 1 0
vn 0 1 0
vn 0 1 0
vn 0 1 0
vn 0 1 0
vn 0 1 0
vn 0 1 0
vn 1 0 0
vn 1 0 0
vn 0.9990234 0 0.03933716
vn 0.9990234 0 0.03933716
vn 0.9677734 0 0.2507324
vn 0.9677734 0 0.2507324
vn 0.7041016 0 0.7094727
vn 0.7041016 0 0.7094727
vn 0 -1 0
vn 0 -1 0
vn 0 -1 0
vn 0 -1 0
vn 0 -1 0
vn 0 -1 0
vn 0 -1 0
vn 0 -1 0
vn 0 -1 0
vn 0 -1 0
vn 0 -1 0
vn 0 -1 0
vn 0 -1 0
vn 0 -1 0
vn 0 -1 0
vn 0 -1 0
vn -0.9995117 0 -0.02210999
vn -1 0 0
vn -1 0 0
vn -0.9995117 0 -0.02210999
vn -0.987793 0 -0.1556396
vn -0.987793 0 -0.1556396
vn -0.9101563 0 -0.4135742
vn -0.9101563 0 -0.4135742
vn -0.7070313 0 -0.7070313
vn -0.7070313 0 -0.7070313
vn -0.4135742 0 -0.9101563
vn -0.4135742 0 -0.9101563
vn 0 0 1
vn 0.03979492 0 0.9990234
vn 0.03979492 0 0.9990234
vn 0 0 1
vn 0.2408447 0 0.9702148
vn 0.2408447 0 0.9702148
vn 0.7041016 0 0.7094727
vn 0.7041016 0 0.7094727
vn -0.02052307 0 -0.9995117
vn -0.02052307 0 -0.9995117
vn 0 0 -1
vn 0 0 -1
vn -0.1556396 0 -0.987793
vn -0.1556396 0 -0.987793
vn -0.4135742 0 -0.9101563
vn -0.4135742 0 -0.9101563

vt 0.6875 0.840332
vt 0.6855469 0.8427734
vt 0.7290039 0.8427734
vt 0.7265625 0.840332
vt 0.7265625 0.840332
vt 0.7290039 0.8427734
vt 0.7290039 0.7993164
vt 0.7265625 0.8012695
vt 0.7265625 0.8012695
vt 0.7290039 0.7993164
vt 0.6855469 0.7993164
vt 0.6875 0.8012695
vt 0.6875 0.8012695
vt 0.6855469 0.7993164
vt 0.6855469 0.8427734
vt 0.6875 0.840332
vt 0.706543 0.8427734
vt 0.7075195 0.8427734
vt 0.7075195 0.7993164
vt 0.706543 0.7993164
vt 0.7075195 0.7993164
vt 0.706543 0.7993164
vt 0.706543 0.8427734
vt 0.7075195 0.8427734
vt 0.7075195 0.7993164
vt 0.706543 0.7993164
vt 0.706543 0.8427734
vt 0.7075195 0.8427734
vt 0.706543 0.8427734
vt 0.7075195 0.8427734
vt 0.7075195 0.7993164
vt 0.706543 0.7993164
vt 0.6855469 0.7993164
vt 0.6870117 0.8007813
vt 0.7275391 0.8007813
vt 0.7290039 0.7993164
vt 0.7290039 0.7993164
vt 0.7275391 0.8007813
vt 0.7275391 0.8413086
vt 0.7290039 0.8427734
vt 0.7290039 0.8427734
vt 0.7275391 0.8413086
vt 0.6870117 0.8413086
vt 0.6855469 0.8427734
vt 0.6855469 0.8427734
vt 0.6870117 0.8413086
vt 0.6870117 0.8007813
vt 0.6855469 0.7993164
vt 0.6875 0.840332
vt 0.6875 0.8012695
vt 0.6855469 0.7993164
vt 0.6855469 0.8427734
vt 0.6875 0.8012695
vt 0.7265625 0.8012695
vt 0.7290039 0.7993164
vt 0.6855469 0.7993164
vt 0.7265625 0.8012695
vt 0.7265625 0.840332
vt 0.7290039 0.8427734
vt 0.7290039 0.7993164
vt 0.7265625 0.840332
vt 0.6875 0.840332
vt 0.6855469 0.8427734
vt 0.7290039 0.8427734
vt 0.706543 0.7993164
vt 0.706543 0.8427734
vt 0.7075195 0.8427734
vt 0.7075195 0.7993164
vt 0.706543 0.7993164
vt 0.706543 0.8427734
vt 0.7075195 0.8427734
vt 0.7075195 0.7993164
vt 0.706543 0.7993164
vt 0.706543 0.8427734
vt 0.7075195 0.8427734
vt 0.7075195 0.7993164
vt 0.706543 0.7993164
vt 0.706543 0.8427734
vt 0.7075195 0.8427734
vt 0.7075195 0.7993164
vt 0.6855469 0.7993164
vt 0.6855469 0.8427734
vt 0.6870117 0.8413086
vt 0.6870117 0.8007813
vt 0.6855469 0.8427734
vt 0.7290039 0.8427734
vt 0.7275391 0.8413086
vt 0.6870117 0.8413086
vt 0.7290039 0.8427734
vt 0.7290039 0.7993164
vt 0.7275391 0.8007813
vt 0.7275391 0.8413086
vt 0.7290039 0.7993164
vt 0.6855469 0.7993164
vt 0.6870117 0.8007813
vt 0.7275391 0.8007813
vt 0.6674805 0.8613281
vt 0.6821289 0.8613281
vt 0.6821289 0.8222656
vt 0.6674805 0.8222656
vt 0.6938477 0.8212891
vt 0.6962891 0.8608398
vt 0.7026367 0.8168945
vt 0.7138672 0.8564453
vt 0.7304688 0.8452148
vt 0.7416992 0.8286133
vt 0.706543 0.8085938
vt 0.7460938 0.8115234
vt 0.7075195 0.796875
vt 0.746582 0.796875
vt 0.746582 0.7802734
vt 0.7075195 0.7802734
vt 0.6899414 0.8012695
vt 0.6899414 0.840332
vt 0.7041016 0.840332
vt 0.7041016 0.8012695
vt 0.7158203 0.8012695
vt 0.7158203 0.840332
vt 0.7246094 0.8012695
vt 0.7246094 0.840332
vt 0.7324219 0.8613281
vt 0.746582 0.8613281
vt 0.746582 0.8222656
vt 0.7324219 0.8222656
vt 0.7177734 0.8608398
vt 0.7207031 0.8212891
vt 0.7001953 0.8564453
vt 0.7119141 0.8168945
vt 0.6835938 0.8452148
vt 0.6728516 0.8286133
vt 0.668457 0.8115234
vt 0.7080078 0.8085938
vt 0.6674805 0.796875
vt 0.706543 0.796875
vt 0.706543 0.7802734
vt 0.6674805 0.7802734
vt 0.7265625 0.7978516
vt 0.7265625 0.7836914
vt 0.6875 0.7836914
vt 0.6875 0.7978516
vt 0.7265625 0.8125
vt 0.6875 0.8125
vt 0.7265625 0.8300781
vt 0.6875 0.8300781
vt 0.7265625 0.8466797
vt 0.6875 0.8466797
vt 0.7265625 0.8579102
vt 0.6875 0.8579102
vt 0.7255859 0.8012695
vt 0.7089844 0.8012695
vt 0.7089844 0.840332
vt 0.7255859 0.840332
vt 0.6972656 0.840332
vt 0.6972656 0.8012695
vt 0.6889648 0.840332
vt 0.6889648 0.8012695
vt 0.6875 0.8129883
vt 0.7265625 0.8129883
vt 0.7265625 0.7963867
vt 0.6875 0.7963867
vt 0.7265625 0.8276367
vt 0.6875 0.8276367
vt 0.7265625 0.8452148
vt 0.6875 0.8452148

g PREF_props_ventilation_03_1571_55
usemtl PREF_props_ventilation_03_1571_55
usemap PREF_props_ventilation_03_1571_55
f 1/1/1 3/3/3 2/2/2
f 1/1/1 4/4/4 3/3/3
f 5/5/5 7/7/7 6/6/6
f 5/5/5 8/8/8 7/7/7
f 9/9/9 11/11/11 10/10/10
f 9/9/9 12/12/12 11/11/11
f 13/13/13 15/15/15 14/14/14
f 13/13/13 16/16/16 15/15/15
f 17/17/17 19/19/19 18/18/18
f 17/17/17 20/20/20 19/19/19
f 21/21/21 23/23/23 22/22/22
f 21/21/21 24/24/24 23/23/23
f 25/25/25 27/27/27 26/26/26
f 25/25/25 28/28/28 27/27/27
f 29/29/29 31/31/31 30/30/30
f 29/29/29 32/32/32 31/31/31
f 33/33/33 35/35/35 34/34/34
f 33/33/33 36/36/36 35/35/35
f 37/37/37 39/39/39 38/38/38
f 37/37/37 40/40/40 39/39/39
f 41/41/41 43/43/43 42/42/42
f 41/41/41 44/44/44 43/43/43
f 45/45/45 47/47/47 46/46/46
f 45/45/45 48/48/48 47/47/47
f 49/49/49 51/51/51 50/50/50
f 49/49/49 52/52/52 51/51/51
f 53/53/53 55/55/55 54/54/54
f 53/53/53 56/56/56 55/55/55
f 57/57/57 59/59/59 58/58/58
f 57/57/57 60/60/60 59/59/59
f 61/61/61 63/63/63 62/62/62
f 61/61/61 64/64/64 63/63/63
f 65/65/65 67/67/67 66/66/66
f 65/65/65 68/68/68 67/67/67
f 69/69/69 71/71/71 70/70/70
f 69/69/69 72/72/72 71/71/71
f 73/73/73 75/75/75 74/74/74
f 73/73/73 76/76/76 75/75/75
f 77/77/77 79/79/79 78/78/78
f 77/77/77 80/80/80 79/79/79
f 81/81/81 83/83/83 82/82/82
f 81/81/81 84/84/84 83/83/83
f 85/85/85 87/87/87 86/86/86
f 85/85/85 88/88/88 87/87/87
f 89/89/89 91/91/91 90/90/90
f 89/89/89 92/92/92 91/91/91
f 93/93/93 95/95/95 94/94/94
f 93/93/93 96/96/96 95/95/95
f 97/97/97 99/99/99 98/98/98
f 97/97/97 100/100/100 99/99/99
f 98/98/98 99/99/99 101/101/101
f 98/98/98 101/101/101 102/102/102
f 102/102/102 101/101/101 103/103/103
f 102/102/102 103/103/103 104/104/104
f 104/104/104 103/103/103 105/105/105
f 105/105/105 103/103/103 106/106/106
f 106/106/106 103/103/103 107/107/107
f 106/106/106 107/107/107 108/108/108
f 108/108/108 107/107/107 109/109/109
f 108/108/108 109/109/109 110/110/110
f 111/111/111 110/110/110 109/109/109
f 111/111/111 109/109/109 112/112/112
f 113/113/113 115/115/115 114/114/114
f 113/113/113 116/116/116 115/115/115
f 115/115/115 116/116/116 117/117/117
f 115/115/115 117/117/117 118/118/118
f 118/118/118 117/117/117 119/119/119
f 118/118/118 119/119/119 120/120/120
f 121/121/121 123/123/123 122/122/122
f 121/121/121 124/124/124 123/123/123
f 124/124/124 121/121/121 125/125/125
f 124/124/124 125/125/125 126/126/126
f 126/126/126 125/125/125 127/127/127
f 126/126/126 127/127/127 128/128/128
f 128/128/128 127/127/127 129/129/129
f 128/128/128 129/129/129 130/130/130
f 128/128/128 130/130/130 131/131/131
f 128/128/128 131/131/131 132/132/132
f 132/132/132 131/131/131 133/133/133
f 132/132/132 133/133/133 134/134/134
f 133/133/133 135/135/135 134/134/134
f 133/133/133 136/136/136 135/135/135
f 137/137/137 139/139/139 138/138/138
f 137/137/137 140/140/140 139/139/139
f 140/140/140 137/137/137 141/141/141
f 140/140/140 141/141/141 142/142/142
f 142/142/142 141/141/141 143/143/143
f 142/142/142 143/143/143 144/144/144
f 144/144/144 143/143/143 145/145/145
f 144/144/144 145/145/145 146/146/146
f 146/146/146 145/145/145 147/147/147
f 146/146/146 147/147/147 148/148/148
f 149/149/149 151/151/151 150/150/150
f 149/149/149 152/152/152 151/151/151
f 153/153/153 150/150/150 151/151/151
f 153/153/153 154/154/154 150/150/150
f 155/155/155 154/154/154 153/153/153
f 155/155/155 156/156/156 154/154/154
f 157/157/157 159/159/159 158/158/158
f 157/157/157 160/160/160 159/159/159
f 161/161/161 157/157/157 158/158/158
f 161/161/161 162/162/162 157/157/157
f 163/163/163 162/162/162 161/161/161
f 163/163/163 164/164/164 162/162/162
