#PREF_wall_01_1714_90.obj

v 6.497162 0 6.494325
v 6.497162 4.60602 6.494325
v 3.698244 4.60602 6.494325
v 3.698244 0 6.494325
v -3.698242 0 6.494325
v -3.698242 4.60602 6.494325
v -6.49716 4.60602 6.494325
v -6.49716 0 6.494325
v 3.698244 -1.66893E-06 6.494325
v 3.698244 3.258545 6.494325
v 3.698244 3.258545 7.183443
v 3.698244 -1.66893E-06 7.183443
v -3.698242 -1.66893E-06 6.494325
v -3.698242 -1.66893E-06 7.183443
v -3.698242 3.258545 7.183443
v -3.698242 3.258545 6.494325
v 0.001050949 3.258545 6.494325
v 0.001050949 4.60602 6.494325
v -3.698238 4.60602 6.494325
v -3.698238 3.258545 6.494325
v 3.698246 3.258545 6.494325
v 3.698246 4.60602 6.494325
v 0.001050949 4.60602 6.494325
v 0.001050949 3.258545 6.494325
v 0.001052856 3.258545 7.183443
v 0.001052856 3.258545 6.494325
v -3.698238 3.258545 6.494325
v -3.698238 3.258545 7.183443
v 3.698248 3.258545 7.183443
v 3.698248 3.258545 6.494325
v 0.001052856 3.258545 6.494325
v 0.001052856 3.258545 7.183443

vn 0 0 -1
vn 0 0 -1
vn 0 0 -1
vn 0 0 -1
vn 0 0 -1
vn 0 0 -1
vn 0 0 -1
vn 0 0 -1
vn -1 0 0
vn -1 0 0
vn -1 0 0
vn -1 0 0
vn 1 0 0
vn 1 0 0
vn 1 0 0
vn 1 0 0
vn 0 0 -1
vn 0 0 -1
vn 0 0 -1
vn 0 0 -1
vn 0 0 -1
vn 0 0 -1
vn 0 0 -1
vn 0 0 -1
vn 0 -1 0
vn 0 -1 0
vn 0 -1 0
vn 0 -1 0
vn 0 -1 0
vn 0 -1 0
vn 0 -1 0
vn 0 -1 0

vt 0.8442383 0.05618286
vt 0.8442383 0.3061523
vt 0.9960938 0.3061523
vt 0.9960938 0.05618286
vt 0.8442383 0.05618286
vt 0.8442383 0.3061523
vt 0.9960938 0.3061523
vt 0.9960938 0.05618286
vt 0.7827148 0.05618286
vt 0.7827148 0.2333984
vt 0.8168945 0.2333984
vt 0.8168945 0.05618286
vt 0.7827148 0.05618286
vt 0.8168945 0.05618286
vt 0.8168945 0.2329102
vt 0.7827148 0.2329102
vt 0.7539063 0.2333984
vt 0.7539063 0.3061523
vt 0.9677734 0.3061523
vt 0.9677734 0.2333984
vt 0.7817383 0.2333984
vt 0.7817383 0.3061523
vt 0.9960938 0.3061523
vt 0.9960938 0.2333984
vt 0.7539063 0.2404785
vt 0.7539063 0.2734375
vt 0.9677734 0.2734375
vt 0.9677734 0.2404785
vt 0.7817383 0.2404785
vt 0.7817383 0.2734375
vt 0.9960938 0.2734375
vt 0.9960938 0.2404785

g PREF_wall_01_1714_90
usemtl PREF_wall_01_1714_90
usemap PREF_wall_01_1714_90
f 1/1/1 3/3/3 2/2/2
f 1/1/1 4/4/4 3/3/3
f 5/5/5 7/7/7 6/6/6
f 5/5/5 8/8/8 7/7/7
f 9/9/9 11/11/11 10/10/10
f 9/9/9 12/12/12 11/11/11
f 13/13/13 15/15/15 14/14/14
f 13/13/13 16/16/16 15/15/15
f 17/17/17 19/19/19 18/18/18
f 17/17/17 20/20/20 19/19/19
f 21/21/21 23/23/23 22/22/22
f 21/21/21 24/24/24 23/23/23
f 25/25/25 27/27/27 26/26/26
f 25/25/25 28/28/28 27/27/27
f 29/29/29 31/31/31 30/30/30
f 29/29/29 32/32/32 31/31/31
