#PREF_props_paperbox_03_1429_31.obj

v -0.3848881 0 0.3659019
v -0.3848881 0.6195263 0.3659019
v 0.453754 0.6195263 0.3659018
v 0.453754 0 0.3659018
v -0.3798887 0.006404205 0.3609066
v -0.3798886 0.006404205 -0.3993092
v 0.4487551 0.006404205 -0.3993092
v 0.448755 0.006404205 0.3609066
v -0.3848874 0.6195263 -0.4043024
v -0.3848874 0 -0.4043024
v 0.4537547 0 -0.4043025
v 0.4537547 0.6195263 -0.4043025
v -0.3848874 0 -0.4043024
v -0.3848881 0 0.3659019
v 0.453754 0 0.3659018
v 0.4537547 0 -0.4043025
v 0.453754 0 0.3659018
v 0.453754 0.6195263 0.3659018
v 0.4537547 0.6195263 -0.4043025
v 0.4537547 0 -0.4043025
v -0.3848874 0 -0.4043024
v -0.3848874 0.6195263 -0.4043024
v -0.3848881 0.6195263 0.3659019
v -0.3848881 0 0.3659019
v -0.3848881 0.6195263 0.3659019
v -0.3798887 0.6195263 0.3609066
v 0.448755 0.6195263 0.3609066
v 0.453754 0.6195263 0.3659018
v 0.453754 0.6195263 0.3659018
v 0.448755 0.6195263 0.3609066
v 0.4487551 0.6195263 -0.3993092
v 0.4537547 0.6195263 -0.4043025
v 0.4537547 0.6195263 -0.4043025
v 0.4487551 0.6195263 -0.3993092
v -0.3798886 0.6195263 -0.3993092
v -0.3848874 0.6195263 -0.4043024
v -0.3848874 0.6195263 -0.4043024
v -0.3798886 0.6195263 -0.3993092
v -0.3798887 0.6195263 0.3609066
v -0.3848881 0.6195263 0.3659019
v -0.3798887 0.6195263 0.3609066
v -0.3798887 0.006404205 0.3609066
v 0.448755 0.006404205 0.3609066
v 0.448755 0.6195263 0.3609066
v 0.448755 0.6195263 0.3609066
v 0.448755 0.006404205 0.3609066
v 0.4487551 0.006404205 -0.3993092
v 0.4487551 0.6195263 -0.3993092
v 0.4487551 0.6195263 -0.3993092
v 0.4487551 0.006404205 -0.3993092
v -0.3798886 0.006404205 -0.3993092
v -0.3798886 0.6195263 -0.3993092
v -0.3798886 0.6195263 -0.3993092
v -0.3798886 0.006404205 -0.3993092
v -0.3798887 0.006404205 0.3609066
v -0.3798887 0.6195263 0.3609066
v 0.5555606 0.2137203 -0.4043008
v 0.5555606 0.2137222 0.3659019
v 0.4537547 0.6195239 0.3659003
v 0.4537547 0.6195258 -0.4043025
v 0.5542966 0.2134018 -0.4043007
v 0.4524897 0.6192076 -0.4043026
v 0.4524897 0.6192057 0.3659
v 0.5542966 0.2134036 0.365902
v -0.555559 0.2375412 -0.4043007
v -0.3848894 0.6195258 -0.4043025
v -0.3848894 0.6195239 0.3659001
v -0.555561 0.2375394 0.3659019
v -0.5543687 0.2370089 -0.4043006
v -0.5543706 0.237007 0.3659019
v -0.383699 0.6189921 0.3659002
v -0.383699 0.6189939 -0.4043025
v -0.3848877 0.3845503 0.6703606
v -0.3848874 0.6195258 0.3659002
v 0.4537547 0.6195258 0.3659003
v 0.4537544 0.3845503 0.6703607
v -0.3848873 0.3835183 0.6695634
v 0.4537547 0.3835183 0.6695635
v 0.4537541 0.6184939 0.3651027
v -0.3848879 0.6184939 0.3651026
v -0.3848872 0.341814 -0.6703604
v 0.4537549 0.341814 -0.6703604
v 0.4537547 0.6195239 -0.4043025
v -0.3848874 0.6195239 -0.4043024
v -0.3848876 0.3409138 -0.6694221
v -0.3848875 0.6186238 -0.4033623
v 0.4537545 0.6186238 -0.4033622
v 0.4537545 0.3409138 -0.6694221

vn 0.3779297 0 0.9257813
vn 0.3779297 0 0.9257813
vn 0.3779297 0 0.9257813
vn 0.3779297 0 0.9257813
vn 0 1 0
vn 0 1 0
vn 0 1 0
vn 0 1 0
vn -0.3779297 0 -0.9257813
vn -0.3779297 0 -0.9257813
vn -0.3779297 0 -0.9257813
vn -0.3779297 0 -0.9257813
vn 0 -1 0
vn 0 -1 0
vn 0 -1 0
vn 0 -1 0
vn 0.9257813 0 -0.3779297
vn 0.9257813 0 -0.3779297
vn 0.9257813 0 -0.3779297
vn 0.9257813 0 -0.3779297
vn -0.9257813 0 0.3779297
vn -0.9257813 0 0.3779297
vn -0.9257813 0 0.3779297
vn -0.9257813 0 0.3779297
vn 0 1 0
vn 0 1 0
vn 0 1 0
vn 0 1 0
vn 0 1 0
vn 0 1 0
vn 0 1 0
vn 0 1 0
vn 0 1 0
vn 0 1 0
vn 0 1 0
vn 0 1 0
vn 0 1 0
vn 0 1 0
vn 0 1 0
vn 0 1 0
vn -0.3779297 0 -0.9257813
vn -0.3779297 0 -0.9257813
vn -0.3779297 0 -0.9257813
vn -0.3779297 0 -0.9257813
vn -0.9257813 0 0.3779297
vn -0.9257813 0 0.3779297
vn -0.9257813 0 0.3779297
vn -0.9257813 0 0.3779297
vn 0.3779297 0 0.9257813
vn 0.3779297 0 0.9257813
vn 0.3779297 0 0.9257813
vn 0.3779297 0 0.9257813
vn 0.9257813 0 -0.3779297
vn 0.9257813 0 -0.3779297
vn 0.9257813 0 -0.3779297
vn 0.9257813 0 -0.3779297
vn 0.8979492 0.2432861 -0.3664551
vn 0.8979492 0.2432861 -0.3664551
vn 0.8979492 0.2432861 -0.3664551
vn 0.8979492 0.2432861 -0.3664551
vn -0.8979492 -0.2432861 0.3664551
vn -0.8979492 -0.2432861 0.3664551
vn -0.8979492 -0.2432861 0.3664551
vn -0.8979492 -0.2432861 0.3664551
vn -0.8452148 0.4077148 0.3449707
vn -0.8452148 0.4077148 0.3449707
vn -0.8452148 0.4077148 0.3449707
vn -0.8452148 0.4077148 0.3449707
vn 0.8452148 -0.4077148 -0.3449707
vn 0.8452148 -0.4077148 -0.3449707
vn 0.8452148 -0.4077148 -0.3449707
vn 0.8452148 -0.4077148 -0.3449707
vn 0.230835 0.7915039 0.5654297
vn 0.230835 0.7915039 0.5654297
vn 0.230835 0.7915039 0.5654297
vn 0.230835 0.7915039 0.5654297
vn -0.230835 -0.7915039 -0.5654297
vn -0.230835 -0.7915039 -0.5654297
vn -0.230835 -0.7915039 -0.5654297
vn -0.230835 -0.7915039 -0.5654297
vn -0.2727051 0.6914063 -0.668457
vn -0.2727051 0.6914063 -0.668457
vn -0.2727051 0.6914063 -0.668457
vn -0.2727051 0.6914063 -0.668457
vn 0.2727051 -0.6914063 0.668457
vn 0.2727051 -0.6914063 0.668457
vn 0.2727051 -0.6914063 0.668457
vn 0.2727051 -0.6914063 0.668457

vt 0.5317383 0.7753906
vt 0.5317383 0.862793
vt 0.605957 0.862793
vt 0.605957 0.7753906
vt 0.6079102 0.8657227
vt 0.6079102 0.8969727
vt 0.6542969 0.8969727
vt 0.6542969 0.8657227
vt 0.605957 0.862793
vt 0.605957 0.7753906
vt 0.5317383 0.7753906
vt 0.5317383 0.862793
vt 0.5317383 0.7983398
vt 0.5317383 0.8354492
vt 0.605957 0.8354492
vt 0.605957 0.7983398
vt 0.6064453 0.7753906
vt 0.6064453 0.862793
vt 0.6552734 0.862793
vt 0.6552734 0.7753906
vt 0.6064453 0.7753906
vt 0.6064453 0.862793
vt 0.6552734 0.862793
vt 0.6552734 0.7753906
vt 0.5317383 0.862793
vt 0.5317383 0.862793
vt 0.605957 0.862793
vt 0.605957 0.862793
vt 0.605957 0.862793
vt 0.605957 0.862793
vt 0.605957 0.8994141
vt 0.605957 0.8994141
vt 0.605957 0.8994141
vt 0.605957 0.8994141
vt 0.5317383 0.8994141
vt 0.5317383 0.8994141
vt 0.5317383 0.8994141
vt 0.5317383 0.8994141
vt 0.5317383 0.862793
vt 0.5317383 0.862793
vt 0.6079102 0.8642578
vt 0.6079102 0.8984375
vt 0.6542969 0.8984375
vt 0.6542969 0.8642578
vt 0.6157227 0.8642578
vt 0.6157227 0.8984375
vt 0.6469727 0.8984375
vt 0.6469727 0.8642578
vt 0.6542969 0.8984375
vt 0.6542969 0.8642578
vt 0.6079102 0.8642578
vt 0.6079102 0.8984375
vt 0.6157227 0.8642578
vt 0.6157227 0.8984375
vt 0.6469727 0.8984375
vt 0.6469727 0.8642578
vt 0.5317383 0.7753906
vt 0.605957 0.7753906
vt 0.605957 0.8422852
vt 0.5317383 0.8422852
vt 0.5317383 0.7753906
vt 0.5317383 0.8422852
vt 0.605957 0.8422852
vt 0.605957 0.7753906
vt 0.5317383 0.7753906
vt 0.5317383 0.8422852
vt 0.605957 0.8422852
vt 0.605957 0.7753906
vt 0.5317383 0.7753906
vt 0.605957 0.7753906
vt 0.605957 0.8422852
vt 0.5317383 0.8422852
vt 0.5317383 0.7753906
vt 0.5317383 0.8422852
vt 0.605957 0.8422852
vt 0.605957 0.7753906
vt 0.5317383 0.7753906
vt 0.605957 0.7753906
vt 0.605957 0.8422852
vt 0.5317383 0.8422852
vt 0.5317383 0.7753906
vt 0.605957 0.7753906
vt 0.605957 0.8422852
vt 0.5317383 0.8422852
vt 0.5317383 0.7753906
vt 0.5317383 0.8422852
vt 0.605957 0.8422852
vt 0.605957 0.7753906

g PREF_props_paperbox_03_1429_31
usemtl PREF_props_paperbox_03_1429_31
usemap PREF_props_paperbox_03_1429_31
f 1/1/1 3/3/3 2/2/2
f 1/1/1 4/4/4 3/3/3
f 5/5/5 7/7/7 6/6/6
f 5/5/5 8/8/8 7/7/7
f 9/9/9 11/11/11 10/10/10
f 9/9/9 12/12/12 11/11/11
f 13/13/13 15/15/15 14/14/14
f 13/13/13 16/16/16 15/15/15
f 17/17/17 19/19/19 18/18/18
f 17/17/17 20/20/20 19/19/19
f 21/21/21 23/23/23 22/22/22
f 21/21/21 24/24/24 23/23/23
f 25/25/25 27/27/27 26/26/26
f 25/25/25 28/28/28 27/27/27
f 29/29/29 31/31/31 30/30/30
f 29/29/29 32/32/32 31/31/31
f 33/33/33 35/35/35 34/34/34
f 33/33/33 36/36/36 35/35/35
f 37/37/37 39/39/39 38/38/38
f 37/37/37 40/40/40 39/39/39
f 41/41/41 43/43/43 42/42/42
f 41/41/41 44/44/44 43/43/43
f 45/45/45 47/47/47 46/46/46
f 45/45/45 48/48/48 47/47/47
f 49/49/49 51/51/51 50/50/50
f 49/49/49 52/52/52 51/51/51
f 53/53/53 55/55/55 54/54/54
f 53/53/53 56/56/56 55/55/55
f 57/57/57 59/59/59 58/58/58
f 57/57/57 60/60/60 59/59/59
f 61/61/61 63/63/63 62/62/62
f 61/61/61 64/64/64 63/63/63
f 65/65/65 67/67/67 66/66/66
f 65/65/65 68/68/68 67/67/67
f 69/69/69 71/71/71 70/70/70
f 69/69/69 72/72/72 71/71/71
f 73/73/73 75/75/75 74/74/74
f 73/73/73 76/76/76 75/75/75
f 77/77/77 79/79/79 78/78/78
f 77/77/77 80/80/80 79/79/79
f 81/81/81 83/83/83 82/82/82
f 81/81/81 84/84/84 83/83/83
f 85/85/85 87/87/87 86/86/86
f 85/85/85 88/88/88 87/87/87
