#road_sign_(35)_485_12.obj

v 0.1324092 -0.1616123 -0.09269843
v -0.1324092 -0.1616123 0.09269841
v -0.1324092 0.1616124 0.09269843
v 0.1324092 0.1616124 -0.09269841
v 0.1319246 -0.1616123 -0.1254127
v 0.1319246 0.1616124 -0.1254127
v -0.1317667 0.1616124 -0.3123564
v -0.1317667 -0.1616124 -0.3123564
v 0.1324003 -0.1616123 1.460483
v -0.1324182 -0.1616125 1.645879
v -0.1324182 0.1616123 1.645879
v 0.1324003 0.1616123 1.460483
v 0.1319157 -0.1616123 1.427768
v 0.1319157 0.1616123 1.427768
v -0.1317677 0.1616121 1.240795
v -0.1317677 -0.1616124 1.240795
v 0.1323614 -0.1616125 3.102526
v -0.1323902 -0.1616126 3.28791
v -0.1323902 0.161612 3.28791
v 0.1323614 0.161612 3.102526
v 0.1318768 -0.1616125 3.069812
v 0.1318768 0.161612 3.069812
v -0.1317476 0.161612 2.882855
v -0.1317476 -0.1616126 2.882855
v 0.1323624 -0.1616126 4.70122
v -0.1323892 -0.1616127 4.886603
v -0.1323892 0.161612 4.886603
v 0.1323624 0.161612 4.70122
v 0.1318778 -0.1616126 4.668506
v 0.1318778 0.161612 4.668506
v -0.1317466 0.161612 4.481548
v -0.1317466 -0.1616127 4.481548
v 0.1323897 -0.1616129 6.308738
v -0.1323698 -0.1616129 6.494151
v -0.1323698 0.1616119 6.494151
v 0.1323897 0.1616119 6.308738
v 0.1319051 -0.1616129 6.276024
v 0.1319051 0.1616119 6.276024
v -0.1317862 0.1616119 6.08908
v -0.1317862 -0.1616129 6.08908
v 0.1324045 -0.1616128 7.91325
v -0.1324061 -0.161613 8.098618
v -0.1324061 0.1616116 8.098618
v 0.1324045 0.1616118 7.91325
v 0.1319199 -0.161613 7.880536
v 0.1319199 0.1616118 7.880536
v -0.1317635 0.1616118 7.693563
v -0.1317635 -0.1616129 7.693563

vn 0.7666016 0 0.6416016
vn 0.7666016 0 0.6416016
vn 0.7666016 0 0.6416016
vn 0.7666016 0 0.6416016
vn 0.3464355 0 -0.9379883
vn 0.3464355 0 -0.9379883
vn 0.3464355 0 -0.9379883
vn 0.3464355 0 -0.9379883
vn 0.7666016 0 0.6416016
vn 0.7666016 0 0.6416016
vn 0.7666016 0 0.6416016
vn 0.7666016 0 0.6416016
vn 0.3464355 1.192093E-07 -0.9379883
vn 0.3464355 1.192093E-07 -0.9379883
vn 0.3464355 1.192093E-07 -0.9379883
vn 0.3464355 1.192093E-07 -0.9379883
vn 0.7666016 0 0.6416016
vn 0.7666016 0 0.6416016
vn 0.7666016 0 0.6416016
vn 0.7666016 0 0.6416016
vn 0.3464355 0 -0.9379883
vn 0.3464355 0 -0.9379883
vn 0.3464355 0 -0.9379883
vn 0.3464355 0 -0.9379883
vn 0.7666016 0 0.6416016
vn 0.7666016 0 0.6416016
vn 0.7666016 0 0.6416016
vn 0.7666016 0 0.6416016
vn 0.3464355 0 -0.9379883
vn 0.3464355 0 -0.9379883
vn 0.3464355 0 -0.9379883
vn 0.3464355 0 -0.9379883
vn 0.7666016 0 0.6416016
vn 0.7666016 0 0.6416016
vn 0.7666016 0 0.6416016
vn 0.7666016 0 0.6416016
vn 0.3464355 0 -0.9379883
vn 0.3464355 0 -0.9379883
vn 0.3464355 0 -0.9379883
vn 0.3464355 0 -0.9379883
vn 0.7666016 0 0.6416016
vn 0.7666016 0 0.6416016
vn 0.7666016 0 0.6416016
vn 0.7666016 0 0.6416016
vn 0.3464355 0 -0.9379883
vn 0.3464355 0 -0.9379883
vn 0.3464355 0 -0.9379883
vn 0.3464355 0 -0.9379883

vt 0.9990234 0.9990234
vt 0.9990234 0.0004997253
vt 0.0004997253 0.0004992485
vt 0.0004992485 0.9990234
vt 0.0004997253 0.9990234
vt 0.9990234 0.9990234
vt 0.9990234 0.0004992485
vt 0.0004992485 0.0004992485
vt 0.9990234 0.9990234
vt 0.9990234 0.0004997253
vt 0.0004997253 0.0004992485
vt 0.0004992485 0.9990234
vt 0.0004997253 0.9990234
vt 0.9990234 0.9990234
vt 0.9990234 0.0004992485
vt 0.0004992485 0.0004992485
vt 0.9990234 0.9990234
vt 0.9990234 0.0004997253
vt 0.0004997253 0.0004992485
vt 0.0004992485 0.9990234
vt 0.0004997253 0.9990234
vt 0.9990234 0.9990234
vt 0.9990234 0.0004992485
vt 0.0004992485 0.0004992485
vt 0.9990234 0.9990234
vt 0.9990234 0.0004997253
vt 0.0004997253 0.0004992485
vt 0.0004992485 0.9990234
vt 0.0004997253 0.9990234
vt 0.9990234 0.9990234
vt 0.9990234 0.0004992485
vt 0.0004992485 0.0004992485
vt 0.9990234 0.9990234
vt 0.9990234 0.0004997253
vt 0.0004997253 0.0004992485
vt 0.0004992485 0.9990234
vt 0.0004997253 0.9990234
vt 0.9990234 0.9990234
vt 0.9990234 0.0004992485
vt 0.0004992485 0.0004992485
vt 0.9990234 0.9990234
vt 0.9990234 0.0004997253
vt 0.0004997253 0.0004992485
vt 0.0004992485 0.9990234
vt 0.0004997253 0.9990234
vt 0.9990234 0.9990234
vt 0.9990234 0.0004992485
vt 0.0004992485 0.0004992485

g road_sign_(35)_485_12
usemtl road_sign_(35)_485_12
usemap road_sign_(35)_485_12
f 1/1/1 3/3/3 2/2/2
f 1/1/1 4/4/4 3/3/3
f 5/5/5 7/7/7 6/6/6
f 5/5/5 8/8/8 7/7/7
f 9/9/9 11/11/11 10/10/10
f 9/9/9 12/12/12 11/11/11
f 13/13/13 15/15/15 14/14/14
f 13/13/13 16/16/16 15/15/15
f 17/17/17 19/19/19 18/18/18
f 17/17/17 20/20/20 19/19/19
f 21/21/21 23/23/23 22/22/22
f 21/21/21 24/24/24 23/23/23
f 25/25/25 27/27/27 26/26/26
f 25/25/25 28/28/28 27/27/27
f 29/29/29 31/31/31 30/30/30
f 29/29/29 32/32/32 31/31/31
f 33/33/33 35/35/35 34/34/34
f 33/33/33 36/36/36 35/35/35
f 37/37/37 39/39/39 38/38/38
f 37/37/37 40/40/40 39/39/39
f 41/41/41 43/43/43 42/42/42
f 41/41/41 44/44/44 43/43/43
f 45/45/45 47/47/47 46/46/46
f 45/45/45 48/48/48 47/47/47
