#road_sign_(31)_479_0.obj

v 0.1323991 -0.1616123 -0.09267005
v -0.1323991 -0.1616123 0.09267005
v -0.1323991 0.1616123 0.09267005
v 0.1323991 0.1616123 -0.09267005
v 0.1319087 -0.1616123 -0.1254204
v 0.1319087 0.1616123 -0.1254204
v -0.1317855 0.1616123 -0.3123676
v -0.1317855 -0.1616124 -0.3123676
v 0.1324027 -0.1616124 1.460497
v -0.1323769 -0.1616124 1.645903
v -0.1323769 0.1616123 1.645903
v 0.1324027 0.1616123 1.460497
v 0.1318897 -0.1616124 1.427768
v 0.1318897 0.1616123 1.427768
v -0.1317819 0.1616123 1.2408
v -0.1317819 -0.1616124 1.2408
v 0.1323898 -0.1616125 3.102536
v -0.1323898 -0.1616126 3.287942
v -0.1323898 0.161612 3.287942
v 0.1323898 0.161612 3.102536
v 0.1318769 -0.1616125 3.069807
v 0.1318769 0.161612 3.069807
v -0.1317536 0.161612 2.882884
v -0.1317536 -0.1616126 2.882884
v 0.1323784 -0.1616126 4.70122
v -0.1323787 -0.1616126 4.886605
v -0.1323787 0.161612 4.886605
v 0.1323784 0.161612 4.70122
v 0.1319065 -0.1616126 4.668535
v 0.1319065 0.161612 4.668535
v -0.1317651 0.161612 4.481567
v -0.1317651 -0.1616126 4.481567
v 0.1323676 -0.1616129 6.308738
v -0.1323894 -0.1616129 6.494123
v -0.1323894 0.1616118 6.494123
v 0.1323676 0.1616118 6.308738
v 0.1319183 -0.1616129 6.276033
v 0.1319183 0.1616118 6.276033
v -0.1317758 0.1616118 6.089086
v -0.1317758 -0.1616129 6.089086
v 0.1323881 -0.1616129 7.913255
v -0.132369 -0.161613 8.09864
v -0.132369 0.1616118 8.09864
v 0.1323881 0.1616118 7.913255
v 0.1318976 -0.1616129 7.880505
v 0.1318976 0.1616118 7.880505
v -0.131774 0.1616118 7.693537
v -0.131774 -0.161613 7.693537

vn 0.9916992 0 0.1278076
vn 0.9916992 0 0.1278076
vn 0.9916992 0 0.1278076
vn 0.9916992 0 0.1278076
vn -0.2132568 0 -0.9765625
vn -0.2132568 0 -0.9765625
vn -0.2132568 0 -0.9765625
vn -0.2132568 0 -0.9765625
vn 0.9916992 0 0.1278076
vn 0.9916992 0 0.1278076
vn 0.9916992 0 0.1278076
vn 0.9916992 0 0.1278076
vn -0.2132568 1.192093E-07 -0.9765625
vn -0.2132568 1.192093E-07 -0.9765625
vn -0.2132568 1.192093E-07 -0.9765625
vn -0.2132568 1.192093E-07 -0.9765625
vn 0.9916992 0 0.1278076
vn 0.9916992 0 0.1278076
vn 0.9916992 0 0.1278076
vn 0.9916992 0 0.1278076
vn -0.2132568 0 -0.9765625
vn -0.2132568 0 -0.9765625
vn -0.2132568 0 -0.9765625
vn -0.2132568 0 -0.9765625
vn 0.9916992 0 0.1278076
vn 0.9916992 0 0.1278076
vn 0.9916992 0 0.1278076
vn 0.9916992 0 0.1278076
vn -0.2132568 0 -0.9765625
vn -0.2132568 0 -0.9765625
vn -0.2132568 0 -0.9765625
vn -0.2132568 0 -0.9765625
vn 0.9916992 0 0.1278076
vn 0.9916992 0 0.1278076
vn 0.9916992 0 0.1278076
vn 0.9916992 0 0.1278076
vn -0.2132568 0 -0.9765625
vn -0.2132568 0 -0.9765625
vn -0.2132568 0 -0.9765625
vn -0.2132568 0 -0.9765625
vn 0.9916992 0 0.1278076
vn 0.9916992 0 0.1278076
vn 0.9916992 0 0.1278076
vn 0.9916992 0 0.1278076
vn -0.2132568 0 -0.9765625
vn -0.2132568 0 -0.9765625
vn -0.2132568 0 -0.9765625
vn -0.2132568 0 -0.9765625

vt 0.9990234 0.9990234
vt 0.9990234 0.0004997253
vt 0.0004997253 0.0004992485
vt 0.0004992485 0.9990234
vt 0.0004997253 0.9990234
vt 0.9990234 0.9990234
vt 0.9990234 0.0004992485
vt 0.0004992485 0.0004992485
vt 0.9990234 0.9990234
vt 0.9990234 0.0004997253
vt 0.0004997253 0.0004992485
vt 0.0004992485 0.9990234
vt 0.0004997253 0.9990234
vt 0.9990234 0.9990234
vt 0.9990234 0.0004992485
vt 0.0004992485 0.0004992485
vt 0.9990234 0.9990234
vt 0.9990234 0.0004997253
vt 0.0004997253 0.0004992485
vt 0.0004992485 0.9990234
vt 0.0004997253 0.9990234
vt 0.9990234 0.9990234
vt 0.9990234 0.0004992485
vt 0.0004992485 0.0004992485
vt 0.9990234 0.9990234
vt 0.9990234 0.0004997253
vt 0.0004997253 0.0004992485
vt 0.0004992485 0.9990234
vt 0.0004997253 0.9990234
vt 0.9990234 0.9990234
vt 0.9990234 0.0004992485
vt 0.0004992485 0.0004992485
vt 0.9990234 0.9990234
vt 0.9990234 0.0004997253
vt 0.0004997253 0.0004992485
vt 0.0004992485 0.9990234
vt 0.0004997253 0.9990234
vt 0.9990234 0.9990234
vt 0.9990234 0.0004992485
vt 0.0004992485 0.0004992485
vt 0.9990234 0.9990234
vt 0.9990234 0.0004997253
vt 0.0004997253 0.0004992485
vt 0.0004992485 0.9990234
vt 0.0004997253 0.9990234
vt 0.9990234 0.9990234
vt 0.9990234 0.0004992485
vt 0.0004992485 0.0004992485

g road_sign_(31)_479_0
usemtl road_sign_(31)_479_0
usemap road_sign_(31)_479_0
f 1/1/1 3/3/3 2/2/2
f 1/1/1 4/4/4 3/3/3
f 5/5/5 7/7/7 6/6/6
f 5/5/5 8/8/8 7/7/7
f 9/9/9 11/11/11 10/10/10
f 9/9/9 12/12/12 11/11/11
f 13/13/13 15/15/15 14/14/14
f 13/13/13 16/16/16 15/15/15
f 17/17/17 19/19/19 18/18/18
f 17/17/17 20/20/20 19/19/19
f 21/21/21 23/23/23 22/22/22
f 21/21/21 24/24/24 23/23/23
f 25/25/25 27/27/27 26/26/26
f 25/25/25 28/28/28 27/27/27
f 29/29/29 31/31/31 30/30/30
f 29/29/29 32/32/32 31/31/31
f 33/33/33 35/35/35 34/34/34
f 33/33/33 36/36/36 35/35/35
f 37/37/37 39/39/39 38/38/38
f 37/37/37 40/40/40 39/39/39
f 41/41/41 43/43/43 42/42/42
f 41/41/41 44/44/44 43/43/43
f 45/45/45 47/47/47 46/46/46
f 45/45/45 48/48/48 47/47/47
