#road_sign_(34)_372_90.obj

v 0.1323666 -0.1616123 -0.0926837
v -0.1323666 -0.1616123 0.09268369
v -0.1323666 0.1616123 0.0926837
v 0.1323666 0.1616123 -0.09268369
v 0.1318872 -0.1616123 -0.1254044
v 0.1318872 0.1616123 -0.1254044
v -0.1317482 0.1616123 -0.3123833
v -0.1317482 -0.1616123 -0.3123833
v 0.1323824 -0.1616123 1.460493
v -0.1324114 -0.1616123 1.645867
v -0.1324114 0.1616122 1.645867
v 0.1323824 0.1616122 1.460493
v 0.131903 -0.1616123 1.427773
v 0.131903 0.1616122 1.427773
v -0.1317931 0.1616122 1.2408
v -0.1317931 -0.1616123 1.2408
v 0.1323723 -0.1616126 3.102535
v -0.1323577 -0.1616126 3.287933
v -0.1323577 0.1616119 3.287933
v 0.1323723 0.1616122 3.102535
v 0.1318929 -0.1616126 3.069814
v 0.1318929 0.1616122 3.069814
v -0.1317393 0.1616119 2.882866
v -0.1317393 -0.1616126 2.882866
v 0.1323649 -0.1616127 4.701219
v -0.132365 -0.1616127 4.886617
v -0.132365 0.1616119 4.886617
v 0.1323649 0.1616121 4.701219
v 0.1318855 -0.1616127 4.668499
v 0.1318856 0.1616121 4.668499
v -0.1317466 0.1616119 4.48155
v -0.1317467 -0.1616127 4.48155
v 0.1323621 -0.1616127 6.30874
v -0.1323679 -0.161613 6.494138
v -0.1323679 0.1616118 6.494138
v 0.1323621 0.1616118 6.30874
v 0.1318858 -0.1616127 6.27605
v 0.1318858 0.1616118 6.27605
v -0.1317495 0.1616118 6.089071
v -0.1317495 -0.1616129 6.089071
v 0.132412 -0.1616128 7.913249
v -0.1323818 -0.161613 8.098622
v -0.1323818 0.1616118 8.098622
v 0.132412 0.1616118 7.913249
v 0.1318719 -0.161613 7.880534
v 0.1318719 0.1616118 7.880534
v -0.1317634 0.1616118 7.693555
v -0.1317635 -0.161613 7.693555

vn 0.4851074 0 0.8740234
vn 0.4851074 0 0.8740234
vn 0.4851074 0 0.8740234
vn 0.4851074 0 0.8740234
vn 0.6601563 0 -0.7509766
vn 0.6601563 0 -0.7509766
vn 0.6601563 0 -0.7509766
vn 0.6601563 0 -0.7509766
vn 0.4851074 0 0.8740234
vn 0.4851074 0 0.8740234
vn 0.4851074 0 0.8740234
vn 0.4851074 0 0.8740234
vn 0.6601563 1.192093E-07 -0.7509766
vn 0.6601563 1.192093E-07 -0.7509766
vn 0.6601563 1.192093E-07 -0.7509766
vn 0.6601563 1.192093E-07 -0.7509766
vn 0.4851074 0 0.8740234
vn 0.4851074 0 0.8740234
vn 0.4851074 0 0.8740234
vn 0.4851074 0 0.8740234
vn 0.6601563 0 -0.7509766
vn 0.6601563 0 -0.7509766
vn 0.6601563 0 -0.7509766
vn 0.6601563 0 -0.7509766
vn 0.4851074 0 0.8740234
vn 0.4851074 0 0.8740234
vn 0.4851074 0 0.8740234
vn 0.4851074 0 0.8740234
vn 0.6601563 0 -0.7509766
vn 0.6601563 0 -0.7509766
vn 0.6601563 0 -0.7509766
vn 0.6601563 0 -0.7509766
vn 0.4851074 0 0.8740234
vn 0.4851074 0 0.8740234
vn 0.4851074 0 0.8740234
vn 0.4851074 0 0.8740234
vn 0.6601563 0 -0.7509766
vn 0.6601563 0 -0.7509766
vn 0.6601563 0 -0.7509766
vn 0.6601563 0 -0.7509766
vn 0.4851074 0 0.8740234
vn 0.4851074 0 0.8740234
vn 0.4851074 0 0.8740234
vn 0.4851074 0 0.8740234
vn 0.6601563 0 -0.7509766
vn 0.6601563 0 -0.7509766
vn 0.6601563 0 -0.7509766
vn 0.6601563 0 -0.7509766

vt 0.9990234 0.9990234
vt 0.9990234 0.0004997253
vt 0.0004997253 0.0004992485
vt 0.0004992485 0.9990234
vt 0.0004997253 0.9990234
vt 0.9990234 0.9990234
vt 0.9990234 0.0004992485
vt 0.0004992485 0.0004992485
vt 0.9990234 0.9990234
vt 0.9990234 0.0004997253
vt 0.0004997253 0.0004992485
vt 0.0004992485 0.9990234
vt 0.0004997253 0.9990234
vt 0.9990234 0.9990234
vt 0.9990234 0.0004992485
vt 0.0004992485 0.0004992485
vt 0.9990234 0.9990234
vt 0.9990234 0.0004997253
vt 0.0004997253 0.0004992485
vt 0.0004992485 0.9990234
vt 0.0004997253 0.9990234
vt 0.9990234 0.9990234
vt 0.9990234 0.0004992485
vt 0.0004992485 0.0004992485
vt 0.9990234 0.9990234
vt 0.9990234 0.0004997253
vt 0.0004997253 0.0004992485
vt 0.0004992485 0.9990234
vt 0.0004997253 0.9990234
vt 0.9990234 0.9990234
vt 0.9990234 0.0004992485
vt 0.0004992485 0.0004992485
vt 0.9990234 0.9990234
vt 0.9990234 0.0004997253
vt 0.0004997253 0.0004992485
vt 0.0004992485 0.9990234
vt 0.0004997253 0.9990234
vt 0.9990234 0.9990234
vt 0.9990234 0.0004992485
vt 0.0004992485 0.0004992485
vt 0.9990234 0.9990234
vt 0.9990234 0.0004997253
vt 0.0004997253 0.0004992485
vt 0.0004992485 0.9990234
vt 0.0004997253 0.9990234
vt 0.9990234 0.9990234
vt 0.9990234 0.0004992485
vt 0.0004992485 0.0004992485

g road_sign_(34)_372_90
usemtl road_sign_(34)_372_90
usemap road_sign_(34)_372_90
f 1/1/1 3/3/3 2/2/2
f 1/1/1 4/4/4 3/3/3
f 5/5/5 7/7/7 6/6/6
f 5/5/5 8/8/8 7/7/7
f 9/9/9 11/11/11 10/10/10
f 9/9/9 12/12/12 11/11/11
f 13/13/13 15/15/15 14/14/14
f 13/13/13 16/16/16 15/15/15
f 17/17/17 19/19/19 18/18/18
f 17/17/17 20/20/20 19/19/19
f 21/21/21 23/23/23 22/22/22
f 21/21/21 24/24/24 23/23/23
f 25/25/25 27/27/27 26/26/26
f 25/25/25 28/28/28 27/27/27
f 29/29/29 31/31/31 30/30/30
f 29/29/29 32/32/32 31/31/31
f 33/33/33 35/35/35 34/34/34
f 33/33/33 36/36/36 35/35/35
f 37/37/37 39/39/39 38/38/38
f 37/37/37 40/40/40 39/39/39
f 41/41/41 43/43/43 42/42/42
f 41/41/41 44/44/44 43/43/43
f 45/45/45 47/47/47 46/46/46
f 45/45/45 48/48/48 47/47/47
