#road_sign_(38)_457_44.obj

v 0.1323931 -0.1616123 -0.09270974
v -0.1323931 -0.1616123 0.09270972
v -0.1323931 0.1616123 0.09270974
v 0.1323931 0.1616123 -0.09270972
v 0.1319004 -0.1616123 -0.1253913
v 0.1319003 0.1616123 -0.1253913
v -0.1317631 0.1616123 -0.3123428
v -0.1317631 -0.1616123 -0.3123428
v 0.132391 -0.1616123 1.460495
v -0.1323691 -0.1616123 1.645899
v -0.1323691 0.1616122 1.645899
v 0.132391 0.1616122 1.460495
v 0.1318925 -0.1616123 1.427746
v 0.1318925 0.1616122 1.427746
v -0.131771 0.1616122 1.240794
v -0.131771 -0.1616123 1.240794
v 0.1323968 -0.1616126 3.102556
v -0.1323952 -0.1616126 3.287908
v -0.1323952 0.1616121 3.287908
v 0.1323968 0.1616122 3.102556
v 0.1318982 -0.1616126 3.069807
v 0.1318982 0.1616122 3.069807
v -0.1317653 0.1616122 2.882855
v -0.1317652 -0.1616126 2.882855
v 0.1323889 -0.1616127 4.701197
v -0.1323973 -0.1616127 4.886616
v -0.1323973 0.1616121 4.886616
v 0.1323889 0.1616121 4.701197
v 0.1318961 -0.1616127 4.668515
v 0.1318961 0.1616121 4.668515
v -0.1317673 0.1616119 4.481564
v -0.1317673 -0.1616127 4.481564
v 0.1324046 -0.1616128 6.308766
v -0.1323874 -0.1616128 6.494118
v -0.1323874 0.1616118 6.494118
v 0.1324046 0.1616118 6.308766
v 0.1319061 -0.1616128 6.276017
v 0.1319061 0.1616118 6.276017
v -0.1317574 0.1616118 6.089066
v -0.1317574 -0.1616128 6.089065
v 0.1323729 -0.1616128 7.913217
v -0.1323872 -0.1616131 8.09862
v -0.1323872 0.1616117 8.09862
v 0.1323729 0.1616117 7.913217
v 0.1319062 -0.1616128 7.880519
v 0.1319062 0.1616117 7.880519
v -0.1317573 0.1616117 7.693568
v -0.1317573 -0.1616128 7.693568

vn 0.9980469 0 -0.06188965
vn 0.9980469 0 -0.06188965
vn 0.9980469 0 -0.06188965
vn 0.9980469 0 -0.06188965
vn -0.394043 0 -0.9189453
vn -0.394043 0 -0.9189453
vn -0.394043 0 -0.9189453
vn -0.394043 0 -0.9189453
vn 0.9980469 0 -0.06188965
vn 0.9980469 0 -0.06188965
vn 0.9980469 0 -0.06188965
vn 0.9980469 0 -0.06188965
vn -0.394043 5.960464E-08 -0.9189453
vn -0.394043 5.960464E-08 -0.9189453
vn -0.394043 5.960464E-08 -0.9189453
vn -0.394043 5.960464E-08 -0.9189453
vn 0.9980469 0 -0.06188965
vn 0.9980469 0 -0.06188965
vn 0.9980469 0 -0.06188965
vn 0.9980469 0 -0.06188965
vn -0.394043 0 -0.9189453
vn -0.394043 0 -0.9189453
vn -0.394043 0 -0.9189453
vn -0.394043 0 -0.9189453
vn 0.9980469 0 -0.06188965
vn 0.9980469 0 -0.06188965
vn 0.9980469 0 -0.06188965
vn 0.9980469 0 -0.06188965
vn -0.394043 0 -0.9189453
vn -0.394043 0 -0.9189453
vn -0.394043 0 -0.9189453
vn -0.394043 0 -0.9189453
vn 0.9980469 0 -0.06188965
vn 0.9980469 0 -0.06188965
vn 0.9980469 0 -0.06188965
vn 0.9980469 0 -0.06188965
vn -0.394043 0 -0.9189453
vn -0.394043 0 -0.9189453
vn -0.394043 0 -0.9189453
vn -0.394043 0 -0.9189453
vn 0.9980469 0 -0.06188965
vn 0.9980469 0 -0.06188965
vn 0.9980469 0 -0.06188965
vn 0.9980469 0 -0.06188965
vn -0.394043 0 -0.9189453
vn -0.394043 0 -0.9189453
vn -0.394043 0 -0.9189453
vn -0.394043 0 -0.9189453

vt 0.9990234 0.9990234
vt 0.9990234 0.0004997253
vt 0.0004997253 0.0004992485
vt 0.0004992485 0.9990234
vt 0.0004997253 0.9990234
vt 0.9990234 0.9990234
vt 0.9990234 0.0004992485
vt 0.0004992485 0.0004992485
vt 0.9990234 0.9990234
vt 0.9990234 0.0004997253
vt 0.0004997253 0.0004992485
vt 0.0004992485 0.9990234
vt 0.0004997253 0.9990234
vt 0.9990234 0.9990234
vt 0.9990234 0.0004992485
vt 0.0004992485 0.0004992485
vt 0.9990234 0.9990234
vt 0.9990234 0.0004997253
vt 0.0004997253 0.0004992485
vt 0.0004992485 0.9990234
vt 0.0004997253 0.9990234
vt 0.9990234 0.9990234
vt 0.9990234 0.0004992485
vt 0.0004992485 0.0004992485
vt 0.9990234 0.9990234
vt 0.9990234 0.0004997253
vt 0.0004997253 0.0004992485
vt 0.0004992485 0.9990234
vt 0.0004997253 0.9990234
vt 0.9990234 0.9990234
vt 0.9990234 0.0004992485
vt 0.0004992485 0.0004992485
vt 0.9990234 0.9990234
vt 0.9990234 0.0004997253
vt 0.0004997253 0.0004992485
vt 0.0004992485 0.9990234
vt 0.0004997253 0.9990234
vt 0.9990234 0.9990234
vt 0.9990234 0.0004992485
vt 0.0004992485 0.0004992485
vt 0.9990234 0.9990234
vt 0.9990234 0.0004997253
vt 0.0004997253 0.0004992485
vt 0.0004992485 0.9990234
vt 0.0004997253 0.9990234
vt 0.9990234 0.9990234
vt 0.9990234 0.0004992485
vt 0.0004992485 0.0004992485

g road_sign_(38)_457_44
usemtl road_sign_(38)_457_44
usemap road_sign_(38)_457_44
f 1/1/1 3/3/3 2/2/2
f 1/1/1 4/4/4 3/3/3
f 5/5/5 7/7/7 6/6/6
f 5/5/5 8/8/8 7/7/7
f 9/9/9 11/11/11 10/10/10
f 9/9/9 12/12/12 11/11/11
f 13/13/13 15/15/15 14/14/14
f 13/13/13 16/16/16 15/15/15
f 17/17/17 19/19/19 18/18/18
f 17/17/17 20/20/20 19/19/19
f 21/21/21 23/23/23 22/22/22
f 21/21/21 24/24/24 23/23/23
f 25/25/25 27/27/27 26/26/26
f 25/25/25 28/28/28 27/27/27
f 29/29/29 31/31/31 30/30/30
f 29/29/29 32/32/32 31/31/31
f 33/33/33 35/35/35 34/34/34
f 33/33/33 36/36/36 35/35/35
f 37/37/37 39/39/39 38/38/38
f 37/37/37 40/40/40 39/39/39
f 41/41/41 43/43/43 42/42/42
f 41/41/41 44/44/44 43/43/43
f 45/45/45 47/47/47 46/46/46
f 45/45/45 48/48/48 47/47/47
