#road_sign_(16)_429_38.obj

v 0.1323571 -0.1616123 -0.09268307
v -0.1323572 -0.1616123 0.09268306
v -0.1323571 0.1616123 0.09268307
v 0.1323572 0.1616123 -0.09268306
v 0.131907 -0.1616123 -0.1254249
v 0.131907 0.1616123 -0.1254249
v -0.13177 0.1616123 -0.3123674
v -0.13177 -0.1616124 -0.3123674
v 0.1323899 -0.1616124 1.460482
v -0.1323902 -0.1616124 1.645866
v -0.1323902 0.1616123 1.645866
v 0.1323899 0.1616123 1.460482
v 0.1318944 -0.1616124 1.427781
v 0.1318944 0.1616123 1.427781
v -0.1317372 0.1616123 1.240798
v -0.1317372 -0.1616124 1.240798
v 0.1323709 -0.1616125 3.102549
v -0.1324092 -0.1616127 3.287933
v -0.1324092 0.161612 3.287933
v 0.1323709 0.161612 3.102549
v 0.1319208 -0.1616125 3.069807
v 0.1319208 0.161612 3.069807
v -0.1317563 0.161612 2.882864
v -0.1317563 -0.1616125 2.882864
v 0.1324086 -0.1616127 4.701203
v -0.1323715 -0.1616127 4.886588
v -0.1323715 0.161612 4.886588
v 0.1324086 0.161612 4.701203
v 0.131913 -0.1616127 4.668502
v 0.1319131 0.161612 4.668502
v -0.131764 0.161612 4.48156
v -0.131764 -0.1616127 4.48156
v 0.1323812 -0.1616128 6.308736
v -0.1323785 -0.1616128 6.494143
v -0.1323785 0.1616117 6.494143
v 0.1323812 0.1616117 6.308736
v 0.1318856 -0.1616128 6.276035
v 0.1318857 0.1616117 6.276035
v -0.1317914 0.1616117 6.089093
v -0.1317914 -0.1616128 6.089093
v 0.1324088 -0.1616128 7.913226
v -0.1323713 -0.1616129 8.09861
v -0.1323713 0.1616117 8.09861
v 0.1324088 0.1616117 7.913226
v 0.1319133 -0.161613 7.880524
v 0.1319133 0.1616117 7.880524
v -0.1317841 0.1616117 7.693559
v -0.1317638 -0.1616129 7.693582

vn -0.1206665 0 0.9926758
vn -0.1206665 0 0.9926758
vn -0.1206665 0 0.9926758
vn -0.1206665 0 0.9926758
vn 0.9750977 0 -0.2202148
vn 0.9750977 0 -0.2202148
vn 0.9750977 0 -0.2202148
vn 0.9750977 0 -0.2202148
vn -0.1206665 0 0.9926758
vn -0.1206665 0 0.9926758
vn -0.1206665 0 0.9926758
vn -0.1206665 0 0.9926758
vn 0.9750977 1.192093E-07 -0.2202148
vn 0.9750977 1.192093E-07 -0.2202148
vn 0.9750977 1.192093E-07 -0.2202148
vn 0.9750977 1.192093E-07 -0.2202148
vn -0.1206665 0 0.9926758
vn -0.1206665 0 0.9926758
vn -0.1206665 0 0.9926758
vn -0.1206665 0 0.9926758
vn 0.9750977 0 -0.2202148
vn 0.9750977 0 -0.2202148
vn 0.9750977 0 -0.2202148
vn 0.9750977 0 -0.2202148
vn -0.1206665 0 0.9926758
vn -0.1206665 0 0.9926758
vn -0.1206665 0 0.9926758
vn -0.1206665 0 0.9926758
vn 0.9750977 0 -0.2202148
vn 0.9750977 0 -0.2202148
vn 0.9750977 0 -0.2202148
vn 0.9750977 0 -0.2202148
vn -0.1206665 0 0.9926758
vn -0.1206665 0 0.9926758
vn -0.1206665 0 0.9926758
vn -0.1206665 0 0.9926758
vn 0.9750977 0 -0.2202148
vn 0.9750977 0 -0.2202148
vn 0.9750977 0 -0.2202148
vn 0.9750977 0 -0.2202148
vn -0.1206665 0 0.9926758
vn -0.1206665 0 0.9926758
vn -0.1206665 0 0.9926758
vn -0.1206665 0 0.9926758
vn 0.9750977 0 -0.2202148
vn 0.9750977 0 -0.2202148
vn 0.9750977 0 -0.2202148
vn 0.9750977 0 -0.2202148

vt 0.9990234 0.9990234
vt 0.9990234 0.0004997253
vt 0.0004997253 0.0004992485
vt 0.0004992485 0.9990234
vt 0.0004997253 0.9990234
vt 0.9990234 0.9990234
vt 0.9990234 0.0004992485
vt 0.0004992485 0.0004992485
vt 0.9990234 0.9990234
vt 0.9990234 0.0004997253
vt 0.0004997253 0.0004992485
vt 0.0004992485 0.9990234
vt 0.0004997253 0.9990234
vt 0.9990234 0.9990234
vt 0.9990234 0.0004992485
vt 0.0004992485 0.0004992485
vt 0.9990234 0.9990234
vt 0.9990234 0.0004997253
vt 0.0004997253 0.0004992485
vt 0.0004992485 0.9990234
vt 0.0004997253 0.9990234
vt 0.9990234 0.9990234
vt 0.9990234 0.0004992485
vt 0.0004992485 0.0004992485
vt 0.9990234 0.9990234
vt 0.9990234 0.0004997253
vt 0.0004997253 0.0004992485
vt 0.0004992485 0.9990234
vt 0.0004997253 0.9990234
vt 0.9990234 0.9990234
vt 0.9990234 0.0004992485
vt 0.0004992485 0.0004992485
vt 0.9990234 0.9990234
vt 0.9990234 0.0004997253
vt 0.0004997253 0.0004992485
vt 0.0004992485 0.9990234
vt 0.0004997253 0.9990234
vt 0.9990234 0.9990234
vt 0.9990234 0.0004992485
vt 0.0004992485 0.0004992485
vt 0.9990234 0.9990234
vt 0.9990234 0.0004997253
vt 0.0004997253 0.0004992485
vt 0.0004992485 0.9990234
vt 0.0004997253 0.9990234
vt 0.9990234 0.9990234
vt 0.9990234 0.0004992485
vt 0.0004992485 0.0004992485

g road_sign_(16)_429_38
usemtl road_sign_(16)_429_38
usemap road_sign_(16)_429_38
f 1/1/1 3/3/3 2/2/2
f 1/1/1 4/4/4 3/3/3
f 5/5/5 7/7/7 6/6/6
f 5/5/5 8/8/8 7/7/7
f 9/9/9 11/11/11 10/10/10
f 9/9/9 12/12/12 11/11/11
f 13/13/13 15/15/15 14/14/14
f 13/13/13 16/16/16 15/15/15
f 17/17/17 19/19/19 18/18/18
f 17/17/17 20/20/20 19/19/19
f 21/21/21 23/23/23 22/22/22
f 21/21/21 24/24/24 23/23/23
f 25/25/25 27/27/27 26/26/26
f 25/25/25 28/28/28 27/27/27
f 29/29/29 31/31/31 30/30/30
f 29/29/29 32/32/32 31/31/31
f 33/33/33 35/35/35 34/34/34
f 33/33/33 36/36/36 35/35/35
f 37/37/37 39/39/39 38/38/38
f 37/37/37 40/40/40 39/39/39
f 41/41/41 43/43/43 42/42/42
f 41/41/41 44/44/44 43/43/43
f 45/45/45 47/47/47 46/46/46
f 45/45/45 48/48/48 47/47/47
