#road_sign_(24)_470_60.obj

v 0.1323975 -0.1616123 -0.09266932
v -0.1323975 -0.1616123 0.0926693
v -0.1323975 0.1616123 0.09266932
v 0.1323975 0.1616123 -0.0926693
v 0.1319287 -0.1616123 -0.125402
v 0.1319287 0.1616123 -0.125402
v -0.131766 0.1616123 -0.312379
v -0.131766 -0.1616123 -0.3123791
v 0.132396 -0.1616123 1.460506
v -0.1323989 -0.1616123 1.645845
v -0.1323989 0.1616122 1.645845
v 0.132396 0.1616122 1.460506
v 0.1319273 -0.1616123 1.427773
v 0.1319273 0.1616122 1.427773
v -0.1317674 0.1616122 1.240796
v -0.1317674 -0.1616123 1.240796
v 0.1323719 -0.1616126 3.102504
v -0.1323948 -0.1616127 3.287905
v -0.1323948 0.1616121 3.287905
v 0.1323719 0.1616121 3.102504
v 0.131884 -0.1616126 3.069795
v 0.131884 0.1616121 3.069795
v -0.1317633 0.1616122 2.882856
v -0.1317633 -0.1616126 2.882856
v 0.1323655 -0.1616127 4.701196
v -0.1324013 -0.1616127 4.886597
v -0.1324013 0.1616121 4.886597
v 0.1323655 0.1616121 4.701196
v 0.1318775 -0.1616127 4.668487
v 0.1318775 0.1616121 4.668487
v -0.1317698 0.1616121 4.481549
v -0.1317698 -0.1616127 4.481549
v 0.1323902 -0.1616128 6.308759
v -0.1323765 -0.1616128 6.49416
v -0.1323766 0.1616118 6.49416
v 0.1323902 0.1616118 6.308759
v 0.1319023 -0.1616128 6.27605
v 0.1319023 0.1616118 6.27605
v -0.1317924 0.1616118 6.089073
v -0.1317924 -0.1616128 6.089073
v 0.1323991 -0.1616129 7.913242
v -0.1323677 -0.1616129 8.098643
v -0.1323677 0.1616117 8.098643
v 0.1323991 0.1616117 7.913242
v 0.1319111 -0.1616129 7.880533
v 0.1319111 0.1616117 7.880533
v -0.1317836 0.1616117 7.693556
v -0.1317836 -0.1616129 7.693556

vn 0.9614258 0 0.2741699
vn 0.9614258 0 0.2741699
vn 0.9614258 0 0.2741699
vn 0.9614258 0 0.2741699
vn -0.06512451 0 -0.9975586
vn -0.06512451 0 -0.9975586
vn -0.06512451 0 -0.9975586
vn -0.06512451 0 -0.9975586
vn 0.9614258 0 0.2741699
vn 0.9614258 0 0.2741699
vn 0.9614258 0 0.2741699
vn 0.9614258 0 0.2741699
vn -0.06512451 5.960464E-08 -0.9975586
vn -0.06512451 5.960464E-08 -0.9975586
vn -0.06512451 5.960464E-08 -0.9975586
vn -0.06512451 5.960464E-08 -0.9975586
vn 0.9614258 0 0.2741699
vn 0.9614258 0 0.2741699
vn 0.9614258 0 0.2741699
vn 0.9614258 0 0.2741699
vn -0.06512451 0 -0.9975586
vn -0.06512451 0 -0.9975586
vn -0.06512451 0 -0.9975586
vn -0.06512451 0 -0.9975586
vn 0.9614258 0 0.2741699
vn 0.9614258 0 0.2741699
vn 0.9614258 0 0.2741699
vn 0.9614258 0 0.2741699
vn -0.06512451 0 -0.9975586
vn -0.06512451 0 -0.9975586
vn -0.06512451 0 -0.9975586
vn -0.06512451 0 -0.9975586
vn 0.9614258 0 0.2741699
vn 0.9614258 0 0.2741699
vn 0.9614258 0 0.2741699
vn 0.9614258 0 0.2741699
vn -0.06512451 0 -0.9975586
vn -0.06512451 0 -0.9975586
vn -0.06512451 0 -0.9975586
vn -0.06512451 0 -0.9975586
vn 0.9614258 0 0.2741699
vn 0.9614258 0 0.2741699
vn 0.9614258 0 0.2741699
vn 0.9614258 0 0.2741699
vn -0.06512451 0 -0.9975586
vn -0.06512451 0 -0.9975586
vn -0.06512451 0 -0.9975586
vn -0.06512451 0 -0.9975586

vt 0.9990234 0.9990234
vt 0.9990234 0.0004997253
vt 0.0004997253 0.0004992485
vt 0.0004992485 0.9990234
vt 0.0004997253 0.9990234
vt 0.9990234 0.9990234
vt 0.9990234 0.0004992485
vt 0.0004992485 0.0004992485
vt 0.9990234 0.9990234
vt 0.9990234 0.0004997253
vt 0.0004997253 0.0004992485
vt 0.0004992485 0.9990234
vt 0.0004997253 0.9990234
vt 0.9990234 0.9990234
vt 0.9990234 0.0004992485
vt 0.0004992485 0.0004992485
vt 0.9990234 0.9990234
vt 0.9990234 0.0004997253
vt 0.0004997253 0.0004992485
vt 0.0004992485 0.9990234
vt 0.0004997253 0.9990234
vt 0.9990234 0.9990234
vt 0.9990234 0.0004992485
vt 0.0004992485 0.0004992485
vt 0.9990234 0.9990234
vt 0.9990234 0.0004997253
vt 0.0004997253 0.0004992485
vt 0.0004992485 0.9990234
vt 0.0004997253 0.9990234
vt 0.9990234 0.9990234
vt 0.9990234 0.0004992485
vt 0.0004992485 0.0004992485
vt 0.9990234 0.9990234
vt 0.9990234 0.0004997253
vt 0.0004997253 0.0004992485
vt 0.0004992485 0.9990234
vt 0.0004997253 0.9990234
vt 0.9990234 0.9990234
vt 0.9990234 0.0004992485
vt 0.0004992485 0.0004992485
vt 0.9990234 0.9990234
vt 0.9990234 0.0004997253
vt 0.0004997253 0.0004992485
vt 0.0004992485 0.9990234
vt 0.0004997253 0.9990234
vt 0.9990234 0.9990234
vt 0.9990234 0.0004992485
vt 0.0004992485 0.0004992485

g road_sign_(24)_470_60
usemtl road_sign_(24)_470_60
usemap road_sign_(24)_470_60
f 1/1/1 3/3/3 2/2/2
f 1/1/1 4/4/4 3/3/3
f 5/5/5 7/7/7 6/6/6
f 5/5/5 8/8/8 7/7/7
f 9/9/9 11/11/11 10/10/10
f 9/9/9 12/12/12 11/11/11
f 13/13/13 15/15/15 14/14/14
f 13/13/13 16/16/16 15/15/15
f 17/17/17 19/19/19 18/18/18
f 17/17/17 20/20/20 19/19/19
f 21/21/21 23/23/23 22/22/22
f 21/21/21 24/24/24 23/23/23
f 25/25/25 27/27/27 26/26/26
f 25/25/25 28/28/28 27/27/27
f 29/29/29 31/31/31 30/30/30
f 29/29/29 32/32/32 31/31/31
f 33/33/33 35/35/35 34/34/34
f 33/33/33 36/36/36 35/35/35
f 37/37/37 39/39/39 38/38/38
f 37/37/37 40/40/40 39/39/39
f 41/41/41 43/43/43 42/42/42
f 41/41/41 44/44/44 43/43/43
f 45/45/45 47/47/47 46/46/46
f 45/45/45 48/48/48 47/47/47
