#road_sign_(18)_488_28.obj

v 0.1323804 -0.1616123 -0.0927012
v -0.1323804 -0.1616123 0.09270119
v -0.1323804 0.1616124 0.0927012
v 0.1323804 0.1616124 -0.09270119
v 0.1319112 -0.1616123 -0.1254024
v 0.1319112 0.1616124 -0.1254024
v -0.1317849 0.1616124 -0.312368
v -0.1317849 -0.1616124 -0.312368
v 0.1323835 -0.1616123 1.460492
v -0.1323738 -0.1616125 1.645864
v -0.1323738 0.1616121 1.645864
v 0.1323835 0.1616123 1.460492
v 0.1319177 -0.1616123 1.42776
v 0.1319177 0.1616123 1.42776
v -0.1317784 0.1616121 1.240795
v -0.1317784 -0.1616124 1.240795
v 0.1323861 -0.1616125 3.102538
v -0.1323747 -0.1616126 3.287941
v -0.1323747 0.161612 3.287941
v 0.1323861 0.161612 3.102538
v 0.1319169 -0.1616125 3.069837
v 0.1319203 0.161612 3.069807
v -0.1317792 0.161612 2.882872
v -0.1317793 -0.1616126 2.882872
v 0.1323916 -0.1616127 4.701218
v -0.1323692 -0.1616127 4.886621
v -0.1323692 0.161612 4.886621
v 0.1323916 0.161612 4.701218
v 0.1319224 -0.1616126 4.668517
v 0.1319224 0.161612 4.668517
v -0.1317737 0.161612 4.481551
v -0.1317737 -0.1616127 4.481551
v 0.1323773 -0.1616129 6.308741
v -0.1323835 -0.1616129 6.494143
v -0.1323835 0.1616117 6.494143
v 0.1323773 0.1616119 6.308741
v 0.1319081 -0.1616129 6.27604
v 0.1319081 0.1616119 6.27604
v -0.131788 0.1616117 6.089074
v -0.131788 -0.1616129 6.089074
v 0.1324001 -0.1616129 7.913227
v -0.1323607 -0.1616129 8.09863
v -0.1323607 0.1616116 8.09863
v 0.1324001 0.1616118 7.913227
v 0.1319309 -0.1616129 7.880526
v 0.1319309 0.1616119 7.880526
v -0.1317652 0.1616119 7.693561
v -0.1317652 -0.1616129 7.693561

vn 0.6621094 0 0.7490234
vn 0.6621094 0 0.7490234
vn 0.6621094 0 0.7490234
vn 0.6621094 0 0.7490234
vn 0.482666 0 -0.8754883
vn 0.482666 0 -0.8754883
vn 0.482666 0 -0.8754883
vn 0.482666 0 -0.8754883
vn 0.6621094 0 0.7490234
vn 0.6621094 0 0.7490234
vn 0.6621094 0 0.7490234
vn 0.6621094 0 0.7490234
vn 0.482666 1.192093E-07 -0.8754883
vn 0.482666 1.192093E-07 -0.8754883
vn 0.482666 1.192093E-07 -0.8754883
vn 0.482666 1.192093E-07 -0.8754883
vn 0.6621094 0 0.7490234
vn 0.6621094 0 0.7490234
vn 0.6621094 0 0.7490234
vn 0.6621094 0 0.7490234
vn 0.482666 0 -0.8754883
vn 0.482666 0 -0.8754883
vn 0.482666 0 -0.8754883
vn 0.482666 0 -0.8754883
vn 0.6621094 0 0.7490234
vn 0.6621094 0 0.7490234
vn 0.6621094 0 0.7490234
vn 0.6621094 0 0.7490234
vn 0.482666 0 -0.8754883
vn 0.482666 0 -0.8754883
vn 0.482666 0 -0.8754883
vn 0.482666 0 -0.8754883
vn 0.6621094 0 0.7490234
vn 0.6621094 0 0.7490234
vn 0.6621094 0 0.7490234
vn 0.6621094 0 0.7490234
vn 0.482666 0 -0.8754883
vn 0.482666 0 -0.8754883
vn 0.482666 0 -0.8754883
vn 0.482666 0 -0.8754883
vn 0.6621094 0 0.7490234
vn 0.6621094 0 0.7490234
vn 0.6621094 0 0.7490234
vn 0.6621094 0 0.7490234
vn 0.482666 0 -0.8754883
vn 0.482666 0 -0.8754883
vn 0.482666 0 -0.8754883
vn 0.482666 0 -0.8754883

vt 0.9990234 0.9990234
vt 0.9990234 0.0004997253
vt 0.0004997253 0.0004992485
vt 0.0004992485 0.9990234
vt 0.0004997253 0.9990234
vt 0.9990234 0.9990234
vt 0.9990234 0.0004992485
vt 0.0004992485 0.0004992485
vt 0.9990234 0.9990234
vt 0.9990234 0.0004997253
vt 0.0004997253 0.0004992485
vt 0.0004992485 0.9990234
vt 0.0004997253 0.9990234
vt 0.9990234 0.9990234
vt 0.9990234 0.0004992485
vt 0.0004992485 0.0004992485
vt 0.9990234 0.9990234
vt 0.9990234 0.0004997253
vt 0.0004997253 0.0004992485
vt 0.0004992485 0.9990234
vt 0.0004997253 0.9990234
vt 0.9990234 0.9990234
vt 0.9990234 0.0004992485
vt 0.0004992485 0.0004992485
vt 0.9990234 0.9990234
vt 0.9990234 0.0004997253
vt 0.0004997253 0.0004992485
vt 0.0004992485 0.9990234
vt 0.0004997253 0.9990234
vt 0.9990234 0.9990234
vt 0.9990234 0.0004992485
vt 0.0004992485 0.0004992485
vt 0.9990234 0.9990234
vt 0.9990234 0.0004997253
vt 0.0004997253 0.0004992485
vt 0.0004992485 0.9990234
vt 0.0004997253 0.9990234
vt 0.9990234 0.9990234
vt 0.9990234 0.0004992485
vt 0.0004992485 0.0004992485
vt 0.9990234 0.9990234
vt 0.9990234 0.0004997253
vt 0.0004997253 0.0004992485
vt 0.0004992485 0.9990234
vt 0.0004997253 0.9990234
vt 0.9990234 0.9990234
vt 0.9990234 0.0004992485
vt 0.0004992485 0.0004992485

g road_sign_(18)_488_28
usemtl road_sign_(18)_488_28
usemap road_sign_(18)_488_28
f 1/1/1 3/3/3 2/2/2
f 1/1/1 4/4/4 3/3/3
f 5/5/5 7/7/7 6/6/6
f 5/5/5 8/8/8 7/7/7
f 9/9/9 11/11/11 10/10/10
f 9/9/9 12/12/12 11/11/11
f 13/13/13 15/15/15 14/14/14
f 13/13/13 16/16/16 15/15/15
f 17/17/17 19/19/19 18/18/18
f 17/17/17 20/20/20 19/19/19
f 21/21/21 23/23/23 22/22/22
f 21/21/21 24/24/24 23/23/23
f 25/25/25 27/27/27 26/26/26
f 25/25/25 28/28/28 27/27/27
f 29/29/29 31/31/31 30/30/30
f 29/29/29 32/32/32 31/31/31
f 33/33/33 35/35/35 34/34/34
f 33/33/33 36/36/36 35/35/35
f 37/37/37 39/39/39 38/38/38
f 37/37/37 40/40/40 39/39/39
f 41/41/41 43/43/43 42/42/42
f 41/41/41 44/44/44 43/43/43
f 45/45/45 47/47/47 46/46/46
f 45/45/45 48/48/48 47/47/47
