#road_sign_(3)_384_66.obj

v 0.1324088 -0.1616123 -0.0926854
v -0.1324088 -0.1616123 0.09268541
v -0.1324088 0.1616124 0.0926854
v 0.1324088 0.1616124 -0.09268541
v 0.131916 -0.1616123 -0.1254093
v 0.131916 0.1616124 -0.1254093
v -0.1317854 0.1616124 -0.3123687
v -0.1317854 -0.1616124 -0.3123687
v 0.1323977 -0.1616124 1.460496
v -0.1323648 -0.1616124 1.645894
v -0.1323648 0.1616122 1.645894
v 0.1323977 0.1616122 1.460496
v 0.1319049 -0.1616124 1.427773
v 0.1319049 0.1616122 1.427773
v -0.1317965 0.1616122 1.240813
v -0.1317965 -0.1616124 1.240813
v 0.1323714 -0.1616126 3.102539
v -0.1323911 -0.1616126 3.287936
v -0.1323911 0.1616119 3.287936
v 0.1323714 0.1616122 3.102539
v 0.1318786 -0.1616126 3.069815
v 0.1318786 0.1616122 3.069815
v -0.1317677 0.1616122 2.882882
v -0.1317678 -0.1616126 2.882882
v 0.1324116 -0.1616126 4.701228
v -0.1324059 -0.1616126 4.886599
v -0.1324059 0.161612 4.886599
v 0.1324116 0.1616119 4.701228
v 0.1319189 -0.1616126 4.668504
v 0.1319189 0.1616119 4.668504
v -0.1317825 0.161612 4.481545
v -0.1317825 -0.1616126 4.481545
v 0.1324087 -0.1616128 6.308764
v -0.1324088 -0.1616128 6.494134
v -0.1324088 0.1616117 6.494134
v 0.1324088 0.1616117 6.308764
v 0.131916 -0.1616128 6.27604
v 0.131916 0.1616117 6.27604
v -0.1317854 0.1616117 6.08908
v -0.1317854 -0.1616128 6.08908
v 0.132382 -0.1616128 7.913241
v -0.1323804 -0.1616129 8.098639
v -0.1323804 0.1616117 8.098639
v 0.1323821 0.1616117 7.913241
v 0.1318893 -0.1616129 7.880517
v 0.1318893 0.1616117 7.880517
v -0.1317571 0.1616117 7.693584
v -0.1317571 -0.1616129 7.693584

vn -0.4907227 0 0.8710938
vn -0.4907227 0 0.8710938
vn -0.4907227 0 0.8710938
vn -0.4907227 0 0.8710938
vn 0.9853516 0 0.1689453
vn 0.9853516 0 0.1689453
vn 0.9853516 0 0.1689453
vn 0.9853516 0 0.1689453
vn -0.4907227 0 0.8710938
vn -0.4907227 0 0.8710938
vn -0.4907227 0 0.8710938
vn -0.4907227 0 0.8710938
vn 0.9853516 1.788139E-07 0.1689453
vn 0.9853516 1.788139E-07 0.1689453
vn 0.9853516 1.788139E-07 0.1689453
vn 0.9853516 1.788139E-07 0.1689453
vn -0.4907227 0 0.8710938
vn -0.4907227 0 0.8710938
vn -0.4907227 0 0.8710938
vn -0.4907227 0 0.8710938
vn 0.9853516 0 0.1689453
vn 0.9853516 0 0.1689453
vn 0.9853516 0 0.1689453
vn 0.9853516 0 0.1689453
vn -0.4907227 0 0.8710938
vn -0.4907227 0 0.8710938
vn -0.4907227 0 0.8710938
vn -0.4907227 0 0.8710938
vn 0.9853516 0 0.1689453
vn 0.9853516 0 0.1689453
vn 0.9853516 0 0.1689453
vn 0.9853516 0 0.1689453
vn -0.4907227 0 0.8710938
vn -0.4907227 0 0.8710938
vn -0.4907227 0 0.8710938
vn -0.4907227 0 0.8710938
vn 0.9853516 0 0.1689453
vn 0.9853516 0 0.1689453
vn 0.9853516 0 0.1689453
vn 0.9853516 0 0.1689453
vn -0.4907227 0 0.8710938
vn -0.4907227 0 0.8710938
vn -0.4907227 0 0.8710938
vn -0.4907227 0 0.8710938
vn 0.9853516 0 0.1689453
vn 0.9853516 0 0.1689453
vn 0.9853516 0 0.1689453
vn 0.9853516 0 0.1689453

vt 0.9990234 0.9990234
vt 0.9990234 0.0004997253
vt 0.0004997253 0.0004992485
vt 0.0004992485 0.9990234
vt 0.0004997253 0.9990234
vt 0.9990234 0.9990234
vt 0.9990234 0.0004992485
vt 0.0004992485 0.0004992485
vt 0.9990234 0.9990234
vt 0.9990234 0.0004997253
vt 0.0004997253 0.0004992485
vt 0.0004992485 0.9990234
vt 0.0004997253 0.9990234
vt 0.9990234 0.9990234
vt 0.9990234 0.0004992485
vt 0.0004992485 0.0004992485
vt 0.9990234 0.9990234
vt 0.9990234 0.0004997253
vt 0.0004997253 0.0004992485
vt 0.0004992485 0.9990234
vt 0.0004997253 0.9990234
vt 0.9990234 0.9990234
vt 0.9990234 0.0004992485
vt 0.0004992485 0.0004992485
vt 0.9990234 0.9990234
vt 0.9990234 0.0004997253
vt 0.0004997253 0.0004992485
vt 0.0004992485 0.9990234
vt 0.0004997253 0.9990234
vt 0.9990234 0.9990234
vt 0.9990234 0.0004992485
vt 0.0004992485 0.0004992485
vt 0.9990234 0.9990234
vt 0.9990234 0.0004997253
vt 0.0004997253 0.0004992485
vt 0.0004992485 0.9990234
vt 0.0004997253 0.9990234
vt 0.9990234 0.9990234
vt 0.9990234 0.0004992485
vt 0.0004992485 0.0004992485
vt 0.9990234 0.9990234
vt 0.9990234 0.0004997253
vt 0.0004997253 0.0004992485
vt 0.0004992485 0.9990234
vt 0.0004997253 0.9990234
vt 0.9990234 0.9990234
vt 0.9990234 0.0004992485
vt 0.0004992485 0.0004992485

g road_sign_(3)_384_66
usemtl road_sign_(3)_384_66
usemap road_sign_(3)_384_66
f 1/1/1 3/3/3 2/2/2
f 1/1/1 4/4/4 3/3/3
f 5/5/5 7/7/7 6/6/6
f 5/5/5 8/8/8 7/7/7
f 9/9/9 11/11/11 10/10/10
f 9/9/9 12/12/12 11/11/11
f 13/13/13 15/15/15 14/14/14
f 13/13/13 16/16/16 15/15/15
f 17/17/17 19/19/19 18/18/18
f 17/17/17 20/20/20 19/19/19
f 21/21/21 23/23/23 22/22/22
f 21/21/21 24/24/24 23/23/23
f 25/25/25 27/27/27 26/26/26
f 25/25/25 28/28/28 27/27/27
f 29/29/29 31/31/31 30/30/30
f 29/29/29 32/32/32 31/31/31
f 33/33/33 35/35/35 34/34/34
f 33/33/33 36/36/36 35/35/35
f 37/37/37 39/39/39 38/38/38
f 37/37/37 40/40/40 39/39/39
f 41/41/41 43/43/43 42/42/42
f 41/41/41 44/44/44 43/43/43
f 45/45/45 47/47/47 46/46/46
f 45/45/45 48/48/48 47/47/47
