#road_sign_(37)_504_74.obj

v 0.1323974 -0.1616122 -0.09268734
v -0.1323974 -0.1616122 0.09268732
v -0.1323974 0.1616124 0.09268734
v 0.1323974 0.1616124 -0.09268732
v 0.1319155 -0.1616122 -0.1253846
v 0.1319155 0.1616124 -0.1253846
v -0.1317807 0.1616124 -0.3123762
v -0.1317807 -0.1616121 -0.3123762
v 0.1323866 -0.1616122 1.460492
v -0.1324083 -0.1616122 1.645867
v -0.1324083 0.1616123 1.645867
v 0.1323866 0.1616123 1.460492
v 0.1319208 -0.1616122 1.427769
v 0.1319208 0.1616123 1.427769
v -0.1317915 0.1616123 1.240803
v -0.1317915 -0.1616122 1.240803
v 0.1323856 -0.1616125 3.102526
v -0.1323575 -0.1616125 3.287933
v -0.1323575 0.1616122 3.287933
v 0.1323856 0.1616123 3.102526
v 0.1319036 -0.1616125 3.069829
v 0.1319036 0.1616123 3.069829
v -0.1317408 0.1616123 2.882869
v -0.1317408 -0.1616125 2.882869
v 0.1324054 -0.1616126 4.701246
v -0.1323895 -0.1616126 4.886621
v -0.1323895 0.1616122 4.886621
v 0.1324054 0.1616122 4.701246
v 0.1318878 -0.1616126 4.66849
v 0.1318878 0.1616122 4.66849
v -0.1317727 0.1616122 4.481557
v -0.1317727 -0.1616126 4.481557
v 0.1324083 -0.1616127 6.308764
v -0.1323866 -0.1616127 6.494139
v -0.1323866 0.1616119 6.494139
v 0.1324083 0.1616119 6.308764
v 0.1318746 -0.1616127 6.276034
v 0.1318746 0.1616119 6.276034
v -0.1317698 0.1616119 6.089075
v -0.1317698 -0.1616127 6.089075
v 0.1323682 -0.1616127 7.913235
v -0.1323749 -0.1616127 8.098642
v -0.1323749 0.1616118 8.098642
v 0.1323682 0.1616118 7.913235
v 0.1319024 -0.1616127 7.880512
v 0.1319024 0.1616118 7.880512
v -0.1317581 0.1616118 7.693579
v -0.1317581 -0.1616127 7.693579

vn 0.9199219 0 0.3918457
vn 0.9199219 0 0.3918457
vn 0.9199219 0 0.3918457
vn 0.9199219 0 0.3918457
vn 0.05950928 0 -0.9980469
vn 0.05950928 0 -0.9980469
vn 0.05950928 0 -0.9980469
vn 0.05950928 0 -0.9980469
vn 0.9199219 0 0.3918457
vn 0.9199219 0 0.3918457
vn 0.9199219 0 0.3918457
vn 0.9199219 0 0.3918457
vn 0.05950928 1.192093E-07 -0.9980469
vn 0.05950928 1.192093E-07 -0.9980469
vn 0.05950928 1.192093E-07 -0.9980469
vn 0.05950928 1.192093E-07 -0.9980469
vn 0.9199219 0 0.3918457
vn 0.9199219 0 0.3918457
vn 0.9199219 0 0.3918457
vn 0.9199219 0 0.3918457
vn 0.05950928 0 -0.9980469
vn 0.05950928 0 -0.9980469
vn 0.05950928 0 -0.9980469
vn 0.05950928 0 -0.9980469
vn 0.9199219 0 0.3918457
vn 0.9199219 0 0.3918457
vn 0.9199219 0 0.3918457
vn 0.9199219 0 0.3918457
vn 0.05950928 0 -0.9980469
vn 0.05950928 0 -0.9980469
vn 0.05950928 0 -0.9980469
vn 0.05950928 0 -0.9980469
vn 0.9199219 0 0.3918457
vn 0.9199219 0 0.3918457
vn 0.9199219 0 0.3918457
vn 0.9199219 0 0.3918457
vn 0.05950928 0 -0.9980469
vn 0.05950928 0 -0.9980469
vn 0.05950928 0 -0.9980469
vn 0.05950928 0 -0.9980469
vn 0.9199219 0 0.3918457
vn 0.9199219 0 0.3918457
vn 0.9199219 0 0.3918457
vn 0.9199219 0 0.3918457
vn 0.05950928 0 -0.9980469
vn 0.05950928 0 -0.9980469
vn 0.05950928 0 -0.9980469
vn 0.05950928 0 -0.9980469

vt 0.9990234 0.9990234
vt 0.9990234 0.0004997253
vt 0.0004997253 0.0004992485
vt 0.0004992485 0.9990234
vt 0.0004997253 0.9990234
vt 0.9990234 0.9990234
vt 0.9990234 0.0004992485
vt 0.0004992485 0.0004992485
vt 0.9990234 0.9990234
vt 0.9990234 0.0004997253
vt 0.0004997253 0.0004992485
vt 0.0004992485 0.9990234
vt 0.0004997253 0.9990234
vt 0.9990234 0.9990234
vt 0.9990234 0.0004992485
vt 0.0004992485 0.0004992485
vt 0.9990234 0.9990234
vt 0.9990234 0.0004997253
vt 0.0004997253 0.0004992485
vt 0.0004992485 0.9990234
vt 0.0004997253 0.9990234
vt 0.9990234 0.9990234
vt 0.9990234 0.0004992485
vt 0.0004992485 0.0004992485
vt 0.9990234 0.9990234
vt 0.9990234 0.0004997253
vt 0.0004997253 0.0004992485
vt 0.0004992485 0.9990234
vt 0.0004997253 0.9990234
vt 0.9990234 0.9990234
vt 0.9990234 0.0004992485
vt 0.0004992485 0.0004992485
vt 0.9990234 0.9990234
vt 0.9990234 0.0004997253
vt 0.0004997253 0.0004992485
vt 0.0004992485 0.9990234
vt 0.0004997253 0.9990234
vt 0.9990234 0.9990234
vt 0.9990234 0.0004992485
vt 0.0004992485 0.0004992485
vt 0.9990234 0.9990234
vt 0.9990234 0.0004997253
vt 0.0004997253 0.0004992485
vt 0.0004992485 0.9990234
vt 0.0004997253 0.9990234
vt 0.9990234 0.9990234
vt 0.9990234 0.0004992485
vt 0.0004992485 0.0004992485

g road_sign_(37)_504_74
usemtl road_sign_(37)_504_74
usemap road_sign_(37)_504_74
f 1/1/1 3/3/3 2/2/2
f 1/1/1 4/4/4 3/3/3
f 5/5/5 7/7/7 6/6/6
f 5/5/5 8/8/8 7/7/7
f 9/9/9 11/11/11 10/10/10
f 9/9/9 12/12/12 11/11/11
f 13/13/13 15/15/15 14/14/14
f 13/13/13 16/16/16 15/15/15
f 17/17/17 19/19/19 18/18/18
f 17/17/17 20/20/20 19/19/19
f 21/21/21 23/23/23 22/22/22
f 21/21/21 24/24/24 23/23/23
f 25/25/25 27/27/27 26/26/26
f 25/25/25 28/28/28 27/27/27
f 29/29/29 31/31/31 30/30/30
f 29/29/29 32/32/32 31/31/31
f 33/33/33 35/35/35 34/34/34
f 33/33/33 36/36/36 35/35/35
f 37/37/37 39/39/39 38/38/38
f 37/37/37 40/40/40 39/39/39
f 41/41/41 43/43/43 42/42/42
f 41/41/41 44/44/44 43/43/43
f 45/45/45 47/47/47 46/46/46
f 45/45/45 48/48/48 47/47/47
