#road_sign_(33)_446_20.obj

v 0.1323935 -0.1616123 -0.09270234
v -0.1324051 -0.1616123 0.09273443
v -0.1324051 0.1616123 0.09273443
v 0.1323935 0.1616123 -0.09270234
v 0.1318961 -0.1616123 -0.1253968
v 0.1318961 0.1616123 -0.1253968
v -0.1317862 0.1616123 -0.3123386
v -0.1317862 -0.1616123 -0.3123386
v 0.1323559 -0.1616123 1.460497
v -0.1323984 -0.1616125 1.645892
v -0.1323984 0.1616123 1.645892
v 0.1323559 0.1616123 1.460497
v 0.1319027 -0.1616123 1.427761
v 0.1319027 0.1616123 1.427761
v -0.1317795 0.1616123 1.240819
v -0.1317795 -0.1616125 1.240819
v 0.1323642 -0.1616125 3.102548
v -0.1323901 -0.1616125 3.287942
v -0.1323901 0.161612 3.287942
v 0.1323642 0.161612 3.102548
v 0.1319111 -0.1616125 3.069811
v 0.1319111 0.161612 3.069811
v -0.1317712 0.161612 2.882869
v -0.1317712 -0.1616125 2.882869
v 0.132365 -0.1616126 4.701252
v -0.1323893 -0.1616125 4.886647
v -0.1323893 0.161612 4.886647
v 0.132365 0.161612 4.701252
v 0.1319119 -0.1616126 4.668516
v 0.1319119 0.161612 4.668516
v -0.1317704 0.161612 4.481574
v -0.1317704 -0.1616125 4.481574
v 0.1323983 -0.1616128 6.308765
v -0.1323771 -0.1616128 6.494138
v -0.1323771 0.1616118 6.494138
v 0.1323983 0.1616117 6.308765
v 0.1318799 -0.1616128 6.276049
v 0.1318799 0.1616117 6.276049
v -0.1318024 0.1616118 6.089107
v -0.1318024 -0.1616128 6.089107
v 0.1324019 -0.1616128 7.913234
v -0.1323967 -0.161613 8.09867
v -0.1323967 0.1616117 8.09867
v 0.1324019 0.1616117 7.913234
v 0.1319045 -0.1616128 7.880539
v 0.1319045 0.1616117 7.880539
v -0.1317777 0.1616117 7.693597
v -0.1317778 -0.1616128 7.693597

vn -0.1481934 0 0.9887695
vn -0.1481934 0 0.9887695
vn -0.1481934 0 0.9887695
vn -0.1481934 0 0.9887695
vn 0.980957 0 -0.1929932
vn 0.980957 0 -0.1929932
vn 0.980957 0 -0.1929932
vn 0.980957 0 -0.1929932
vn -0.1481934 0 0.9887695
vn -0.1481934 0 0.9887695
vn -0.1481934 0 0.9887695
vn -0.1481934 0 0.9887695
vn 0.980957 1.192093E-07 -0.1929932
vn 0.980957 1.192093E-07 -0.1929932
vn 0.980957 1.192093E-07 -0.1929932
vn 0.980957 1.192093E-07 -0.1929932
vn -0.1481934 0 0.9887695
vn -0.1481934 0 0.9887695
vn -0.1481934 0 0.9887695
vn -0.1481934 0 0.9887695
vn 0.980957 0 -0.1929932
vn 0.980957 0 -0.1929932
vn 0.980957 0 -0.1929932
vn 0.980957 0 -0.1929932
vn -0.1481934 0 0.9887695
vn -0.1481934 0 0.9887695
vn -0.1481934 0 0.9887695
vn -0.1481934 0 0.9887695
vn 0.980957 0 -0.1929932
vn 0.980957 0 -0.1929932
vn 0.980957 0 -0.1929932
vn 0.980957 0 -0.1929932
vn -0.1481934 0 0.9887695
vn -0.1481934 0 0.9887695
vn -0.1481934 0 0.9887695
vn -0.1481934 0 0.9887695
vn 0.980957 0 -0.1929932
vn 0.980957 0 -0.1929932
vn 0.980957 0 -0.1929932
vn 0.980957 0 -0.1929932
vn -0.1481934 0 0.9887695
vn -0.1481934 0 0.9887695
vn -0.1481934 0 0.9887695
vn -0.1481934 0 0.9887695
vn 0.980957 0 -0.1929932
vn 0.980957 0 -0.1929932
vn 0.980957 0 -0.1929932
vn 0.980957 0 -0.1929932

vt 0.9990234 0.9990234
vt 0.9990234 0.0004997253
vt 0.0004997253 0.0004992485
vt 0.0004992485 0.9990234
vt 0.0004997253 0.9990234
vt 0.9990234 0.9990234
vt 0.9990234 0.0004992485
vt 0.0004992485 0.0004992485
vt 0.9990234 0.9990234
vt 0.9990234 0.0004997253
vt 0.0004997253 0.0004992485
vt 0.0004992485 0.9990234
vt 0.0004997253 0.9990234
vt 0.9990234 0.9990234
vt 0.9990234 0.0004992485
vt 0.0004992485 0.0004992485
vt 0.9990234 0.9990234
vt 0.9990234 0.0004997253
vt 0.0004997253 0.0004992485
vt 0.0004992485 0.9990234
vt 0.0004997253 0.9990234
vt 0.9990234 0.9990234
vt 0.9990234 0.0004992485
vt 0.0004992485 0.0004992485
vt 0.9990234 0.9990234
vt 0.9990234 0.0004997253
vt 0.0004997253 0.0004992485
vt 0.0004992485 0.9990234
vt 0.0004997253 0.9990234
vt 0.9990234 0.9990234
vt 0.9990234 0.0004992485
vt 0.0004992485 0.0004992485
vt 0.9990234 0.9990234
vt 0.9990234 0.0004997253
vt 0.0004997253 0.0004992485
vt 0.0004992485 0.9990234
vt 0.0004997253 0.9990234
vt 0.9990234 0.9990234
vt 0.9990234 0.0004992485
vt 0.0004992485 0.0004992485
vt 0.9990234 0.9990234
vt 0.9990234 0.0004997253
vt 0.0004997253 0.0004992485
vt 0.0004992485 0.9990234
vt 0.0004997253 0.9990234
vt 0.9990234 0.9990234
vt 0.9990234 0.0004992485
vt 0.0004992485 0.0004992485

g road_sign_(33)_446_20
usemtl road_sign_(33)_446_20
usemap road_sign_(33)_446_20
f 1/1/1 3/3/3 2/2/2
f 1/1/1 4/4/4 3/3/3
f 5/5/5 7/7/7 6/6/6
f 5/5/5 8/8/8 7/7/7
f 9/9/9 11/11/11 10/10/10
f 9/9/9 12/12/12 11/11/11
f 13/13/13 15/15/15 14/14/14
f 13/13/13 16/16/16 15/15/15
f 17/17/17 19/19/19 18/18/18
f 17/17/17 20/20/20 19/19/19
f 21/21/21 23/23/23 22/22/22
f 21/21/21 24/24/24 23/23/23
f 25/25/25 27/27/27 26/26/26
f 25/25/25 28/28/28 27/27/27
f 29/29/29 31/31/31 30/30/30
f 29/29/29 32/32/32 31/31/31
f 33/33/33 35/35/35 34/34/34
f 33/33/33 36/36/36 35/35/35
f 37/37/37 39/39/39 38/38/38
f 37/37/37 40/40/40 39/39/39
f 41/41/41 43/43/43 42/42/42
f 41/41/41 44/44/44 43/43/43
f 45/45/45 47/47/47 46/46/46
f 45/45/45 48/48/48 47/47/47
