#road_sign_(7)_445_16.obj

v 0.1323859 -0.1616123 -0.09271127
v -0.1323859 -0.1616123 0.09271126
v -0.1323859 0.1616123 0.09271127
v 0.1323859 0.1616123 -0.09271126
v 0.1318932 -0.1616123 -0.125397
v 0.1318932 0.1616123 -0.125397
v -0.1317728 0.1616123 -0.312373
v -0.1317728 -0.1616124 -0.312373
v 0.1323936 -0.1616124 1.46047
v -0.1323957 -0.1616124 1.645868
v -0.1323957 0.1616123 1.645868
v 0.1323936 0.1616122 1.46047
v 0.1319009 -0.1616124 1.427785
v 0.1319009 0.1616122 1.427785
v -0.131765 0.1616123 1.240809
v -0.131765 -0.1616124 1.240808
v 0.1323988 -0.1616126 3.102533
v -0.1323905 -0.1616127 3.28793
v -0.1323905 0.161612 3.28793
v 0.1323988 0.161612 3.102533
v 0.1318886 -0.1616126 3.069822
v 0.1318886 0.161612 3.069822
v -0.1317598 0.161612 2.882871
v -0.1317599 -0.1616126 2.882871
v 0.132384 -0.1616126 4.701214
v -0.1323803 -0.1616127 4.886594
v -0.1323803 0.161612 4.886594
v 0.132384 0.161612 4.701214
v 0.1319163 -0.1616126 4.66851
v 0.1319163 0.161612 4.66851
v -0.1317746 0.161612 4.481552
v -0.1317747 -0.1616127 4.481552
v 0.1323944 -0.1616129 6.30875
v -0.1323949 -0.1616128 6.494147
v -0.1323949 0.1616117 6.494147
v 0.1323944 0.1616119 6.30875
v 0.1319091 -0.1616129 6.276021
v 0.1319091 0.1616119 6.276021
v -0.1317643 0.1616117 6.089088
v -0.1317643 -0.1616128 6.089088
v 0.1323913 -0.1616129 7.913239
v -0.132398 -0.161613 8.098636
v -0.132398 0.1616117 8.098636
v 0.1323913 0.1616117 7.913239
v 0.131906 -0.1616129 7.88051
v 0.131906 0.1616117 7.88051
v -0.1317674 0.1616117 7.693577
v -0.1317674 -0.1616129 7.693577

vn -0.001012802 0 0.9995117
vn -0.001012802 0 0.9995117
vn -0.001012802 0 0.9995117
vn -0.001012802 0 0.9995117
vn 0.9418945 0 -0.3354492
vn 0.9418945 0 -0.3354492
vn 0.9418945 0 -0.3354492
vn 0.9418945 0 -0.3354492
vn -0.001013756 0 0.9995117
vn -0.001013756 0 0.9995117
vn -0.001013756 0 0.9995117
vn -0.001013756 0 0.9995117
vn 0.9418945 1.192093E-07 -0.3354492
vn 0.9418945 1.192093E-07 -0.3354492
vn 0.9418945 1.192093E-07 -0.3354492
vn 0.9418945 1.192093E-07 -0.3354492
vn -0.001012802 0 0.9995117
vn -0.001012802 0 0.9995117
vn -0.001012802 0 0.9995117
vn -0.001012802 0 0.9995117
vn 0.9418945 0 -0.3354492
vn 0.9418945 0 -0.3354492
vn 0.9418945 0 -0.3354492
vn 0.9418945 0 -0.3354492
vn -0.001012802 0 0.9995117
vn -0.001012802 0 0.9995117
vn -0.001012802 0 0.9995117
vn -0.001012802 0 0.9995117
vn 0.9418945 0 -0.3354492
vn 0.9418945 0 -0.3354492
vn 0.9418945 0 -0.3354492
vn 0.9418945 0 -0.3354492
vn -0.001013756 0 0.9995117
vn -0.001013756 0 0.9995117
vn -0.001013756 0 0.9995117
vn -0.001013756 0 0.9995117
vn 0.9418945 0 -0.3354492
vn 0.9418945 0 -0.3354492
vn 0.9418945 0 -0.3354492
vn 0.9418945 0 -0.3354492
vn -0.001010895 0 0.9995117
vn -0.001010895 0 0.9995117
vn -0.001010895 0 0.9995117
vn -0.001010895 0 0.9995117
vn 0.9418945 0 -0.3354492
vn 0.9418945 0 -0.3354492
vn 0.9418945 0 -0.3354492
vn 0.9418945 0 -0.3354492

vt 0.9990234 0.9990234
vt 0.9990234 0.0004997253
vt 0.0004997253 0.0004992485
vt 0.0004992485 0.9990234
vt 0.0004997253 0.9990234
vt 0.9990234 0.9990234
vt 0.9990234 0.0004992485
vt 0.0004992485 0.0004992485
vt 0.9990234 0.9990234
vt 0.9990234 0.0004997253
vt 0.0004997253 0.0004992485
vt 0.0004992485 0.9990234
vt 0.0004997253 0.9990234
vt 0.9990234 0.9990234
vt 0.9990234 0.0004992485
vt 0.0004992485 0.0004992485
vt 0.9990234 0.9990234
vt 0.9990234 0.0004997253
vt 0.0004997253 0.0004992485
vt 0.0004992485 0.9990234
vt 0.0004997253 0.9990234
vt 0.9990234 0.9990234
vt 0.9990234 0.0004992485
vt 0.0004992485 0.0004992485
vt 0.9990234 0.9990234
vt 0.9990234 0.0004997253
vt 0.0004997253 0.0004992485
vt 0.0004992485 0.9990234
vt 0.0004997253 0.9990234
vt 0.9990234 0.9990234
vt 0.9990234 0.0004992485
vt 0.0004992485 0.0004992485
vt 0.9990234 0.9990234
vt 0.9990234 0.0004997253
vt 0.0004997253 0.0004992485
vt 0.0004992485 0.9990234
vt 0.0004997253 0.9990234
vt 0.9990234 0.9990234
vt 0.9990234 0.0004992485
vt 0.0004992485 0.0004992485
vt 0.9990234 0.9990234
vt 0.9990234 0.0004997253
vt 0.0004997253 0.0004992485
vt 0.0004992485 0.9990234
vt 0.0004997253 0.9990234
vt 0.9990234 0.9990234
vt 0.9990234 0.0004992485
vt 0.0004992485 0.0004992485

g road_sign_(7)_445_16
usemtl road_sign_(7)_445_16
usemap road_sign_(7)_445_16
f 1/1/1 3/3/3 2/2/2
f 1/1/1 4/4/4 3/3/3
f 5/5/5 7/7/7 6/6/6
f 5/5/5 8/8/8 7/7/7
f 9/9/9 11/11/11 10/10/10
f 9/9/9 12/12/12 11/11/11
f 13/13/13 15/15/15 14/14/14
f 13/13/13 16/16/16 15/15/15
f 17/17/17 19/19/19 18/18/18
f 17/17/17 20/20/20 19/19/19
f 21/21/21 23/23/23 22/22/22
f 21/21/21 24/24/24 23/23/23
f 25/25/25 27/27/27 26/26/26
f 25/25/25 28/28/28 27/27/27
f 29/29/29 31/31/31 30/30/30
f 29/29/29 32/32/32 31/31/31
f 33/33/33 35/35/35 34/34/34
f 33/33/33 36/36/36 35/35/35
f 37/37/37 39/39/39 38/38/38
f 37/37/37 40/40/40 39/39/39
f 41/41/41 43/43/43 42/42/42
f 41/41/41 44/44/44 43/43/43
f 45/45/45 47/47/47 46/46/46
f 45/45/45 48/48/48 47/47/47
