#road_sign_(15)_419_56.obj

v 0.132379 -0.1616123 -0.09269608
v -0.1323791 -0.1616123 0.09269609
v -0.132379 0.1616123 0.09269608
v 0.1323791 0.1616123 -0.09269609
v 0.1318926 -0.1616123 -0.1254206
v 0.1318926 0.1616123 -0.1254206
v -0.1317697 0.1616123 -0.3123544
v -0.1317697 -0.1616124 -0.3123544
v 0.1323945 -0.1616124 1.46047
v -0.1323636 -0.1616124 1.645863
v -0.1323636 0.1616123 1.645863
v 0.1323945 0.1616123 1.46047
v 0.1319081 -0.1616124 1.427746
v 0.1319081 0.1616123 1.427746
v -0.1317542 0.1616123 1.240812
v -0.1317542 -0.1616124 1.240812
v 0.1323752 -0.1616126 3.102548
v -0.132383 -0.1616126 3.287941
v -0.1323829 0.161612 3.287941
v 0.1323752 0.161612 3.102548
v 0.1318887 -0.1616126 3.069824
v 0.1318887 0.161612 3.069824
v -0.1317736 0.161612 2.88289
v -0.1317736 -0.1616126 2.88289
v 0.1323939 -0.1616126 4.701212
v -0.1323642 -0.1616126 4.886604
v -0.1323642 0.161612 4.886604
v 0.1323939 0.161612 4.701212
v 0.1319075 -0.1616126 4.668488
v 0.1319075 0.161612 4.668488
v -0.1317548 0.161612 4.481554
v -0.1317548 -0.1616126 4.481554
v 0.1324027 -0.1616129 6.308742
v -0.1323816 -0.1616128 6.494119
v -0.1323816 0.1616118 6.494119
v 0.1324028 0.1616118 6.308742
v 0.1319163 -0.1616129 6.276017
v 0.1319163 0.1616118 6.276017
v -0.1317722 0.1616118 6.089068
v -0.1317722 -0.1616128 6.089068
v 0.1324127 -0.1616129 7.91322
v -0.1324028 -0.161613 8.098649
v -0.1324028 0.1616116 8.098649
v 0.1324127 0.1616118 7.91322
v 0.1318951 -0.161613 7.880548
v 0.1318951 0.1616118 7.880548
v -0.1317623 0.1616118 7.693546
v -0.1317623 -0.161613 7.693546

vn -0.4116211 0 0.9111328
vn -0.4116211 0 0.9111328
vn -0.4116211 0 0.9111328
vn -0.4116211 0 0.9111328
vn 0.996582 0 0.08105469
vn 0.996582 0 0.08105469
vn 0.996582 0 0.08105469
vn 0.996582 0 0.08105469
vn -0.4116211 0 0.9111328
vn -0.4116211 0 0.9111328
vn -0.4116211 0 0.9111328
vn -0.4116211 0 0.9111328
vn 0.996582 1.788139E-07 0.08105469
vn 0.996582 1.788139E-07 0.08105469
vn 0.996582 1.788139E-07 0.08105469
vn 0.996582 1.788139E-07 0.08105469
vn -0.4116211 0 0.9111328
vn -0.4116211 0 0.9111328
vn -0.4116211 0 0.9111328
vn -0.4116211 0 0.9111328
vn 0.996582 0 0.08105469
vn 0.996582 0 0.08105469
vn 0.996582 0 0.08105469
vn 0.996582 0 0.08105469
vn -0.4116211 0 0.9111328
vn -0.4116211 0 0.9111328
vn -0.4116211 0 0.9111328
vn -0.4116211 0 0.9111328
vn 0.996582 0 0.08105469
vn 0.996582 0 0.08105469
vn 0.996582 0 0.08105469
vn 0.996582 0 0.08105469
vn -0.4116211 0 0.9111328
vn -0.4116211 0 0.9111328
vn -0.4116211 0 0.9111328
vn -0.4116211 0 0.9111328
vn 0.996582 0 0.08105469
vn 0.996582 0 0.08105469
vn 0.996582 0 0.08105469
vn 0.996582 0 0.08105469
vn -0.4116211 0 0.9111328
vn -0.4116211 0 0.9111328
vn -0.4116211 0 0.9111328
vn -0.4116211 0 0.9111328
vn 0.996582 0 0.08105469
vn 0.996582 0 0.08105469
vn 0.996582 0 0.08105469
vn 0.996582 0 0.08105469

vt 0.9990234 0.9990234
vt 0.9990234 0.0004997253
vt 0.0004997253 0.0004992485
vt 0.0004992485 0.9990234
vt 0.0004997253 0.9990234
vt 0.9990234 0.9990234
vt 0.9990234 0.0004992485
vt 0.0004992485 0.0004992485
vt 0.9990234 0.9990234
vt 0.9990234 0.0004997253
vt 0.0004997253 0.0004992485
vt 0.0004992485 0.9990234
vt 0.0004997253 0.9990234
vt 0.9990234 0.9990234
vt 0.9990234 0.0004992485
vt 0.0004992485 0.0004992485
vt 0.9990234 0.9990234
vt 0.9990234 0.0004997253
vt 0.0004997253 0.0004992485
vt 0.0004992485 0.9990234
vt 0.0004997253 0.9990234
vt 0.9990234 0.9990234
vt 0.9990234 0.0004992485
vt 0.0004992485 0.0004992485
vt 0.9990234 0.9990234
vt 0.9990234 0.0004997253
vt 0.0004997253 0.0004992485
vt 0.0004992485 0.9990234
vt 0.0004997253 0.9990234
vt 0.9990234 0.9990234
vt 0.9990234 0.0004992485
vt 0.0004992485 0.0004992485
vt 0.9990234 0.9990234
vt 0.9990234 0.0004997253
vt 0.0004997253 0.0004992485
vt 0.0004992485 0.9990234
vt 0.0004997253 0.9990234
vt 0.9990234 0.9990234
vt 0.9990234 0.0004992485
vt 0.0004992485 0.0004992485
vt 0.9990234 0.9990234
vt 0.9990234 0.0004997253
vt 0.0004997253 0.0004992485
vt 0.0004992485 0.9990234
vt 0.0004997253 0.9990234
vt 0.9990234 0.9990234
vt 0.9990234 0.0004992485
vt 0.0004992485 0.0004992485

g road_sign_(15)_419_56
usemtl road_sign_(15)_419_56
usemap road_sign_(15)_419_56
f 1/1/1 3/3/3 2/2/2
f 1/1/1 4/4/4 3/3/3
f 5/5/5 7/7/7 6/6/6
f 5/5/5 8/8/8 7/7/7
f 9/9/9 11/11/11 10/10/10
f 9/9/9 12/12/12 11/11/11
f 13/13/13 15/15/15 14/14/14
f 13/13/13 16/16/16 15/15/15
f 17/17/17 19/19/19 18/18/18
f 17/17/17 20/20/20 19/19/19
f 21/21/21 23/23/23 22/22/22
f 21/21/21 24/24/24 23/23/23
f 25/25/25 27/27/27 26/26/26
f 25/25/25 28/28/28 27/27/27
f 29/29/29 31/31/31 30/30/30
f 29/29/29 32/32/32 31/31/31
f 33/33/33 35/35/35 34/34/34
f 33/33/33 36/36/36 35/35/35
f 37/37/37 39/39/39 38/38/38
f 37/37/37 40/40/40 39/39/39
f 41/41/41 43/43/43 42/42/42
f 41/41/41 44/44/44 43/43/43
f 45/45/45 47/47/47 46/46/46
f 45/45/45 48/48/48 47/47/47
