#RockMesh_(12)_508_7.obj

v -0.5996677 1.027926 0.6660418
v -0.4145814 0.0225833 0.9076704
v -0.6953495 0.056846 0.7008282
v 0.5108957 0.9707227 0.6889858
v 0.05938311 0.1080393 0.9428794
v 0.4301409 0.1283131 0.996745
v 0.8326332 0.09134019 0.9512627
v 1.095956 0.473009 0.4644556
v 1.086567 0.005794678 0.5161225
v 1.123007 0.4020064 -0.09938619
v 0.8857536 0.02323232 -0.4175284
v 0.8451669 0.3583933 -0.7334197
v 0.252593 1.454433 0.6107038
v -0.5105389 1.483968 0.5994664
v -1.042757 1.14299 0.1017159
v 0.2593747 1.810366 0.4277571
v -0.525001 1.765599 0.4217664
v 0.8794603 1.276712 0.2237814
v 0.2593747 1.810366 0.4277571
v 0.1940285 1.935452 -0.02504128
v -0.6343926 1.863253 0.01674316
v -0.9117863 1.408764 -0.3522395
v -0.3730569 1.794978 -0.3773855
v -0.1060808 1.499965 -0.6605027
v 0.7384072 0.06826354 -0.7654965
v 0.4613212 0.03064339 -1.055715
v 0.2461964 0.4488132 -1.388333
v -0.6343926 1.863253 0.01674316
v -0.9585039 0.9276032 -0.5418618
v -0.9730346 0.03912223 0.008953307
v -0.6422241 0.3923619 -1.192509
v -0.4485397 1.058614 -1.065573
v -0.6422241 0.3923619 -1.192509
v -0.1060808 1.499965 -0.6605027
v 0.1746951 1.752989 -0.4332015
v 0.06712732 1.110208 -1.220006
v 0.4927891 1.047968 -1.089671
v 0.3126709 1.319414 -0.5415361
v 0.8794603 1.276712 0.2237814
v 0.1940285 1.935452 -0.02504128
v -0.1060808 1.499965 -0.6605027
v 0.8283923 0.716187 -0.4003053
v 0.2461964 0.4488132 -1.388333
v 0.2461964 0.4488132 -1.388333
v 0.2461964 0.4488132 -1.388333
v -0.6422241 0.3923619 -1.192509
v 0.1940285 1.935452 -0.02504128
v -0.6343926 1.863253 0.01674316
v 0.2593747 1.810366 0.4277571
v 0.8794603 1.276712 0.2237814
v -0.00923517 0.00120824 -1.210939
v 0.2461964 0.4488132 -1.388333
v -0.6422241 0.3923619 -1.192509
v -0.4862627 0.01436555 -1.108287
v -0.7504157 0.06921501 -0.7825222
v -0.6422241 0.3923619 -1.192509
v -0.8264288 0.03278426 -0.4001623
v -0.8529518 0.04576389 0.4841564

vn 0.3693848 0.03045654 0.9287109
vn 0.5629883 0.1087646 0.8188477
vn 0.06689453 -0.02183533 0.9970703
vn 0.8364258 0.2712402 0.4758301
vn 0.6318359 0.2753906 0.7241211
vn 0.7197266 0.263916 0.6411133
vn 0.96875 0.2128906 0.1234131
vn 0.9272461 0.2213135 -0.3015137
vn 0.6796875 -0.2758789 -0.6791992
vn 0.5029297 0.1478271 -0.8510742
vn 0.2229004 -0.3991699 -0.8891602
vn 0.1884766 0.08508301 -0.9780273
vn 0.8530273 0.2392578 0.4633789
vn 0.4775391 0.3305664 0.8139648
vn -0.3083496 0.2993164 0.902832
vn 0.6601563 0.6157227 0.4296875
vn 0.2824707 0.7568359 0.5883789
vn 0.8618164 0.5009766 -0.07733154
vn 0.6630859 0.6826172 0.3061523
vn 0.2709961 0.9550781 0.1168823
vn -0.03259277 0.9091797 0.4143066
vn -0.4824219 0.828125 0.284668
vn -0.1586914 0.9873047 0.006080627
vn -0.2094727 0.9609375 -0.1789551
vn 0.05734253 -0.2445068 -0.9677734
vn -0.2271729 -0.2670898 -0.9360352
vn -0.4008789 0.02618408 -0.9155273
vn -0.07208252 0.8613281 0.5024414
vn -0.824707 0.3310547 0.4577637
vn -0.7890625 -0.3122559 0.5283203
vn -0.9975586 -0.04470825 0.04382324
vn -0.565918 0.8232422 -0.02903748
vn -0.9970703 0.06964111 -0.02258301
vn -0.1292725 0.9746094 -0.182251
vn 0.05999756 0.9125977 -0.4035645
vn -0.2770996 0.9130859 -0.298584
vn 0.2320557 0.8188477 -0.5239258
vn 0.2539063 0.824707 -0.5048828
vn 0.4404297 0.7167969 -0.5400391
vn 0.2705078 0.9560547 -0.1115723
vn -0.06530762 0.9794922 -0.1896973
vn 0.4130859 0.6826172 -0.6020508
vn -0.2452393 0.07348633 -0.9663086
vn -0.5527344 0.2177734 -0.8041992
vn -0.7265625 0.2670898 -0.6323242
vn -0.9614258 0.1151733 -0.2479248
vn 0.2927246 0.9550781 0.0378418
vn -0.02009583 0.9472656 0.3195801
vn 0.6201172 0.7768555 0.1089478
vn 0.6625977 0.6601563 -0.3527832
vn -0.7402344 -0.2912598 -0.6054688
vn -0.6401367 0.2095947 -0.7387695
vn -0.9892578 0.06665039 -0.126709
vn -0.918457 -0.3371582 -0.2050781
vn -0.8295898 -0.5141602 0.2167969
vn -0.9384766 0.03155518 0.3430176
vn -0.5537109 -0.8310547 0.04962158
vn -0.2122803 -0.05410767 0.9755859

vt 0.7084961 0.5151367
vt 0.8901367 0.7167969
vt 0.9453125 0.5449219
vt 0.5097656 0.6689453
vt 0.7397461 0.847168
vt 0.5795898 0.9887695
vt 0.3432617 0.9414063
vt 0.2834473 0.6953125
vt 0.08410645 0.7133789
vt 0.2259521 0.5522461
vt 0.04736328 0.3920898
vt 0.2027588 0.3483887
vt 0.5556641 0.5498047
vt 0.6396484 0.5
vt 0.7080078 0.4018555
vt 0.5356445 0.5004883
vt 0.6088867 0.4606934
vt 0.4335938 0.5839844
vt 0.5356445 0.5004883
vt 0.5131836 0.4562988
vt 0.5888672 0.4177246
vt 0.612793 0.3544922
vt 0.550293 0.3903809
vt 0.5170898 0.3476563
vt 0.1226196 0.239624
vt 0.2320557 0.1107178
vt 0.3642578 0.1586914
vt 0.5888672 0.4177246
vt 0.6459961 0.2700195
vt 0.8481445 0.243042
vt 0.5791016 0.1367188
vt 0.5380859 0.2583008
vt 0.5791016 0.1367188
vt 0.5170898 0.3476563
vt 0.4907227 0.4150391
vt 0.451416 0.263916
vt 0.3930664 0.2988281
vt 0.4428711 0.3945313
vt 0.4335938 0.5839844
vt 0.5131836 0.4562988
vt 0.5170898 0.3476563
vt 0.2978516 0.4475098
vt 0.3642578 0.1586914
vt 0.3642578 0.1586914
vt 0.3642578 0.1586914
vt 0.5791016 0.1367188
vt 0.5131836 0.4562988
vt 0.5888672 0.4177246
vt 0.5356445 0.5004883
vt 0.4335938 0.5839844
vt 0.3740234 0.02548218
vt 0.3642578 0.1586914
vt 0.5791016 0.1367188
vt 0.5336914 0.01185608
vt 0.6782227 0.05108643
vt 0.5791016 0.1367188
vt 0.8095703 0.1120605
vt 0.9267578 0.3977051

g RockMesh_(12)_508_7
usemtl RockMesh_(12)_508_7
usemap RockMesh_(12)_508_7
f 1/1/1 3/3/3 2/2/2
f 4/4/4 1/1/1 2/2/2
f 5/5/5 4/4/4 2/2/2
f 6/6/6 4/4/4 5/5/5
f 7/7/7 4/4/4 6/6/6
f 8/8/8 4/4/4 7/7/7
f 7/7/7 9/9/9 8/8/8
f 8/8/8 9/9/9 10/10/10
f 9/9/9 11/11/11 10/10/10
f 10/10/10 11/11/11 12/12/12
f 13/13/13 1/1/1 4/4/4
f 1/1/1 13/13/13 14/14/14
f 1/1/1 14/14/14 15/15/15
f 13/13/13 16/16/16 14/14/14
f 14/14/14 16/16/16 17/17/17
f 15/15/15 14/14/14 17/17/17
f 4/4/4 18/18/18 13/13/13
f 4/4/4 8/8/8 18/18/18
f 13/13/13 18/18/18 19/19/19
f 19/19/19 20/20/20 17/17/17
f 17/17/17 20/20/20 21/21/21
f 15/15/15 21/21/21 22/22/22
f 22/22/22 21/21/21 23/23/23
f 23/23/23 24/24/24 22/22/22
f 11/11/11 25/25/25 12/12/12
f 25/25/25 26/26/26 12/12/12
f 12/12/12 26/26/26 27/27/27
f 17/17/17 28/28/28 15/15/15
f 29/29/29 15/15/15 22/22/22
f 15/15/15 29/29/29 30/30/30
f 30/30/30 29/29/29 31/31/31
f 32/32/32 29/29/29 22/22/22
f 29/29/29 32/32/32 33/33/33
f 22/22/22 34/34/34 32/32/32
f 35/35/35 34/34/34 23/23/23
f 32/32/32 34/34/34 36/36/36
f 36/36/36 34/34/34 37/37/37
f 38/38/38 34/34/34 35/35/35
f 35/35/35 39/39/39 38/38/38
f 40/40/40 39/39/39 35/35/35
f 37/37/37 41/41/41 38/38/38
f 38/38/38 42/42/42 37/37/37
f 39/39/39 42/42/42 38/38/38
f 42/42/42 12/12/12 37/37/37
f 37/37/37 12/12/12 43/43/43
f 44/44/44 36/36/36 37/37/37
f 36/36/36 45/45/45 32/32/32
f 32/32/32 45/45/45 46/46/46
f 42/42/42 10/10/10 12/12/12
f 10/10/10 42/42/42 39/39/39
f 23/23/23 47/47/47 35/35/35
f 48/48/48 47/47/47 23/23/23
f 49/49/49 50/50/50 47/47/47
f 8/8/8 10/10/10 50/50/50
f 26/26/26 51/51/51 44/44/44
f 52/52/52 51/51/51 53/53/53
f 53/53/53 51/51/51 54/54/54
f 55/55/55 33/33/33 54/54/54
f 56/56/56 55/55/55 30/30/30
f 30/30/30 55/55/55 57/57/57
f 15/15/15 30/30/30 58/58/58
f 58/58/58 1/1/1 15/15/15
f 3/3/3 1/1/1 58/58/58
