#RockMesh_(18)_577_31.obj

v -0.5996692 1.027928 0.6660397
v -0.4145814 0.02258243 0.9076663
v -0.6953471 0.05684597 0.7008291
v 0.5108902 0.9707241 0.6889871
v 0.05939004 0.1080383 0.9428815
v 0.4301426 0.1283148 0.9967493
v 0.8326265 0.0913395 0.9512613
v 1.095959 0.4730069 0.4644547
v 1.086566 0.005792319 0.516118
v 1.123003 0.4020095 -0.09938315
v 0.8857535 0.02323055 -0.4175281
v 0.8451626 0.358395 -0.7334149
v 0.2525882 1.454434 0.6107091
v -0.5105458 1.483969 0.5994647
v -1.042752 1.142987 0.1017129
v 0.259381 1.810365 0.4277603
v -0.5250005 1.765602 0.4217707
v 0.8794603 1.276711 0.2237788
v 0.259381 1.810365 0.4277603
v 0.1940212 1.935449 -0.02504152
v -0.6343938 1.863254 0.01674357
v -0.9117922 1.408762 -0.3522384
v -0.3730581 1.794978 -0.3773834
v -0.1060828 1.499966 -0.6605035
v 0.7384108 0.06826477 -0.7654951
v 0.461321 0.03064541 -1.055715
v 0.2461964 0.448814 -1.388333
v -0.6343938 1.863254 0.01674357
v -0.9585123 0.9276018 -0.5418618
v -0.9730323 0.03912361 0.008951177
v -0.6422325 0.3923632 -1.192509
v -0.4485388 1.058617 -1.065572
v -0.6422325 0.3923632 -1.192509
v -0.1060828 1.499966 -0.6605035
v 0.1746972 1.75299 -0.4332032
v 0.06712905 1.110208 -1.220005
v 0.4927899 1.047969 -1.089667
v 0.3126653 1.319415 -0.541537
v 0.8794603 1.276711 0.2237788
v 0.1940212 1.935449 -0.02504152
v -0.1060828 1.499966 -0.6605035
v 0.8283891 0.7161908 -0.4003007
v 0.2461964 0.448814 -1.388333
v 0.2461964 0.448814 -1.388333
v 0.2461964 0.448814 -1.388333
v -0.6422325 0.3923632 -1.192509
v 0.1940212 1.935449 -0.02504152
v -0.6343938 1.863254 0.01674357
v 0.259381 1.810365 0.4277603
v 0.8794603 1.276711 0.2237788
v -0.009230018 0.001210462 -1.210937
v 0.2461964 0.448814 -1.388333
v -0.6422325 0.3923632 -1.192509
v -0.4862624 0.01436619 -1.108291
v -0.7504128 0.06921353 -0.7825268
v -0.6422325 0.3923632 -1.192509
v -0.8264278 0.0327861 -0.4001602
v -0.8529459 0.04576345 0.4841537

vn -0.8388672 -0.07519531 0.5380859
vn -0.6987305 -0.03646851 0.7138672
vn -0.9624023 -0.08404541 0.2578125
vn -0.2961426 0.07104492 0.9521484
vn -0.6108398 0.07672119 0.7875977
vn -0.5009766 0.06573486 0.862793
vn 0.1081543 0.04101563 0.9931641
vn 0.5297852 0.07806396 0.8442383
vn 0.8081055 -0.1937256 0.5556641
vn 0.9467773 0.1021729 0.3039551
vn 0.9682617 -0.2310791 0.09082031
vn 0.9946289 0.09881592 -0.01496887
vn -0.2768555 0.04754639 0.9594727
vn -0.7524414 0.1256104 0.6459961
vn -0.9731445 0.164917 -0.15979
vn -0.3256836 0.3952637 0.8583984
vn -0.6811523 0.5878906 0.4355469
vn 0.3376465 0.2858887 0.8964844
vn -0.1696777 0.4816895 0.859375
vn -0.02105713 0.9506836 0.3085938
vn -0.559082 0.8261719 -0.06713867
vn -0.4265137 0.671875 -0.6049805
vn 0.003913879 0.9296875 -0.3676758
vn 0.2316895 0.8613281 -0.4511719
vn 0.9882813 -0.1015015 -0.1098633
vn 0.9130859 -0.09393311 -0.3962402
vn 0.8149414 0.1126709 -0.5678711
vn -0.6689453 0.737793 -0.08666992
vn -0.6181641 0.2558594 -0.7426758
vn -0.7373047 -0.1669922 -0.6542969
vn -0.2683105 0.06045532 -0.9609375
vn -0.06970215 0.6689453 -0.7397461
vn -0.1942139 0.1361084 -0.9711914
vn 0.2692871 0.8920898 -0.3615723
vn 0.59375 0.7905273 -0.1495361
vn 0.3410645 0.7802734 -0.5239258
vn 0.7485352 0.6611328 0.04852295
vn 0.7387695 0.668457 0.07971191
vn 0.7890625 0.5375977 0.2961426
vn 0.329834 0.9174805 0.2205811
vn 0.3059082 0.9082031 -0.2841797
vn 0.8271484 0.5039063 0.2469482
vn 0.894043 0.1307373 -0.4282227
vn 0.6699219 0.2376709 -0.7026367
vn 0.4672852 0.2731934 -0.840332
vn 0.03619385 0.1759033 -0.9833984
vn 0.1139526 0.9423828 0.3137207
vn -0.4277344 0.8994141 -0.08502197
vn 0.09265137 0.6191406 0.7792969
vn 0.6367188 0.4648438 0.6147461
vn 0.4614258 -0.08605957 -0.8828125
vn 0.5874023 0.2364502 -0.7734375
vn -0.09088135 0.1405029 -0.9858398
vn -0.01802063 -0.1297607 -0.9912109
vn -0.4853516 -0.3063965 -0.8183594
vn -0.5395508 0.08282471 -0.8374023
vn -0.3039551 -0.7021484 -0.6435547
vn -0.996582 -0.07714844 -0.01143646

vt 0.7084961 0.5151367
vt 0.8901367 0.7167969
vt 0.9453125 0.5449219
vt 0.5097656 0.6689453
vt 0.7397461 0.847168
vt 0.5795898 0.9887695
vt 0.3432617 0.9414063
vt 0.2834473 0.6953125
vt 0.08410645 0.7133789
vt 0.2259521 0.5522461
vt 0.04736328 0.3920898
vt 0.2027588 0.3483887
vt 0.5556641 0.5498047
vt 0.6396484 0.5
vt 0.7080078 0.4018555
vt 0.5356445 0.5004883
vt 0.6088867 0.4606934
vt 0.4335938 0.5839844
vt 0.5356445 0.5004883
vt 0.5131836 0.4562988
vt 0.5888672 0.4177246
vt 0.612793 0.3544922
vt 0.550293 0.3903809
vt 0.5170898 0.3476563
vt 0.1226196 0.239624
vt 0.2320557 0.1107178
vt 0.3642578 0.1586914
vt 0.5888672 0.4177246
vt 0.6459961 0.2700195
vt 0.8481445 0.243042
vt 0.5791016 0.1367188
vt 0.5380859 0.2583008
vt 0.5791016 0.1367188
vt 0.5170898 0.3476563
vt 0.4907227 0.4150391
vt 0.451416 0.263916
vt 0.3930664 0.2988281
vt 0.4428711 0.3945313
vt 0.4335938 0.5839844
vt 0.5131836 0.4562988
vt 0.5170898 0.3476563
vt 0.2978516 0.4475098
vt 0.3642578 0.1586914
vt 0.3642578 0.1586914
vt 0.3642578 0.1586914
vt 0.5791016 0.1367188
vt 0.5131836 0.4562988
vt 0.5888672 0.4177246
vt 0.5356445 0.5004883
vt 0.4335938 0.5839844
vt 0.3740234 0.02548218
vt 0.3642578 0.1586914
vt 0.5791016 0.1367188
vt 0.5336914 0.01185608
vt 0.6782227 0.05108643
vt 0.5791016 0.1367188
vt 0.8095703 0.1120605
vt 0.9267578 0.3977051

g RockMesh_(18)_577_31
usemtl RockMesh_(18)_577_31
usemap RockMesh_(18)_577_31
f 1/1/1 3/3/3 2/2/2
f 4/4/4 1/1/1 2/2/2
f 5/5/5 4/4/4 2/2/2
f 6/6/6 4/4/4 5/5/5
f 7/7/7 4/4/4 6/6/6
f 8/8/8 4/4/4 7/7/7
f 7/7/7 9/9/9 8/8/8
f 8/8/8 9/9/9 10/10/10
f 9/9/9 11/11/11 10/10/10
f 10/10/10 11/11/11 12/12/12
f 13/13/13 1/1/1 4/4/4
f 1/1/1 13/13/13 14/14/14
f 1/1/1 14/14/14 15/15/15
f 13/13/13 16/16/16 14/14/14
f 14/14/14 16/16/16 17/17/17
f 15/15/15 14/14/14 17/17/17
f 4/4/4 18/18/18 13/13/13
f 4/4/4 8/8/8 18/18/18
f 13/13/13 18/18/18 19/19/19
f 19/19/19 20/20/20 17/17/17
f 17/17/17 20/20/20 21/21/21
f 15/15/15 21/21/21 22/22/22
f 22/22/22 21/21/21 23/23/23
f 23/23/23 24/24/24 22/22/22
f 11/11/11 25/25/25 12/12/12
f 25/25/25 26/26/26 12/12/12
f 12/12/12 26/26/26 27/27/27
f 17/17/17 28/28/28 15/15/15
f 29/29/29 15/15/15 22/22/22
f 15/15/15 29/29/29 30/30/30
f 30/30/30 29/29/29 31/31/31
f 32/32/32 29/29/29 22/22/22
f 29/29/29 32/32/32 33/33/33
f 22/22/22 34/34/34 32/32/32
f 35/35/35 34/34/34 23/23/23
f 32/32/32 34/34/34 36/36/36
f 36/36/36 34/34/34 37/37/37
f 38/38/38 34/34/34 35/35/35
f 35/35/35 39/39/39 38/38/38
f 40/40/40 39/39/39 35/35/35
f 37/37/37 41/41/41 38/38/38
f 38/38/38 42/42/42 37/37/37
f 39/39/39 42/42/42 38/38/38
f 42/42/42 12/12/12 37/37/37
f 37/37/37 12/12/12 43/43/43
f 44/44/44 36/36/36 37/37/37
f 36/36/36 45/45/45 32/32/32
f 32/32/32 45/45/45 46/46/46
f 42/42/42 10/10/10 12/12/12
f 10/10/10 42/42/42 39/39/39
f 23/23/23 47/47/47 35/35/35
f 48/48/48 47/47/47 23/23/23
f 49/49/49 50/50/50 47/47/47
f 8/8/8 10/10/10 50/50/50
f 26/26/26 51/51/51 44/44/44
f 52/52/52 51/51/51 53/53/53
f 53/53/53 51/51/51 54/54/54
f 55/55/55 33/33/33 54/54/54
f 56/56/56 55/55/55 30/30/30
f 30/30/30 55/55/55 57/57/57
f 15/15/15 30/30/30 58/58/58
f 58/58/58 1/1/1 15/15/15
f 3/3/3 1/1/1 58/58/58
