#RockMesh_(22)_554_29.obj

v -0.5996665 1.027928 0.6660423
v -0.4145857 0.02258185 0.907665
v -0.6953509 0.05684557 0.7008284
v 0.5108974 0.9707241 0.6889868
v 0.05938943 0.1080384 0.9428821
v 0.4301453 0.1283173 0.9967481
v 0.83263 0.09133901 0.9512595
v 1.09596 0.473008 0.4644587
v 1.086559 0.005792046 0.516118
v 1.123012 0.4020097 -0.09938342
v 0.8857591 0.02323096 -0.4175275
v 0.8451684 0.3583947 -0.7334163
v 0.2525906 1.454435 0.6107053
v -0.510544 1.483968 0.5994615
v -1.042757 1.142988 0.1017156
v 0.2593822 1.810368 0.4277597
v -0.5249973 1.765602 0.4217706
v 0.8794594 1.276711 0.2237806
v 0.2593822 1.810368 0.4277597
v 0.1940278 1.935448 -0.0250425
v -0.634392 1.863254 0.01674395
v -0.9117913 1.40876 -0.352243
v -0.3730527 1.794981 -0.3773824
v -0.1060808 1.499965 -0.6605054
v 0.7384072 0.06826519 -0.7654934
v 0.4613229 0.03064525 -1.055716
v 0.2462001 0.4488148 -1.388331
v -0.634392 1.863254 0.01674395
v -0.9585027 0.9276018 -0.5418621
v -0.973037 0.03912383 0.008952505
v -0.6422311 0.3923622 -1.192513
v -0.4485441 1.058617 -1.065573
v -0.6422311 0.3923622 -1.192513
v -0.1060808 1.499965 -0.6605054
v 0.1746969 1.75299 -0.433201
v 0.06712481 1.110207 -1.220008
v 0.4927884 1.047969 -1.089668
v 0.3126722 1.319415 -0.5415362
v 0.8794594 1.276711 0.2237806
v 0.1940278 1.935448 -0.0250425
v -0.1060808 1.499965 -0.6605054
v 0.8283967 0.7161909 -0.4003012
v 0.2462001 0.4488148 -1.388331
v 0.2462001 0.4488148 -1.388331
v 0.2462001 0.4488148 -1.388331
v -0.6422311 0.3923622 -1.192513
v 0.1940278 1.935448 -0.0250425
v -0.634392 1.863254 0.01674395
v 0.2593822 1.810368 0.4277597
v 0.8794594 1.276711 0.2237806
v -0.009237903 0.001207558 -1.210937
v 0.2462001 0.4488148 -1.388331
v -0.6422311 0.3923622 -1.192513
v -0.4862636 0.01436715 -1.108288
v -0.7504206 0.06921384 -0.7825249
v -0.6422311 0.3923622 -1.192513
v -0.8264328 0.0327858 -0.4001607
v -0.8529527 0.04576327 0.4841541

vn -0.09698486 -0.07519531 0.9921875
vn 0.1278076 -0.03646851 0.9907227
vn -0.3935547 -0.08404541 0.9150391
vn 0.5639648 0.07104492 0.8222656
vn 0.2397461 0.07672119 0.9672852
vn 0.3669434 0.06573486 0.9277344
vn 0.8466797 0.04101563 0.5302734
vn 0.9907227 0.07806396 0.1071167
vn 0.9370117 -0.1937256 -0.2900391
vn 0.8251953 0.1021729 -0.5546875
vn 0.6708984 -0.2310791 -0.7041016
vn 0.6044922 0.09881592 -0.7900391
vn 0.581543 0.04754639 0.8115234
vn 0.04138184 0.1256104 0.9907227
vn -0.7280273 0.164917 0.6650391
vn 0.4724121 0.3952637 0.7875977
vn -0.08001709 0.5878906 0.8046875
vn 0.9130859 0.2858887 0.2900391
vn 0.5693359 0.4816895 0.6655273
vn 0.229248 0.9506836 0.2076416
vn -0.3989258 0.8261719 0.3972168
vn -0.7392578 0.671875 -0.03997803
vn -0.286377 0.9296875 -0.230835
vn -0.2106934 0.8613281 -0.4614258
vn 0.5258789 -0.1015015 -0.8442383
vn 0.2543945 -0.09393311 -0.9624023
vn 0.05892944 0.1126709 -0.9916992
vn -0.4824219 0.737793 0.4716797
vn -0.9663086 0.2558594 0.02508545
vn -0.9702148 -0.1669922 0.1734619
vn -0.9208984 0.06045532 -0.3845215
vn -0.6240234 0.6689453 -0.4033203
vn -0.8828125 0.1361084 -0.4489746
vn -0.1169434 0.8920898 -0.4355469
vn 0.2502441 0.7905273 -0.5585938
vn -0.2000732 0.7802734 -0.5922852
vn 0.5014648 0.6611328 -0.5576172
vn 0.5200195 0.668457 -0.5307617
vn 0.7211914 0.5375977 -0.4360352
vn 0.3774414 0.9174805 -0.1223145
vn -0.03363037 0.9082031 -0.4162598
vn 0.7060547 0.5039063 -0.496582
vn 0.2175293 0.1307373 -0.9667969
vn -0.1365967 0.2376709 -0.9614258
vn -0.3703613 0.2731934 -0.8876953
vn -0.7495117 0.1759033 -0.6376953
vn 0.3168945 0.9423828 0.1048584
vn -0.331543 0.8994141 0.282959
vn 0.6689453 0.6191406 0.4099121
vn 0.8769531 0.4648438 -0.1192017
vn -0.4072266 -0.08605957 -0.9091797
vn -0.2434082 0.2364502 -0.9404297
vn -0.8300781 0.1405029 -0.5390625
vn -0.7890625 -0.1297607 -0.5996094
vn -0.9433594 -0.3063965 -0.1258545
vn -0.9916992 0.08282471 -0.09533691
vn -0.6933594 -0.7021484 -0.15979
vn -0.6264648 -0.07714844 0.7753906

vt 0.7084961 0.5151367
vt 0.8901367 0.7167969
vt 0.9453125 0.5449219
vt 0.5097656 0.6689453
vt 0.7397461 0.847168
vt 0.5795898 0.9887695
vt 0.3432617 0.9414063
vt 0.2834473 0.6953125
vt 0.08410645 0.7133789
vt 0.2259521 0.5522461
vt 0.04736328 0.3920898
vt 0.2027588 0.3483887
vt 0.5556641 0.5498047
vt 0.6396484 0.5
vt 0.7080078 0.4018555
vt 0.5356445 0.5004883
vt 0.6088867 0.4606934
vt 0.4335938 0.5839844
vt 0.5356445 0.5004883
vt 0.5131836 0.4562988
vt 0.5888672 0.4177246
vt 0.612793 0.3544922
vt 0.550293 0.3903809
vt 0.5170898 0.3476563
vt 0.1226196 0.239624
vt 0.2320557 0.1107178
vt 0.3642578 0.1586914
vt 0.5888672 0.4177246
vt 0.6459961 0.2700195
vt 0.8481445 0.243042
vt 0.5791016 0.1367188
vt 0.5380859 0.2583008
vt 0.5791016 0.1367188
vt 0.5170898 0.3476563
vt 0.4907227 0.4150391
vt 0.451416 0.263916
vt 0.3930664 0.2988281
vt 0.4428711 0.3945313
vt 0.4335938 0.5839844
vt 0.5131836 0.4562988
vt 0.5170898 0.3476563
vt 0.2978516 0.4475098
vt 0.3642578 0.1586914
vt 0.3642578 0.1586914
vt 0.3642578 0.1586914
vt 0.5791016 0.1367188
vt 0.5131836 0.4562988
vt 0.5888672 0.4177246
vt 0.5356445 0.5004883
vt 0.4335938 0.5839844
vt 0.3740234 0.02548218
vt 0.3642578 0.1586914
vt 0.5791016 0.1367188
vt 0.5336914 0.01185608
vt 0.6782227 0.05108643
vt 0.5791016 0.1367188
vt 0.8095703 0.1120605
vt 0.9267578 0.3977051

g RockMesh_(22)_554_29
usemtl RockMesh_(22)_554_29
usemap RockMesh_(22)_554_29
f 1/1/1 3/3/3 2/2/2
f 4/4/4 1/1/1 2/2/2
f 5/5/5 4/4/4 2/2/2
f 6/6/6 4/4/4 5/5/5
f 7/7/7 4/4/4 6/6/6
f 8/8/8 4/4/4 7/7/7
f 7/7/7 9/9/9 8/8/8
f 8/8/8 9/9/9 10/10/10
f 9/9/9 11/11/11 10/10/10
f 10/10/10 11/11/11 12/12/12
f 13/13/13 1/1/1 4/4/4
f 1/1/1 13/13/13 14/14/14
f 1/1/1 14/14/14 15/15/15
f 13/13/13 16/16/16 14/14/14
f 14/14/14 16/16/16 17/17/17
f 15/15/15 14/14/14 17/17/17
f 4/4/4 18/18/18 13/13/13
f 4/4/4 8/8/8 18/18/18
f 13/13/13 18/18/18 19/19/19
f 19/19/19 20/20/20 17/17/17
f 17/17/17 20/20/20 21/21/21
f 15/15/15 21/21/21 22/22/22
f 22/22/22 21/21/21 23/23/23
f 23/23/23 24/24/24 22/22/22
f 11/11/11 25/25/25 12/12/12
f 25/25/25 26/26/26 12/12/12
f 12/12/12 26/26/26 27/27/27
f 17/17/17 28/28/28 15/15/15
f 29/29/29 15/15/15 22/22/22
f 15/15/15 29/29/29 30/30/30
f 30/30/30 29/29/29 31/31/31
f 32/32/32 29/29/29 22/22/22
f 29/29/29 32/32/32 33/33/33
f 22/22/22 34/34/34 32/32/32
f 35/35/35 34/34/34 23/23/23
f 32/32/32 34/34/34 36/36/36
f 36/36/36 34/34/34 37/37/37
f 38/38/38 34/34/34 35/35/35
f 35/35/35 39/39/39 38/38/38
f 40/40/40 39/39/39 35/35/35
f 37/37/37 41/41/41 38/38/38
f 38/38/38 42/42/42 37/37/37
f 39/39/39 42/42/42 38/38/38
f 42/42/42 12/12/12 37/37/37
f 37/37/37 12/12/12 43/43/43
f 44/44/44 36/36/36 37/37/37
f 36/36/36 45/45/45 32/32/32
f 32/32/32 45/45/45 46/46/46
f 42/42/42 10/10/10 12/12/12
f 10/10/10 42/42/42 39/39/39
f 23/23/23 47/47/47 35/35/35
f 48/48/48 47/47/47 23/23/23
f 49/49/49 50/50/50 47/47/47
f 8/8/8 10/10/10 50/50/50
f 26/26/26 51/51/51 44/44/44
f 52/52/52 51/51/51 53/53/53
f 53/53/53 51/51/51 54/54/54
f 55/55/55 33/33/33 54/54/54
f 56/56/56 55/55/55 30/30/30
f 30/30/30 55/55/55 57/57/57
f 15/15/15 30/30/30 58/58/58
f 58/58/58 1/1/1 15/15/15
f 3/3/3 1/1/1 58/58/58
