#RockMesh_(27)_490_24.obj

v -0.5996701 1.027928 0.6660422
v -0.4145834 0.02258312 0.9076674
v -0.6953444 0.05684977 0.7008293
v 0.510891 0.9707224 0.6889859
v 0.05938561 0.1080395 0.94288
v 0.4301416 0.128313 0.9967481
v 0.8326295 0.09133774 0.9512601
v 1.095953 0.4730071 0.4644577
v 1.086561 0.0057899 0.5161188
v 1.123009 0.4020105 -0.09938429
v 0.8857585 0.02323119 -0.4175293
v 0.8451684 0.3583963 -0.7334172
v 0.2525926 1.454435 0.6107069
v -0.5105424 1.483966 0.5994619
v -1.042758 1.142988 0.1017171
v 0.2593771 1.810366 0.4277589
v -0.5250019 1.765602 0.4217697
v 0.8794565 1.276708 0.2237793
v 0.2593771 1.810366 0.4277589
v 0.194023 1.935447 -0.02504475
v -0.6343943 1.863251 0.01674417
v -0.9117882 1.408761 -0.3522417
v -0.3730593 1.794979 -0.3773839
v -0.1060827 1.499964 -0.6605057
v 0.7384071 0.06826563 -0.7654942
v 0.4613206 0.03064291 -1.055717
v 0.2461972 0.4488125 -1.388331
v -0.6343943 1.863251 0.01674417
v -0.9585049 0.9276013 -0.5418638
v -0.9730339 0.03912639 0.008952114
v -0.6422266 0.3923616 -1.192512
v -0.448542 1.058617 -1.06557
v -0.6422266 0.3923616 -1.192512
v -0.1060827 1.499964 -0.6605057
v 0.1746937 1.752988 -0.4332016
v 0.0671274 1.110209 -1.220005
v 0.4927864 1.047968 -1.089667
v 0.3126684 1.319417 -0.5415385
v 0.8794565 1.276708 0.2237793
v 0.194023 1.935447 -0.02504475
v -0.1060827 1.499964 -0.6605057
v 0.8283888 0.7161891 -0.4003029
v 0.2461972 0.4488125 -1.388331
v 0.2461972 0.4488125 -1.388331
v 0.2461972 0.4488125 -1.388331
v -0.6422266 0.3923616 -1.192512
v 0.194023 1.935447 -0.02504475
v -0.6343943 1.863251 0.01674417
v 0.2593771 1.810366 0.4277589
v 0.8794565 1.276708 0.2237793
v -0.009232131 0.001210193 -1.210935
v 0.2461972 0.4488125 -1.388331
v -0.6422266 0.3923616 -1.192512
v -0.4862686 0.01436636 -1.10829
v -0.7504173 0.06921487 -0.7825239
v -0.6422266 0.3923616 -1.192512
v -0.8264302 0.03278331 -0.4001586
v -0.8529471 0.04576424 0.4841566

vn -0.3081055 0.6298828 0.7124023
vn -0.05374146 0.7109375 0.7006836
vn -0.6040039 0.5092773 0.6123047
vn 0.4257813 0.7431641 0.515625
vn 0.09301758 0.8232422 0.559082
vn 0.2205811 0.7958984 0.5629883
vn 0.7460938 0.5288086 0.4040527
vn 0.9443359 0.2980957 0.1364746
vn 0.9057617 -0.4140625 0.08807373
vn 0.9404297 -0.1437988 -0.3078613
vn 0.6557617 -0.7373047 -0.1591797
vn 0.7895508 -0.3557129 -0.4995117
vn 0.4465332 0.7138672 0.5385742
vn -0.08587646 0.8647461 0.4941406
vn -0.75 0.6352539 0.182373
vn 0.3261719 0.9257813 0.1906738
vn -0.03475952 0.9985352 0.03512573
vn 0.7685547 0.6347656 0.07550049
vn 0.4023438 0.9106445 0.09197998
vn 0.2440186 0.9248047 -0.2912598
vn -0.1417236 0.9570313 -0.2519531
vn -0.4213867 0.7670898 -0.4833984
vn 0.007144928 0.8344727 -0.550293
vn 0.07495117 0.7382813 -0.6699219
vn 0.6176758 -0.6953125 -0.3662109
vn 0.3771973 -0.7929688 -0.4775391
vn 0.2841797 -0.5795898 -0.7631836
vn -0.2270508 0.9521484 -0.2033691
vn -0.8930664 0.3305664 -0.3044434
vn -0.9672852 -0.2348633 0.09295654
vn -0.8598633 -0.2873535 -0.4211426
vn -0.3146973 0.6279297 -0.7114258
vn -0.8178711 -0.2115479 -0.5341797
vn 0.137085 0.7587891 -0.6362305
vn 0.4016113 0.652832 -0.6420898
vn 0.09130859 0.6435547 -0.7597656
vn 0.590332 0.5561523 -0.5844727
vn 0.5932617 0.5727539 -0.5649414
vn 0.7382813 0.5029297 -0.4487305
vn 0.3737793 0.8339844 -0.4050293
vn 0.1879883 0.769043 -0.6108398
vn 0.7573242 0.4423828 -0.4794922
vn 0.4560547 -0.5048828 -0.7324219
vn 0.1077271 -0.3730469 -0.9213867
vn -0.1679688 -0.2763672 -0.9458008
vn -0.6557617 -0.2832031 -0.6992188
vn 0.3037109 0.8969727 -0.3208008
vn -0.07470703 0.9477539 -0.3098145
vn 0.4848633 0.871582 -0.0715332
vn 0.777832 0.5849609 -0.2281494
vn -0.2629395 -0.8041992 -0.5322266
vn -0.02055359 -0.373291 -0.9272461
vn -0.7539063 -0.270752 -0.5976563
vn -0.6572266 -0.6669922 -0.3503418
vn -0.8217773 -0.5688477 0.0171051
vn -0.9643555 -0.04196167 -0.2595215
vn -0.5283203 -0.8242188 0.2015381
vn -0.7988281 0.376709 0.4680176

vt 0.7084961 0.5151367
vt 0.8901367 0.7167969
vt 0.9453125 0.5449219
vt 0.5097656 0.6689453
vt 0.7397461 0.847168
vt 0.5795898 0.9887695
vt 0.3432617 0.9414063
vt 0.2834473 0.6953125
vt 0.08410645 0.7133789
vt 0.2259521 0.5522461
vt 0.04736328 0.3920898
vt 0.2027588 0.3483887
vt 0.5556641 0.5498047
vt 0.6396484 0.5
vt 0.7080078 0.4018555
vt 0.5356445 0.5004883
vt 0.6088867 0.4606934
vt 0.4335938 0.5839844
vt 0.5356445 0.5004883
vt 0.5131836 0.4562988
vt 0.5888672 0.4177246
vt 0.612793 0.3544922
vt 0.550293 0.3903809
vt 0.5170898 0.3476563
vt 0.1226196 0.239624
vt 0.2320557 0.1107178
vt 0.3642578 0.1586914
vt 0.5888672 0.4177246
vt 0.6459961 0.2700195
vt 0.8481445 0.243042
vt 0.5791016 0.1367188
vt 0.5380859 0.2583008
vt 0.5791016 0.1367188
vt 0.5170898 0.3476563
vt 0.4907227 0.4150391
vt 0.451416 0.263916
vt 0.3930664 0.2988281
vt 0.4428711 0.3945313
vt 0.4335938 0.5839844
vt 0.5131836 0.4562988
vt 0.5170898 0.3476563
vt 0.2978516 0.4475098
vt 0.3642578 0.1586914
vt 0.3642578 0.1586914
vt 0.3642578 0.1586914
vt 0.5791016 0.1367188
vt 0.5131836 0.4562988
vt 0.5888672 0.4177246
vt 0.5356445 0.5004883
vt 0.4335938 0.5839844
vt 0.3740234 0.02548218
vt 0.3642578 0.1586914
vt 0.5791016 0.1367188
vt 0.5336914 0.01185608
vt 0.6782227 0.05108643
vt 0.5791016 0.1367188
vt 0.8095703 0.1120605
vt 0.9267578 0.3977051

g RockMesh_(27)_490_24
usemtl RockMesh_(27)_490_24
usemap RockMesh_(27)_490_24
f 1/1/1 3/3/3 2/2/2
f 4/4/4 1/1/1 2/2/2
f 5/5/5 4/4/4 2/2/2
f 6/6/6 4/4/4 5/5/5
f 7/7/7 4/4/4 6/6/6
f 8/8/8 4/4/4 7/7/7
f 7/7/7 9/9/9 8/8/8
f 8/8/8 9/9/9 10/10/10
f 9/9/9 11/11/11 10/10/10
f 10/10/10 11/11/11 12/12/12
f 13/13/13 1/1/1 4/4/4
f 1/1/1 13/13/13 14/14/14
f 1/1/1 14/14/14 15/15/15
f 13/13/13 16/16/16 14/14/14
f 14/14/14 16/16/16 17/17/17
f 15/15/15 14/14/14 17/17/17
f 4/4/4 18/18/18 13/13/13
f 4/4/4 8/8/8 18/18/18
f 13/13/13 18/18/18 19/19/19
f 19/19/19 20/20/20 17/17/17
f 17/17/17 20/20/20 21/21/21
f 15/15/15 21/21/21 22/22/22
f 22/22/22 21/21/21 23/23/23
f 23/23/23 24/24/24 22/22/22
f 11/11/11 25/25/25 12/12/12
f 25/25/25 26/26/26 12/12/12
f 12/12/12 26/26/26 27/27/27
f 17/17/17 28/28/28 15/15/15
f 29/29/29 15/15/15 22/22/22
f 15/15/15 29/29/29 30/30/30
f 30/30/30 29/29/29 31/31/31
f 32/32/32 29/29/29 22/22/22
f 29/29/29 32/32/32 33/33/33
f 22/22/22 34/34/34 32/32/32
f 35/35/35 34/34/34 23/23/23
f 32/32/32 34/34/34 36/36/36
f 36/36/36 34/34/34 37/37/37
f 38/38/38 34/34/34 35/35/35
f 35/35/35 39/39/39 38/38/38
f 40/40/40 39/39/39 35/35/35
f 37/37/37 41/41/41 38/38/38
f 38/38/38 42/42/42 37/37/37
f 39/39/39 42/42/42 38/38/38
f 42/42/42 12/12/12 37/37/37
f 37/37/37 12/12/12 43/43/43
f 44/44/44 36/36/36 37/37/37
f 36/36/36 45/45/45 32/32/32
f 32/32/32 45/45/45 46/46/46
f 42/42/42 10/10/10 12/12/12
f 10/10/10 42/42/42 39/39/39
f 23/23/23 47/47/47 35/35/35
f 48/48/48 47/47/47 23/23/23
f 49/49/49 50/50/50 47/47/47
f 8/8/8 10/10/10 50/50/50
f 26/26/26 51/51/51 44/44/44
f 52/52/52 51/51/51 53/53/53
f 53/53/53 51/51/51 54/54/54
f 55/55/55 33/33/33 54/54/54
f 56/56/56 55/55/55 30/30/30
f 30/30/30 55/55/55 57/57/57
f 15/15/15 30/30/30 58/58/58
f 58/58/58 1/1/1 15/15/15
f 3/3/3 1/1/1 58/58/58
