#RockMesh_(14)_449_16.obj

v -0.5996717 1.027927 0.6660398
v -0.4145807 0.02258255 0.907667
v -0.695349 0.05684634 0.7008311
v 0.5108899 0.9707246 0.6889887
v 0.05939051 0.1080379 0.9428801
v 0.4301465 0.1283142 0.9967468
v 0.8326277 0.09133922 0.95126
v 1.095959 0.4730078 0.4644574
v 1.086563 0.005792835 0.5161197
v 1.123006 0.402009 -0.09938607
v 0.8857598 0.02323081 -0.4175285
v 0.8451692 0.358395 -0.7334161
v 0.2525881 1.454434 0.6107096
v -0.5105373 1.483969 0.5994639
v -1.042758 1.142988 0.1017173
v 0.2593772 1.810368 0.4277601
v -0.5250002 1.765602 0.421772
v 0.8794582 1.276711 0.2237792
v 0.2593772 1.810368 0.4277601
v 0.1940258 1.935448 -0.02504295
v -0.6343977 1.863254 0.01674375
v -0.9117852 1.40876 -0.3522432
v -0.3730547 1.794981 -0.3773838
v -0.1060774 1.499966 -0.660504
v 0.7384055 0.06826556 -0.7654924
v 0.4613286 0.03064534 -1.055716
v 0.2461938 0.4488145 -1.388332
v -0.6343977 1.863254 0.01674375
v -0.958513 0.9276007 -0.5418646
v -0.9730384 0.03912446 0.008955266
v -0.642223 0.3923602 -1.192511
v -0.448542 1.058618 -1.065568
v -0.642223 0.3923602 -1.192511
v -0.1060774 1.499966 -0.660504
v 0.1746957 1.75299 -0.4332018
v 0.06713258 1.110207 -1.220007
v 0.4927933 1.04797 -1.089666
v 0.3126738 1.319415 -0.5415376
v 0.8794582 1.276711 0.2237792
v 0.1940258 1.935448 -0.02504295
v -0.1060774 1.499966 -0.660504
v 0.8283899 0.7161903 -0.4003032
v 0.2461938 0.4488145 -1.388332
v 0.2461938 0.4488145 -1.388332
v 0.2461938 0.4488145 -1.388332
v -0.642223 0.3923602 -1.192511
v 0.1940258 1.935448 -0.02504295
v -0.6343977 1.863254 0.01674375
v 0.2593772 1.810368 0.4277601
v 0.8794582 1.276711 0.2237792
v -0.009238412 0.001208688 -1.210933
v 0.2461938 0.4488145 -1.388332
v -0.642223 0.3923602 -1.192511
v -0.4862678 0.01436607 -1.108291
v -0.7504119 0.06921481 -0.7825223
v -0.642223 0.3923602 -1.192511
v -0.8264275 0.03278585 -0.4001608
v -0.8529499 0.04576329 0.4841542

vn -0.6518555 -0.07519531 0.7543945
vn -0.4672852 -0.03646851 0.8828125
vn -0.8496094 -0.08404541 0.5200195
vn -0.01376343 0.07104492 0.9970703
vn -0.3623047 0.07672119 0.9287109
vn -0.2354736 0.06573486 0.9692383
vn 0.385498 0.04101563 0.9213867
vn 0.7475586 0.07806396 0.6591797
vn 0.9326172 -0.1937256 0.3037109
vn 0.9941406 0.1021729 0.02287292
vn 0.9545898 -0.2310791 -0.1877441
vn 0.949707 0.09881592 -0.2966309
vn 0.006668091 0.04754639 0.9985352
vn -0.5380859 0.1256104 0.8330078
vn -0.9785156 0.164917 0.1229248
vn -0.06860352 0.3952637 0.9155273
vn -0.5297852 0.5878906 0.6108398
vn 0.578125 0.2858887 0.7636719
vn 0.08117676 0.4816895 0.8725586
vn 0.06738281 0.9506836 0.3017578
vn -0.5551758 0.8261719 0.09423828
vn -0.5805664 0.671875 -0.4592285
vn -0.100647 0.9296875 -0.3537598
vn 0.09411621 0.8613281 -0.4985352
vn 0.9165039 -0.1015015 -0.3859863
vn 0.7631836 -0.09393311 -0.6386719
vn 0.6201172 0.1126709 -0.7758789
vn -0.6660156 0.737793 0.1067505
vn -0.8037109 0.2558594 -0.5366211
vn -0.8925781 -0.1669922 -0.4182129
vn -0.5297852 0.06045532 -0.8452148
vn -0.2766113 0.6689453 -0.6894531
vn -0.4619141 0.1361084 -0.8759766
vn 0.1557617 0.8920898 -0.4230957
vn 0.5268555 0.7905273 -0.3117676
vn 0.1783447 0.7802734 -0.5991211
vn 0.7314453 0.6611328 -0.1658936
vn 0.7314453 0.668457 -0.1333008
vn 0.8408203 0.5375977 0.06008911
vn 0.3789063 0.9174805 0.1179199
vn 0.2127686 0.9082031 -0.359375
vn 0.8632813 0.5039063 0.001972198
vn 0.7353516 0.1307373 -0.6640625
vn 0.4431152 0.2376709 -0.8637695
vn 0.2094727 0.2731934 -0.9384766
vn -0.2443848 0.1759033 -0.953125
vn 0.1983643 0.9423828 0.2685547
vn -0.434082 0.8994141 0.03982544
vn 0.3100586 0.6191406 0.7211914
vn 0.7851563 0.4648438 0.4086914
vn 0.1918945 -0.08605957 -0.9775391
vn 0.34375 0.2364502 -0.9086914
vn -0.3669434 0.1405029 -0.9194336
vn -0.298584 -0.1297607 -0.9453125
vn -0.6977539 -0.3063965 -0.6469727
vn -0.7548828 0.08282471 -0.6499023
vn -0.4741211 -0.7021484 -0.5307617
vn -0.9589844 -0.07714844 0.2717285

vt 0.7084961 0.5151367
vt 0.8901367 0.7167969
vt 0.9453125 0.5449219
vt 0.5097656 0.6689453
vt 0.7397461 0.847168
vt 0.5795898 0.9887695
vt 0.3432617 0.9414063
vt 0.2834473 0.6953125
vt 0.08410645 0.7133789
vt 0.2259521 0.5522461
vt 0.04736328 0.3920898
vt 0.2027588 0.3483887
vt 0.5556641 0.5498047
vt 0.6396484 0.5
vt 0.7080078 0.4018555
vt 0.5356445 0.5004883
vt 0.6088867 0.4606934
vt 0.4335938 0.5839844
vt 0.5356445 0.5004883
vt 0.5131836 0.4562988
vt 0.5888672 0.4177246
vt 0.612793 0.3544922
vt 0.550293 0.3903809
vt 0.5170898 0.3476563
vt 0.1226196 0.239624
vt 0.2320557 0.1107178
vt 0.3642578 0.1586914
vt 0.5888672 0.4177246
vt 0.6459961 0.2700195
vt 0.8481445 0.243042
vt 0.5791016 0.1367188
vt 0.5380859 0.2583008
vt 0.5791016 0.1367188
vt 0.5170898 0.3476563
vt 0.4907227 0.4150391
vt 0.451416 0.263916
vt 0.3930664 0.2988281
vt 0.4428711 0.3945313
vt 0.4335938 0.5839844
vt 0.5131836 0.4562988
vt 0.5170898 0.3476563
vt 0.2978516 0.4475098
vt 0.3642578 0.1586914
vt 0.3642578 0.1586914
vt 0.3642578 0.1586914
vt 0.5791016 0.1367188
vt 0.5131836 0.4562988
vt 0.5888672 0.4177246
vt 0.5356445 0.5004883
vt 0.4335938 0.5839844
vt 0.3740234 0.02548218
vt 0.3642578 0.1586914
vt 0.5791016 0.1367188
vt 0.5336914 0.01185608
vt 0.6782227 0.05108643
vt 0.5791016 0.1367188
vt 0.8095703 0.1120605
vt 0.9267578 0.3977051

g RockMesh_(14)_449_16
usemtl RockMesh_(14)_449_16
usemap RockMesh_(14)_449_16
f 1/1/1 3/3/3 2/2/2
f 4/4/4 1/1/1 2/2/2
f 5/5/5 4/4/4 2/2/2
f 6/6/6 4/4/4 5/5/5
f 7/7/7 4/4/4 6/6/6
f 8/8/8 4/4/4 7/7/7
f 7/7/7 9/9/9 8/8/8
f 8/8/8 9/9/9 10/10/10
f 9/9/9 11/11/11 10/10/10
f 10/10/10 11/11/11 12/12/12
f 13/13/13 1/1/1 4/4/4
f 1/1/1 13/13/13 14/14/14
f 1/1/1 14/14/14 15/15/15
f 13/13/13 16/16/16 14/14/14
f 14/14/14 16/16/16 17/17/17
f 15/15/15 14/14/14 17/17/17
f 4/4/4 18/18/18 13/13/13
f 4/4/4 8/8/8 18/18/18
f 13/13/13 18/18/18 19/19/19
f 19/19/19 20/20/20 17/17/17
f 17/17/17 20/20/20 21/21/21
f 15/15/15 21/21/21 22/22/22
f 22/22/22 21/21/21 23/23/23
f 23/23/23 24/24/24 22/22/22
f 11/11/11 25/25/25 12/12/12
f 25/25/25 26/26/26 12/12/12
f 12/12/12 26/26/26 27/27/27
f 17/17/17 28/28/28 15/15/15
f 29/29/29 15/15/15 22/22/22
f 15/15/15 29/29/29 30/30/30
f 30/30/30 29/29/29 31/31/31
f 32/32/32 29/29/29 22/22/22
f 29/29/29 32/32/32 33/33/33
f 22/22/22 34/34/34 32/32/32
f 35/35/35 34/34/34 23/23/23
f 32/32/32 34/34/34 36/36/36
f 36/36/36 34/34/34 37/37/37
f 38/38/38 34/34/34 35/35/35
f 35/35/35 39/39/39 38/38/38
f 40/40/40 39/39/39 35/35/35
f 37/37/37 41/41/41 38/38/38
f 38/38/38 42/42/42 37/37/37
f 39/39/39 42/42/42 38/38/38
f 42/42/42 12/12/12 37/37/37
f 37/37/37 12/12/12 43/43/43
f 44/44/44 36/36/36 37/37/37
f 36/36/36 45/45/45 32/32/32
f 32/32/32 45/45/45 46/46/46
f 42/42/42 10/10/10 12/12/12
f 10/10/10 42/42/42 39/39/39
f 23/23/23 47/47/47 35/35/35
f 48/48/48 47/47/47 23/23/23
f 49/49/49 50/50/50 47/47/47
f 8/8/8 10/10/10 50/50/50
f 26/26/26 51/51/51 44/44/44
f 52/52/52 51/51/51 53/53/53
f 53/53/53 51/51/51 54/54/54
f 55/55/55 33/33/33 54/54/54
f 56/56/56 55/55/55 30/30/30
f 30/30/30 55/55/55 57/57/57
f 15/15/15 30/30/30 58/58/58
f 58/58/58 1/1/1 15/15/15
f 3/3/3 1/1/1 58/58/58
