#RockMesh_(25)_426_15.obj

v -0.5996713 1.027927 0.6660365
v -0.4145808 0.02258319 0.9076677
v -0.6953488 0.05684536 0.7008261
v 0.5108933 0.9707236 0.6889842
v 0.05938713 0.1080376 0.9428785
v 0.4301435 0.128314 0.9967455
v 0.8326313 0.09133988 0.9512615
v 1.095956 0.4730069 0.464455
v 1.086562 0.005791327 0.5161151
v 1.123007 0.4020088 -0.09938576
v 0.8857557 0.02323018 -0.4175288
v 0.8451678 0.3583951 -0.7334139
v 0.252591 1.454432 0.6107038
v -0.5105405 1.48397 0.5994647
v -1.042754 1.14299 0.1017201
v 0.2593805 1.810366 0.4277607
v -0.525 1.765601 0.4217667
v 0.8794569 1.276711 0.2237782
v 0.2593805 1.810366 0.4277607
v 0.1940239 1.935447 -0.02504777
v -0.6343941 1.863254 0.01674074
v -0.9117897 1.40876 -0.3522456
v -0.3730562 1.794978 -0.3773825
v -0.1060798 1.499966 -0.6605031
v 0.7384092 0.06826577 -0.7654904
v 0.4613246 0.03064611 -1.055711
v 0.2461956 0.4488136 -1.388333
v -0.6343941 1.863254 0.01674074
v -0.9585077 0.9276011 -0.5418647
v -0.9730381 0.03912292 0.00894899
v -0.6422278 0.3923628 -1.19251
v -0.4485396 1.058618 -1.06557
v -0.6422278 0.3923628 -1.19251
v -0.1060798 1.499966 -0.6605031
v 0.1746944 1.75299 -0.433204
v 0.06712764 1.110206 -1.22001
v 0.4927888 1.047969 -1.089668
v 0.3126698 1.319416 -0.5415345
v 0.8794569 1.276711 0.2237782
v 0.1940239 1.935447 -0.02504777
v -0.1060798 1.499966 -0.6605031
v 0.8283914 0.7161893 -0.4003054
v 0.2461956 0.4488136 -1.388333
v 0.2461956 0.4488136 -1.388333
v 0.2461956 0.4488136 -1.388333
v -0.6422278 0.3923628 -1.19251
v 0.1940239 1.935447 -0.02504777
v -0.6343941 1.863254 0.01674074
v 0.2593805 1.810366 0.4277607
v 0.8794569 1.276711 0.2237782
v -0.009233939 0.001210319 -1.210936
v 0.2461956 0.4488136 -1.388333
v -0.6422278 0.3923628 -1.19251
v -0.4862681 0.01436572 -1.108291
v -0.7504152 0.06921557 -0.7825191
v -0.6422278 0.3923628 -1.19251
v -0.8264266 0.0327877 -0.4001549
v -0.8529491 0.04576449 0.4841568

vn 0.6435547 -0.07519531 0.7612305
vn 0.7993164 -0.03646851 0.5991211
vn 0.3815918 -0.08404541 0.9204102
vn 0.9829102 0.07104492 0.1688232
vn 0.8608398 0.07672119 0.5024414
vn 0.9208984 0.06573486 0.3835449
vn 0.9702148 0.04101563 -0.2373047
vn 0.7675781 0.07806396 -0.6357422
vn 0.4453125 -0.1937256 -0.8740234
vn 0.1773682 0.1021729 -0.9785156
vn -0.0368042 -0.2310791 -0.972168
vn -0.1451416 0.09881592 -0.984375
vn 0.9873047 0.04754639 0.1489258
vn 0.7392578 0.1256104 0.6611328
vn -0.03091431 0.164917 0.9853516
vn 0.894043 0.3952637 0.2104492
vn 0.5209961 0.5878906 0.6181641
vn 0.8442383 0.2858887 -0.4521484
vn 0.8745117 0.4816895 0.05569458
vn 0.3085938 0.9506836 -0.01953125
vn 0.006668091 0.8261719 0.5629883
vn -0.5439453 0.671875 0.5019531
vn -0.3652344 0.9296875 0.04431152
vn -0.4777832 0.8613281 -0.1705322
vn -0.2384033 -0.1015015 -0.9658203
vn -0.512207 -0.09393311 -0.8535156
vn -0.6699219 0.1126709 -0.7333984
vn 0.001693726 0.737793 0.6748047
vn -0.6552734 0.2558594 0.7099609
vn -0.5517578 -0.1669922 0.8164063
vn -0.9174805 0.06045532 0.3918457
vn -0.7241211 0.6689453 0.1660156
vn -0.9375 0.1361084 0.3198242
vn -0.3937988 0.8920898 -0.2197266
vn -0.2260742 0.7905273 -0.5688477
vn -0.5639648 0.7802734 -0.2692871
vn -0.04992676 0.6611328 -0.7480469
vn -0.01779175 0.668457 -0.7431641
vn 0.1903076 0.5375977 -0.8212891
vn 0.1755371 0.9174805 -0.355957
vn -0.3217773 0.9082031 -0.2661133
vn 0.1363525 0.5039063 -0.8525391
vn -0.5415039 0.1307373 -0.8300781
vn -0.7841797 0.2376709 -0.5722656
vn -0.8945313 0.2731934 -0.3530273
vn -0.9799805 0.1759033 0.09295654
vn 0.2961426 0.9423828 -0.1540527
vn -0.02827454 0.8994141 0.4350586
vn 0.7602539 0.6191406 -0.1939697
vn 0.5258789 0.4648438 -0.7119141
vn -0.9355469 -0.08605957 -0.3417969
vn -0.84375 0.2364502 -0.4812012
vn -0.965332 0.1405029 0.2192383
vn -0.9799805 -0.1297607 0.1477051
vn -0.7480469 -0.3063965 0.5883789
vn -0.7597656 0.08282471 0.6445313
vn -0.5981445 -0.7021484 0.3857422
vn 0.1192017 -0.07714844 0.9897461

vt 0.7084961 0.5151367
vt 0.8901367 0.7167969
vt 0.9453125 0.5449219
vt 0.5097656 0.6689453
vt 0.7397461 0.847168
vt 0.5795898 0.9887695
vt 0.3432617 0.9414063
vt 0.2834473 0.6953125
vt 0.08410645 0.7133789
vt 0.2259521 0.5522461
vt 0.04736328 0.3920898
vt 0.2027588 0.3483887
vt 0.5556641 0.5498047
vt 0.6396484 0.5
vt 0.7080078 0.4018555
vt 0.5356445 0.5004883
vt 0.6088867 0.4606934
vt 0.4335938 0.5839844
vt 0.5356445 0.5004883
vt 0.5131836 0.4562988
vt 0.5888672 0.4177246
vt 0.612793 0.3544922
vt 0.550293 0.3903809
vt 0.5170898 0.3476563
vt 0.1226196 0.239624
vt 0.2320557 0.1107178
vt 0.3642578 0.1586914
vt 0.5888672 0.4177246
vt 0.6459961 0.2700195
vt 0.8481445 0.243042
vt 0.5791016 0.1367188
vt 0.5380859 0.2583008
vt 0.5791016 0.1367188
vt 0.5170898 0.3476563
vt 0.4907227 0.4150391
vt 0.451416 0.263916
vt 0.3930664 0.2988281
vt 0.4428711 0.3945313
vt 0.4335938 0.5839844
vt 0.5131836 0.4562988
vt 0.5170898 0.3476563
vt 0.2978516 0.4475098
vt 0.3642578 0.1586914
vt 0.3642578 0.1586914
vt 0.3642578 0.1586914
vt 0.5791016 0.1367188
vt 0.5131836 0.4562988
vt 0.5888672 0.4177246
vt 0.5356445 0.5004883
vt 0.4335938 0.5839844
vt 0.3740234 0.02548218
vt 0.3642578 0.1586914
vt 0.5791016 0.1367188
vt 0.5336914 0.01185608
vt 0.6782227 0.05108643
vt 0.5791016 0.1367188
vt 0.8095703 0.1120605
vt 0.9267578 0.3977051

g RockMesh_(25)_426_15
usemtl RockMesh_(25)_426_15
usemap RockMesh_(25)_426_15
f 1/1/1 3/3/3 2/2/2
f 4/4/4 1/1/1 2/2/2
f 5/5/5 4/4/4 2/2/2
f 6/6/6 4/4/4 5/5/5
f 7/7/7 4/4/4 6/6/6
f 8/8/8 4/4/4 7/7/7
f 7/7/7 9/9/9 8/8/8
f 8/8/8 9/9/9 10/10/10
f 9/9/9 11/11/11 10/10/10
f 10/10/10 11/11/11 12/12/12
f 13/13/13 1/1/1 4/4/4
f 1/1/1 13/13/13 14/14/14
f 1/1/1 14/14/14 15/15/15
f 13/13/13 16/16/16 14/14/14
f 14/14/14 16/16/16 17/17/17
f 15/15/15 14/14/14 17/17/17
f 4/4/4 18/18/18 13/13/13
f 4/4/4 8/8/8 18/18/18
f 13/13/13 18/18/18 19/19/19
f 19/19/19 20/20/20 17/17/17
f 17/17/17 20/20/20 21/21/21
f 15/15/15 21/21/21 22/22/22
f 22/22/22 21/21/21 23/23/23
f 23/23/23 24/24/24 22/22/22
f 11/11/11 25/25/25 12/12/12
f 25/25/25 26/26/26 12/12/12
f 12/12/12 26/26/26 27/27/27
f 17/17/17 28/28/28 15/15/15
f 29/29/29 15/15/15 22/22/22
f 15/15/15 29/29/29 30/30/30
f 30/30/30 29/29/29 31/31/31
f 32/32/32 29/29/29 22/22/22
f 29/29/29 32/32/32 33/33/33
f 22/22/22 34/34/34 32/32/32
f 35/35/35 34/34/34 23/23/23
f 32/32/32 34/34/34 36/36/36
f 36/36/36 34/34/34 37/37/37
f 38/38/38 34/34/34 35/35/35
f 35/35/35 39/39/39 38/38/38
f 40/40/40 39/39/39 35/35/35
f 37/37/37 41/41/41 38/38/38
f 38/38/38 42/42/42 37/37/37
f 39/39/39 42/42/42 38/38/38
f 42/42/42 12/12/12 37/37/37
f 37/37/37 12/12/12 43/43/43
f 44/44/44 36/36/36 37/37/37
f 36/36/36 45/45/45 32/32/32
f 32/32/32 45/45/45 46/46/46
f 42/42/42 10/10/10 12/12/12
f 10/10/10 42/42/42 39/39/39
f 23/23/23 47/47/47 35/35/35
f 48/48/48 47/47/47 23/23/23
f 49/49/49 50/50/50 47/47/47
f 8/8/8 10/10/10 50/50/50
f 26/26/26 51/51/51 44/44/44
f 52/52/52 51/51/51 53/53/53
f 53/53/53 51/51/51 54/54/54
f 55/55/55 33/33/33 54/54/54
f 56/56/56 55/55/55 30/30/30
f 30/30/30 55/55/55 57/57/57
f 15/15/15 30/30/30 58/58/58
f 58/58/58 1/1/1 15/15/15
f 3/3/3 1/1/1 58/58/58
