#start_gate_532_153.obj

v 5.069483 -5.707244 -1.293126
v 5.534781 -5.707244 -1.293137
v 5.534756 -5.707244 -1.953579
v 5.069511 -5.707244 -1.953598
v 5.069483 2.782737 -1.293126
v 5.069511 2.782737 -1.953598
v 5.534756 2.782737 -1.953579
v 5.534781 2.782737 -1.293137
v 5.069483 -5.707244 -1.293126
v 5.069483 2.782737 -1.293126
v 5.534781 2.782737 -1.293137
v 5.534781 -5.707244 -1.293137
v 5.534781 -5.707244 -1.293137
v 5.534781 2.782737 -1.293137
v 5.534756 2.782737 -1.953579
v 5.534756 -5.707244 -1.953579
v 5.534756 -5.707244 -1.953579
v 5.534756 2.782737 -1.953579
v 5.069511 2.782737 -1.953598
v 5.069511 -5.707244 -1.953598
v 5.069511 -5.707244 -1.953598
v 5.069511 2.782737 -1.953598
v 5.069483 2.782737 -1.293126
v 5.069483 -5.707244 -1.293126
v -21.99941 -5.707244 -1.293143
v -21.53416 -5.707244 -1.293125
v -21.53414 -5.707244 -1.953597
v -21.99944 -5.707244 -1.953586
v -21.99941 2.782737 -1.293143
v -21.99944 2.782737 -1.953586
v -21.53414 2.782737 -1.953597
v -21.53416 2.782737 -1.293125
v -21.99941 -5.707244 -1.293143
v -21.99941 2.782737 -1.293143
v -21.53416 2.782737 -1.293125
v -21.53416 -5.707244 -1.293125
v -21.53416 -5.707244 -1.293125
v -21.53416 2.782737 -1.293125
v -21.53414 2.782737 -1.953597
v -21.53414 -5.707244 -1.953597
v -21.53414 -5.707244 -1.953597
v -21.53414 2.782737 -1.953597
v -21.99944 2.782737 -1.953586
v -21.99944 -5.707244 -1.953586
v -21.99944 -5.707244 -1.953586
v -21.99944 2.782737 -1.953586
v -21.99941 2.782737 -1.293143
v -21.99941 -5.707244 -1.293143

vn 0 -1 0
vn 0 -1 0
vn 0 -1 0
vn 0 -1 0
vn 2.980232E-07 1 -5.364418E-07
vn 2.980232E-07 1 -5.364418E-07
vn 2.980232E-07 1 -5.364418E-07
vn 2.980232E-07 1 -5.364418E-07
vn -0.4943848 0 0.8691406
vn -0.4943848 0 0.8691406
vn -0.4943848 0 0.8691406
vn -0.4943848 0 0.8691406
vn 0.8691406 0 0.4943848
vn 0.8691406 0 0.4943848
vn 0.8691406 0 0.4943848
vn 0.8691406 0 0.4943848
vn 0.4943848 0 -0.8691406
vn 0.4943848 0 -0.8691406
vn 0.4943848 0 -0.8691406
vn 0.4943848 0 -0.8691406
vn -0.8691406 0 -0.4943848
vn -0.8691406 0 -0.4943848
vn -0.8691406 0 -0.4943848
vn -0.8691406 0 -0.4943848
vn 0 -1 0
vn 0 -1 0
vn 0 -1 0
vn 0 -1 0
vn 1.192093E-07 1 -2.384186E-07
vn 1.192093E-07 1 -2.384186E-07
vn 1.192093E-07 1 -2.384186E-07
vn 1.192093E-07 1 -2.384186E-07
vn -0.4943848 0 0.8691406
vn -0.4943848 0 0.8691406
vn -0.4943848 0 0.8691406
vn -0.4943848 0 0.8691406
vn 0.8691406 2.384186E-07 0.4943848
vn 0.8691406 2.384186E-07 0.4943848
vn 0.8691406 2.384186E-07 0.4943848
vn 0.8691406 2.384186E-07 0.4943848
vn 0.4943848 0 -0.8691406
vn 0.4943848 0 -0.8691406
vn 0.4943848 0 -0.8691406
vn 0.4943848 0 -0.8691406
vn -0.8691406 -2.384186E-07 -0.4943848
vn -0.8691406 -2.384186E-07 -0.4943848
vn -0.8691406 -2.384186E-07 -0.4943848
vn -0.8691406 -2.384186E-07 -0.4943848

vt 1 0
vt 0 0
vt 0 1
vt 1 1
vt 0 0
vt 0 1
vt 1 1
vt 1 0
vt 0 0
vt 0 1
vt 1 1
vt 1 0
vt 0 0
vt 0 1
vt 1 1
vt 1 0
vt 0 0
vt 0 1
vt 1 1
vt 1 0
vt 0 0
vt 0 1
vt 1 1
vt 1 0
vt 1 0
vt 0 0
vt 0 1
vt 1 1
vt 0 0
vt 0 1
vt 1 1
vt 1 0
vt 0 0
vt 0 1
vt 1 1
vt 1 0
vt 0 0
vt 0 1
vt 1 1
vt 1 0
vt 0 0
vt 0 1
vt 1 1
vt 1 0
vt 0 0
vt 0 1
vt 1 1
vt 1 0

g start_gate_532_153
usemtl start_gate_532_153
usemap start_gate_532_153
f 1/1/1 3/3/3 2/2/2
f 1/1/1 4/4/4 3/3/3
f 5/5/5 7/7/7 6/6/6
f 5/5/5 8/8/8 7/7/7
f 9/9/9 11/11/11 10/10/10
f 9/9/9 12/12/12 11/11/11
f 13/13/13 15/15/15 14/14/14
f 13/13/13 16/16/16 15/15/15
f 17/17/17 19/19/19 18/18/18
f 17/17/17 20/20/20 19/19/19
f 21/21/21 23/23/23 22/22/22
f 21/21/21 24/24/24 23/23/23
f 25/25/25 27/27/27 26/26/26
f 25/25/25 28/28/28 27/27/27
f 29/29/29 31/31/31 30/30/30
f 29/29/29 32/32/32 31/31/31
f 33/33/33 35/35/35 34/34/34
f 33/33/33 36/36/36 35/35/35
f 37/37/37 39/39/39 38/38/38
f 37/37/37 40/40/40 39/39/39
f 41/41/41 43/43/43 42/42/42
f 41/41/41 44/44/44 43/43/43
f 45/45/45 47/47/47 46/46/46
f 45/45/45 48/48/48 47/47/47
