#start_gate_532_152.obj

v -21.95502 0 -1.355201
v 5.494544 0 -1.355213
v 5.494541 0 -1.891582
v -21.95499 0 -1.891517
v -21.95502 2.750459 -1.355201
v -21.95499 2.750458 -1.891517
v 5.494541 2.750458 -1.891582
v 5.494544 2.750459 -1.355213
v -21.95502 0 -1.355201
v -21.95502 2.750459 -1.355201
v 5.494544 2.750459 -1.355213
v 5.494544 0 -1.355213
v 5.494544 0 -1.355213
v 5.494544 2.750459 -1.355213
v 5.494541 2.750458 -1.891582
v 5.494541 0 -1.891582
v 5.494541 0 -1.891582
v 5.494541 2.750458 -1.891582
v -21.95499 2.750458 -1.891517
v -21.95499 0 -1.891517
v -21.95499 0 -1.891517
v -21.95499 2.750458 -1.891517
v -21.95502 2.750459 -1.355201
v -21.95502 0 -1.355201

vn 0 -1 0
vn 0 -1 0
vn 0 -1 0
vn 0 -1 0
vn 1.788139E-07 1 -3.576279E-07
vn 1.788139E-07 1 -3.576279E-07
vn 1.788139E-07 1 -3.576279E-07
vn 1.788139E-07 1 -3.576279E-07
vn -0.4943848 0 0.8691406
vn -0.4943848 0 0.8691406
vn -0.4943848 0 0.8691406
vn -0.4943848 0 0.8691406
vn 0.8691406 0 0.4943848
vn 0.8691406 0 0.4943848
vn 0.8691406 0 0.4943848
vn 0.8691406 0 0.4943848
vn 0.4943848 0 -0.8691406
vn 0.4943848 0 -0.8691406
vn 0.4943848 0 -0.8691406
vn 0.4943848 0 -0.8691406
vn -0.8691406 0 -0.4943848
vn -0.8691406 0 -0.4943848
vn -0.8691406 0 -0.4943848
vn -0.8691406 0 -0.4943848

vt 1 0
vt 0 0
vt 0 1
vt 1 1
vt 0 0
vt 0 1
vt 1 1
vt 1 0
vt 0 0
vt 0 1
vt 1 1
vt 1 0
vt 0 0
vt 0 1
vt 1 1
vt 1 0
vt 0 0
vt 0 1
vt 1 1
vt 1 0
vt 0 0
vt 0 1
vt 1 1
vt 1 0

g start_gate_532_152
usemtl start_gate_532_152
usemap start_gate_532_152
f 1/1/1 3/3/3 2/2/2
f 1/1/1 4/4/4 3/3/3
f 5/5/5 7/7/7 6/6/6
f 5/5/5 8/8/8 7/7/7
f 9/9/9 11/11/11 10/10/10
f 9/9/9 12/12/12 11/11/11
f 13/13/13 15/15/15 14/14/14
f 13/13/13 16/16/16 15/15/15
f 17/17/17 19/19/19 18/18/18
f 17/17/17 20/20/20 19/19/19
f 21/21/21 23/23/23 22/22/22
f 21/21/21 24/24/24 23/23/23
