#Water_487_0.obj

v -2.602455 -10.06647 9.793529E-06
v 1.042166 -8.108635 7.880224E-06
v -0.602455 -10.06647 9.793529E-06
v -3.951887 -8.066465 7.847795E-06
v 1.843391 -5.747129 5.577771E-06
v -4.078397 -4.397696 4.280615E-06
v -4.078397 -1.82534 1.78359E-06
v 1.126505 -1.277133 1.232298E-06
v -5.30132 3.909747 -3.794182E-06
v 0.409619 5.090502 -4.929193E-06
v 1.846826 7.542621 -7.328932E-06
v -5.032882 5.544783 -5.383198E-06
v -3.885917 7.54587 -7.328932E-06
v -1.043082 7.791382 -7.555935E-06
v 0.494644 7.918219 -7.68565E-06
v 0.292105 8.601987 -8.366657E-06
v -2.395234 7.792149 -7.555935E-06
v -0.753225 8.362405 -8.107226E-06
v -0.975931 8.397878 -8.172084E-06
v -1.429671 8.4402 -8.204513E-06
v 0.277169 8.652405 -8.399086E-06
v 0.27405 8.890715 -0.1735206
v -1.429671 8.772298 -0.2049005
v -0.975931 8.729976 -0.2049005
v -0.753225 8.644849 -0.2049004
v 0.273486 8.933813 -0.2049007
v 0.227449 9.169392 -0.8045601
v -1.429671 9.032893 -0.9071288
v -0.975931 8.997263 -0.9071288
v -0.753225 8.678809 -0.9071286
v 0.224228 9.172724 -0.907129
v 0.145392 9.338686 -1.58869
v -1.429671 9.279544 -1.704007
v -0.975931 9.203999 -1.704007
v -0.753225 8.982007 -1.704007
v 0.13031 9.375839 -1.704007
v -2.117314 8.823856 -0.2049006
v -2.13104 8.755565 -0.1621325
v -2.316059 8.838758 -0.2049006
v -2.104221 8.885154 -0.3727256
v -2.357701 8.506658 -8.26937E-06
v -2.183566 8.494187 -8.236942E-06
v -2.204876 8.423508 -8.172084E-06
v -2.230054 9.057218 -0.9071289
v -2.068064 9.052295 -0.9071289
v -2.056556 9.105411 -1.079867
v -2.197964 9.260709 -1.704007
v -2.021346 9.265039 -1.704007
v 0.395189 9.259112 -0.907129
v 0.459831 8.986259 -0.2049007
v 0.297435 9.450335 -1.704007
v 0.459831 8.703814 -8.463944E-06

vn 0 1 -5.960464E-08
vn 0 1 -5.960464E-08
vn 0 1 -5.960464E-08
vn 0 1 -5.960464E-08
vn 0 1 -5.960464E-08
vn 0 1 -5.960464E-08
vn 0 1 -5.960464E-08
vn 0 1 -5.960464E-08
vn 0 1 -5.960464E-08
vn 0 1 -5.960464E-08
vn 0 1 -5.960464E-08
vn 0 1 -5.960464E-08
vn 0 1 -5.960464E-08
vn 0 1 -5.960464E-08
vn 0 1 -5.960464E-08
vn 0 1 -5.960464E-08
vn 0 1 -5.960464E-08
vn -0.000649929 0.9990234 -0.03277588
vn 0.004493713 0.9990234 -0.03546143
vn 0.002901077 0.9990234 -0.03497314
vn -0.01096344 0.9990234 -0.03948975
vn -0.02462769 0.9956055 -0.08862305
vn 0.01229858 0.9887695 -0.1481934
vn 0.03344727 0.9873047 -0.1539307
vn 0.01006317 0.9858398 -0.1645508
vn -0.04241943 0.9873047 -0.1525879
vn -0.1787109 0.8691406 -0.4604492
vn 0.02096558 0.9384766 -0.34375
vn 0.2087402 0.8994141 -0.3835449
vn 0.1328125 0.8129883 -0.5664063
vn -0.2770996 0.7832031 -0.5556641
vn -0.1568604 0.9291992 -0.3342285
vn 0.02745056 0.9145508 -0.4030762
vn 0.1925049 0.9047852 -0.3786621
vn 0.06469727 0.949707 -0.3061523
vn -0.1337891 0.9428711 -0.3041992
vn 0.01094818 0.9887695 -0.1479492
vn 0.005435944 0.9970703 -0.07513428
vn 0.008613586 0.9887695 -0.1467285
vn 0.01745605 0.940918 -0.3369141
vn 0.002416611 0.9990234 -0.03417969
vn 0.002437592 0.9990234 -0.03448486
vn 0 1 -5.960464E-08
vn 0.006652832 0.925293 -0.3789063
vn 0.01097107 0.9301758 -0.3657227
vn 0.001074791 0.9165039 -0.3991699
vn -0.01051331 0.9003906 -0.4343262
vn -0.01051331 0.9003906 -0.4343262
vn -0.1593018 0.9125977 -0.3752441
vn -0.04440308 0.9858398 -0.15979
vn -0.1635742 0.9248047 -0.3430176
vn -0.01275635 0.9985352 -0.04589844

vt 1.216797 5.351563
vt -0.3181152 4.964844
vt 0.6586914 5.382813
vt 1.520508 4.773438
vt -0.3181152 4.320313
vt 1.520508 3.748047
vt 1.520508 3.029297
vt -0.3181152 3.060547
vt 1.098633 1.410156
vt -0.2165527 1.272461
vt -0.01635742 0.6118164
vt 1.098633 0.9580078
vt 0.9272461 0.4182129
vt 0.4475098 0.4934082
vt 0.08312988 0.388916
vt 0.1238403 0.3322754
vt 0.8339844 0.3757324
vt 0.3730469 0.4069824
vt 0.4458008 0.4074707
vt 0.565918 0.3945313
vt 0.126709 0.326416
vt 0.1275635 0.302002
vt 0.5786133 0.3349609
vt 0.4550781 0.3435059
vt 0.3735352 0.3466797
vt 0.1276855 0.2927246
vt 0.1254883 0.2449951
vt 0.5869141 0.2519531
vt 0.4689941 0.2548828
vt 0.3679199 0.2631836
vt 0.1254883 0.2329102
vt 0.1243896 0.1761475
vt 0.5908203 0.1636963
vt 0.470459 0.1668701
vt 0.3884277 0.1726074
vt 0.1317139 0.163208
vt 0.7768555 0.296875
vt 0.777832 0.3083496
vt 0.8339844 0.2856445
vt 0.7749023 0.2775879
vt 0.8339844 0.3173828
vt 0.7836914 0.3317871
vt 0.7890625 0.3378906
vt 0.8339844 0.2269287
vt 0.7836914 0.2320557
vt 0.78125 0.2132568
vt 0.8339844 0.161377
vt 0.777832 0.1618652
vt 0.08312988 0.2275391
vt 0.08312988 0.282959
vt 0.08312988 0.161377
vt 0.08312988 0.3120117

g Water_487_0
usemtl Water_487_0
usemap Water_487_0
f 1/1/1 3/3/3 2/2/2
f 4/4/4 1/1/1 2/2/2
f 4/4/4 2/2/2 5/5/5
f 6/6/6 4/4/4 5/5/5
f 6/6/6 5/5/5 7/7/7
f 5/5/5 8/8/8 7/7/7
f 7/7/7 8/8/8 9/9/9
f 8/8/8 10/10/10 9/9/9
f 9/9/9 10/10/10 11/11/11
f 12/12/12 9/9/9 11/11/11
f 12/12/12 11/11/11 13/13/13
f 13/13/13 11/11/11 14/14/14
f 11/11/11 15/15/15 14/14/14
f 14/14/14 15/15/15 16/16/16
f 17/17/17 13/13/13 14/14/14
f 18/18/18 14/14/14 16/16/16
f 19/19/19 14/14/14 18/18/18
f 14/14/14 19/19/19 20/20/20
f 18/18/18 16/16/16 21/21/21
f 18/18/18 21/21/21 22/22/22
f 20/20/20 19/19/19 23/23/23
f 19/19/19 24/24/24 23/23/23
f 19/19/19 18/18/18 24/24/24
f 18/18/18 25/25/25 24/24/24
f 25/25/25 18/18/18 22/22/22
f 25/25/25 22/22/22 26/26/26
f 25/25/25 26/26/26 27/27/27
f 23/23/23 24/24/24 28/28/28
f 24/24/24 29/29/29 28/28/28
f 24/24/24 25/25/25 29/29/29
f 25/25/25 30/30/30 29/29/29
f 30/30/30 25/25/25 27/27/27
f 30/30/30 27/27/27 31/31/31
f 30/30/30 31/31/31 32/32/32
f 28/28/28 29/29/29 33/33/33
f 29/29/29 34/34/34 33/33/33
f 29/29/29 30/30/30 34/34/34
f 30/30/30 35/35/35 34/34/34
f 35/35/35 30/30/30 32/32/32
f 35/35/35 32/32/32 36/36/36
f 37/37/37 23/23/23 28/28/28
f 20/20/20 23/23/23 37/37/37
f 20/20/20 37/37/37 38/38/38
f 38/38/38 37/37/37 39/39/39
f 39/39/39 37/37/37 40/40/40
f 37/37/37 28/28/28 40/40/40
f 41/41/41 38/38/38 39/39/39
f 41/41/41 42/42/42 38/38/38
f 42/42/42 20/20/20 38/38/38
f 43/43/43 42/42/42 41/41/41
f 41/41/41 17/17/17 43/43/43
f 44/44/44 39/39/39 40/40/40
f 44/44/44 40/40/40 45/45/45
f 44/44/44 45/45/45 46/46/46
f 45/45/45 33/33/33 46/46/46
f 47/47/47 44/44/44 46/46/46
f 47/47/47 46/46/46 48/48/48
f 14/14/14 42/42/42 43/43/43
f 14/14/14 20/20/20 42/42/42
f 17/17/17 14/14/14 43/43/43
f 45/45/45 40/40/40 28/28/28
f 45/45/45 28/28/28 33/33/33
f 48/48/48 46/46/46 33/33/33
f 26/26/26 49/49/49 27/27/27
f 26/26/26 50/50/50 49/49/49
f 26/26/26 22/22/22 50/50/50
f 31/31/31 27/27/27 49/49/49
f 31/31/31 49/49/49 51/51/51
f 31/31/31 51/51/51 32/32/32
f 36/36/36 32/32/32 51/51/51
f 21/21/21 50/50/50 22/22/22
f 21/21/21 52/52/52 50/50/50
f 21/21/21 16/16/16 52/52/52
f 15/15/15 52/52/52 16/16/16
